<svg width="178" height="178" viewBox="0 0 178 178" fill="none" xmlns="http://www.w3.org/2000/svg">
<rect width="178" height="178" rx="32" fill="#F5F5F5"/>
<path d="M45.9542 98.04L42.7966 100.206V108.23H38.8983L35 100.206L36.9492 96.1946L45.9542 98.04Z" fill="#898890"/>
<path d="M144.152 102.212H99.3219V148.348H144.152V102.212Z" fill="#E0E0E2"/>
<path d="M60.339 58.0823L52.5424 108.23H83.7288L75.9322 58.0823H60.339Z" fill="#C6C5CA"/>
<path d="M99.3221 102.212H77.8815V124.277H99.3221V102.212Z" fill="#ACABB1"/>
<path d="M85.6779 124.277H48.644V148.348H85.6779V124.277Z" fill="#787680"/>
<path d="M128.559 132.301H114.915V148.348H128.559V132.301Z" fill="#C0AB91"/>
<path d="M136.356 110.236H128.559V118.259H136.356V110.236Z" fill="#BDFDFF"/>
<path d="M114.915 110.236H107.119V118.259H114.915V110.236Z" fill="#BDFDFF"/>
<path d="M136.356 110.236H128.559V118.259C128.559 116.131 129.381 114.091 130.843 112.586C132.305 111.081 134.288 110.236 136.356 110.236ZM114.915 110.236H107.119V118.259C107.119 116.131 107.94 114.091 109.402 112.586C110.864 111.081 112.847 110.236 114.915 110.236Z" fill="white"/>
<path d="M77.8813 50.0588L75.9321 58.0824H72.0338H66.1864H60.3389L58.3898 50.0588H77.8813Z" fill="#898890"/>
<path d="M56.4407 100.206L52.5424 98.2003L54.7254 96.5153L60.339 92.1826L69.8118 99.9855L66.1864 102.212L68.1356 108.23H56.4407V100.206Z" fill="#3E3D42"/>
<path d="M45.9543 98.04L48.6441 96.1946L52.5424 98.2005L56.4407 100.206V108.23H42.7966V100.206L45.9543 98.04Z" fill="#ACABB1"/>
<path d="M81.7796 108.23L80.844 116.374L79.8305 116.254H35.9161L35 108.23H81.7796Z" fill="#B39A7C"/>
<path d="M99.322 124.277H85.678V148.348H99.322V124.277Z" fill="#898890"/>
<path d="M112.966 88.1709V102.212H81.7797L83.0856 100.968L84.1381 99.9655L96.5542 88.1709H112.966Z" fill="#787680"/>
<path d="M112.966 78.1414V88.1708H96.5542L107.119 78.1414H112.966Z" fill="#D8D7DA"/>
<path d="M138.305 78.1414H130.508L121.84 88.1708H138.305V78.1414Z" fill="#ACABB1"/>
<path d="M138.305 88.1709V102.212H112.966V98.4411L121.835 88.1709H138.305Z" fill="#C6C5CA"/>
<path d="M122.712 138.318H118.814V142.33H122.712V138.318Z" fill="#E0E0E2"/>
<path d="M72.0338 36.0177V30H68.1355V34.0118H64.2372C63.7203 34.0118 63.2245 34.2231 62.859 34.5993C62.4934 34.9755 62.2881 35.4857 62.2881 36.0177V46.0471H66.1864V38.0236H70.0847C70.6016 38.0236 71.0974 37.8122 71.463 37.4361C71.8285 37.0599 72.0338 36.5497 72.0338 36.0177ZM75.9321 40.0295H72.0338C71.5169 40.0295 71.0211 40.2408 70.6556 40.617C70.29 40.9931 70.0847 41.5034 70.0847 42.0353V46.0471H73.983V44.0412H77.8813C78.3982 44.0412 78.894 43.8299 79.2596 43.4537C79.6251 43.0776 79.8304 42.5673 79.8304 42.0353V38.0236H75.9321V40.0295Z" fill="#E0E0E2"/>
<path d="M79.8304 30H75.9321V34.0118H79.8304V30Z" fill="#E0E0E2"/>
<path d="M99.3221 130.295H93.4746V134.306H99.3221V130.295Z" fill="#ACABB1"/>
<path d="M99.3221 138.318H93.4746V142.33H99.3221V138.318Z" fill="#ACABB1"/>
<path d="M68.1355 58.0823H64.2372V64.1H68.1355V58.0823Z" fill="#D8D7DA"/>
<path d="M73.983 58.0823H70.0847V68.1117H73.983V58.0823Z" fill="#D8D7DA"/>
<path d="M81.7796 102.212V108.23H68.1356L66.1864 102.212L69.8118 99.9857L75.9322 96.1946L81.7796 102.212Z" fill="#57565C"/>
<path d="M81.7796 108.23L80.8635 116.254H35.9161L35 108.23H81.7796Z" fill="#B39A7C"/>
<path d="M80.8635 116.253L77.8812 142.33H38.8982L35.916 116.253H80.8635Z" fill="#D9CCBC"/>
<path d="M80.8635 116.253H35.916L36.3741 120.265H80.4054L80.8635 116.253Z" fill="#957856"/>
<path d="M77.8813 142.33H52.5424V144.336H77.8813V142.33Z" fill="#57565C"/>
<path d="M48.6441 148.348C51.8735 148.348 54.4915 145.653 54.4915 142.33C54.4915 139.006 51.8735 136.312 48.6441 136.312C45.4146 136.312 42.7966 139.006 42.7966 142.33C42.7966 145.653 45.4146 148.348 48.6441 148.348Z" fill="#ACABB1"/>
<path d="M68.1355 148.348C71.365 148.348 73.983 145.653 73.983 142.33C73.983 139.006 71.365 136.312 68.1355 136.312C64.9061 136.312 62.2881 139.006 62.2881 142.33C62.2881 145.653 64.9061 148.348 68.1355 148.348Z" fill="#ACABB1"/>
<path d="M48.6441 144.336C49.7206 144.336 50.5932 143.438 50.5932 142.33C50.5932 141.222 49.7206 140.324 48.6441 140.324C47.5676 140.324 46.6949 141.222 46.6949 142.33C46.6949 143.438 47.5676 144.336 48.6441 144.336Z" fill="#787680"/>
<path d="M68.1356 144.336C69.212 144.336 70.0847 143.438 70.0847 142.33C70.0847 141.222 69.212 140.324 68.1356 140.324C67.0591 140.324 66.1864 141.222 66.1864 142.33C66.1864 143.438 67.0591 144.336 68.1356 144.336Z" fill="#787680"/>
<path d="M52.5424 110.236H40.8475C39.771 110.236 38.8983 111.134 38.8983 112.242C38.8983 113.35 39.771 114.248 40.8475 114.248H52.5424C53.6189 114.248 54.4915 113.35 54.4915 112.242C54.4915 111.134 53.6189 110.236 52.5424 110.236Z" fill="#C0AB91"/>
</svg>
