<svg width="1440" height="755" viewBox="0 0 1440 755" fill="none" xmlns="http://www.w3.org/2000/svg">
<rect width="1440" height="745.125" fill="#00AA13"/>
<mask id="mask0_118_15" style="mask-type:alpha" maskUnits="userSpaceOnUse" x="0" y="340" width="989" height="415">
<path d="M0 412.244C0 372.479 32.2355 340.244 72 340.244H917C956.764 340.244 989 372.479 989 412.244V755H0V412.244Z" fill="#00AA13"/>
</mask>
<g mask="url(#mask0_118_15)">
<path opacity="0.2" d="M-55 603.731C43.3333 526.675 304.4 399.046 562 504.979C884 637.396 809.5 895.048 1182 880.684" stroke="#F5F5F5" stroke-width="156" stroke-linecap="round"/>
</g>
<mask id="mask1_118_15" style="mask-type:alpha" maskUnits="userSpaceOnUse" x="0" y="502" width="1440" height="244">
<rect y="502.735" width="1440" height="242.39" fill="#00AA13"/>
</mask>
<g mask="url(#mask1_118_15)">
<mask id="mask2_118_15" style="mask-type:alpha" maskUnits="userSpaceOnUse" x="0" y="548" width="1440" height="251">
<rect y="548.52" width="1440" height="250.47" fill="#00AA13"/>
</mask>
<g mask="url(#mask2_118_15)">
<path d="M594.565 697.45H588.803V788.946H594.565V697.45Z" fill="#618080"/>
<g style="mix-blend-mode:multiply" opacity="0.7">
<path d="M594.565 697.45H588.803V704.457H594.565V697.45Z" fill="#618080"/>
</g>
<path d="M761.256 697.45H755.495V788.946H761.256V697.45Z" fill="#618080"/>
<g style="mix-blend-mode:multiply" opacity="0.7">
<path d="M761.256 697.45H755.495V704.457H761.256V697.45Z" fill="#618080"/>
</g>
<path d="M927.948 697.45H922.187V788.946H927.948V697.45Z" fill="#618080"/>
<g style="mix-blend-mode:multiply" opacity="0.7">
<path d="M927.948 697.45H922.187V704.457H927.948V697.45Z" fill="#618080"/>
</g>
<path d="M1094.66 697.45H1088.9V788.946H1094.66V697.45Z" fill="#618080"/>
<g style="mix-blend-mode:multiply" opacity="0.7">
<path d="M1094.66 697.45H1088.9V704.457H1094.66V697.45Z" fill="#618080"/>
</g>
<path d="M1261.35 697.45H1255.59V788.946H1261.35V697.45Z" fill="#618080"/>
<g style="mix-blend-mode:multiply" opacity="0.7">
<path d="M1261.35 697.45H1255.59V704.457H1261.35V697.45Z" fill="#618080"/>
</g>
<path d="M1284.49 688.681H168V700.532H1284.49V688.681Z" fill="#618080"/>
<path d="M772.131 681.597C772.211 682.78 772.052 683.965 771.662 685.101C770.953 687.315 769.41 689.267 767.274 690.652C765.138 692.037 762.527 692.778 759.849 692.759H209.689V648.725H698.71C708.665 648.989 718.508 650.605 727.873 653.511C743.504 658.125 759.492 665.764 769.004 675.107C770.867 676.908 771.968 679.194 772.131 681.597Z" fill="#6AA9C6"/>
<path d="M741.74 685.101H735.421C734.876 685.101 734.353 684.916 733.968 684.585C733.583 684.255 733.366 683.807 733.366 683.34C733.366 682.873 733.583 682.425 733.968 682.094C734.353 681.764 734.876 681.579 735.421 681.579H741.74C742.285 681.579 742.807 681.764 743.193 682.094C743.578 682.425 743.794 682.873 743.794 683.34C743.794 683.807 743.578 684.255 743.193 684.585C742.807 684.916 742.285 685.101 741.74 685.101Z" fill="white"/>
<path d="M772.131 681.598C772.211 682.78 772.052 683.965 771.662 685.101H765.588C765.043 685.101 764.521 684.916 764.135 684.585C763.75 684.255 763.534 683.807 763.534 683.34C763.534 682.873 763.75 682.425 764.135 682.094C764.521 681.764 765.043 681.579 765.588 681.579H772.131V681.598Z" fill="white"/>
<path d="M738.324 656.996H662.626L673.523 677.041H770.613C770.172 676.353 769.64 675.71 769.027 675.126C761.636 667.813 750.359 661.591 738.324 656.996Z" fill="#427587"/>
<path d="M730.374 683.34C730.063 685.924 728.638 688.316 726.38 690.047C724.121 691.779 721.19 692.725 718.16 692.702H168V648.668H657.021C675.934 648.668 704.874 657.456 722.023 670.513L723.809 671.929C725.04 672.917 726.21 673.959 727.315 675.05C728.493 676.161 729.376 677.477 729.904 678.908C730.432 680.339 730.592 681.851 730.374 683.34Z" fill="#91DAFF"/>
<g style="mix-blend-mode:multiply" opacity="0.5">
<path d="M718.16 692.702H168V671.968H723.854C725.085 672.955 726.255 673.997 727.36 675.088C728.937 676.612 729.967 678.494 730.328 680.508C730.689 682.522 730.364 684.582 729.392 686.442C728.421 688.301 726.845 689.881 724.852 690.992C722.86 692.102 720.536 692.696 718.16 692.702Z" fill="#6AA9C6"/>
</g>
<path d="M730.128 679.664C729.657 677.967 728.706 676.396 727.36 675.088C726.255 673.997 725.085 672.955 723.854 671.968L722.067 670.551H168V679.664H730.128Z" fill="#C9E9F7"/>
<path d="M680.712 656.996H644.985V677.041H715.681C715.198 676.347 714.62 675.704 713.961 675.126C705.945 667.813 693.753 661.591 680.712 656.996Z" fill="#5089A0"/>
<path d="M627.68 656.996H588.781V677.041H627.68V656.996Z" fill="#5089A0"/>
<path d="M565.737 656.996H526.839V677.041H565.737V656.996Z" fill="#5089A0"/>
<path d="M503.772 656.996H464.874V677.041H503.772V656.996Z" fill="#5089A0"/>
<path d="M441.807 656.996H402.909V692.702H441.807V656.996Z" fill="#6AA9C6"/>
<path d="M379.842 656.996H340.944V677.041H379.842V656.996Z" fill="#5089A0"/>
<path d="M317.877 656.996H278.979V677.041H317.877V656.996Z" fill="#5089A0"/>
<path d="M255.912 656.996H217.014V677.041H255.912V656.996Z" fill="#5089A0"/>
<path d="M193.947 656.996H168V692.702H193.947V656.996Z" fill="#6AA9C6"/>
<g style="mix-blend-mode:multiply" opacity="0.5">
<path d="M441.807 656.996H422.358V692.702H441.807V656.996Z" fill="#6AA9C6"/>
</g>
<g style="mix-blend-mode:multiply" opacity="0.5">
<path d="M193.947 656.996H174.498V692.702H193.947V656.996Z" fill="#6AA9C6"/>
</g>
<path d="M221.636 669.632V671.393L218.823 673.652V694.617H214.446V658.604H218.823V671.317L221.636 669.632Z" fill="#A67C52"/>
<g style="mix-blend-mode:multiply" opacity="0.5">
<path d="M218.822 658.604V669.038C217.311 668.926 215.815 668.689 214.356 668.33V658.585H218.822V658.604Z" fill="#A67C52"/>
</g>
<path d="M255.756 658.393H252.607V693.984H255.756V658.393Z" fill="#8C6239"/>
<g style="mix-blend-mode:multiply" opacity="0.5">
<path d="M255.756 658.393H252.607V680.659H255.756V658.393Z" fill="#8C6239"/>
</g>
<path d="M243.753 681.863V682.782L242.278 683.971V694.954H239.971V676.08H242.278V682.75L243.753 681.863Z" fill="#8C6239"/>
<g style="mix-blend-mode:multiply" opacity="0.5">
<path d="M242.278 676.08V681.55C241.501 681.49 240.733 681.367 239.983 681.182V676.08H242.278Z" fill="#8C6239"/>
</g>
<path d="M241.118 680.955C248.36 680.955 254.23 675.922 254.23 669.713C254.23 663.504 248.36 658.471 241.118 658.471C233.877 658.471 228.006 663.504 228.006 669.713C228.006 675.922 233.877 680.955 241.118 680.955Z" fill="#425E0B"/>
<path d="M294.499 672.21V673.41L292.582 674.956V689.257H289.582V664.687H292.582V673.367L294.499 672.21Z" fill="#8C6239"/>
<g style="mix-blend-mode:multiply" opacity="0.5">
<path d="M292.582 664.687V671.81C291.571 671.733 290.571 671.574 289.594 671.335V664.687H292.582Z" fill="#8C6239"/>
</g>
<path d="M291.082 671.032C300.51 671.032 308.153 664.479 308.153 656.396C308.153 648.312 300.51 641.76 291.082 641.76C281.654 641.76 274.012 648.312 274.012 656.396C274.012 664.479 281.654 671.032 291.082 671.032Z" fill="#425E0B"/>
<path d="M157.139 696.662H178.635L178.635 577.713H157.139L157.139 696.662Z" fill="#92539B"/>
<path d="M157.152 577.723H99.6365V696.673H157.152V577.723Z" fill="#C67ECD"/>
<g style="mix-blend-mode:screen" opacity="0.5">
<path d="M112.219 588.479H108.361V591.787H112.219V588.479Z" fill="white"/>
<path d="M121.031 588.479H117.173V591.787H121.031V588.479Z" fill="white"/>
<path d="M129.844 588.479H125.986V591.787H129.844V588.479Z" fill="white"/>
<path d="M138.656 588.479H134.799V591.787H138.656V588.479Z" fill="white"/>
<path d="M147.469 588.479H143.611V591.787H147.469V588.479Z" fill="white"/>
<path d="M112.219 597.127H108.361V600.434H112.219V597.127Z" fill="white"/>
<path d="M121.031 597.127H117.173V600.434H121.031V597.127Z" fill="white"/>
<path d="M129.844 597.127H125.986V600.434H129.844V597.127Z" fill="white"/>
<path d="M138.656 597.127H134.799V600.434H138.656V597.127Z" fill="white"/>
<path d="M147.469 597.127H143.611V600.434H147.469V597.127Z" fill="white"/>
<path d="M112.219 605.764H108.361V609.071H112.219V605.764Z" fill="white"/>
<path d="M121.031 605.764H117.173V609.071H121.031V605.764Z" fill="white"/>
<path d="M129.844 605.764H125.986V609.071H129.844V605.764Z" fill="white"/>
<path d="M138.656 605.764H134.799V609.071H138.656V605.764Z" fill="white"/>
<path d="M147.469 605.764H143.611V609.071H147.469V605.764Z" fill="white"/>
<path d="M112.219 614.411H108.361V617.719H112.219V614.411Z" fill="white"/>
<path d="M121.031 614.411H117.173V617.719H121.031V614.411Z" fill="white"/>
<path d="M129.844 614.411H125.986V617.719H129.844V614.411Z" fill="white"/>
<path d="M138.656 614.411H134.799V617.719H138.656V614.411Z" fill="white"/>
<path d="M147.469 614.411H143.611V617.719H147.469V614.411Z" fill="white"/>
<path d="M112.219 623.048H108.361V626.356H112.219V623.048Z" fill="white"/>
<path d="M121.031 623.048H117.173V626.356H121.031V623.048Z" fill="white"/>
<path d="M129.844 623.048H125.986V626.356H129.844V623.048Z" fill="white"/>
<path d="M138.656 623.048H134.799V626.356H138.656V623.048Z" fill="white"/>
<path d="M147.469 623.048H143.611V626.356H147.469V623.048Z" fill="white"/>
<path d="M112.219 631.696H108.361V635.004H112.219V631.696Z" fill="white"/>
<path d="M121.031 631.696H117.173V635.004H121.031V631.696Z" fill="white"/>
<path d="M129.844 631.696H125.986V635.004H129.844V631.696Z" fill="white"/>
<path d="M138.656 631.696H134.799V635.004H138.656V631.696Z" fill="white"/>
<path d="M147.469 631.696H143.611V635.004H147.469V631.696Z" fill="white"/>
<path d="M112.219 640.344H108.361V643.651H112.219V640.344Z" fill="white"/>
<path d="M121.031 640.344H117.173V643.651H121.031V640.344Z" fill="white"/>
<path d="M129.844 640.344H125.986V643.651H129.844V640.344Z" fill="white"/>
<path d="M138.656 640.344H134.799V643.651H138.656V640.344Z" fill="white"/>
<path d="M147.469 640.344H143.611V643.651H147.469V640.344Z" fill="white"/>
<path d="M112.219 648.98H108.361V652.288H112.219V648.98Z" fill="white"/>
<path d="M121.031 648.98H117.173V652.288H121.031V648.98Z" fill="white"/>
<path d="M129.844 648.98H125.986V652.288H129.844V648.98Z" fill="white"/>
<path d="M138.656 648.98H134.799V652.288H138.656V648.98Z" fill="white"/>
<path d="M147.469 648.98H143.611V652.288H147.469V648.98Z" fill="white"/>
<path d="M112.219 657.628H108.361V660.936H112.219V657.628Z" fill="white"/>
<path d="M121.031 657.628H117.173V660.936H121.031V657.628Z" fill="white"/>
<path d="M129.844 657.628H125.986V660.936H129.844V657.628Z" fill="white"/>
<path d="M138.656 657.628H134.799V660.936H138.656V657.628Z" fill="white"/>
<path d="M147.469 657.628H143.611V660.936H147.469V657.628Z" fill="white"/>
</g>
<path d="M225.384 662.19H222.131V713.849H225.384V662.19Z" fill="#618080"/>
<g style="mix-blend-mode:multiply" opacity="0.7">
<path d="M225.384 662.19H222.131V666.146H225.384V662.19Z" fill="#618080"/>
</g>
<path d="M209.108 639.349H187.145V650.667H209.108V639.349Z" fill="#5089A0"/>
<path d="M174.122 639.349H152.159V650.667H174.122V639.349Z" fill="#5089A0"/>
<path d="M139.136 639.349H117.173V659.509H139.136V639.349Z" fill="#6AA9C6"/>
<g style="mix-blend-mode:multiply" opacity="0.5">
<path d="M139.136 639.349H128.155V659.509H139.136V639.349Z" fill="#6AA9C6"/>
</g>
<path d="M20.4103 722.421H17.9771V749.986H20.4103V722.421Z" fill="#8C6239"/>
<g style="mix-blend-mode:multiply" opacity="0.5">
<path d="M20.4103 722.421H17.9771V739.663H20.4103V722.421Z" fill="#8C6239"/>
</g>
<path d="M32.8919 718.324C32.8919 718.324 35.6529 717.492 34.2787 714.119C32.9045 710.747 24.8861 698.413 24.8861 698.413C26.2944 697.734 27.3356 696.608 27.7858 695.278C28.4792 693.116 19.2127 676.372 19.2127 676.372C19.2127 676.372 9.94611 693.084 10.6395 695.278C11.0897 696.608 12.131 697.734 13.5393 698.413C13.5393 698.413 5.52086 710.736 4.13402 714.119C2.74719 717.503 5.52086 718.324 5.52086 718.324C5.52086 718.324 -0.972038 733.025 0.12482 735.62C1.22168 738.214 7.5885 737.987 11.3203 737.987H27.0798C30.8621 737.987 37.1658 738.225 38.2753 735.62C39.3848 733.015 32.8919 718.324 32.8919 718.324Z" fill="#557A15"/>
<path d="M108.361 757.552H91.5675H39.99V732.507V691.289H91.5675L108.361 707.471V732.507V757.552Z" fill="#378C7C"/>
<path d="M108.348 707.471H39.99V691.289H91.5675L108.348 707.471Z" fill="#8CE5D4"/>
<path d="M56.7705 757.552H39.9898H23.1965V732.507V707.471L39.9898 691.289L56.7705 707.471V732.507V757.552Z" fill="#67CBBB"/>
<path d="M48.0715 718.908H31.896V750.678H48.0715V718.908Z" fill="#378C7C"/>
<g style="mix-blend-mode:screen" opacity="0.3">
<path d="M72.782 718.908H63.5659V731.393H72.782V718.908Z" fill="#67CBBB"/>
</g>
<g style="mix-blend-mode:screen" opacity="0.3">
<path d="M87.4954 718.908H78.2793V731.393H87.4954V718.908Z" fill="#67CBBB"/>
</g>
<g style="mix-blend-mode:screen" opacity="0.3">
<path d="M102.196 718.908H92.9795V731.393H102.196V718.908Z" fill="#67CBBB"/>
</g>
<path d="M118.434 746.418C118.749 746.036 118.881 745.565 118.804 745.102C118.727 744.638 118.447 744.218 118.021 743.925C117.595 743.633 117.055 743.491 116.511 743.529C115.967 743.566 115.46 743.78 115.093 744.127C114.305 743.406 113.278 742.91 112.151 742.705C111.024 742.5 109.851 742.597 108.79 742.981C108.347 741.885 107.587 740.904 106.581 740.129C105.575 739.354 104.357 738.81 103.039 738.549C101.721 738.287 100.348 738.317 99.0473 738.634C97.7466 738.952 96.5612 739.548 95.6021 740.365C95.3516 740.031 94.9817 739.776 94.5478 739.637C94.1138 739.498 93.6391 739.484 93.1948 739.596C92.7505 739.708 92.3604 739.94 92.083 740.258C91.8055 740.576 91.6557 740.962 91.6559 741.36C91.6518 741.424 91.6518 741.489 91.6559 741.554H91.2777C89.7624 741.557 88.3088 742.069 87.2291 742.98C86.1494 743.892 85.5298 745.13 85.5034 746.429H118.434V746.418Z" fill="#425E0B"/>
<path d="M180.892 750.677H209.108L209.108 604.964H180.892L180.892 750.677Z" fill="#F7931E"/>
<path d="M180.892 604.942V750.656H105.386V669.702C105.382 661.199 107.333 652.778 111.126 644.921C114.919 637.064 120.48 629.925 127.492 623.911C134.504 617.897 142.829 613.127 151.991 609.872C161.154 606.617 170.974 604.942 180.892 604.942Z" fill="#FBD03B"/>
<g style="mix-blend-mode:screen" opacity="0.5">
<path d="M171.474 661.422H121.019V668.449H171.474V661.422Z" fill="white"/>
</g>
<g style="mix-blend-mode:screen" opacity="0.5">
<path d="M171.474 677.096H121.019V684.122H171.474V677.096Z" fill="white"/>
</g>
<g style="mix-blend-mode:screen" opacity="0.5">
<path d="M171.474 692.77H121.019V699.796H171.474V692.77Z" fill="white"/>
</g>
<g style="mix-blend-mode:screen" opacity="0.5">
<path d="M171.474 708.433H121.019V715.46H171.474V708.433Z" fill="white"/>
</g>
<path d="M171.487 722.421H121.031V750.678H171.487V722.421Z" fill="#F7931E"/>
<g style="mix-blend-mode:multiply" opacity="0.5">
<path d="M171.487 722.421H147.469V750.678H171.487V722.421Z" fill="#F7931E"/>
</g>
<g style="mix-blend-mode:multiply" opacity="0.7">
<path d="M200.585 661.422H192.39V668.449H200.585V661.422Z" fill="#F7931E"/>
</g>
<g style="mix-blend-mode:multiply" opacity="0.7">
<path d="M200.585 677.096H192.39V684.122H200.585V677.096Z" fill="#F7931E"/>
</g>
<g style="mix-blend-mode:multiply" opacity="0.7">
<path d="M200.585 692.77H192.39V699.796H200.585V692.77Z" fill="#F7931E"/>
</g>
<g style="mix-blend-mode:multiply" opacity="0.7">
<path d="M200.585 708.433H192.39V715.46H200.585V708.433Z" fill="#F7931E"/>
</g>
<path d="M263.799 718.8H261.038V749.986H263.799V718.8Z" fill="#8C6239"/>
<g style="mix-blend-mode:multiply" opacity="0.5">
<path d="M263.799 718.8H261.038V738.3H263.799V718.8Z" fill="#8C6239"/>
</g>
<path d="M277.894 714.119C277.894 714.119 281.021 713.179 279.458 709.363C277.894 705.547 268.83 691.603 268.83 691.603C270.424 690.832 271.602 689.555 272.108 688.046C272.889 685.571 262.412 666.665 262.412 666.665C262.412 666.665 251.936 685.571 252.717 688.046C253.223 689.555 254.4 690.832 255.995 691.603C255.995 691.603 246.93 705.547 245.367 709.363C243.804 713.179 246.93 714.119 246.93 714.119C246.93 714.119 239.58 730.745 240.828 733.696C242.076 736.647 249.275 736.376 253.436 736.376H271.263C275.486 736.376 282.673 736.647 283.87 733.696C285.068 730.745 277.894 714.119 277.894 714.119Z" fill="#425E0B"/>
<path d="M225.384 726.367H223.758V747.629H225.384V726.367Z" fill="#808080"/>
<g style="mix-blend-mode:multiply" opacity="0.5">
<path d="M225.346 726.367V732.366C224.792 732.236 224.237 732.085 223.72 731.923V726.367H225.346Z" fill="#666666"/>
</g>
<path d="M224.565 731.144C222.321 731.144 220.169 730.38 218.583 729.02C216.996 727.66 216.105 725.815 216.105 723.891C216.105 721.968 216.996 720.123 218.583 718.762C220.169 717.402 222.321 716.638 224.565 716.638C225.676 716.638 226.776 716.826 227.802 717.19C228.828 717.555 229.761 718.089 230.547 718.762C231.332 719.436 231.955 720.235 232.38 721.115C232.806 721.995 233.024 722.939 233.024 723.891C233.024 725.815 232.133 727.66 230.547 729.02C228.96 730.38 226.808 731.144 224.565 731.144Z" fill="#0071BC"/>
<path d="M8.88712 726.367H7.26074V747.629H8.88712V726.367Z" fill="#808080"/>
<g style="mix-blend-mode:multiply" opacity="0.5">
<path d="M8.88712 726.367V732.366C8.33238 732.236 7.77765 732.085 7.26074 731.923V726.367H8.88712Z" fill="#666666"/>
</g>
<path d="M298.609 729.523V730.961L296.302 732.82V749.986H292.708V720.497H296.302V730.907L298.609 729.523Z" fill="#A67C52"/>
<g style="mix-blend-mode:multiply" opacity="0.5">
<path d="M296.302 720.497V729.047C295.085 728.954 293.882 728.763 292.708 728.475V720.497H296.302Z" fill="#A67C52"/>
</g>
<path d="M294.499 728.129C305.82 728.129 314.999 720.259 314.999 710.552C314.999 700.845 305.82 692.976 294.499 692.976C283.177 692.976 273.999 700.845 273.999 710.552C273.999 720.259 283.177 728.129 294.499 728.129Z" fill="#557A15"/>
<path d="M219.295 746.418C219.609 746.036 219.741 745.565 219.664 745.102C219.587 744.638 219.307 744.218 218.881 743.925C218.455 743.633 217.915 743.491 217.371 743.529C216.827 743.566 216.32 743.78 215.954 744.127C215.165 743.406 214.139 742.91 213.012 742.705C211.884 742.5 210.711 742.597 209.65 742.981C209.207 741.885 208.447 740.904 207.441 740.129C206.435 739.354 205.217 738.81 203.899 738.549C202.582 738.287 201.208 738.317 199.907 738.634C198.607 738.952 197.421 739.548 196.462 740.365C196.217 739.994 195.828 739.708 195.362 739.559C194.896 739.409 194.384 739.405 193.914 739.546C193.445 739.688 193.049 739.967 192.796 740.334C192.542 740.701 192.448 741.133 192.529 741.554H192.15C190.635 741.557 189.182 742.069 188.102 742.98C187.022 743.892 186.403 745.13 186.376 746.429H219.295V746.418Z" fill="#425E0B"/>
<path d="M1221.49 650.418H1219.03V678.279H1221.49V650.418Z" fill="#8C6239"/>
<g style="mix-blend-mode:multiply" opacity="0.5">
<path d="M1221.49 650.418H1219.03V667.843H1221.49V650.418Z" fill="#8C6239"/>
</g>
<path d="M1234.14 646.272C1234.14 646.272 1236.9 645.431 1235.52 642.019C1234.14 638.607 1226.02 626.146 1226.02 626.146C1227.44 625.458 1228.49 624.318 1228.95 622.971C1229.65 620.756 1220.28 603.864 1220.28 603.864C1220.28 603.864 1210.93 620.756 1211.62 622.971C1212.07 624.318 1213.13 625.458 1214.55 626.146C1214.55 626.146 1206.45 638.596 1205.04 642.019C1203.64 645.442 1206.43 646.272 1206.43 646.272C1206.43 646.272 1199.86 661.126 1200.98 663.756C1202.1 666.386 1208.53 666.125 1212.3 666.125H1228.23C1232 666.125 1238.42 666.362 1239.54 663.756C1240.66 661.15 1234.14 646.272 1234.14 646.272Z" fill="#425E0B"/>
<path d="M1172.73 659.255H1170.28V686.867H1172.73V659.255Z" fill="#8C6239"/>
<g style="mix-blend-mode:multiply" opacity="0.5">
<path d="M1172.73 659.255H1170.28V676.526H1172.73V659.255Z" fill="#8C6239"/>
</g>
<path d="M1185.2 655.156C1185.2 655.156 1187.97 654.327 1186.59 650.939C1185.2 647.551 1177.16 635.208 1177.16 635.208C1178.58 634.525 1179.62 633.393 1180.07 632.057C1180.76 629.865 1171.49 613.104 1171.49 613.104C1171.49 613.104 1162.2 629.842 1162.91 632.057C1163.35 633.393 1164.39 634.525 1165.81 635.208C1165.81 635.208 1157.78 647.551 1156.38 650.939C1154.99 654.327 1157.77 655.156 1157.77 655.156C1157.77 655.156 1151.24 669.868 1152.39 672.498C1153.54 675.128 1159.87 674.867 1163.61 674.867H1179.4C1183.15 674.867 1189.52 675.104 1190.62 672.498C1191.73 669.892 1185.2 655.156 1185.2 655.156Z" fill="#425E0B"/>
<path d="M1033.26 676.241V677.248L1031.64 678.551V690.587H1029.11V669.904H1031.64V677.213L1033.26 676.241Z" fill="#8C6239"/>
<g style="mix-blend-mode:multiply" opacity="0.5">
<path d="M1031.64 669.904V675.898C1030.79 675.832 1029.95 675.697 1029.12 675.495V669.904H1031.64Z" fill="#8C6239"/>
</g>
<path d="M1030.37 675.246C1038.3 675.246 1044.74 669.731 1044.74 662.927C1044.74 656.123 1038.3 650.607 1030.37 650.607C1022.43 650.607 1016 656.123 1016 662.927C1016 669.731 1022.43 675.246 1030.37 675.246Z" fill="#425E0B"/>
<path d="M1088.87 665.663V666.978L1086.77 668.672V684.344H1083.48V657.418H1086.77V666.931L1088.87 665.663Z" fill="#8C6239"/>
<g style="mix-blend-mode:multiply" opacity="0.5">
<path d="M1086.77 657.418V665.225C1085.66 665.14 1084.56 664.966 1083.49 664.704V657.418H1086.77Z" fill="#8C6239"/>
</g>
<path d="M1085.12 664.372C1095.45 664.372 1103.83 657.191 1103.83 648.333C1103.83 639.475 1095.45 632.294 1085.12 632.294C1074.79 632.294 1066.41 639.475 1066.41 648.333C1066.41 657.191 1074.79 664.372 1085.12 664.372Z" fill="#425E0B"/>
<path d="M1393.7 673.505V674.82L1391.6 676.514V692.186H1388.31V665.272H1391.6V674.773L1393.7 673.505Z" fill="#8C6239"/>
<g style="mix-blend-mode:multiply" opacity="0.5">
<path d="M1391.64 665.272V673.079C1390.54 672.994 1389.44 672.82 1388.37 672.558V665.272H1391.64Z" fill="#8C6239"/>
</g>
<path d="M1389.96 672.226C1400.29 672.226 1408.67 665.045 1408.67 656.187C1408.67 647.329 1400.29 640.148 1389.96 640.148C1379.63 640.148 1371.25 647.329 1371.25 656.187C1371.25 665.045 1379.63 672.226 1389.96 672.226Z" fill="#425E0B"/>
<path d="M1440 698.121H1430.34H1400.67V683.716V660.001H1430.34L1440 669.3V683.716V698.121Z" fill="#0071BC"/>
<path d="M1440 669.312H1400.67V660.001H1430.34L1440 669.312Z" fill="#69CBED"/>
<path d="M1410.31 669.3V698.121H1391.01V669.3L1400.67 660.001L1410.31 669.3Z" fill="#29ABE2"/>
<path d="M1404.67 674.441H1396.65V698.121H1404.67V674.441Z" fill="#0071BC"/>
<g style="mix-blend-mode:screen" opacity="0.3">
<path d="M1421.25 674.441H1415.28V685.386H1421.25V674.441Z" fill="white"/>
</g>
<g style="mix-blend-mode:screen" opacity="0.3">
<path d="M1428.74 674.441H1422.77V685.386H1428.74V674.441Z" fill="white"/>
</g>
<g style="mix-blend-mode:screen" opacity="0.3">
<path d="M1436.23 674.441H1430.26V685.386H1436.23V674.441Z" fill="white"/>
</g>
<path d="M1219.4 654.682H1215.83V711.293H1219.4V654.682Z" fill="#618080"/>
<g style="mix-blend-mode:multiply" opacity="0.7">
<path d="M1219.4 654.682H1215.83V659.018H1219.4V654.682Z" fill="#618080"/>
</g>
<path d="M1322.55 654.682H1318.99V711.293H1322.55V654.682Z" fill="#618080"/>
<g style="mix-blend-mode:multiply" opacity="0.7">
<path d="M1322.55 654.682H1318.99V659.018H1322.55V654.682Z" fill="#618080"/>
</g>
<path d="M1341.6 532.92H1330.44V557.594H1341.6V532.92Z" fill="#BF5656"/>
<path d="M1268.14 552.264H1263.76V567.071H1268.14V552.264Z" fill="#808080"/>
<g style="mix-blend-mode:multiply" opacity="0.5">
<path d="M1268.14 552.264H1263.76V558.945H1268.14V552.264Z" fill="#808080"/>
</g>
<path d="M1321.46 552.264H1317.08V567.071H1321.46V552.264Z" fill="#808080"/>
<g style="mix-blend-mode:multiply" opacity="0.5">
<path d="M1321.46 552.264H1317.08V558.945H1321.46V552.264Z" fill="#808080"/>
</g>
<path d="M1333.77 532.92H1250.87V557.594H1333.77V532.92Z" fill="#ED7C79"/>
<path d="M1347.93 751.652H1388.58V562.119H1347.93V751.652Z" fill="#BF5656"/>
<path d="M1347.93 562.119H1239.17V751.652H1347.93V562.119Z" fill="#ED7C79"/>
<g style="mix-blend-mode:screen" opacity="0.5">
<path d="M1259.26 575.718H1252.42V581.582H1259.26V575.718Z" fill="white"/>
<path d="M1278.12 575.718H1271.28V581.582H1278.12V575.718Z" fill="white"/>
<path d="M1296.96 575.718H1290.12V581.582H1296.96V575.718Z" fill="white"/>
<path d="M1315.82 575.718H1308.98V581.582H1315.82V575.718Z" fill="white"/>
<path d="M1334.68 575.718H1327.84V581.582H1334.68V575.718Z" fill="white"/>
<path d="M1259.26 591.07H1252.42V596.934H1259.26V591.07Z" fill="white"/>
<path d="M1278.12 591.07H1271.28V596.934H1278.12V591.07Z" fill="white"/>
<path d="M1296.96 591.07H1290.12V596.934H1296.96V591.07Z" fill="white"/>
<path d="M1315.82 591.07H1308.98V596.934H1315.82V591.07Z" fill="white"/>
<path d="M1334.68 591.07H1327.84V596.934H1334.68V591.07Z" fill="white"/>
<path d="M1259.26 606.411H1252.42V612.274H1259.26V606.411Z" fill="white"/>
<path d="M1278.12 606.411H1271.28V612.274H1278.12V606.411Z" fill="white"/>
<path d="M1296.96 606.411H1290.12V612.274H1296.96V606.411Z" fill="white"/>
<path d="M1315.82 606.411H1308.98V612.274H1315.82V606.411Z" fill="white"/>
<path d="M1334.68 606.411H1327.84V612.274H1334.68V606.411Z" fill="white"/>
<path d="M1259.26 621.763H1252.42V627.626H1259.26V621.763Z" fill="white"/>
<path d="M1278.12 621.763H1271.28V627.626H1278.12V621.763Z" fill="white"/>
<path d="M1296.96 621.763H1290.12V627.626H1296.96V621.763Z" fill="white"/>
<path d="M1315.82 621.763H1308.98V627.626H1315.82V621.763Z" fill="white"/>
<path d="M1334.68 621.763H1327.84V627.626H1334.68V621.763Z" fill="white"/>
<path d="M1259.26 637.103H1252.42V642.967H1259.26V637.103Z" fill="white"/>
<path d="M1278.12 637.103H1271.28V642.967H1278.12V637.103Z" fill="white"/>
<path d="M1296.96 637.103H1290.12V642.967H1296.96V637.103Z" fill="white"/>
<path d="M1315.82 637.103H1308.98V642.967H1315.82V637.103Z" fill="white"/>
<path d="M1334.68 637.103H1327.84V642.967H1334.68V637.103Z" fill="white"/>
<path d="M1259.26 652.455H1252.42V658.319H1259.26V652.455Z" fill="white"/>
<path d="M1278.12 652.455H1271.28V658.319H1278.12V652.455Z" fill="white"/>
<path d="M1296.96 652.455H1290.12V658.319H1296.96V652.455Z" fill="white"/>
<path d="M1315.82 652.455H1308.98V658.319H1315.82V652.455Z" fill="white"/>
<path d="M1334.68 652.455H1327.84V658.319H1334.68V652.455Z" fill="white"/>
<path d="M1259.26 667.795H1252.42V673.659H1259.26V667.795Z" fill="white"/>
<path d="M1278.12 667.795H1271.28V673.659H1278.12V667.795Z" fill="white"/>
<path d="M1296.96 667.795H1290.12V673.659H1296.96V667.795Z" fill="white"/>
<path d="M1315.82 667.795H1308.98V673.659H1315.82V667.795Z" fill="white"/>
<path d="M1334.68 667.795H1327.84V673.659H1334.68V667.795Z" fill="white"/>
<path d="M1259.26 683.147H1252.42V689.011H1259.26V683.147Z" fill="white"/>
<path d="M1278.12 683.147H1271.28V689.011H1278.12V683.147Z" fill="white"/>
<path d="M1296.96 683.147H1290.12V689.011H1296.96V683.147Z" fill="white"/>
<path d="M1315.82 683.147H1308.98V689.011H1315.82V683.147Z" fill="white"/>
<path d="M1334.68 683.147H1327.84V689.011H1334.68V683.147Z" fill="white"/>
<path d="M1259.26 698.488H1252.42V704.351H1259.26V698.488Z" fill="white"/>
<path d="M1278.12 698.488H1271.28V704.351H1278.12V698.488Z" fill="white"/>
<path d="M1296.96 698.488H1290.12V704.351H1296.96V698.488Z" fill="white"/>
<path d="M1315.82 698.488H1308.98V704.351H1315.82V698.488Z" fill="white"/>
<path d="M1334.68 698.488H1327.84V704.351H1334.68V698.488Z" fill="white"/>
</g>
<g style="mix-blend-mode:screen" opacity="0.5">
<path d="M1362.45 575.718H1357.13V581.582H1362.45V575.718Z" fill="white"/>
<path d="M1371.75 575.718H1366.43V581.582H1371.75V575.718Z" fill="white"/>
<path d="M1381.03 575.718H1375.71V581.582H1381.03V575.718Z" fill="white"/>
<path d="M1362.45 591.07H1357.13V596.934H1362.45V591.07Z" fill="white"/>
<path d="M1371.75 591.07H1366.43V596.934H1371.75V591.07Z" fill="white"/>
<path d="M1381.03 591.07H1375.71V596.934H1381.03V591.07Z" fill="white"/>
<path d="M1362.45 606.411H1357.13V612.274H1362.45V606.411Z" fill="white"/>
<path d="M1371.75 606.411H1366.43V612.274H1371.75V606.411Z" fill="white"/>
<path d="M1381.03 606.411H1375.71V612.274H1381.03V606.411Z" fill="white"/>
<path d="M1362.45 621.763H1357.13V627.626H1362.45V621.763Z" fill="white"/>
<path d="M1371.75 621.763H1366.43V627.626H1371.75V621.763Z" fill="white"/>
<path d="M1381.03 621.763H1375.71V627.626H1381.03V621.763Z" fill="white"/>
<path d="M1362.45 637.103H1357.13V642.967H1362.45V637.103Z" fill="white"/>
<path d="M1371.75 637.103H1366.43V642.967H1371.75V637.103Z" fill="white"/>
<path d="M1381.03 637.103H1375.71V642.967H1381.03V637.103Z" fill="white"/>
<path d="M1362.45 652.455H1357.13V658.319H1362.45V652.455Z" fill="white"/>
<path d="M1371.75 652.455H1366.43V658.319H1371.75V652.455Z" fill="white"/>
<path d="M1381.03 652.455H1375.71V658.319H1381.03V652.455Z" fill="white"/>
<path d="M1362.45 667.795H1357.13V673.659H1362.45V667.795Z" fill="white"/>
<path d="M1371.75 667.795H1366.43V673.659H1371.75V667.795Z" fill="white"/>
<path d="M1381.03 667.795H1375.71V673.659H1381.03V667.795Z" fill="white"/>
<path d="M1362.45 683.147H1357.13V689.011H1362.45V683.147Z" fill="white"/>
<path d="M1371.75 683.147H1366.43V689.011H1371.75V683.147Z" fill="white"/>
<path d="M1381.03 683.147H1375.71V689.011H1381.03V683.147Z" fill="white"/>
<path d="M1362.45 698.488H1357.13V704.351H1362.45V698.488Z" fill="white"/>
<path d="M1371.75 698.488H1366.43V704.351H1371.75V698.488Z" fill="white"/>
<path d="M1381.03 698.488H1375.71V704.351H1381.03V698.488Z" fill="white"/>
</g>
<path d="M1334.69 713.674H1252.42V751.651H1334.69V713.674Z" fill="#BF5656"/>
<g style="mix-blend-mode:multiply" opacity="0.3">
<path d="M1334.68 713.674H1293.55V751.651H1334.68V713.674Z" fill="#BF5656"/>
</g>
<path d="M1249.92 751.651H1222.9H1139.86V711.34V644.98H1222.9L1249.92 671.017V711.34V751.651Z" fill="#92539B"/>
<path d="M1249.92 671.029H1139.86V644.98H1222.9L1249.92 671.029Z" fill="#E0A6E8"/>
<path d="M1166.88 751.651H1139.86H1112.84V711.34V671.017L1139.86 644.98L1166.88 671.017V711.34V751.651Z" fill="#C67ECD"/>
<path d="M1240.22 707.68H1183.59V751.652H1240.22V707.68Z" fill="#C67ECD"/>
<g style="mix-blend-mode:multiply" opacity="0.3">
<path d="M1240.22 707.68H1211.91V751.652H1240.22V707.68Z" fill="#C67ECD"/>
</g>
<g style="mix-blend-mode:screen" opacity="0.5">
<path d="M1240.22 695.005H1183.59V700.336H1240.22V695.005Z" fill="white"/>
</g>
<g style="mix-blend-mode:screen" opacity="0.5">
<path d="M1130.05 678.279H1121.49V690.267H1130.05V678.279Z" fill="white"/>
</g>
<g style="mix-blend-mode:screen" opacity="0.5">
<path d="M1143.26 678.279H1134.69V690.267H1143.26V678.279Z" fill="white"/>
</g>
<g style="mix-blend-mode:screen" opacity="0.5">
<path d="M1156.47 678.279H1147.9V690.267H1156.47V678.279Z" fill="white"/>
</g>
<g style="mix-blend-mode:screen" opacity="0.5">
<path d="M1130.05 701.674H1121.49V713.662H1130.05V701.674Z" fill="white"/>
</g>
<g style="mix-blend-mode:screen" opacity="0.5">
<path d="M1143.26 701.674H1134.69V713.662H1143.26V701.674Z" fill="white"/>
</g>
<g style="mix-blend-mode:screen" opacity="0.5">
<path d="M1156.47 701.674H1147.9V713.662H1156.47V701.674Z" fill="white"/>
</g>
<g style="mix-blend-mode:screen" opacity="0.5">
<path d="M1130.05 725.082H1121.49V737.069H1130.05V725.082Z" fill="white"/>
</g>
<g style="mix-blend-mode:screen" opacity="0.5">
<path d="M1143.26 725.082H1134.69V737.069H1143.26V725.082Z" fill="white"/>
</g>
<g style="mix-blend-mode:screen" opacity="0.5">
<path d="M1156.47 725.082H1147.9V737.069H1156.47V725.082Z" fill="white"/>
</g>
<path d="M1055.22 716.718H1052.2V750.893H1055.22V716.718Z" fill="#8C6239"/>
<g style="mix-blend-mode:multiply" opacity="0.5">
<path d="M1055.22 716.718H1052.2V738.088H1055.22V716.718Z" fill="#8C6239"/>
</g>
<path d="M1070.67 711.589C1070.67 711.589 1074.1 710.559 1072.38 706.377C1070.67 702.196 1060.74 686.914 1060.74 686.914C1062.48 686.07 1063.77 684.67 1064.33 683.017C1065.19 680.305 1053.7 659.586 1053.7 659.586C1053.7 659.586 1042.22 680.305 1043.08 683.017C1043.63 684.67 1044.92 686.07 1046.67 686.914C1046.67 686.914 1036.74 702.196 1035.02 706.377C1033.31 710.559 1036.74 711.589 1036.74 711.589C1036.74 711.589 1028.68 729.808 1030.05 733.042C1031.42 736.276 1039.31 735.98 1043.87 735.98H1063.4C1068.03 735.98 1075.91 736.276 1077.22 733.042C1078.53 729.808 1070.67 711.589 1070.67 711.589Z" fill="#425E0B"/>
<path d="M1425.48 734.143V735.316L1423.6 736.844V750.893H1420.66V726.752H1423.6V735.281L1425.48 734.143Z" fill="#A67C52"/>
<g style="mix-blend-mode:multiply" opacity="0.5">
<path d="M1423.6 726.752V733.753C1422.6 733.675 1421.62 733.516 1420.66 733.279V726.752H1423.6Z" fill="#A67C52"/>
</g>
<path d="M1422.12 732.994C1431.39 732.994 1438.89 726.556 1438.89 718.614C1438.89 710.671 1431.39 704.233 1422.12 704.233C1412.86 704.233 1405.35 710.671 1405.35 718.614C1405.35 726.556 1412.86 732.994 1422.12 732.994Z" fill="#425E0B"/>
<path d="M1400.94 720.687H1398.28V750.893H1400.94V720.687Z" fill="#8C6239"/>
<g style="mix-blend-mode:multiply" opacity="0.5">
<path d="M1400.94 720.687H1398.28V739.581H1400.94V720.687Z" fill="#8C6239"/>
</g>
<path d="M1414.61 716.197C1414.61 716.197 1417.63 715.285 1416.13 711.589C1414.62 707.893 1405.82 694.377 1405.82 694.377C1407.36 693.633 1408.5 692.4 1409 690.942C1409.76 688.573 1399.6 670.224 1399.6 670.224C1399.6 670.224 1389.45 688.537 1390.21 690.942C1390.7 692.4 1391.84 693.633 1393.38 694.377C1393.38 694.377 1384.6 707.882 1383.08 711.589C1381.56 715.297 1384.6 716.197 1384.6 716.197C1384.6 716.197 1377.48 732.307 1378.68 735.15C1379.89 737.993 1386.86 737.745 1390.95 737.745H1408.22C1412.37 737.745 1419.28 738.005 1420.49 735.15C1421.71 732.296 1414.61 716.197 1414.61 716.197Z" fill="#557A15"/>
<path d="M1093.37 728.469V730.045L1090.84 732.082V750.893H1086.9V718.578H1090.84V729.986L1093.37 728.469Z" fill="#A67C52"/>
<g style="mix-blend-mode:multiply" opacity="0.5">
<path d="M1090.84 718.578V727.948C1089.51 727.846 1088.19 727.636 1086.9 727.32V718.578H1090.84Z" fill="#A67C52"/>
</g>
<path d="M1088.87 726.941C1101.27 726.941 1111.33 718.318 1111.33 707.68C1111.33 697.043 1101.27 688.419 1088.87 688.419C1076.46 688.419 1066.4 697.043 1066.4 707.68C1066.4 718.318 1076.46 726.941 1088.87 726.941Z" fill="#557A15"/>
</g>
</g>
</svg>
