<svg width="434" height="540" viewBox="0 0 434 540" fill="none" xmlns="http://www.w3.org/2000/svg">
<g filter="url(#filter0_d_55_5526)">
<rect x="27" y="23" width="380" height="486" rx="72" fill="#C67ECD"/>
</g>
<mask id="mask0_55_5526" style="mask-type:alpha" maskUnits="userSpaceOnUse" x="27" y="310" width="380" height="199">
<rect x="27" y="310" width="380" height="199" rx="72" fill="#C67ECD"/>
</mask>
<g mask="url(#mask0_55_5526)">
<circle opacity="0.3" cx="90" cy="476" r="91" fill="#F5F5F5"/>
<circle opacity="0.3" cx="294.5" cy="475.5" r="144.5" fill="#F5F5F5"/>
</g>
<path d="M60.76 97V69H72.24C78.2 69 81.96 72.48 81.96 78.24C81.96 84.04 78.28 87.44 72.16 87.44H66.68V97H60.76ZM66.68 82H72.08C74.48 82 76.04 80.56 76.04 78.2C76.04 75.68 74.72 74.4 72.12 74.4H66.68V82ZM83.3881 86.4C83.3881 79.8 87.5481 75.2 93.3881 75.2C99.2681 75.2 103.348 79.72 103.348 86.4V88.08H89.1481C89.3081 91.08 90.9081 92.8 93.5081 92.8C95.5881 92.8 97.1481 91.84 98.6281 89.64L102.668 92.8C100.628 96 97.5481 97.6 93.5081 97.6C87.5481 97.6 83.3881 93.08 83.3881 86.4ZM89.1481 84.04H97.7881C97.5881 81.48 96.0281 80 93.4281 80C91.0681 80 89.3481 81.6 89.1481 84.04ZM106.894 97V75.8H112.334V77.68H112.414C113.654 76.12 115.894 75.2 118.254 75.2C120.574 75.2 122.454 75.96 123.854 77.44C125.294 78.92 126.014 80.92 126.014 83.44V97H120.294V84.44C120.294 81.92 118.894 80.48 116.454 80.48C114.054 80.48 112.614 82 112.614 84.44V97H106.894ZM131.364 106L135.524 95.92L127.364 75.8H133.284L138.364 89.24H138.444L143.564 75.8H149.444L137.244 106H131.364ZM149.783 86.4C149.783 79.8 153.943 75.2 159.783 75.2C165.663 75.2 169.743 79.72 169.743 86.4V88.08H155.543C155.703 91.08 157.303 92.8 159.903 92.8C161.983 92.8 163.543 91.84 165.023 89.64L169.063 92.8C167.023 96 163.943 97.6 159.903 97.6C153.943 97.6 149.783 93.08 149.783 86.4ZM155.543 84.04H164.183C163.983 81.48 162.423 80 159.823 80C157.463 80 155.743 81.6 155.543 84.04ZM178.649 95.12H178.569V97H173.289V67.8H179.009V77.08H179.089C180.409 75.84 182.209 75.2 184.489 75.2C189.969 75.2 193.969 79.96 193.969 86.4C193.969 92.84 189.969 97.6 184.489 97.6C182.049 97.6 179.889 96.56 178.649 95.12ZM188.249 86.4C188.249 82.6 186.489 80.44 183.409 80.44C180.849 80.44 179.009 82.28 179.009 84.88V87.92C179.009 90.48 180.849 92.36 183.409 92.36C186.489 92.36 188.249 90.2 188.249 86.4ZM196.527 91.24C196.527 87.68 198.647 85.76 204.087 84.44C207.447 83.64 208.487 83.04 208.487 81.92C208.487 80.68 207.447 79.96 205.567 79.96C203.367 79.96 201.967 81.16 201.527 83.36L196.287 82.2C196.607 80.08 197.607 78.4 199.327 77.12C201.047 75.84 203.127 75.2 205.567 75.2C210.887 75.2 214.247 78.28 214.247 83.24V97H209.127V95.32H209.047C208.047 96.8 206.047 97.6 203.487 97.6C199.287 97.6 196.527 95.08 196.527 91.24ZM208.687 89.84V86.76H208.607C208.247 87.4 207.367 87.92 205.447 88.44C202.887 89.12 202.007 89.76 202.007 90.88C202.007 92.16 202.887 92.8 204.607 92.8C207.007 92.8 208.687 91.6 208.687 89.84ZM218.425 97V75.8H223.785V77.68H223.865C224.825 76.24 226.385 75.4 228.425 75.4C229.425 75.4 230.345 75.52 231.185 75.76L230.225 81.2C229.385 81 228.625 80.88 227.865 80.88C225.425 80.88 224.145 82.52 224.145 85.6V97H218.425ZM233.786 97V67.8H239.506V97H233.786ZM243.473 89.76V75.8H249.193V88.44C249.193 91.04 250.433 92.36 252.873 92.36C255.153 92.36 256.593 90.84 256.593 88.44V75.8H262.313V97H256.873V95.12H256.793C255.553 96.68 253.353 97.6 251.073 97.6C246.273 97.6 243.473 94.68 243.473 89.76ZM266.095 91.24C266.095 87.68 268.215 85.76 273.655 84.44C277.015 83.64 278.055 83.04 278.055 81.92C278.055 80.68 277.015 79.96 275.135 79.96C272.935 79.96 271.535 81.16 271.095 83.36L265.855 82.2C266.175 80.08 267.175 78.4 268.895 77.12C270.615 75.84 272.695 75.2 275.135 75.2C280.455 75.2 283.815 78.28 283.815 83.24V97H278.695V95.32H278.615C277.615 96.8 275.615 97.6 273.055 97.6C268.855 97.6 266.095 95.08 266.095 91.24ZM278.255 89.84V86.76H278.175C277.815 87.4 276.935 87.92 275.015 88.44C272.455 89.12 271.575 89.76 271.575 90.88C271.575 92.16 272.455 92.8 274.175 92.8C276.575 92.8 278.255 91.6 278.255 89.84ZM286.754 90.16L291.834 88.8C292.514 91.68 293.954 92.92 296.674 92.92C298.714 92.92 299.874 92.28 299.874 91.2C299.874 90.68 299.674 90.24 299.274 89.88C298.514 89.2 297.554 88.88 295.274 88.12C290.874 86.88 288.074 85.76 287.874 81.6C287.874 78 291.314 75.2 295.874 75.2C298.034 75.2 299.954 75.76 301.594 76.92C303.234 78.08 304.314 79.56 304.834 81.44L299.794 82.92C299.114 80.88 297.674 79.84 295.874 79.84C294.234 79.84 293.194 80.56 293.194 81.52C293.194 82.48 294.234 82.88 296.994 83.68C298.634 84.16 300.034 84.64 301.114 85.12C303.354 86.08 305.194 87.96 305.194 91C305.194 92.96 304.434 94.56 302.874 95.8C301.314 97 299.274 97.6 296.674 97.6C291.234 97.6 287.674 94.96 286.754 90.16ZM307.755 91.24C307.755 87.68 309.875 85.76 315.315 84.44C318.675 83.64 319.715 83.04 319.715 81.92C319.715 80.68 318.675 79.96 316.795 79.96C314.595 79.96 313.195 81.16 312.755 83.36L307.515 82.2C307.835 80.08 308.835 78.4 310.555 77.12C312.275 75.84 314.355 75.2 316.795 75.2C322.115 75.2 325.475 78.28 325.475 83.24V97H320.355V95.32H320.275C319.275 96.8 317.275 97.6 314.715 97.6C310.515 97.6 307.755 95.08 307.755 91.24ZM319.915 89.84V86.76H319.835C319.475 87.4 318.595 87.92 316.675 88.44C314.115 89.12 313.235 89.76 313.235 90.88C313.235 92.16 314.115 92.8 315.835 92.8C318.235 92.8 319.915 91.6 319.915 89.84ZM329.653 97V75.8H335.093V77.68H335.173C336.413 76.12 338.653 75.2 341.013 75.2C343.333 75.2 345.213 75.96 346.613 77.44C348.053 78.92 348.773 80.92 348.773 83.44V97H343.053V84.44C343.053 81.92 341.653 80.48 339.213 80.48C336.813 80.48 335.373 82 335.373 84.44V97H329.653ZM60.76 157V129H66.68V157H60.76ZM71.8844 157V135.8H77.3244V137.68H77.4044C78.6444 136.12 80.8844 135.2 83.2444 135.2C85.5644 135.2 87.4444 135.96 88.8444 137.44C90.2844 138.92 91.0044 140.92 91.0044 143.44V157H85.2844V144.44C85.2844 141.92 83.8844 140.48 81.4444 140.48C79.0444 140.48 77.6044 142 77.6044 144.44V157H71.8844ZM96.7919 157V140.84H92.6719V135.8H96.7919V133.64C96.7919 129.84 99.1519 127.64 103.312 127.64H107.312V132.72H104.072C103.032 132.72 102.512 133.2 102.512 134.2V135.8H108.192V140.84H102.512V157H96.7919ZM109.188 146.4C109.188 139.76 113.468 135.2 119.668 135.2C125.908 135.2 130.188 139.72 130.188 146.4C130.188 153.08 125.908 157.6 119.668 157.6C113.468 157.6 109.188 153.04 109.188 146.4ZM124.468 146.4C124.468 142.6 122.708 140.4 119.668 140.4C116.668 140.4 114.908 142.6 114.908 146.4C114.908 150.2 116.668 152.4 119.668 152.4C122.708 152.4 124.468 150.2 124.468 146.4ZM133.748 157V135.8H139.108V137.68H139.188C140.148 136.24 141.708 135.4 143.748 135.4C144.748 135.4 145.668 135.52 146.508 135.76L145.548 141.2C144.708 141 143.948 140.88 143.188 140.88C140.748 140.88 139.468 142.52 139.468 145.6V157H133.748ZM149.109 157V135.8H154.389V137.68H154.469C155.629 136.12 157.789 135.2 160.029 135.2C162.149 135.2 164.349 136.16 165.469 137.8H165.549C167.029 136.08 168.909 135.2 171.229 135.2C175.909 135.2 179.069 138.68 179.069 142.96V157H173.549V144.04C173.549 141.76 172.229 140.4 170.149 140.4C168.069 140.4 166.709 141.88 166.709 144.16V157H161.429V144.04C161.429 141.76 160.109 140.4 158.029 140.4C155.949 140.4 154.629 141.88 154.629 144.16V157H149.109ZM182.62 151.24C182.62 147.68 184.74 145.76 190.18 144.44C193.54 143.64 194.58 143.04 194.58 141.92C194.58 140.68 193.54 139.96 191.66 139.96C189.46 139.96 188.06 141.16 187.62 143.36L182.38 142.2C182.7 140.08 183.7 138.4 185.42 137.12C187.14 135.84 189.22 135.2 191.66 135.2C196.98 135.2 200.34 138.28 200.34 143.24V157H195.22V155.32H195.14C194.14 156.8 192.14 157.6 189.58 157.6C185.38 157.6 182.62 155.08 182.62 151.24ZM194.78 149.84V146.76H194.7C194.34 147.4 193.46 147.92 191.54 148.44C188.98 149.12 188.1 149.76 188.1 150.88C188.1 152.16 188.98 152.8 190.7 152.8C193.1 152.8 194.78 151.6 194.78 149.84ZM203.279 150.16L208.359 148.8C209.039 151.68 210.479 152.92 213.199 152.92C215.239 152.92 216.399 152.28 216.399 151.2C216.399 150.68 216.199 150.24 215.799 149.88C215.039 149.2 214.079 148.88 211.799 148.12C207.399 146.88 204.599 145.76 204.399 141.6C204.399 138 207.839 135.2 212.399 135.2C214.559 135.2 216.479 135.76 218.119 136.92C219.759 138.08 220.839 139.56 221.359 141.44L216.319 142.92C215.639 140.88 214.199 139.84 212.399 139.84C210.759 139.84 209.719 140.56 209.719 141.52C209.719 142.48 210.759 142.88 213.519 143.68C215.159 144.16 216.559 144.64 217.639 145.12C219.879 146.08 221.719 147.96 221.719 151C221.719 152.96 220.959 154.56 219.399 155.8C217.839 157 215.799 157.6 213.199 157.6C207.759 157.6 204.199 154.96 203.279 150.16ZM224.88 157V135.8H230.6V157H224.88ZM224.8 132.32V126.72H230.6V132.32H224.8Z" fill="#F5F5F5"/>
<path d="M59.944 228V211.2H62.992L68.2 223.896H68.248L73.456 211.2H76.504V228H74.056V215.4H74.008L68.728 228H67.696L62.44 215.4H62.392V228H59.944ZM79.6381 221.64C79.6381 217.68 82.0621 214.92 85.5421 214.92C88.9981 214.92 91.3021 217.536 91.3021 221.352V222.336H82.0141C82.0381 223.464 82.3741 224.424 83.0221 225.168C83.6701 225.912 84.5101 226.272 85.5421 226.272C87.1501 226.272 88.1101 225.648 89.1661 223.944L90.9901 225.168C89.8621 227.28 87.9901 228.36 85.5661 228.36C82.0381 228.36 79.6381 225.648 79.6381 221.64ZM82.0621 220.536H88.9741C88.8781 218.448 87.5581 217.008 85.5421 217.008C83.6221 217.008 82.1101 218.616 82.0621 220.536ZM93.9987 228V215.28H96.2547V216.408H96.3027C97.0707 215.52 98.4867 214.92 99.8307 214.92C102.735 214.92 104.631 216.816 104.631 219.792V228H102.279V220.152C102.279 218.256 101.199 217.104 99.3747 217.104C97.5507 217.104 96.3507 218.328 96.3507 220.152V228H93.9987ZM108.324 233.4L110.964 227.04L106.068 215.28H108.54L112.14 224.328H112.188L115.836 215.28H118.308L110.748 233.4H108.324ZM118.983 221.64C118.983 217.68 121.407 214.92 124.887 214.92C128.343 214.92 130.647 217.536 130.647 221.352V222.336H121.359C121.383 223.464 121.719 224.424 122.367 225.168C123.015 225.912 123.855 226.272 124.887 226.272C126.495 226.272 127.455 225.648 128.511 223.944L130.335 225.168C129.207 227.28 127.335 228.36 124.911 228.36C121.383 228.36 118.983 225.648 118.983 221.64ZM121.407 220.536H128.319C128.223 218.448 126.903 217.008 124.887 217.008C122.967 217.008 121.455 218.616 121.407 220.536ZM132.864 221.64C132.864 217.704 135.264 214.92 138.576 214.92C140.016 214.92 141.312 215.496 142.152 216.432H142.2V210.48H144.552V228H142.344V226.776H142.296C141.504 227.76 140.112 228.36 138.552 228.36C135.264 228.36 132.864 225.576 132.864 221.64ZM142.2 222.744V220.512C142.2 218.64 140.688 217.104 138.768 217.104C136.584 217.104 135.216 218.856 135.216 221.64C135.216 224.424 136.632 226.176 138.84 226.176C140.712 226.176 142.2 224.64 142.2 222.744ZM147.717 228V215.28H150.069V228H147.717ZM147.597 213.072V210.6H150.165V213.072H147.597ZM152.775 224.688C152.775 222.552 154.023 221.424 157.263 220.656C159.567 220.08 160.287 219.624 160.287 218.688C160.287 217.656 159.399 216.984 157.959 216.984C156.399 216.984 155.319 217.896 155.007 219.504L152.727 219.024C152.943 217.776 153.519 216.792 154.455 216.048C155.415 215.304 156.591 214.92 157.959 214.92C160.911 214.92 162.735 216.576 162.735 219.264V228H160.575V226.776H160.527C159.831 227.76 158.511 228.36 156.951 228.36C154.431 228.36 152.775 226.92 152.775 224.688ZM160.407 223.704V221.184H160.359C160.143 221.736 159.399 222.12 157.863 222.528C155.847 223.032 155.079 223.584 155.079 224.544C155.079 225.624 155.823 226.248 157.239 226.248C159.087 226.248 160.407 225.168 160.407 223.704ZM165.775 228V210.48H168.127V220.656H168.175L173.095 215.28H176.263L171.583 220.248L176.551 228H173.815L170.023 221.88H169.975L168.127 223.896V228H165.775ZM177.676 224.688C177.676 222.552 178.924 221.424 182.164 220.656C184.468 220.08 185.188 219.624 185.188 218.688C185.188 217.656 184.3 216.984 182.86 216.984C181.3 216.984 180.22 217.896 179.908 219.504L177.628 219.024C177.844 217.776 178.42 216.792 179.356 216.048C180.316 215.304 181.492 214.92 182.86 214.92C185.812 214.92 187.636 216.576 187.636 219.264V228H185.476V226.776H185.428C184.732 227.76 183.412 228.36 181.852 228.36C179.332 228.36 177.676 226.92 177.676 224.688ZM185.308 223.704V221.184H185.26C185.044 221.736 184.3 222.12 182.764 222.528C180.748 223.032 179.98 223.584 179.98 224.544C179.98 225.624 180.724 226.248 182.14 226.248C183.988 226.248 185.308 225.168 185.308 223.704ZM190.676 228V215.28H192.932V216.408H192.98C193.748 215.52 195.164 214.92 196.508 214.92C199.412 214.92 201.308 216.816 201.308 219.792V228H198.956V220.152C198.956 218.256 197.876 217.104 196.052 217.104C194.228 217.104 193.028 218.328 193.028 220.152V228H190.676ZM210.961 228V210.48H213.313V220.656H213.361L218.281 215.28H221.449L216.769 220.248L221.737 228H219.001L215.209 221.88H215.161L213.313 223.896V228H210.961ZM222.581 221.64C222.581 217.632 225.029 214.92 228.653 214.92C232.277 214.92 234.725 217.632 234.725 221.64C234.725 225.648 232.277 228.36 228.653 228.36C225.029 228.36 222.581 225.648 222.581 221.64ZM232.373 221.64C232.373 218.856 230.957 217.104 228.653 217.104C226.349 217.104 224.933 218.856 224.933 221.64C224.933 224.424 226.349 226.176 228.653 226.176C230.957 226.176 232.373 224.424 232.373 221.64ZM237.41 228V215.28H239.666V216.408H239.714C240.482 215.52 241.898 214.92 243.242 214.92C246.146 214.92 248.042 216.816 248.042 219.792V228H245.69V220.152C245.69 218.256 244.61 217.104 242.786 217.104C240.962 217.104 239.762 218.328 239.762 220.152V228H237.41ZM257.229 217.392H254.109V224.64C254.109 225.48 254.445 225.768 255.477 225.768H256.629V228H255.261C252.693 228 251.757 227.112 251.757 224.688V217.392H249.765V215.28H251.757V212.304H254.109V215.28H257.229V217.392ZM258.433 221.64C258.433 217.68 260.857 214.92 264.337 214.92C267.793 214.92 270.097 217.536 270.097 221.352V222.336H260.809C260.833 223.464 261.169 224.424 261.817 225.168C262.465 225.912 263.305 226.272 264.337 226.272C265.945 226.272 266.905 225.648 267.961 223.944L269.785 225.168C268.657 227.28 266.785 228.36 264.361 228.36C260.833 228.36 258.433 225.648 258.433 221.64ZM260.857 220.536H267.769C267.673 218.448 266.353 217.008 264.337 217.008C262.417 217.008 260.905 218.616 260.857 220.536ZM272.794 228V215.28H275.05V216.408H275.098C275.866 215.52 277.282 214.92 278.626 214.92C281.53 214.92 283.426 216.816 283.426 219.792V228H281.074V220.152C281.074 218.256 279.994 217.104 278.17 217.104C276.346 217.104 275.146 218.328 275.146 220.152V228H272.794ZM292.839 223.56V215.28H295.191V223.128C295.191 225.168 296.127 226.176 298.047 226.176C299.799 226.176 300.951 224.976 300.951 223.128V215.28H303.303V228H301.047V226.872H300.975C300.207 227.808 298.815 228.36 297.351 228.36C294.495 228.36 292.839 226.608 292.839 223.56ZM306.467 228V215.28H308.723V216.408H308.771C309.539 215.52 310.955 214.92 312.299 214.92C315.203 214.92 317.099 216.816 317.099 219.792V228H314.747V220.152C314.747 218.256 313.667 217.104 311.843 217.104C310.019 217.104 308.819 218.328 308.819 220.152V228H306.467ZM326.286 217.392H323.166V224.64C323.166 225.48 323.502 225.768 324.534 225.768H325.686V228H324.318C321.75 228 320.814 227.112 320.814 224.688V217.392H318.822V215.28H320.814V212.304H323.166V215.28H326.286V217.392ZM328.387 223.56V215.28H330.739V223.128C330.739 225.168 331.675 226.176 333.595 226.176C335.347 226.176 336.499 224.976 336.499 223.128V215.28H338.851V228H336.595V226.872H336.523C335.755 227.808 334.363 228.36 332.899 228.36C330.043 228.36 328.387 226.608 328.387 223.56ZM342.015 228V210.48H344.367V220.656H344.415L349.335 215.28H352.503L347.823 220.248L352.791 228H350.055L346.263 221.88H346.215L344.367 223.896V228H342.015ZM58.744 267.728L60.952 267.248C61.36 269.384 62.368 270.272 64.48 270.272C66.04 270.272 67 269.672 67 268.712C67 267.584 66.16 267.104 63.736 266.36C60.664 265.496 59.368 264.56 59.368 262.616C59.368 260.504 61.312 258.92 63.928 258.92C66.496 258.92 68.488 260.384 68.992 262.688L66.784 263.264C66.352 261.752 65.392 261.008 63.928 261.008C62.56 261.008 61.648 261.632 61.648 262.568C61.648 263.36 62.368 263.768 64.504 264.368C67.84 265.352 69.304 266.408 69.304 268.616C69.304 270.896 67.384 272.36 64.48 272.36C61.192 272.36 59.104 270.704 58.744 267.728ZM71.2709 265.64C71.2709 261.68 73.6949 258.92 77.1749 258.92C80.6309 258.92 82.9349 261.536 82.9349 265.352V266.336H73.6469C73.6709 267.464 74.0069 268.424 74.6549 269.168C75.3029 269.912 76.1429 270.272 77.1749 270.272C78.7829 270.272 79.7429 269.648 80.7989 267.944L82.6229 269.168C81.4949 271.28 79.6229 272.36 77.1989 272.36C73.6709 272.36 71.2709 269.648 71.2709 265.64ZM73.6949 264.536H80.6069C80.5109 262.448 79.1909 261.008 77.1749 261.008C75.2549 261.008 73.7429 262.616 73.6949 264.536ZM85.6315 272V259.28H87.8875V260.288H87.9355C88.6075 259.448 89.8555 258.92 91.1035 258.92C92.4475 258.92 93.7195 259.544 94.3915 260.504H94.4395C95.3275 259.52 96.5515 258.92 97.9195 258.92C100.512 258.92 102.456 260.72 102.456 263.264V272H100.151V263.648C100.151 262.112 99.1675 261.104 97.6555 261.104C96.1435 261.104 95.1595 262.184 95.1595 263.792V272H92.9275V263.648C92.9275 262.112 91.9195 261.104 90.4555 261.104C88.9195 261.104 87.9355 262.184 87.9355 263.792V272H85.6315ZM105.272 267.56V259.28H107.624V267.128C107.624 269.168 108.56 270.176 110.48 270.176C112.232 270.176 113.384 268.976 113.384 267.128V259.28H115.736V272H113.48V270.872H113.408C112.64 271.808 111.248 272.36 109.784 272.36C106.928 272.36 105.272 270.608 105.272 267.56ZM118.469 268.688C118.469 266.552 119.717 265.424 122.957 264.656C125.261 264.08 125.981 263.624 125.981 262.688C125.981 261.656 125.093 260.984 123.653 260.984C122.093 260.984 121.013 261.896 120.701 263.504L118.421 263.024C118.637 261.776 119.213 260.792 120.149 260.048C121.109 259.304 122.285 258.92 123.653 258.92C126.605 258.92 128.429 260.576 128.429 263.264V272H126.269V270.776H126.221C125.525 271.76 124.205 272.36 122.645 272.36C120.125 272.36 118.469 270.92 118.469 268.688ZM126.101 267.704V265.184H126.053C125.837 265.736 125.093 266.12 123.557 266.528C121.541 267.032 120.773 267.584 120.773 268.544C120.773 269.624 121.517 270.248 122.933 270.248C124.781 270.248 126.101 269.168 126.101 267.704ZM138.084 272V254.48H140.436V264.656H140.484L145.404 259.28H148.572L143.892 264.248L148.86 272H146.124L142.332 265.88H142.284L140.436 267.896V272H138.084ZM149.985 268.688C149.985 266.552 151.233 265.424 154.473 264.656C156.777 264.08 157.497 263.624 157.497 262.688C157.497 261.656 156.609 260.984 155.169 260.984C153.609 260.984 152.529 261.896 152.217 263.504L149.937 263.024C150.153 261.776 150.729 260.792 151.665 260.048C152.625 259.304 153.801 258.92 155.169 258.92C158.121 258.92 159.945 260.576 159.945 263.264V272H157.785V270.776H157.737C157.041 271.76 155.721 272.36 154.161 272.36C151.641 272.36 149.985 270.92 149.985 268.688ZM157.617 267.704V265.184H157.569C157.353 265.736 156.609 266.12 155.073 266.528C153.057 267.032 152.289 267.584 152.289 268.544C152.289 269.624 153.033 270.248 154.449 270.248C156.297 270.248 157.617 269.168 157.617 267.704ZM162.986 272V254.48H165.338V272H162.986ZM168.044 268.688C168.044 266.552 169.292 265.424 172.532 264.656C174.836 264.08 175.556 263.624 175.556 262.688C175.556 261.656 174.668 260.984 173.228 260.984C171.668 260.984 170.588 261.896 170.276 263.504L167.996 263.024C168.212 261.776 168.788 260.792 169.724 260.048C170.684 259.304 171.86 258.92 173.228 258.92C176.18 258.92 178.004 260.576 178.004 263.264V272H175.844V270.776H175.796C175.1 271.76 173.78 272.36 172.22 272.36C169.7 272.36 168.044 270.92 168.044 268.688ZM175.676 267.704V265.184H175.628C175.412 265.736 174.668 266.12 173.132 266.528C171.116 267.032 170.348 267.584 170.348 268.544C170.348 269.624 171.092 270.248 172.508 270.248C174.356 270.248 175.676 269.168 175.676 267.704ZM181.044 272V259.28H183.3V260.408H183.348C184.116 259.52 185.532 258.92 186.876 258.92C189.78 258.92 191.676 260.816 191.676 263.792V272H189.324V264.152C189.324 262.256 188.244 261.104 186.42 261.104C184.596 261.104 183.396 262.328 183.396 264.152V272H181.044ZM195.145 274.424L197.137 273.296C197.977 275 198.889 275.624 200.497 275.624C202.441 275.624 203.617 274.304 203.617 272.168V270.776H203.569C202.873 271.76 201.529 272.36 199.921 272.36C196.585 272.36 194.233 269.576 194.233 265.64C194.233 261.728 196.633 258.944 199.945 258.944C201.385 258.944 202.729 259.52 203.569 260.504H203.617V259.28H205.921V272.288C205.921 275.552 203.761 277.76 200.497 277.76C198.073 277.76 196.081 276.512 195.145 274.424ZM203.569 266.744V264.56C203.569 262.664 202.057 261.128 200.137 261.128C198.001 261.128 196.585 262.88 196.585 265.64C196.585 268.424 198.001 270.176 200.209 270.176C202.081 270.176 203.569 268.64 203.569 266.744ZM208.537 268.688C208.537 266.552 209.785 265.424 213.025 264.656C215.329 264.08 216.049 263.624 216.049 262.688C216.049 261.656 215.161 260.984 213.721 260.984C212.161 260.984 211.081 261.896 210.769 263.504L208.489 263.024C208.705 261.776 209.281 260.792 210.217 260.048C211.177 259.304 212.353 258.92 213.721 258.92C216.673 258.92 218.497 260.576 218.497 263.264V272H216.337V270.776H216.289C215.593 271.76 214.273 272.36 212.713 272.36C210.193 272.36 208.537 270.92 208.537 268.688ZM216.169 267.704V265.184H216.121C215.905 265.736 215.161 266.12 213.625 266.528C211.609 267.032 210.841 267.584 210.841 268.544C210.841 269.624 211.585 270.248 213.001 270.248C214.849 270.248 216.169 269.168 216.169 267.704ZM221.537 272V259.28H223.793V260.408H223.841C224.609 259.52 226.025 258.92 227.369 258.92C230.273 258.92 232.169 260.816 232.169 263.792V272H229.817V264.152C229.817 262.256 228.737 261.104 226.913 261.104C225.089 261.104 223.889 262.328 223.889 264.152V272H221.537Z" fill="#F5F5F5"/>
<defs>
<filter id="filter0_d_55_5526" x="0" y="0" width="434" height="540" filterUnits="userSpaceOnUse" color-interpolation-filters="sRGB">
<feFlood flood-opacity="0" result="BackgroundImageFix"/>
<feColorMatrix in="SourceAlpha" type="matrix" values="0 0 0 0 0 0 0 0 0 0 0 0 0 0 0 0 0 0 127 0" result="hardAlpha"/>
<feOffset dy="4"/>
<feGaussianBlur stdDeviation="13.5"/>
<feComposite in2="hardAlpha" operator="out"/>
<feColorMatrix type="matrix" values="0 0 0 0 0.0916667 0 0 0 0 0.0874653 0 0 0 0 0.0874653 0 0 0 0.14 0"/>
<feBlend mode="normal" in2="BackgroundImageFix" result="effect1_dropShadow_55_5526"/>
<feBlend mode="normal" in="SourceGraphic" in2="effect1_dropShadow_55_5526" result="shape"/>
</filter>
</defs>
</svg>
