<svg width="434" height="540" viewBox="0 0 434 540" fill="none" xmlns="http://www.w3.org/2000/svg">
<g filter="url(#filter0_d_55_5527)">
<rect x="27" y="23" width="380" height="486" rx="72" fill="#ED7C79"/>
</g>
<mask id="mask0_55_5527" style="mask-type:alpha" maskUnits="userSpaceOnUse" x="27" y="310" width="380" height="199">
<rect x="27" y="310" width="380" height="199" rx="72" fill="#ED7C79"/>
</mask>
<g mask="url(#mask0_55_5527)">
<circle opacity="0.3" cx="89" cy="476" r="91" fill="#F5F5F5"/>
<circle opacity="0.3" cx="293.5" cy="475.5" r="144.5" fill="#F5F5F5"/>
</g>
<path d="M65.08 97V74.44H56.96V69H79.08V74.44H71V97H65.08ZM81.6422 97V75.8H87.3622V97H81.6422ZM81.5622 72.32V66.72H87.3622V72.32H81.5622ZM91.7297 97V75.8H97.1697V77.68H97.2497C98.4897 76.12 100.73 75.2 103.09 75.2C105.41 75.2 107.29 75.96 108.69 77.44C110.13 78.92 110.85 80.92 110.85 83.44V97H105.13V84.44C105.13 81.92 103.73 80.48 101.29 80.48C98.8897 80.48 97.4497 82 97.4497 84.44V97H91.7297ZM114.219 86.4C114.219 79.96 118.219 75.2 123.699 75.2C125.979 75.2 127.779 75.84 129.099 77.08H129.179V67.8H134.899V97H129.619V95.12H129.539C128.299 96.56 126.139 97.6 123.699 97.6C118.219 97.6 114.219 92.84 114.219 86.4ZM129.179 87.92V84.88C129.179 82.28 127.339 80.44 124.779 80.44C121.699 80.44 119.939 82.6 119.939 86.4C119.939 90.2 121.699 92.36 124.779 92.36C127.339 92.36 129.179 90.48 129.179 87.92ZM138.687 91.24C138.687 87.68 140.807 85.76 146.247 84.44C149.607 83.64 150.647 83.04 150.647 81.92C150.647 80.68 149.607 79.96 147.727 79.96C145.527 79.96 144.127 81.16 143.687 83.36L138.447 82.2C138.767 80.08 139.767 78.4 141.487 77.12C143.207 75.84 145.287 75.2 147.727 75.2C153.047 75.2 156.407 78.28 156.407 83.24V97H151.287V95.32H151.207C150.207 96.8 148.207 97.6 145.647 97.6C141.447 97.6 138.687 95.08 138.687 91.24ZM150.847 89.84V86.76H150.767C150.407 87.4 149.527 87.92 147.607 88.44C145.047 89.12 144.167 89.76 144.167 90.88C144.167 92.16 145.047 92.8 146.767 92.8C149.167 92.8 150.847 91.6 150.847 89.84ZM160.586 97V67.8H166.306V83.8H166.386L173.186 75.8H180.466L172.826 84.28L180.666 97H174.226L169.186 88.08H169.106L166.306 91.36V97H160.586ZM181.675 91.24C181.675 87.68 183.795 85.76 189.235 84.44C192.595 83.64 193.635 83.04 193.635 81.92C193.635 80.68 192.595 79.96 190.715 79.96C188.515 79.96 187.115 81.16 186.675 83.36L181.435 82.2C181.755 80.08 182.755 78.4 184.475 77.12C186.195 75.84 188.275 75.2 190.715 75.2C196.035 75.2 199.395 78.28 199.395 83.24V97H194.275V95.32H194.195C193.195 96.8 191.195 97.6 188.635 97.6C184.435 97.6 181.675 95.08 181.675 91.24ZM193.835 89.84V86.76H193.755C193.395 87.4 192.515 87.92 190.595 88.44C188.035 89.12 187.155 89.76 187.155 90.88C187.155 92.16 188.035 92.8 189.755 92.8C192.155 92.8 193.835 91.6 193.835 89.84ZM203.573 97V75.8H209.013V77.68H209.093C210.333 76.12 212.573 75.2 214.933 75.2C217.253 75.2 219.133 75.96 220.533 77.44C221.973 78.92 222.693 80.92 222.693 83.44V97H216.973V84.44C216.973 81.92 215.573 80.48 213.133 80.48C210.733 80.48 209.293 82 209.293 84.44V97H203.573ZM58.76 157V129H64.84L74.32 146.8H74.4V129H80.32V157H74.24L64.76 139.2H64.68V157H58.76ZM87.4703 166L91.6303 155.92L83.4703 135.8H89.3903L94.4703 149.24H94.5503L99.6703 135.8H105.55L93.3503 166H87.4703ZM106.13 151.24C106.13 147.68 108.25 145.76 113.69 144.44C117.05 143.64 118.09 143.04 118.09 141.92C118.09 140.68 117.05 139.96 115.17 139.96C112.97 139.96 111.57 141.16 111.13 143.36L105.89 142.2C106.21 140.08 107.21 138.4 108.93 137.12C110.65 135.84 112.73 135.2 115.17 135.2C120.49 135.2 123.85 138.28 123.85 143.24V157H118.73V155.32H118.65C117.65 156.8 115.65 157.6 113.09 157.6C108.89 157.6 106.13 155.08 106.13 151.24ZM118.29 149.84V146.76H118.21C117.85 147.4 116.97 147.92 115.05 148.44C112.49 149.12 111.61 149.76 111.61 150.88C111.61 152.16 112.49 152.8 114.21 152.8C116.61 152.8 118.29 151.6 118.29 149.84ZM140.437 140.84H135.197V149.8C135.197 151.12 135.717 151.52 137.357 151.52H139.677V157H136.797C131.557 157 129.477 155.08 129.477 150.16V140.84H125.837V135.8H129.477V130.48H135.197V135.8H140.437V140.84ZM142.242 151.24C142.242 147.68 144.362 145.76 149.802 144.44C153.162 143.64 154.202 143.04 154.202 141.92C154.202 140.68 153.162 139.96 151.282 139.96C149.082 139.96 147.682 141.16 147.242 143.36L142.002 142.2C142.322 140.08 143.322 138.4 145.042 137.12C146.762 135.84 148.842 135.2 151.282 135.2C156.602 135.2 159.962 138.28 159.962 143.24V157H154.842V155.32H154.762C153.762 156.8 151.762 157.6 149.202 157.6C145.002 157.6 142.242 155.08 142.242 151.24ZM154.402 149.84V146.76H154.322C153.962 147.4 153.082 147.92 151.162 148.44C148.602 149.12 147.722 149.76 147.722 150.88C147.722 152.16 148.602 152.8 150.322 152.8C152.722 152.8 154.402 151.6 154.402 149.84Z" fill="#F5F5F5"/>
<path d="M57.944 228V211.2H60.992L66.2 223.896H66.248L71.456 211.2H74.504V228H72.056V215.4H72.008L66.728 228H65.696L60.44 215.4H60.392V228H57.944ZM77.6381 221.64C77.6381 217.68 80.0621 214.92 83.5421 214.92C86.9981 214.92 89.3021 217.536 89.3021 221.352V222.336H80.0141C80.0381 223.464 80.3741 224.424 81.0221 225.168C81.6701 225.912 82.5101 226.272 83.5421 226.272C85.1501 226.272 86.1101 225.648 87.1661 223.944L88.9901 225.168C87.8621 227.28 85.9901 228.36 83.5661 228.36C80.0381 228.36 77.6381 225.648 77.6381 221.64ZM80.0621 220.536H86.9741C86.8781 218.448 85.5581 217.008 83.5421 217.008C81.6221 217.008 80.1101 218.616 80.0621 220.536ZM91.9987 228V215.28H94.2547V216.408H94.3027C95.0707 215.52 96.4867 214.92 97.8307 214.92C100.735 214.92 102.631 216.816 102.631 219.792V228H100.279V220.152C100.279 218.256 99.1987 217.104 97.3747 217.104C95.5507 217.104 94.3507 218.328 94.3507 220.152V228H91.9987ZM105.188 221.64C105.188 217.704 107.588 214.92 110.9 214.92C112.34 214.92 113.636 215.496 114.476 216.432H114.524V210.48H116.876V228H114.668V226.776H114.62C113.828 227.76 112.436 228.36 110.876 228.36C107.588 228.36 105.188 225.576 105.188 221.64ZM114.524 222.744V220.512C114.524 218.64 113.012 217.104 111.092 217.104C108.908 217.104 107.54 218.856 107.54 221.64C107.54 224.424 108.956 226.176 111.164 226.176C113.036 226.176 114.524 224.64 114.524 222.744ZM119.561 221.64C119.561 217.632 122.009 214.92 125.633 214.92C129.257 214.92 131.705 217.632 131.705 221.64C131.705 225.648 129.257 228.36 125.633 228.36C122.009 228.36 119.561 225.648 119.561 221.64ZM129.353 221.64C129.353 218.856 127.937 217.104 125.633 217.104C123.329 217.104 121.913 218.856 121.913 221.64C121.913 224.424 123.329 226.176 125.633 226.176C127.937 226.176 129.353 224.424 129.353 221.64ZM134.391 228V215.28H136.599V216.336H136.647C137.151 215.544 138.135 215.064 139.311 215.064C139.767 215.064 140.247 215.136 140.727 215.256L140.271 217.608C139.767 217.464 139.335 217.392 138.951 217.392C137.487 217.392 136.743 218.4 136.743 220.608V228H134.391ZM141.58 221.64C141.58 217.632 144.028 214.92 147.652 214.92C151.276 214.92 153.724 217.632 153.724 221.64C153.724 225.648 151.276 228.36 147.652 228.36C144.028 228.36 141.58 225.648 141.58 221.64ZM151.372 221.64C151.372 218.856 149.956 217.104 147.652 217.104C145.348 217.104 143.932 218.856 143.932 221.64C143.932 224.424 145.348 226.176 147.652 226.176C149.956 226.176 151.372 224.424 151.372 221.64ZM156.41 228V215.28H158.666V216.408H158.714C159.482 215.52 160.898 214.92 162.242 214.92C165.146 214.92 167.042 216.816 167.042 219.792V228H164.69V220.152C164.69 218.256 163.61 217.104 161.786 217.104C159.962 217.104 158.762 218.328 158.762 220.152V228H156.41ZM170.511 230.424L172.503 229.296C173.343 231 174.255 231.624 175.863 231.624C177.807 231.624 178.983 230.304 178.983 228.168V226.776H178.935C178.239 227.76 176.895 228.36 175.287 228.36C171.951 228.36 169.599 225.576 169.599 221.64C169.599 217.728 171.999 214.944 175.311 214.944C176.751 214.944 178.095 215.52 178.935 216.504H178.983V215.28H181.287V228.288C181.287 231.552 179.127 233.76 175.863 233.76C173.439 233.76 171.447 232.512 170.511 230.424ZM178.935 222.744V220.56C178.935 218.664 177.423 217.128 175.503 217.128C173.367 217.128 171.951 218.88 171.951 221.64C171.951 224.424 173.367 226.176 175.575 226.176C177.447 226.176 178.935 224.64 178.935 222.744ZM196.865 217.392H193.745V224.64C193.745 225.48 194.081 225.768 195.113 225.768H196.265V228H194.897C192.329 228 191.393 227.112 191.393 224.688V217.392H189.401V215.28H191.393V212.304H193.745V215.28H196.865V217.392ZM199.206 228V215.28H201.558V228H199.206ZM199.086 213.072V210.6H201.654V213.072H199.086ZM204.696 228V215.28H206.952V216.408H207C207.768 215.52 209.184 214.92 210.528 214.92C213.432 214.92 215.328 216.816 215.328 219.792V228H212.976V220.152C212.976 218.256 211.896 217.104 210.072 217.104C208.248 217.104 207.048 218.328 207.048 220.152V228H204.696ZM217.885 221.64C217.885 217.704 220.285 214.92 223.597 214.92C225.037 214.92 226.333 215.496 227.173 216.432H227.221V210.48H229.573V228H227.365V226.776H227.317C226.525 227.76 225.133 228.36 223.573 228.36C220.285 228.36 217.885 225.576 217.885 221.64ZM227.221 222.744V220.512C227.221 218.64 225.709 217.104 223.789 217.104C221.605 217.104 220.237 218.856 220.237 221.64C220.237 224.424 221.653 226.176 223.861 226.176C225.733 226.176 227.221 224.64 227.221 222.744ZM232.306 224.688C232.306 222.552 233.554 221.424 236.794 220.656C239.098 220.08 239.818 219.624 239.818 218.688C239.818 217.656 238.93 216.984 237.49 216.984C235.93 216.984 234.85 217.896 234.538 219.504L232.258 219.024C232.474 217.776 233.05 216.792 233.986 216.048C234.946 215.304 236.122 214.92 237.49 214.92C240.442 214.92 242.266 216.576 242.266 219.264V228H240.106V226.776H240.058C239.362 227.76 238.042 228.36 236.482 228.36C233.962 228.36 232.306 226.92 232.306 224.688ZM239.938 223.704V221.184H239.89C239.674 221.736 238.93 222.12 237.394 222.528C235.378 223.032 234.61 223.584 234.61 224.544C234.61 225.624 235.354 226.248 236.77 226.248C238.618 226.248 239.938 225.168 239.938 223.704ZM245.306 228V210.48H247.658V220.656H247.706L252.626 215.28H255.794L251.114 220.248L256.082 228H253.346L249.554 221.88H249.506L247.658 223.896V228H245.306ZM257.208 224.688C257.208 222.552 258.456 221.424 261.696 220.656C264 220.08 264.72 219.624 264.72 218.688C264.72 217.656 263.832 216.984 262.392 216.984C260.832 216.984 259.752 217.896 259.44 219.504L257.16 219.024C257.376 217.776 257.952 216.792 258.888 216.048C259.848 215.304 261.024 214.92 262.392 214.92C265.344 214.92 267.168 216.576 267.168 219.264V228H265.008V226.776H264.96C264.264 227.76 262.944 228.36 261.384 228.36C258.864 228.36 257.208 226.92 257.208 224.688ZM264.84 223.704V221.184H264.792C264.576 221.736 263.832 222.12 262.296 222.528C260.28 223.032 259.512 223.584 259.512 224.544C259.512 225.624 260.256 226.248 261.672 226.248C263.52 226.248 264.84 225.168 264.84 223.704ZM270.208 228V215.28H272.464V216.408H272.512C273.28 215.52 274.696 214.92 276.04 214.92C278.944 214.92 280.84 216.816 280.84 219.792V228H278.488V220.152C278.488 218.256 277.408 217.104 275.584 217.104C273.76 217.104 272.56 218.328 272.56 220.152V228H270.208ZM290.493 228V215.28H292.749V216.408H292.797C293.565 215.52 294.981 214.92 296.325 214.92C299.229 214.92 301.125 216.816 301.125 219.792V228H298.773V220.152C298.773 218.256 297.693 217.104 295.869 217.104C294.045 217.104 292.845 218.328 292.845 220.152V228H290.493ZM304.818 233.4L307.458 227.04L302.562 215.28H305.034L308.634 224.328H308.682L312.33 215.28H314.802L307.242 233.4H304.818ZM315.525 224.688C315.525 222.552 316.773 221.424 320.013 220.656C322.317 220.08 323.037 219.624 323.037 218.688C323.037 217.656 322.149 216.984 320.709 216.984C319.149 216.984 318.069 217.896 317.757 219.504L315.477 219.024C315.693 217.776 316.269 216.792 317.205 216.048C318.165 215.304 319.341 214.92 320.709 214.92C323.661 214.92 325.485 216.576 325.485 219.264V228H323.325V226.776H323.277C322.581 227.76 321.261 228.36 319.701 228.36C317.181 228.36 315.525 226.92 315.525 224.688ZM323.157 223.704V221.184H323.109C322.893 221.736 322.149 222.12 320.613 222.528C318.597 223.032 317.829 223.584 317.829 224.544C317.829 225.624 318.573 226.248 319.989 226.248C321.837 226.248 323.157 225.168 323.157 223.704ZM334.675 217.392H331.555V224.64C331.555 225.48 331.891 225.768 332.923 225.768H334.075V228H332.707C330.139 228 329.203 227.112 329.203 224.688V217.392H327.211V215.28H329.203V212.304H331.555V215.28H334.675V217.392ZM335.927 224.688C335.927 222.552 337.175 221.424 340.415 220.656C342.719 220.08 343.439 219.624 343.439 218.688C343.439 217.656 342.551 216.984 341.111 216.984C339.551 216.984 338.471 217.896 338.159 219.504L335.879 219.024C336.095 217.776 336.671 216.792 337.607 216.048C338.567 215.304 339.743 214.92 341.111 214.92C344.063 214.92 345.887 216.576 345.887 219.264V228H343.727V226.776H343.679C342.983 227.76 341.663 228.36 340.103 228.36C337.583 228.36 335.927 226.92 335.927 224.688ZM343.559 223.704V221.184H343.511C343.295 221.736 342.551 222.12 341.015 222.528C338.999 223.032 338.231 223.584 338.231 224.544C338.231 225.624 338.975 226.248 340.391 226.248C342.239 226.248 343.559 225.168 343.559 223.704ZM56.984 265.64C56.984 261.704 59.384 258.92 62.696 258.92C64.136 258.92 65.432 259.496 66.272 260.432H66.32V254.48H68.672V272H66.464V270.776H66.416C65.624 271.76 64.232 272.36 62.672 272.36C59.384 272.36 56.984 269.576 56.984 265.64ZM66.32 266.744V264.512C66.32 262.64 64.808 261.104 62.888 261.104C60.704 261.104 59.336 262.856 59.336 265.64C59.336 268.424 60.752 270.176 62.96 270.176C64.832 270.176 66.32 268.64 66.32 266.744ZM71.4048 268.688C71.4048 266.552 72.6528 265.424 75.8928 264.656C78.1968 264.08 78.9168 263.624 78.9168 262.688C78.9168 261.656 78.0288 260.984 76.5888 260.984C75.0288 260.984 73.9488 261.896 73.6368 263.504L71.3568 263.024C71.5728 261.776 72.1488 260.792 73.0848 260.048C74.0448 259.304 75.2208 258.92 76.5888 258.92C79.5408 258.92 81.3648 260.576 81.3648 263.264V272H79.2048V270.776H79.1568C78.4608 271.76 77.1408 272.36 75.5808 272.36C73.0608 272.36 71.4048 270.92 71.4048 268.688ZM79.0368 267.704V265.184H78.9888C78.7728 265.736 78.0288 266.12 76.4928 266.528C74.4768 267.032 73.7088 267.584 73.7088 268.544C73.7088 269.624 74.4528 270.248 75.8688 270.248C77.7168 270.248 79.0368 269.168 79.0368 267.704ZM84.4049 272V259.28H86.6129V260.336H86.6609C87.1649 259.544 88.1489 259.064 89.3249 259.064C89.7809 259.064 90.2609 259.136 90.7409 259.256L90.2849 261.608C89.7809 261.464 89.3489 261.392 88.9649 261.392C87.5009 261.392 86.7569 262.4 86.7569 264.608V272H84.4049ZM92.8012 272V259.28H95.1532V272H92.8012ZM92.6812 257.072V254.6H95.2492V257.072H92.6812ZM104.906 272V259.28H107.258V272H104.906ZM104.786 257.072V254.6H107.354V257.072H104.786ZM110.396 272V259.28H112.652V260.408H112.7C113.468 259.52 114.884 258.92 116.228 258.92C119.132 258.92 121.028 260.816 121.028 263.792V272H118.676V264.152C118.676 262.256 117.596 261.104 115.772 261.104C113.948 261.104 112.748 262.328 112.748 264.152V272H110.396ZM123.586 265.64C123.586 261.704 125.986 258.92 129.298 258.92C130.738 258.92 132.034 259.496 132.874 260.432H132.922V254.48H135.274V272H133.066V270.776H133.018C132.226 271.76 130.834 272.36 129.274 272.36C125.986 272.36 123.586 269.576 123.586 265.64ZM132.922 266.744V264.512C132.922 262.64 131.41 261.104 129.49 261.104C127.306 261.104 125.938 262.856 125.938 265.64C125.938 268.424 127.354 270.176 129.562 270.176C131.434 270.176 132.922 268.64 132.922 266.744ZM138.439 272V259.28H140.791V272H138.439ZM138.319 257.072V254.6H140.887V257.072H138.319ZM147.985 272L142.633 259.28H145.153L149.017 268.832H149.065L152.929 259.28H155.449L150.097 272H147.985ZM157.317 272V259.28H159.669V272H157.317ZM157.197 257.072V254.6H159.765V257.072H157.197ZM162.327 265.64C162.327 261.704 164.727 258.92 168.039 258.92C169.479 258.92 170.775 259.496 171.615 260.432H171.663V254.48H174.015V272H171.807V270.776H171.759C170.967 271.76 169.575 272.36 168.015 272.36C164.727 272.36 162.327 269.576 162.327 265.64ZM171.663 266.744V264.512C171.663 262.64 170.151 261.104 168.231 261.104C166.047 261.104 164.679 262.856 164.679 265.64C164.679 268.424 166.095 270.176 168.303 270.176C170.175 270.176 171.663 268.64 171.663 266.744ZM176.94 267.56V259.28H179.292V267.128C179.292 269.168 180.228 270.176 182.148 270.176C183.9 270.176 185.052 268.976 185.052 267.128V259.28H187.404V272H185.148V270.872H185.076C184.308 271.808 182.916 272.36 181.452 272.36C178.596 272.36 176.94 270.608 176.94 267.56ZM191.312 274.832V273.56C192.176 273.368 192.512 272.936 192.512 272H191.192V269H194.432V271.616C194.432 273.56 193.352 274.664 191.312 274.832ZM204.83 272V254.48H207.182V264.656H207.23L212.15 259.28H215.318L210.638 264.248L215.606 272H212.87L209.078 265.88H209.03L207.182 267.896V272H204.83ZM216.449 265.64C216.449 261.68 218.873 258.92 222.353 258.92C225.809 258.92 228.113 261.536 228.113 265.352V266.336H218.825C218.849 267.464 219.185 268.424 219.833 269.168C220.481 269.912 221.321 270.272 222.353 270.272C223.961 270.272 224.921 269.648 225.977 267.944L227.801 269.168C226.673 271.28 224.801 272.36 222.377 272.36C218.849 272.36 216.449 269.648 216.449 265.64ZM218.873 264.536H225.785C225.689 262.448 224.369 261.008 222.353 261.008C220.433 261.008 218.921 262.616 218.873 264.536ZM230.81 272V254.48H233.162V272H230.81ZM236.06 267.56V259.28H238.412V267.128C238.412 269.168 239.348 270.176 241.268 270.176C243.02 270.176 244.172 268.976 244.172 267.128V259.28H246.524V272H244.268V270.872H244.196C243.428 271.808 242.036 272.36 240.572 272.36C237.716 272.36 236.06 270.608 236.06 267.56ZM249.256 268.688C249.256 266.552 250.504 265.424 253.744 264.656C256.048 264.08 256.768 263.624 256.768 262.688C256.768 261.656 255.88 260.984 254.44 260.984C252.88 260.984 251.8 261.896 251.488 263.504L249.208 263.024C249.424 261.776 250 260.792 250.936 260.048C251.896 259.304 253.072 258.92 254.44 258.92C257.392 258.92 259.216 260.576 259.216 263.264V272H257.056V270.776H257.008C256.312 271.76 254.992 272.36 253.432 272.36C250.912 272.36 249.256 270.92 249.256 268.688ZM256.888 267.704V265.184H256.84C256.624 265.736 255.88 266.12 254.344 266.528C252.328 267.032 251.56 267.584 251.56 268.544C251.56 269.624 252.304 270.248 253.72 270.248C255.568 270.248 256.888 269.168 256.888 267.704ZM262.256 272V259.28H264.464V260.336H264.512C265.016 259.544 266 259.064 267.176 259.064C267.632 259.064 268.112 259.136 268.592 259.256L268.136 261.608C267.632 261.464 267.2 261.392 266.816 261.392C265.352 261.392 264.608 262.4 264.608 264.608V272H262.256ZM270.358 274.424L272.35 273.296C273.19 275 274.102 275.624 275.71 275.624C277.654 275.624 278.83 274.304 278.83 272.168V270.776H278.782C278.086 271.76 276.742 272.36 275.134 272.36C271.798 272.36 269.446 269.576 269.446 265.64C269.446 261.728 271.846 258.944 275.158 258.944C276.598 258.944 277.942 259.52 278.782 260.504H278.83V259.28H281.134V272.288C281.134 275.552 278.974 277.76 275.71 277.76C273.286 277.76 271.294 276.512 270.358 274.424ZM278.782 266.744V264.56C278.782 262.664 277.27 261.128 275.35 261.128C273.214 261.128 271.798 262.88 271.798 265.64C271.798 268.424 273.214 270.176 275.422 270.176C277.294 270.176 278.782 268.64 278.782 266.744ZM283.749 268.688C283.749 266.552 284.997 265.424 288.237 264.656C290.541 264.08 291.261 263.624 291.261 262.688C291.261 261.656 290.373 260.984 288.933 260.984C287.373 260.984 286.293 261.896 285.981 263.504L283.701 263.024C283.917 261.776 284.493 260.792 285.429 260.048C286.389 259.304 287.565 258.92 288.933 258.92C291.885 258.92 293.709 260.576 293.709 263.264V272H291.549V270.776H291.501C290.805 271.76 289.485 272.36 287.925 272.36C285.405 272.36 283.749 270.92 283.749 268.688ZM291.381 267.704V265.184H291.333C291.117 265.736 290.373 266.12 288.837 266.528C286.821 267.032 286.053 267.584 286.053 268.544C286.053 269.624 286.797 270.248 288.213 270.248C290.061 270.248 291.381 269.168 291.381 267.704ZM297.494 274.832V273.56C298.358 273.368 298.694 272.936 298.694 272H297.374V269H300.614V271.616C300.614 273.56 299.534 274.664 297.494 274.832ZM309.804 265.64C309.804 261.704 312.204 258.92 315.516 258.92C316.956 258.92 318.252 259.496 319.092 260.432H319.14V254.48H321.492V272H319.284V270.776H319.236C318.444 271.76 317.052 272.36 315.492 272.36C312.204 272.36 309.804 269.576 309.804 265.64ZM319.14 266.744V264.512C319.14 262.64 317.628 261.104 315.708 261.104C313.524 261.104 312.156 262.856 312.156 265.64C312.156 268.424 313.572 270.176 315.78 270.176C317.652 270.176 319.14 268.64 319.14 266.744ZM324.225 268.688C324.225 266.552 325.473 265.424 328.713 264.656C331.017 264.08 331.737 263.624 331.737 262.688C331.737 261.656 330.849 260.984 329.409 260.984C327.849 260.984 326.769 261.896 326.457 263.504L324.177 263.024C324.393 261.776 324.969 260.792 325.905 260.048C326.865 259.304 328.041 258.92 329.409 258.92C332.361 258.92 334.185 260.576 334.185 263.264V272H332.025V270.776H331.977C331.281 271.76 329.961 272.36 328.401 272.36C325.881 272.36 324.225 270.92 324.225 268.688ZM331.857 267.704V265.184H331.809C331.593 265.736 330.849 266.12 329.313 266.528C327.297 267.032 326.529 267.584 326.529 268.544C326.529 269.624 327.273 270.248 328.689 270.248C330.537 270.248 331.857 269.168 331.857 267.704ZM337.225 272V259.28H339.481V260.408H339.529C340.297 259.52 341.713 258.92 343.057 258.92C345.961 258.92 347.857 260.816 347.857 263.792V272H345.505V264.152C345.505 262.256 344.425 261.104 342.601 261.104C340.777 261.104 339.577 262.328 339.577 264.152V272H337.225ZM56.984 309.64C56.984 305.632 59.432 302.92 63.056 302.92C66.68 302.92 69.128 305.632 69.128 309.64C69.128 313.648 66.68 316.36 63.056 316.36C59.432 316.36 56.984 313.648 56.984 309.64ZM66.776 309.64C66.776 306.856 65.36 305.104 63.056 305.104C60.752 305.104 59.336 306.856 59.336 309.64C59.336 312.424 60.752 314.176 63.056 314.176C65.36 314.176 66.776 312.424 66.776 309.64ZM71.8134 316V303.28H74.0214V304.336H74.0694C74.5734 303.544 75.5574 303.064 76.7334 303.064C77.1894 303.064 77.6694 303.136 78.1494 303.256L77.6934 305.608C77.1894 305.464 76.7574 305.392 76.3734 305.392C74.9094 305.392 74.1654 306.4 74.1654 308.608V316H71.8134ZM79.9151 318.424L81.9071 317.296C82.7471 319 83.6591 319.624 85.2671 319.624C87.2111 319.624 88.3871 318.304 88.3871 316.168V314.776H88.3391C87.6431 315.76 86.2991 316.36 84.6911 316.36C81.3551 316.36 79.0031 313.576 79.0031 309.64C79.0031 305.728 81.4031 302.944 84.7151 302.944C86.1551 302.944 87.4991 303.52 88.3391 304.504H88.3871V303.28H90.6911V316.288C90.6911 319.552 88.5311 321.76 85.2671 321.76C82.8431 321.76 80.8511 320.512 79.9151 318.424ZM88.3391 310.744V308.56C88.3391 306.664 86.8271 305.128 84.9071 305.128C82.7711 305.128 81.3551 306.88 81.3551 309.64C81.3551 312.424 82.7711 314.176 84.9791 314.176C86.8511 314.176 88.3391 312.64 88.3391 310.744ZM93.3067 312.688C93.3067 310.552 94.5547 309.424 97.7947 308.656C100.099 308.08 100.819 307.624 100.819 306.688C100.819 305.656 99.9307 304.984 98.4907 304.984C96.9307 304.984 95.8507 305.896 95.5387 307.504L93.2587 307.024C93.4747 305.776 94.0507 304.792 94.9867 304.048C95.9467 303.304 97.1227 302.92 98.4907 302.92C101.443 302.92 103.267 304.576 103.267 307.264V316H101.107V314.776H101.059C100.363 315.76 99.0427 316.36 97.4827 316.36C94.9627 316.36 93.3067 314.92 93.3067 312.688ZM100.939 311.704V309.184H100.891C100.675 309.736 99.9307 310.12 98.3947 310.528C96.3787 311.032 95.6107 311.584 95.6107 312.544C95.6107 313.624 96.3547 314.248 97.7707 314.248C99.6187 314.248 100.939 313.168 100.939 311.704ZM106.307 316V303.28H108.563V304.408H108.611C109.379 303.52 110.795 302.92 112.139 302.92C115.043 302.92 116.939 304.816 116.939 307.792V316H114.587V308.152C114.587 306.256 113.507 305.104 111.683 305.104C109.859 305.104 108.659 306.328 108.659 308.152V316H106.307ZM119.977 316V303.28H122.329V316H119.977ZM119.857 301.072V298.6H122.425V301.072H119.857ZM124.747 311.728L126.955 311.248C127.363 313.384 128.371 314.272 130.483 314.272C132.043 314.272 133.003 313.672 133.003 312.712C133.003 311.584 132.163 311.104 129.739 310.36C126.667 309.496 125.371 308.56 125.371 306.616C125.371 304.504 127.315 302.92 129.931 302.92C132.499 302.92 134.491 304.384 134.995 306.688L132.787 307.264C132.355 305.752 131.395 305.008 129.931 305.008C128.563 305.008 127.651 305.632 127.651 306.568C127.651 307.36 128.371 307.768 130.507 308.368C133.843 309.352 135.307 310.408 135.307 312.616C135.307 314.896 133.387 316.36 130.483 316.36C127.195 316.36 125.107 314.704 124.747 311.728ZM137.321 312.688C137.321 310.552 138.569 309.424 141.809 308.656C144.113 308.08 144.833 307.624 144.833 306.688C144.833 305.656 143.945 304.984 142.505 304.984C140.945 304.984 139.865 305.896 139.553 307.504L137.273 307.024C137.489 305.776 138.065 304.792 139.001 304.048C139.961 303.304 141.137 302.92 142.505 302.92C145.457 302.92 147.281 304.576 147.281 307.264V316H145.121V314.776H145.073C144.377 315.76 143.057 316.36 141.497 316.36C138.977 316.36 137.321 314.92 137.321 312.688ZM144.953 311.704V309.184H144.905C144.689 309.736 143.945 310.12 142.409 310.528C140.393 311.032 139.625 311.584 139.625 312.544C139.625 313.624 140.369 314.248 141.785 314.248C143.633 314.248 144.953 313.168 144.953 311.704ZM149.601 311.728L151.809 311.248C152.217 313.384 153.225 314.272 155.337 314.272C156.897 314.272 157.857 313.672 157.857 312.712C157.857 311.584 157.017 311.104 154.593 310.36C151.521 309.496 150.225 308.56 150.225 306.616C150.225 304.504 152.169 302.92 154.785 302.92C157.353 302.92 159.345 304.384 159.849 306.688L157.641 307.264C157.209 305.752 156.249 305.008 154.785 305.008C153.417 305.008 152.505 305.632 152.505 306.568C152.505 307.36 153.225 307.768 155.361 308.368C158.697 309.352 160.161 310.408 160.161 312.616C160.161 314.896 158.241 316.36 155.337 316.36C152.049 316.36 149.961 314.704 149.601 311.728ZM162.608 316V303.28H164.96V316H162.608ZM162.488 301.072V298.6H165.056V301.072H162.488Z" fill="#F5F5F5"/>
<defs>
<filter id="filter0_d_55_5527" x="0" y="0" width="434" height="540" filterUnits="userSpaceOnUse" color-interpolation-filters="sRGB">
<feFlood flood-opacity="0" result="BackgroundImageFix"/>
<feColorMatrix in="SourceAlpha" type="matrix" values="0 0 0 0 0 0 0 0 0 0 0 0 0 0 0 0 0 0 127 0" result="hardAlpha"/>
<feOffset dy="4"/>
<feGaussianBlur stdDeviation="13.5"/>
<feComposite in2="hardAlpha" operator="out"/>
<feColorMatrix type="matrix" values="0 0 0 0 0.0916667 0 0 0 0 0.0874653 0 0 0 0 0.0874653 0 0 0 0.14 0"/>
<feBlend mode="normal" in2="BackgroundImageFix" result="effect1_dropShadow_55_5527"/>
<feBlend mode="normal" in="SourceGraphic" in2="effect1_dropShadow_55_5527" result="shape"/>
</filter>
</defs>
</svg>
