<svg width="434" height="540" viewBox="0 0 434 540" fill="none" xmlns="http://www.w3.org/2000/svg">
<g filter="url(#filter0_d_55_5524)">
<rect x="27" y="23" width="380" height="486" rx="72" fill="#FBD03B"/>
</g>
<path d="M63.76 97V69H70.32L78.16 87.84H78.24L86.12 69H92.68V97H86.88V79.72H86.8L79.48 97H76.92L69.64 79.72H69.56V97H63.76ZM97.0131 86.4C97.0131 79.8 101.173 75.2 107.013 75.2C112.893 75.2 116.973 79.72 116.973 86.4V88.08H102.773C102.933 91.08 104.533 92.8 107.133 92.8C109.213 92.8 110.773 91.84 112.253 89.64L116.293 92.8C114.253 96 111.173 97.6 107.133 97.6C101.173 97.6 97.0131 93.08 97.0131 86.4ZM102.773 84.04H111.413C111.213 81.48 109.653 80 107.053 80C104.693 80 102.973 81.6 102.773 84.04ZM120.519 97V75.8H125.959V77.68H126.039C127.279 76.12 129.519 75.2 131.879 75.2C134.199 75.2 136.079 75.96 137.479 77.44C138.919 78.92 139.639 80.92 139.639 83.44V97H133.919V84.44C133.919 81.92 132.519 80.48 130.079 80.48C127.679 80.48 126.239 82 126.239 84.44V97H120.519ZM143.968 101.64L148.288 98.4C149.928 100.68 151.408 101.56 153.688 101.56C156.528 101.56 158.208 99.76 158.208 96.84V95.28H158.128C157.128 96.6 154.848 97.56 152.488 97.56C147.008 97.56 143.008 92.8 143.008 86.36C143.008 80.08 147.008 75.4 152.488 75.4C154.848 75.4 156.848 76.16 158.128 77.48H158.208V75.8H163.728V97.04C163.728 102.92 159.768 106.6 153.648 106.6C149.648 106.6 146.008 104.72 143.968 101.64ZM158.008 87.88V85.04C158.008 82.44 156.128 80.6 153.568 80.6C150.528 80.6 148.728 82.72 148.728 86.36C148.728 90.08 150.528 92.32 153.568 92.32C156.168 92.32 158.008 90.48 158.008 87.88ZM167.881 97V75.8H173.601V97H167.881ZM167.801 72.32V66.72H173.601V72.32H167.801ZM177.969 97V75.8H183.409V77.68H183.489C184.729 76.12 186.969 75.2 189.329 75.2C191.649 75.2 193.529 75.96 194.929 77.44C196.369 78.92 197.089 80.92 197.089 83.44V97H191.369V84.44C191.369 81.92 189.969 80.48 187.529 80.48C185.129 80.48 183.689 82 183.689 84.44V97H177.969ZM200.058 90.16L205.138 88.8C205.818 91.68 207.258 92.92 209.978 92.92C212.018 92.92 213.178 92.28 213.178 91.2C213.178 90.68 212.978 90.24 212.578 89.88C211.818 89.2 210.858 88.88 208.578 88.12C204.178 86.88 201.378 85.76 201.178 81.6C201.178 78 204.618 75.2 209.178 75.2C211.338 75.2 213.258 75.76 214.898 76.92C216.538 78.08 217.618 79.56 218.138 81.44L213.098 82.92C212.418 80.88 210.978 79.84 209.178 79.84C207.538 79.84 206.498 80.56 206.498 81.52C206.498 82.48 207.538 82.88 210.298 83.68C211.938 84.16 213.338 84.64 214.418 85.12C216.658 86.08 218.498 87.96 218.498 91C218.498 92.96 217.738 94.56 216.178 95.8C214.618 97 212.578 97.6 209.978 97.6C204.538 97.6 200.978 94.96 200.058 90.16ZM221.659 106V75.8H227.139V77.28H227.219C228.619 75.96 230.579 75.2 232.859 75.2C238.339 75.2 242.339 79.96 242.339 86.4C242.339 92.84 238.339 97.6 232.899 97.6C230.659 97.6 228.579 96.8 227.459 95.52H227.379V106H221.659ZM236.619 86.4C236.619 82.6 234.859 80.44 231.779 80.44C229.219 80.44 227.379 82.28 227.379 84.88V87.92C227.379 90.48 229.219 92.4 231.779 92.4C234.859 92.4 236.619 90.2 236.619 86.4ZM245.887 97V75.8H251.607V97H245.887ZM245.807 72.32V66.72H251.607V72.32H245.807ZM255.975 97V75.8H261.335V77.68H261.415C262.375 76.24 263.935 75.4 265.975 75.4C266.975 75.4 267.895 75.52 268.735 75.76L267.775 81.2C266.935 81 266.175 80.88 265.415 80.88C262.975 80.88 261.695 82.52 261.695 85.6V97H255.975ZM269.955 91.24C269.955 87.68 272.075 85.76 277.515 84.44C280.875 83.64 281.915 83.04 281.915 81.92C281.915 80.68 280.875 79.96 278.995 79.96C276.795 79.96 275.395 81.16 274.955 83.36L269.715 82.2C270.035 80.08 271.035 78.4 272.755 77.12C274.475 75.84 276.555 75.2 278.995 75.2C284.315 75.2 287.675 78.28 287.675 83.24V97H282.555V95.32H282.475C281.475 96.8 279.475 97.6 276.915 97.6C272.715 97.6 269.955 95.08 269.955 91.24ZM282.115 89.84V86.76H282.035C281.675 87.4 280.795 87.92 278.875 88.44C276.315 89.12 275.435 89.76 275.435 90.88C275.435 92.16 276.315 92.8 278.035 92.8C280.435 92.8 282.115 91.6 282.115 89.84ZM290.613 90.16L295.693 88.8C296.373 91.68 297.813 92.92 300.533 92.92C302.573 92.92 303.733 92.28 303.733 91.2C303.733 90.68 303.533 90.24 303.133 89.88C302.373 89.2 301.413 88.88 299.133 88.12C294.733 86.88 291.933 85.76 291.733 81.6C291.733 78 295.173 75.2 299.733 75.2C301.893 75.2 303.813 75.76 305.453 76.92C307.093 78.08 308.173 79.56 308.693 81.44L303.653 82.92C302.973 80.88 301.533 79.84 299.733 79.84C298.093 79.84 297.053 80.56 297.053 81.52C297.053 82.48 298.093 82.88 300.853 83.68C302.493 84.16 303.893 84.64 304.973 85.12C307.213 86.08 309.053 87.96 309.053 91C309.053 92.96 308.293 94.56 306.733 95.8C305.173 97 303.133 97.6 300.533 97.6C295.093 97.6 291.533 94.96 290.613 90.16ZM312.214 97V75.8H317.934V97H312.214ZM312.134 72.32V66.72H317.934V72.32H312.134ZM63.76 157V129H69.68V140.44H69.76L79.16 129H86.08L75.8 141.4L86.88 157H79.84L72.16 145.8H72.08L69.68 148.72V157H63.76ZM87.2866 146.4C87.2866 139.8 91.4466 135.2 97.2866 135.2C103.167 135.2 107.247 139.72 107.247 146.4V148.08H93.0466C93.2066 151.08 94.8066 152.8 97.4066 152.8C99.4866 152.8 101.047 151.84 102.527 149.64L106.567 152.8C104.527 156 101.447 157.6 97.4066 157.6C91.4466 157.6 87.2866 153.08 87.2866 146.4ZM93.0466 144.04H101.687C101.487 141.48 99.9266 140 97.3266 140C94.9666 140 93.2466 141.6 93.0466 144.04ZM109.162 150.16L114.242 148.8C114.922 151.68 116.362 152.92 119.082 152.92C121.122 152.92 122.282 152.28 122.282 151.2C122.282 150.68 122.082 150.24 121.682 149.88C120.922 149.2 119.962 148.88 117.682 148.12C113.282 146.88 110.482 145.76 110.282 141.6C110.282 138 113.722 135.2 118.282 135.2C120.442 135.2 122.362 135.76 124.002 136.92C125.642 138.08 126.722 139.56 127.242 141.44L122.202 142.92C121.522 140.88 120.082 139.84 118.282 139.84C116.642 139.84 115.602 140.56 115.602 141.52C115.602 142.48 116.642 142.88 119.402 143.68C121.042 144.16 122.442 144.64 123.522 145.12C125.762 146.08 127.602 147.96 127.602 151C127.602 152.96 126.842 154.56 125.282 155.8C123.722 157 121.682 157.6 119.082 157.6C113.642 157.6 110.082 154.96 109.162 150.16ZM130.162 151.24C130.162 147.68 132.282 145.76 137.722 144.44C141.082 143.64 142.122 143.04 142.122 141.92C142.122 140.68 141.082 139.96 139.202 139.96C137.002 139.96 135.602 141.16 135.162 143.36L129.922 142.2C130.242 140.08 131.242 138.4 132.962 137.12C134.682 135.84 136.762 135.2 139.202 135.2C144.522 135.2 147.882 138.28 147.882 143.24V157H142.762V155.32H142.682C141.682 156.8 139.682 157.6 137.122 157.6C132.922 157.6 130.162 155.08 130.162 151.24ZM142.322 149.84V146.76H142.242C141.882 147.4 141.002 147.92 139.082 148.44C136.522 149.12 135.642 149.76 135.642 150.88C135.642 152.16 136.522 152.8 138.242 152.8C140.642 152.8 142.322 151.6 142.322 149.84ZM151.221 146.4C151.221 139.96 155.221 135.2 160.701 135.2C162.981 135.2 164.781 135.84 166.101 137.08H166.181V127.8H171.901V157H166.621V155.12H166.541C165.301 156.56 163.141 157.6 160.701 157.6C155.221 157.6 151.221 152.84 151.221 146.4ZM166.181 147.92V144.88C166.181 142.28 164.341 140.44 161.781 140.44C158.701 140.44 156.941 142.6 156.941 146.4C156.941 150.2 158.701 152.36 161.781 152.36C164.341 152.36 166.181 150.48 166.181 147.92ZM175.689 151.24C175.689 147.68 177.809 145.76 183.249 144.44C186.609 143.64 187.649 143.04 187.649 141.92C187.649 140.68 186.609 139.96 184.729 139.96C182.529 139.96 181.129 141.16 180.689 143.36L175.449 142.2C175.769 140.08 176.769 138.4 178.489 137.12C180.209 135.84 182.289 135.2 184.729 135.2C190.049 135.2 193.409 138.28 193.409 143.24V157H188.289V155.32H188.209C187.209 156.8 185.209 157.6 182.649 157.6C178.449 157.6 175.689 155.08 175.689 151.24ZM187.849 149.84V146.76H187.769C187.409 147.4 186.529 147.92 184.609 148.44C182.049 149.12 181.169 149.76 181.169 150.88C181.169 152.16 182.049 152.8 183.769 152.8C186.169 152.8 187.849 151.6 187.849 149.84ZM197.587 157V135.8H202.947V137.68H203.027C203.987 136.24 205.547 135.4 207.587 135.4C208.587 135.4 209.507 135.52 210.347 135.76L209.387 141.2C208.547 141 207.787 140.88 207.027 140.88C204.587 140.88 203.307 142.52 203.307 145.6V157H197.587ZM211.567 151.24C211.567 147.68 213.687 145.76 219.127 144.44C222.487 143.64 223.527 143.04 223.527 141.92C223.527 140.68 222.487 139.96 220.607 139.96C218.407 139.96 217.007 141.16 216.567 143.36L211.327 142.2C211.647 140.08 212.647 138.4 214.367 137.12C216.087 135.84 218.167 135.2 220.607 135.2C225.927 135.2 229.287 138.28 229.287 143.24V157H224.167V155.32H224.087C223.087 156.8 221.087 157.6 218.527 157.6C214.327 157.6 211.567 155.08 211.567 151.24ZM223.727 149.84V146.76H223.647C223.287 147.4 222.407 147.92 220.487 148.44C217.927 149.12 217.047 149.76 217.047 150.88C217.047 152.16 217.927 152.8 219.647 152.8C222.047 152.8 223.727 151.6 223.727 149.84ZM233.466 157V135.8H238.906V137.68H238.986C240.226 136.12 242.466 135.2 244.826 135.2C247.146 135.2 249.026 135.96 250.426 137.44C251.866 138.92 252.586 140.92 252.586 143.44V157H246.866V144.44C246.866 141.92 245.466 140.48 243.026 140.48C240.626 140.48 239.186 142 239.186 144.44V157H233.466Z" fill="#121111"/>
<path d="M61.744 223.728L63.952 223.248C64.36 225.384 65.368 226.272 67.48 226.272C69.04 226.272 70 225.672 70 224.712C70 223.584 69.16 223.104 66.736 222.36C63.664 221.496 62.368 220.56 62.368 218.616C62.368 216.504 64.312 214.92 66.928 214.92C69.496 214.92 71.488 216.384 71.992 218.688L69.784 219.264C69.352 217.752 68.392 217.008 66.928 217.008C65.56 217.008 64.648 217.632 64.648 218.568C64.648 219.36 65.368 219.768 67.504 220.368C70.84 221.352 72.304 222.408 72.304 224.616C72.304 226.896 70.384 228.36 67.48 228.36C64.192 228.36 62.104 226.704 61.744 223.728ZM74.5109 223.56V215.28H76.8629V223.128C76.8629 225.168 77.7989 226.176 79.7189 226.176C81.4709 226.176 82.6229 224.976 82.6229 223.128V215.28H84.9749V228H82.7189V226.872H82.6469C81.8789 227.808 80.4869 228.36 79.0229 228.36C76.1669 228.36 74.5109 226.608 74.5109 223.56ZM88.1393 228V215.28H90.3953V216.288H90.4433C91.1153 215.448 92.3633 214.92 93.6113 214.92C94.9553 214.92 96.2273 215.544 96.8993 216.504H96.9473C97.8353 215.52 99.0593 214.92 100.427 214.92C103.019 214.92 104.963 216.72 104.963 219.264V228H102.659V219.648C102.659 218.112 101.675 217.104 100.163 217.104C98.6513 217.104 97.6673 218.184 97.6673 219.792V228H95.4353V219.648C95.4353 218.112 94.4273 217.104 92.9633 217.104C91.4273 217.104 90.4433 218.184 90.4433 219.792V228H88.1393ZM110.276 226.776H110.228V228H108.02V210.48H110.372V216.432H110.42C111.26 215.496 112.556 214.92 113.996 214.92C117.308 214.92 119.708 217.704 119.708 221.64C119.708 225.576 117.308 228.36 114.02 228.36C112.46 228.36 111.068 227.76 110.276 226.776ZM117.356 221.64C117.356 218.856 115.988 217.104 113.804 217.104C111.884 217.104 110.372 218.64 110.372 220.512V222.744C110.372 224.64 111.86 226.176 113.732 226.176C115.94 226.176 117.356 224.424 117.356 221.64ZM121.913 221.64C121.913 217.68 124.337 214.92 127.817 214.92C131.273 214.92 133.577 217.536 133.577 221.352V222.336H124.289C124.313 223.464 124.649 224.424 125.297 225.168C125.945 225.912 126.785 226.272 127.817 226.272C129.425 226.272 130.385 225.648 131.441 223.944L133.265 225.168C132.137 227.28 130.265 228.36 127.841 228.36C124.313 228.36 121.913 225.648 121.913 221.64ZM124.337 220.536H131.249C131.153 218.448 129.833 217.008 127.817 217.008C125.897 217.008 124.385 218.616 124.337 220.536ZM136.273 228V215.28H138.481V216.336H138.529C139.033 215.544 140.017 215.064 141.193 215.064C141.649 215.064 142.129 215.136 142.609 215.256L142.153 217.608C141.649 217.464 141.217 217.392 140.833 217.392C139.369 217.392 138.625 218.4 138.625 220.608V228H136.273ZM151.045 223.56V215.28H153.397V223.128C153.397 225.168 154.333 226.176 156.253 226.176C158.005 226.176 159.157 224.976 159.157 223.128V215.28H161.509V228H159.253V226.872H159.181C158.413 227.808 157.021 228.36 155.557 228.36C152.701 228.36 151.045 226.608 151.045 223.56ZM171.057 217.392H167.937V224.64C167.937 225.48 168.273 225.768 169.305 225.768H170.457V228H169.089C166.521 228 165.585 227.112 165.585 224.688V217.392H163.593V215.28H165.585V212.304H167.937V215.28H171.057V217.392ZM172.309 224.688C172.309 222.552 173.557 221.424 176.797 220.656C179.101 220.08 179.821 219.624 179.821 218.688C179.821 217.656 178.933 216.984 177.493 216.984C175.933 216.984 174.853 217.896 174.541 219.504L172.261 219.024C172.477 217.776 173.053 216.792 173.989 216.048C174.949 215.304 176.125 214.92 177.493 214.92C180.445 214.92 182.269 216.576 182.269 219.264V228H180.109V226.776H180.061C179.365 227.76 178.045 228.36 176.485 228.36C173.965 228.36 172.309 226.92 172.309 224.688ZM179.941 223.704V221.184H179.893C179.677 221.736 178.933 222.12 177.397 222.528C175.381 223.032 174.613 223.584 174.613 224.544C174.613 225.624 175.357 226.248 176.773 226.248C178.621 226.248 179.941 225.168 179.941 223.704ZM185.309 228V215.28H187.565V216.288H187.613C188.285 215.448 189.533 214.92 190.781 214.92C192.125 214.92 193.397 215.544 194.069 216.504H194.117C195.005 215.52 196.229 214.92 197.597 214.92C200.189 214.92 202.133 216.72 202.133 219.264V228H199.829V219.648C199.829 218.112 198.845 217.104 197.333 217.104C195.821 217.104 194.837 218.184 194.837 219.792V228H192.605V219.648C192.605 218.112 191.597 217.104 190.133 217.104C188.597 217.104 187.613 218.184 187.613 219.792V228H185.309ZM204.758 224.688C204.758 222.552 206.006 221.424 209.246 220.656C211.55 220.08 212.27 219.624 212.27 218.688C212.27 217.656 211.382 216.984 209.942 216.984C208.382 216.984 207.302 217.896 206.99 219.504L204.71 219.024C204.926 217.776 205.502 216.792 206.438 216.048C207.398 215.304 208.574 214.92 209.942 214.92C212.894 214.92 214.718 216.576 214.718 219.264V228H212.558V226.776H212.51C211.814 227.76 210.494 228.36 208.934 228.36C206.414 228.36 204.758 226.92 204.758 224.688ZM212.39 223.704V221.184H212.342C212.126 221.736 211.382 222.12 209.846 222.528C207.83 223.032 207.062 223.584 207.062 224.544C207.062 225.624 207.806 226.248 209.222 226.248C211.07 226.248 212.39 225.168 212.39 223.704ZM224.442 233.4L227.082 227.04L222.186 215.28H224.658L228.258 224.328H228.306L231.954 215.28H234.426L226.866 233.4H224.442ZM235.15 224.688C235.15 222.552 236.398 221.424 239.638 220.656C241.942 220.08 242.662 219.624 242.662 218.688C242.662 217.656 241.774 216.984 240.334 216.984C238.774 216.984 237.694 217.896 237.382 219.504L235.102 219.024C235.318 217.776 235.894 216.792 236.83 216.048C237.79 215.304 238.966 214.92 240.334 214.92C243.286 214.92 245.11 216.576 245.11 219.264V228H242.95V226.776H242.902C242.206 227.76 240.886 228.36 239.326 228.36C236.806 228.36 235.15 226.92 235.15 224.688ZM242.782 223.704V221.184H242.734C242.518 221.736 241.774 222.12 240.238 222.528C238.222 223.032 237.454 223.584 237.454 224.544C237.454 225.624 238.198 226.248 239.614 226.248C241.462 226.248 242.782 225.168 242.782 223.704ZM248.15 228V215.28H250.406V216.408H250.454C251.222 215.52 252.638 214.92 253.982 214.92C256.886 214.92 258.782 216.816 258.782 219.792V228H256.43V220.152C256.43 218.256 255.35 217.104 253.526 217.104C251.702 217.104 250.502 218.328 250.502 220.152V228H248.15ZM262.252 230.424L264.244 229.296C265.084 231 265.996 231.624 267.604 231.624C269.548 231.624 270.724 230.304 270.724 228.168V226.776H270.676C269.98 227.76 268.636 228.36 267.028 228.36C263.692 228.36 261.34 225.576 261.34 221.64C261.34 217.728 263.74 214.944 267.052 214.944C268.492 214.944 269.836 215.52 270.676 216.504H270.724V215.28H273.028V228.288C273.028 231.552 270.868 233.76 267.604 233.76C265.18 233.76 263.188 232.512 262.252 230.424ZM270.676 222.744V220.56C270.676 218.664 269.164 217.128 267.244 217.128C265.108 217.128 263.692 218.88 263.692 221.64C263.692 224.424 265.108 226.176 267.316 226.176C269.188 226.176 270.676 224.64 270.676 222.744ZM62.464 272V259.28H64.72V260.288H64.768C65.44 259.448 66.688 258.92 67.936 258.92C69.28 258.92 70.552 259.544 71.224 260.504H71.272C72.16 259.52 73.384 258.92 74.752 258.92C77.344 258.92 79.288 260.72 79.288 263.264V272H76.984V263.648C76.984 262.112 76 261.104 74.488 261.104C72.976 261.104 71.992 262.184 71.992 263.792V272H69.76V263.648C69.76 262.112 68.752 261.104 67.288 261.104C65.752 261.104 64.768 262.184 64.768 263.792V272H62.464ZM81.8646 265.64C81.8646 261.68 84.2886 258.92 87.7686 258.92C91.2246 258.92 93.5286 261.536 93.5286 265.352V266.336H84.2406C84.2646 267.464 84.6006 268.424 85.2486 269.168C85.8966 269.912 86.7366 270.272 87.7686 270.272C89.3766 270.272 90.3366 269.648 91.3926 267.944L93.2166 269.168C92.0886 271.28 90.2166 272.36 87.7926 272.36C84.2646 272.36 81.8646 269.648 81.8646 265.64ZM84.2886 264.536H91.2006C91.1046 262.448 89.7846 261.008 87.7686 261.008C85.8486 261.008 84.3366 262.616 84.2886 264.536ZM96.2252 272V259.28H98.4812V260.408H98.5292C99.2972 259.52 100.713 258.92 102.057 258.92C104.961 258.92 106.857 260.816 106.857 263.792V272H104.505V264.152C104.505 262.256 103.425 261.104 101.601 261.104C99.7772 261.104 98.5772 262.328 98.5772 264.152V272H96.2252ZM110.327 274.424L112.319 273.296C113.159 275 114.071 275.624 115.679 275.624C117.623 275.624 118.799 274.304 118.799 272.168V270.776H118.751C118.055 271.76 116.711 272.36 115.103 272.36C111.767 272.36 109.415 269.576 109.415 265.64C109.415 261.728 111.815 258.944 115.127 258.944C116.567 258.944 117.911 259.52 118.751 260.504H118.799V259.28H121.103V272.288C121.103 275.552 118.943 277.76 115.679 277.76C113.255 277.76 111.263 276.512 110.327 274.424ZM118.751 266.744V264.56C118.751 262.664 117.239 261.128 115.319 261.128C113.183 261.128 111.767 262.88 111.767 265.64C111.767 268.424 113.183 270.176 115.391 270.176C117.263 270.176 118.751 268.64 118.751 266.744ZM124.151 272V259.28H126.503V272H124.151ZM124.031 257.072V254.6H126.599V257.072H124.031ZM129.641 272V259.28H131.897V260.408H131.945C132.713 259.52 134.129 258.92 135.473 258.92C138.377 258.92 140.273 260.816 140.273 263.792V272H137.921V264.152C137.921 262.256 136.841 261.104 135.017 261.104C133.193 261.104 131.993 262.328 131.993 264.152V272H129.641ZM142.59 267.728L144.798 267.248C145.206 269.384 146.214 270.272 148.326 270.272C149.886 270.272 150.846 269.672 150.846 268.712C150.846 267.584 150.006 267.104 147.582 266.36C144.51 265.496 143.214 264.56 143.214 262.616C143.214 260.504 145.158 258.92 147.774 258.92C150.342 258.92 152.334 260.384 152.838 262.688L150.63 263.264C150.198 261.752 149.238 261.008 147.774 261.008C146.406 261.008 145.494 261.632 145.494 262.568C145.494 263.36 146.214 263.768 148.35 264.368C151.686 265.352 153.15 266.408 153.15 268.616C153.15 270.896 151.23 272.36 148.326 272.36C145.038 272.36 142.95 270.704 142.59 267.728ZM155.597 277.4V259.28H157.901V260.456H157.949C158.789 259.52 160.109 258.92 161.573 258.92C164.885 258.92 167.285 261.704 167.285 265.64C167.285 269.576 164.885 272.36 161.597 272.36C160.133 272.36 158.765 271.736 157.997 270.848H157.949V277.4H155.597ZM164.933 265.64C164.933 262.856 163.565 261.104 161.381 261.104C159.461 261.104 157.949 262.64 157.949 264.512V266.744C157.949 268.64 159.437 270.176 161.309 270.176C163.517 270.176 164.933 268.424 164.933 265.64ZM169.97 272V259.28H172.322V272H169.97ZM169.85 257.072V254.6H172.418V257.072H169.85ZM175.46 272V259.28H177.668V260.336H177.716C178.22 259.544 179.204 259.064 180.38 259.064C180.836 259.064 181.316 259.136 181.796 259.256L181.34 261.608C180.836 261.464 180.404 261.392 180.02 261.392C178.556 261.392 177.812 262.4 177.812 264.608V272H175.46ZM182.604 268.688C182.604 266.552 183.852 265.424 187.092 264.656C189.396 264.08 190.116 263.624 190.116 262.688C190.116 261.656 189.228 260.984 187.788 260.984C186.228 260.984 185.148 261.896 184.836 263.504L182.556 263.024C182.772 261.776 183.348 260.792 184.284 260.048C185.244 259.304 186.42 258.92 187.788 258.92C190.74 258.92 192.564 260.576 192.564 263.264V272H190.404V270.776H190.356C189.66 271.76 188.34 272.36 186.78 272.36C184.26 272.36 182.604 270.92 182.604 268.688ZM190.236 267.704V265.184H190.188C189.972 265.736 189.228 266.12 187.692 266.528C185.676 267.032 184.908 267.584 184.908 268.544C184.908 269.624 185.652 270.248 187.068 270.248C188.916 270.248 190.236 269.168 190.236 267.704ZM194.884 267.728L197.092 267.248C197.5 269.384 198.508 270.272 200.62 270.272C202.18 270.272 203.14 269.672 203.14 268.712C203.14 267.584 202.3 267.104 199.876 266.36C196.804 265.496 195.508 264.56 195.508 262.616C195.508 260.504 197.452 258.92 200.068 258.92C202.636 258.92 204.628 260.384 205.132 262.688L202.924 263.264C202.492 261.752 201.532 261.008 200.068 261.008C198.7 261.008 197.788 261.632 197.788 262.568C197.788 263.36 198.508 263.768 200.644 264.368C203.98 265.352 205.444 266.408 205.444 268.616C205.444 270.896 203.524 272.36 200.62 272.36C197.332 272.36 195.244 270.704 194.884 267.728ZM207.891 272V259.28H210.243V272H207.891ZM207.771 257.072V254.6H210.339V257.072H207.771Z" fill="#121111"/>
<mask id="mask0_55_5524" style="mask-type:alpha" maskUnits="userSpaceOnUse" x="27" y="310" width="380" height="199">
<rect x="27" y="310" width="380" height="199" rx="72" fill="#FBD03B"/>
</mask>
<g mask="url(#mask0_55_5524)">
<circle opacity="0.3" cx="88" cy="476" r="91" fill="#F5F5F5"/>
<circle opacity="0.3" cx="292.5" cy="475.5" r="144.5" fill="#F5F5F5"/>
</g>
<defs>
<filter id="filter0_d_55_5524" x="0" y="0" width="434" height="540" filterUnits="userSpaceOnUse" color-interpolation-filters="sRGB">
<feFlood flood-opacity="0" result="BackgroundImageFix"/>
<feColorMatrix in="SourceAlpha" type="matrix" values="0 0 0 0 0 0 0 0 0 0 0 0 0 0 0 0 0 0 127 0" result="hardAlpha"/>
<feOffset dy="4"/>
<feGaussianBlur stdDeviation="13.5"/>
<feComposite in2="hardAlpha" operator="out"/>
<feColorMatrix type="matrix" values="0 0 0 0 0.0916667 0 0 0 0 0.0874653 0 0 0 0 0.0874653 0 0 0 0.14 0"/>
<feBlend mode="normal" in2="BackgroundImageFix" result="effect1_dropShadow_55_5524"/>
<feBlend mode="normal" in="SourceGraphic" in2="effect1_dropShadow_55_5524" result="shape"/>
</filter>
</defs>
</svg>
