<svg xmlns="http://www.w3.org/2000/svg" viewBox="0 0 500 500"><defs><style>.cls-1{isolation:isolate;}.cls-2,.cls-3{fill:#8c6239;}.cls-10,.cls-19,.cls-23,.cls-3,.cls-31,.cls-40,.cls-41,.cls-45{opacity:0.5;}.cls-15,.cls-19,.cls-23,.cls-26,.cls-28,.cls-3,.cls-31,.cls-33,.cls-41,.cls-42,.cls-44,.cls-45,.cls-9{mix-blend-mode:multiply;}.cls-4{fill:#425e0b;}.cls-5,.cls-9{fill:#0071bc;}.cls-6{fill:#69cbed;}.cls-7{fill:#29abe2;}.cls-11,.cls-40,.cls-8{fill:#fff;}.cls-33,.cls-37,.cls-44,.cls-47,.cls-8,.cls-9{opacity:0.3;}.cls-10,.cls-37,.cls-40,.cls-47,.cls-8{mix-blend-mode:screen;}.cls-12{fill:#92539b;}.cls-13,.cls-44{fill:#c67ecd;}.cls-14,.cls-15{fill:#618080;}.cls-15,.cls-42{opacity:0.7;}.cls-16,.cls-19{fill:#6aa9c6;}.cls-17{fill:#427587;}.cls-18{fill:#91daff;}.cls-20{fill:#c9e9f7;}.cls-21{fill:#5089a0;}.cls-22,.cls-23{fill:#a67c52;}.cls-24{fill:#557a15;}.cls-25,.cls-26{fill:#749e32;}.cls-26,.cls-28{opacity:0.2;}.cls-27,.cls-28{fill:#8cc63f;}.cls-29,.cls-33{fill:#bf5656;}.cls-30,.cls-31{fill:gray;}.cls-32{fill:#ed7c79;}.cls-34{fill:#378c7c;}.cls-35{fill:#8ce5d4;}.cls-36,.cls-37{fill:#67cbbb;}.cls-38,.cls-41,.cls-42{fill:#f7931e;}.cls-39{fill:#fbd03b;}.cls-43{fill:#e0a6e8;}.cls-45{fill:#666;}.cls-46,.cls-47{fill:#708e8d;}</style></defs><title>city</title><g class="cls-1"><g id="OBJECTS"><rect class="cls-2" x="340.06" y="347.36" width="1.78" height="23.52"/><rect class="cls-3" x="340.06" y="347.36" width="1.78" height="14.71"/><path class="cls-4" d="M351,343.86s2-.71,1-3.59-6.88-13.4-6.88-13.4a4.51,4.51,0,0,0,2.12-2.68c0.51-1.87-6.27-16.13-6.27-16.13s-6.77,14.26-6.27,16.13a4.51,4.51,0,0,0,2.12,2.68s-5.86,10.51-6.88,13.4,1,3.59,1,3.59-4.75,12.54-3.94,14.76,5.46,2,8.19,2h11.53c2.73,0,7.38.2,8.19-2S351,343.86,351,343.86Z"/><rect class="cls-2" x="304.78" y="354.82" width="1.77" height="23.31"/><rect class="cls-3" x="304.78" y="354.82" width="1.77" height="14.58"/><path class="cls-4" d="M315.58,351.36s2-.7,1-3.56-6.82-13.28-6.82-13.28a4.47,4.47,0,0,0,2.1-2.66c0.5-1.85-6.21-16-6.21-16s-6.72,14.13-6.21,16a4.47,4.47,0,0,0,2.1,2.66s-5.81,10.42-6.82,13.28,1,3.56,1,3.56S291,363.78,291.83,366s5.41,2,8.12,2h11.43c2.71,0,7.32.2,8.12-2S315.58,351.36,315.58,351.36Z"/><polygon class="cls-2" points="205.6 369.16 205.6 370.01 204.43 371.11 204.43 381.27 202.6 381.27 202.6 363.81 204.43 363.81 204.43 369.98 205.6 369.16"/><path class="cls-3" d="M204.43,363.81v5.06a9.79,9.79,0,0,1-1.82-.34v-4.72h1.82Z"/><circle class="cls-4" cx="203.51" cy="357.92" r="10.4"/><polygon class="cls-2" points="245.85 360.23 245.85 361.34 244.33 362.77 244.33 376 241.95 376 241.95 353.27 244.33 353.27 244.33 361.3 245.85 360.23"/><path class="cls-3" d="M244.33,353.27v6.59a12.75,12.75,0,0,1-2.37-.44v-6.15h2.37Z"/><circle class="cls-4" cx="243.14" cy="345.6" r="13.54"/><polygon class="cls-2" points="466.49 366.85 466.49 367.96 464.97 369.39 464.97 382.62 462.59 382.62 462.59 359.9 464.97 359.9 464.97 367.92 466.49 366.85"/><path class="cls-3" d="M465,359.9v6.59a12.72,12.72,0,0,1-2.37-.44V359.9H465Z"/><circle class="cls-4" cx="463.78" cy="352.23" r="13.54"/><polygon class="cls-5" points="500 387.63 493.01 387.63 471.53 387.63 471.53 375.47 471.53 355.45 493.01 355.45 500 363.3 500 375.47 500 387.63"/><polygon class="cls-6" points="500 363.31 471.53 363.31 471.53 355.45 493.01 355.45 500 363.31"/><polygon class="cls-7" points="478.51 363.3 478.51 387.63 464.54 387.63 464.54 363.3 471.53 355.45 478.51 363.3"/><rect class="cls-5" x="468.62" y="367.64" width="5.81" height="19.99"/><rect class="cls-8" x="482.11" y="367.64" width="4.32" height="9.24"/><rect class="cls-8" x="487.53" y="367.64" width="4.32" height="9.24"/><rect class="cls-8" x="492.95" y="367.64" width="4.32" height="9.24"/><rect class="cls-5" x="74.33" y="249.47" width="19" height="109.32" transform="translate(167.65 608.26) rotate(180)"/><rect class="cls-5" x="61.58" y="232.09" width="12.74" height="48.66"/><rect class="cls-7" x="27.49" y="232.09" width="34.09" height="48.66"/><rect class="cls-9" x="27.49" y="246.5" width="46.84" height="34.25"/><rect class="cls-7" x="23.49" y="249.47" width="50.83" height="109.32"/><g class="cls-10"><rect class="cls-11" x="29.53" y="258.79" width="3.06" height="3.06"/><rect class="cls-11" x="37.95" y="258.79" width="3.06" height="3.06"/><rect class="cls-11" x="46.37" y="258.79" width="3.06" height="3.06"/><rect class="cls-11" x="54.8" y="258.79" width="3.06" height="3.06"/><rect class="cls-11" x="63.22" y="258.79" width="3.06" height="3.06"/><rect class="cls-11" x="29.53" y="266.78" width="3.06" height="3.06"/><rect class="cls-11" x="37.95" y="266.78" width="3.06" height="3.06"/><rect class="cls-11" x="46.37" y="266.78" width="3.06" height="3.06"/><rect class="cls-11" x="54.8" y="266.78" width="3.06" height="3.06"/><rect class="cls-11" x="63.22" y="266.78" width="3.06" height="3.06"/><rect class="cls-11" x="29.53" y="274.78" width="3.06" height="3.06"/><rect class="cls-11" x="37.95" y="274.78" width="3.06" height="3.06"/><rect class="cls-11" x="46.37" y="274.78" width="3.06" height="3.06"/><rect class="cls-11" x="54.8" y="274.78" width="3.06" height="3.06"/><rect class="cls-11" x="63.22" y="274.78" width="3.06" height="3.06"/><rect class="cls-11" x="29.53" y="282.77" width="3.06" height="3.06"/><rect class="cls-11" x="37.95" y="282.77" width="3.06" height="3.06"/><rect class="cls-11" x="46.37" y="282.77" width="3.06" height="3.06"/><rect class="cls-11" x="54.8" y="282.77" width="3.06" height="3.06"/><rect class="cls-11" x="63.22" y="282.77" width="3.06" height="3.06"/><rect class="cls-11" x="29.53" y="290.77" width="3.06" height="3.06"/><rect class="cls-11" x="37.95" y="290.77" width="3.06" height="3.06"/><rect class="cls-11" x="46.37" y="290.77" width="3.06" height="3.06"/><rect class="cls-11" x="54.8" y="290.77" width="3.06" height="3.06"/><rect class="cls-11" x="63.22" y="290.77" width="3.06" height="3.06"/><rect class="cls-11" x="29.53" y="298.76" width="3.06" height="3.06"/><rect class="cls-11" x="37.95" y="298.76" width="3.06" height="3.06"/><rect class="cls-11" x="46.37" y="298.76" width="3.06" height="3.06"/><rect class="cls-11" x="54.8" y="298.76" width="3.06" height="3.06"/><rect class="cls-11" x="63.22" y="298.76" width="3.06" height="3.06"/><rect class="cls-11" x="29.53" y="306.76" width="3.06" height="3.06"/><rect class="cls-11" x="37.95" y="306.76" width="3.06" height="3.06"/><rect class="cls-11" x="46.37" y="306.76" width="3.06" height="3.06"/><rect class="cls-11" x="54.8" y="306.76" width="3.06" height="3.06"/><rect class="cls-11" x="63.22" y="306.76" width="3.06" height="3.06"/><rect class="cls-11" x="29.53" y="314.75" width="3.06" height="3.06"/><rect class="cls-11" x="37.95" y="314.75" width="3.06" height="3.06"/><rect class="cls-11" x="46.37" y="314.75" width="3.06" height="3.06"/><rect class="cls-11" x="54.8" y="314.75" width="3.06" height="3.06"/><rect class="cls-11" x="63.22" y="314.75" width="3.06" height="3.06"/><rect class="cls-11" x="29.53" y="322.75" width="3.06" height="3.06"/><rect class="cls-11" x="37.95" y="322.75" width="3.06" height="3.06"/><rect class="cls-11" x="46.37" y="322.75" width="3.06" height="3.06"/><rect class="cls-11" x="54.8" y="322.75" width="3.06" height="3.06"/><rect class="cls-11" x="63.22" y="322.75" width="3.06" height="3.06"/></g><rect class="cls-12" x="136.9" y="272.82" width="17.05" height="110.04" transform="translate(290.85 655.67) rotate(180)"/><rect class="cls-13" x="91.29" y="272.82" width="45.62" height="110.04"/><g class="cls-10"><rect class="cls-11" x="98.21" y="282.77" width="3.06" height="3.06"/><rect class="cls-11" x="105.2" y="282.77" width="3.06" height="3.06"/><rect class="cls-11" x="112.19" y="282.77" width="3.06" height="3.06"/><rect class="cls-11" x="119.18" y="282.77" width="3.06" height="3.06"/><rect class="cls-11" x="126.17" y="282.77" width="3.06" height="3.06"/><rect class="cls-11" x="98.21" y="290.77" width="3.06" height="3.06"/><rect class="cls-11" x="105.2" y="290.77" width="3.06" height="3.06"/><rect class="cls-11" x="112.19" y="290.77" width="3.06" height="3.06"/><rect class="cls-11" x="119.18" y="290.77" width="3.06" height="3.06"/><rect class="cls-11" x="126.17" y="290.77" width="3.06" height="3.06"/><rect class="cls-11" x="98.21" y="298.76" width="3.06" height="3.06"/><rect class="cls-11" x="105.2" y="298.76" width="3.06" height="3.06"/><rect class="cls-11" x="112.19" y="298.76" width="3.06" height="3.06"/><rect class="cls-11" x="119.18" y="298.76" width="3.06" height="3.06"/><rect class="cls-11" x="126.17" y="298.76" width="3.06" height="3.06"/><rect class="cls-11" x="98.21" y="306.76" width="3.06" height="3.06"/><rect class="cls-11" x="105.2" y="306.76" width="3.06" height="3.06"/><rect class="cls-11" x="112.19" y="306.76" width="3.06" height="3.06"/><rect class="cls-11" x="119.18" y="306.76" width="3.06" height="3.06"/><rect class="cls-11" x="126.17" y="306.76" width="3.06" height="3.06"/><rect class="cls-11" x="98.21" y="314.75" width="3.06" height="3.06"/><rect class="cls-11" x="105.2" y="314.75" width="3.06" height="3.06"/><rect class="cls-11" x="112.19" y="314.75" width="3.06" height="3.06"/><rect class="cls-11" x="119.18" y="314.75" width="3.06" height="3.06"/><rect class="cls-11" x="126.17" y="314.75" width="3.06" height="3.06"/><rect class="cls-11" x="98.21" y="322.75" width="3.06" height="3.06"/><rect class="cls-11" x="105.2" y="322.75" width="3.06" height="3.06"/><rect class="cls-11" x="112.19" y="322.75" width="3.06" height="3.06"/><rect class="cls-11" x="119.18" y="322.75" width="3.06" height="3.06"/><rect class="cls-11" x="126.17" y="322.75" width="3.06" height="3.06"/><rect class="cls-11" x="98.21" y="330.75" width="3.06" height="3.06"/><rect class="cls-11" x="105.2" y="330.75" width="3.06" height="3.06"/><rect class="cls-11" x="112.19" y="330.75" width="3.06" height="3.06"/><rect class="cls-11" x="119.18" y="330.75" width="3.06" height="3.06"/><rect class="cls-11" x="126.17" y="330.75" width="3.06" height="3.06"/><rect class="cls-11" x="98.21" y="338.74" width="3.06" height="3.06"/><rect class="cls-11" x="105.2" y="338.74" width="3.06" height="3.06"/><rect class="cls-11" x="112.19" y="338.74" width="3.06" height="3.06"/><rect class="cls-11" x="119.18" y="338.74" width="3.06" height="3.06"/><rect class="cls-11" x="126.17" y="338.74" width="3.06" height="3.06"/><rect class="cls-11" x="98.21" y="346.74" width="3.06" height="3.06"/><rect class="cls-11" x="105.2" y="346.74" width="3.06" height="3.06"/><rect class="cls-11" x="112.19" y="346.74" width="3.06" height="3.06"/><rect class="cls-11" x="119.18" y="346.74" width="3.06" height="3.06"/><rect class="cls-11" x="126.17" y="346.74" width="3.06" height="3.06"/></g><rect class="cls-14" x="188.45" y="350.96" width="2.58" height="47.79"/><rect class="cls-15" x="188.45" y="350.96" width="2.58" height="3.66"/><rect class="cls-14" x="263.1" y="350.96" width="2.58" height="47.79"/><rect class="cls-15" x="263.1" y="350.96" width="2.58" height="3.66"/><rect class="cls-14" x="337.75" y="350.96" width="2.58" height="47.79"/><rect class="cls-15" x="337.75" y="350.96" width="2.58" height="3.66"/><rect class="cls-14" x="412.41" y="350.96" width="2.58" height="47.79"/><rect class="cls-15" x="412.41" y="350.96" width="2.58" height="3.66"/><rect class="cls-14" x="487.06" y="350.96" width="2.58" height="47.79"/><rect class="cls-15" x="487.06" y="350.96" width="2.58" height="3.66"/><rect class="cls-14" y="346.38" width="500" height="6.19"/><path class="cls-16" d="M270.55,342.68a5.37,5.37,0,0,1-.21,1.83,5.44,5.44,0,0,1-5.29,4H18.67v-23h219a42.21,42.21,0,0,1,13.06,2.5c7,2.41,14.16,6.4,18.42,11.28A5.6,5.6,0,0,1,270.55,342.68Z"/><path class="cls-11" d="M256.94,344.51h-2.83a0.92,0.92,0,0,1-.92-0.92h0a0.92,0.92,0,0,1,.92-0.92h2.83a0.92,0.92,0,0,1,.92.92h0A0.92,0.92,0,0,1,256.94,344.51Z"/><path class="cls-11" d="M270.55,342.68a5.37,5.37,0,0,1-.21,1.83h-2.72a0.92,0.92,0,0,1,0-1.84h2.93Z"/><path class="cls-17" d="M255.41,329.83h-33.9l4.88,10.47h43.48a5.34,5.34,0,0,0-.71-1C265.85,335.48,260.8,332.23,255.41,329.83Z"/><path class="cls-18" d="M251.85,343.59a5.45,5.45,0,0,1-5.47,4.89H0v-23H219c8.47,0,21.43,4.59,29.11,11.41l0.8,0.74a21.84,21.84,0,0,1,1.57,1.63A5.43,5.43,0,0,1,251.85,343.59Z"/><path class="cls-19" d="M246.38,348.48H0V337.65H248.93a21.84,21.84,0,0,1,1.57,1.63A5.53,5.53,0,0,1,246.38,348.48Z"/><path class="cls-20" d="M251.74,341.67a5.56,5.56,0,0,0-1.24-2.39,21.84,21.84,0,0,0-1.57-1.63l-0.8-.74H0v4.76H251.74Z"/><path class="cls-21" d="M229.61,329.83h-16V340.3h31.66a5.36,5.36,0,0,0-.77-1C240.91,335.48,235.45,332.23,229.61,329.83Z"/><rect class="cls-21" x="188.44" y="329.83" width="17.42" height="10.47"/><rect class="cls-21" x="160.7" y="329.83" width="17.42" height="10.47"/><rect class="cls-21" x="132.95" y="329.83" width="17.42" height="10.47"/><rect class="cls-16" x="105.2" y="329.83" width="17.42" height="18.65"/><rect class="cls-21" x="77.45" y="329.83" width="17.42" height="10.47"/><rect class="cls-21" x="49.7" y="329.83" width="17.42" height="10.47"/><rect class="cls-21" x="21.95" y="329.83" width="17.42" height="10.47"/><rect class="cls-16" y="329.83" width="11.62" height="18.65"/><rect class="cls-19" x="113.91" y="329.83" width="8.71" height="18.65"/><rect class="cls-19" x="2.91" y="329.83" width="8.71" height="18.65"/><polygon class="cls-22" points="24.02 336.43 24.02 337.35 22.76 338.53 22.76 349.48 20.8 349.48 20.8 330.67 22.76 330.67 22.76 337.31 24.02 336.43"/><path class="cls-23" d="M22.76,330.67v5.45a10.53,10.53,0,0,1-2-.37v-5.09h2Z"/><circle class="cls-4" cx="21.78" cy="324.33" r="11.21"/><rect class="cls-2" x="37.89" y="330.56" width="1.41" height="18.59"/><rect class="cls-3" x="37.89" y="330.56" width="1.41" height="11.63"/><path class="cls-24" d="M46.51,327.8s1.6-.56.8-2.84-5.44-10.59-5.44-10.59a3.56,3.56,0,0,0,1.68-2.12c0.4-1.48-5-12.75-5-12.75s-5.36,11.27-5,12.75a3.56,3.56,0,0,0,1.68,2.12s-4.64,8.31-5.44,10.59,0.8,2.84.8,2.84-3.76,9.91-3.12,11.67,4.32,1.6,6.48,1.6h9.11c2.16,0,5.84.16,6.48-1.6S46.51,327.8,46.51,327.8Z"/><path class="cls-25" d="M500,383.42v87.07H0V349.15c21.74-3.12,50.48-4.41,84.78.55,29,4.19,56.72,10.78,82.65,17.57,46.5,12.19,87.25,25,119.35,25.74C331.75,394,416.88,355.09,500,383.42Z"/><path class="cls-26" d="M500,400.6v69.89H0v-97.4a369.8,369.8,0,0,1,84.78.44c29,3.36,56.72,8.65,82.65,14.1,46.5,9.78,87.25,20.07,119.35,20.66C331.75,409.12,416.88,377.86,500,400.6Z"/><rect class="cls-2" x="26.52" y="406.68" width="1.93" height="25.5"/><rect class="cls-3" x="26.52" y="406.68" width="1.93" height="15.95"/><path class="cls-24" d="M38.35,402.89s2.19-.77,1.1-3.89S32,384.47,32,384.47a4.89,4.89,0,0,0,2.3-2.9c0.55-2-6.8-17.49-6.8-17.49s-7.35,15.46-6.8,17.49a4.89,4.89,0,0,0,2.3,2.9s-6.36,11.4-7.46,14.53,1.1,3.89,1.1,3.89-5.15,13.6-4.28,16,5.92,2.19,8.88,2.19h12.5c3,0,8,.22,8.88-2.19S38.35,402.89,38.35,402.89Z"/><path class="cls-27" d="M500,399.13v40.62L21.78,431.46S128.69,387.88,207,373,500,399.13,500,399.13Z"/><path class="cls-28" d="M500,414.19v25.56L21.78,434.53S128.69,407.11,207,397.74,500,414.19,500,414.19Z"/><rect class="cls-29" x="420.7" y="248.17" width="8.08" height="20.83"/><rect class="cls-30" x="372.44" y="264.5" width="3.17" height="12.5"/><rect class="cls-31" x="372.44" y="264.5" width="3.17" height="5.64"/><rect class="cls-30" x="411.03" y="264.5" width="3.17" height="12.5"/><rect class="cls-31" x="411.03" y="264.5" width="3.17" height="5.64"/><rect class="cls-32" x="363.11" y="248.17" width="60" height="20.83"/><rect class="cls-29" x="433.36" y="272.82" width="29.42" height="160" transform="translate(896.14 705.64) rotate(180)"/><rect class="cls-32" x="354.64" y="272.82" width="78.72" height="160"/><g class="cls-10"><rect class="cls-11" x="364.23" y="284.3" width="4.95" height="4.95"/><rect class="cls-11" x="377.88" y="284.3" width="4.95" height="4.95"/><rect class="cls-11" x="391.52" y="284.3" width="4.95" height="4.95"/><rect class="cls-11" x="405.17" y="284.3" width="4.95" height="4.95"/><rect class="cls-11" x="418.82" y="284.3" width="4.95" height="4.95"/><rect class="cls-11" x="364.23" y="297.26" width="4.95" height="4.95"/><rect class="cls-11" x="377.88" y="297.26" width="4.95" height="4.95"/><rect class="cls-11" x="391.52" y="297.26" width="4.95" height="4.95"/><rect class="cls-11" x="405.17" y="297.26" width="4.95" height="4.95"/><rect class="cls-11" x="418.82" y="297.26" width="4.95" height="4.95"/><rect class="cls-11" x="364.23" y="310.21" width="4.95" height="4.95"/><rect class="cls-11" x="377.88" y="310.21" width="4.95" height="4.95"/><rect class="cls-11" x="391.52" y="310.21" width="4.95" height="4.95"/><rect class="cls-11" x="405.17" y="310.21" width="4.95" height="4.95"/><rect class="cls-11" x="418.82" y="310.21" width="4.95" height="4.95"/><rect class="cls-11" x="364.23" y="323.17" width="4.95" height="4.95"/><rect class="cls-11" x="377.88" y="323.17" width="4.95" height="4.95"/><rect class="cls-11" x="391.52" y="323.17" width="4.95" height="4.95"/><rect class="cls-11" x="405.17" y="323.17" width="4.95" height="4.95"/><rect class="cls-11" x="418.82" y="323.17" width="4.95" height="4.95"/><rect class="cls-11" x="364.23" y="336.12" width="4.95" height="4.95"/><rect class="cls-11" x="377.88" y="336.12" width="4.95" height="4.95"/><rect class="cls-11" x="391.52" y="336.12" width="4.95" height="4.95"/><rect class="cls-11" x="405.17" y="336.12" width="4.95" height="4.95"/><rect class="cls-11" x="418.82" y="336.12" width="4.95" height="4.95"/><rect class="cls-11" x="364.23" y="349.08" width="4.95" height="4.95"/><rect class="cls-11" x="377.88" y="349.08" width="4.95" height="4.95"/><rect class="cls-11" x="391.52" y="349.08" width="4.95" height="4.95"/><rect class="cls-11" x="405.17" y="349.08" width="4.95" height="4.95"/><rect class="cls-11" x="418.82" y="349.08" width="4.95" height="4.95"/><rect class="cls-11" x="364.23" y="362.03" width="4.95" height="4.95"/><rect class="cls-11" x="377.88" y="362.03" width="4.95" height="4.95"/><rect class="cls-11" x="391.52" y="362.03" width="4.95" height="4.95"/><rect class="cls-11" x="405.17" y="362.03" width="4.95" height="4.95"/><rect class="cls-11" x="418.82" y="362.03" width="4.95" height="4.95"/><rect class="cls-11" x="364.23" y="374.99" width="4.95" height="4.95"/><rect class="cls-11" x="377.88" y="374.99" width="4.95" height="4.95"/><rect class="cls-11" x="391.52" y="374.99" width="4.95" height="4.95"/><rect class="cls-11" x="405.17" y="374.99" width="4.95" height="4.95"/><rect class="cls-11" x="418.82" y="374.99" width="4.95" height="4.95"/><rect class="cls-11" x="364.23" y="387.94" width="4.95" height="4.95"/><rect class="cls-11" x="377.88" y="387.94" width="4.95" height="4.95"/><rect class="cls-11" x="391.52" y="387.94" width="4.95" height="4.95"/><rect class="cls-11" x="405.17" y="387.94" width="4.95" height="4.95"/><rect class="cls-11" x="418.82" y="387.94" width="4.95" height="4.95"/></g><g class="cls-10"><rect class="cls-11" x="440.02" y="284.3" width="3.85" height="4.95"/><rect class="cls-11" x="446.75" y="284.3" width="3.85" height="4.95"/><rect class="cls-11" x="453.47" y="284.3" width="3.85" height="4.95"/><rect class="cls-11" x="440.02" y="297.26" width="3.85" height="4.95"/><rect class="cls-11" x="446.75" y="297.26" width="3.85" height="4.95"/><rect class="cls-11" x="453.47" y="297.26" width="3.85" height="4.95"/><rect class="cls-11" x="440.02" y="310.21" width="3.85" height="4.95"/><rect class="cls-11" x="446.75" y="310.21" width="3.85" height="4.95"/><rect class="cls-11" x="453.47" y="310.21" width="3.85" height="4.95"/><rect class="cls-11" x="440.02" y="323.17" width="3.85" height="4.95"/><rect class="cls-11" x="446.75" y="323.17" width="3.85" height="4.95"/><rect class="cls-11" x="453.47" y="323.17" width="3.85" height="4.95"/><rect class="cls-11" x="440.02" y="336.12" width="3.85" height="4.95"/><rect class="cls-11" x="446.75" y="336.12" width="3.85" height="4.95"/><rect class="cls-11" x="453.47" y="336.12" width="3.85" height="4.95"/><rect class="cls-11" x="440.02" y="349.08" width="3.85" height="4.95"/><rect class="cls-11" x="446.75" y="349.08" width="3.85" height="4.95"/><rect class="cls-11" x="453.47" y="349.08" width="3.85" height="4.95"/><rect class="cls-11" x="440.02" y="362.03" width="3.85" height="4.95"/><rect class="cls-11" x="446.75" y="362.03" width="3.85" height="4.95"/><rect class="cls-11" x="453.47" y="362.03" width="3.85" height="4.95"/><rect class="cls-11" x="440.02" y="374.99" width="3.85" height="4.95"/><rect class="cls-11" x="446.75" y="374.99" width="3.85" height="4.95"/><rect class="cls-11" x="453.47" y="374.99" width="3.85" height="4.95"/><rect class="cls-11" x="440.02" y="387.94" width="3.85" height="4.95"/><rect class="cls-11" x="446.75" y="387.94" width="3.85" height="4.95"/><rect class="cls-11" x="453.47" y="387.94" width="3.85" height="4.95"/></g><rect class="cls-29" x="364.23" y="400.76" width="59.55" height="32.06"/><rect class="cls-33" x="394" y="400.76" width="29.77" height="32.06"/><polygon class="cls-34" points="98.21 439.18 84.89 439.18 43.98 439.18 43.98 416.01 43.98 377.88 84.89 377.88 98.21 392.85 98.21 416.01 98.21 439.18"/><polygon class="cls-35" points="98.2 392.85 43.98 392.85 43.98 377.88 84.89 377.88 98.2 392.85"/><polygon class="cls-36" points="57.29 439.18 43.98 439.18 30.66 439.18 30.66 416.01 30.66 392.85 43.98 377.88 57.29 392.85 57.29 416.01 57.29 439.18"/><rect class="cls-34" x="37.56" y="403.43" width="12.83" height="29.39"/><rect class="cls-37" x="62.68" y="403.43" width="7.31" height="11.55"/><rect class="cls-37" x="74.35" y="403.43" width="7.31" height="11.55"/><rect class="cls-37" x="86.01" y="403.43" width="7.31" height="11.55"/><path class="cls-4" d="M106.2,428.88a1.7,1.7,0,0,0-2.65-2.12,4.47,4.47,0,0,0-5-1.06,6.34,6.34,0,0,0-10.46-2.42,1.7,1.7,0,0,0-3.13.92,1.67,1.67,0,0,0,0,.18l-0.3,0a4.59,4.59,0,0,0-4.58,4.51H106.2Z"/><rect class="cls-38" x="155.73" y="298.02" width="22.38" height="134.8" transform="translate(333.85 730.84) rotate(180)"/><path class="cls-39" d="M155.74,298v134.8H95.85V357.91A59.89,59.89,0,0,1,155.74,298Z"/><rect class="cls-40" x="108.25" y="350.25" width="40.02" height="6.5"/><rect class="cls-40" x="108.25" y="364.75" width="40.02" height="6.5"/><rect class="cls-40" x="108.25" y="379.25" width="40.02" height="6.5"/><rect class="cls-40" x="108.25" y="393.74" width="40.02" height="6.5"/><rect class="cls-38" x="108.26" y="406.68" width="40.02" height="26.14"/><rect class="cls-41" x="129.23" y="406.68" width="19.05" height="26.14"/><rect class="cls-42" x="164.86" y="350.25" width="6.5" height="6.5"/><rect class="cls-42" x="164.86" y="364.75" width="6.5" height="6.5"/><rect class="cls-42" x="164.86" y="379.25" width="6.5" height="6.5"/><rect class="cls-42" x="164.86" y="393.74" width="6.5" height="6.5"/><polygon class="cls-12" points="362.42 432.82 342.86 432.82 282.76 432.82 282.76 398.79 282.76 342.77 342.86 342.77 362.42 364.75 362.42 398.79 362.42 432.82"/><polygon class="cls-43" points="362.42 364.76 282.76 364.76 282.76 342.77 342.86 342.77 362.42 364.76"/><polygon class="cls-13" points="302.32 432.82 282.76 432.82 263.2 432.82 263.2 398.79 263.2 364.75 282.76 342.77 302.32 364.75 302.32 398.79 302.32 432.82"/><rect class="cls-13" x="314.41" y="395.7" width="40.99" height="37.12"/><rect class="cls-44" x="334.91" y="395.7" width="20.49" height="37.12"/><rect class="cls-40" x="314.41" y="385" width="40.99" height="4.5"/><rect class="cls-40" x="269.46" y="370.88" width="6.2" height="10.12"/><rect class="cls-40" x="279.02" y="370.88" width="6.2" height="10.12"/><rect class="cls-40" x="288.58" y="370.88" width="6.2" height="10.12"/><rect class="cls-40" x="269.46" y="390.63" width="6.2" height="10.12"/><rect class="cls-40" x="279.02" y="390.63" width="6.2" height="10.12"/><rect class="cls-40" x="288.58" y="390.63" width="6.2" height="10.12"/><rect class="cls-40" x="269.46" y="410.39" width="6.2" height="10.12"/><rect class="cls-40" x="279.02" y="410.39" width="6.2" height="10.12"/><rect class="cls-40" x="288.58" y="410.39" width="6.2" height="10.12"/><rect class="cls-2" x="219.31" y="403.33" width="2.19" height="28.85"/><rect class="cls-3" x="219.31" y="403.33" width="2.19" height="18.04"/><path class="cls-4" d="M232.68,399s2.48-.87,1.24-4.4-8.43-16.43-8.43-16.43a5.53,5.53,0,0,0,2.6-3.29c0.62-2.29-7.69-19.78-7.69-19.78s-8.31,17.49-7.69,19.78a5.53,5.53,0,0,0,2.6,3.29s-7.19,12.9-8.43,16.43,1.24,4.4,1.24,4.4-5.83,15.38-4.84,18.11,6.7,2.48,10,2.48h14.14c3.35,0,9.05.25,10-2.48S232.68,399,232.68,399Z"/><rect class="cls-30" x="189.74" y="410.33" width="1.29" height="19.67"/><path class="cls-45" d="M191,410.33v5.55c-0.44-.12-0.88-0.26-1.29-0.41v-5.14H191Z"/><path class="cls-5" d="M190.38,414.75h0a6.71,6.71,0,0,1-6.71-6.71h0a6.71,6.71,0,0,1,6.71-6.71h0a6.71,6.71,0,0,1,6.71,6.71h0A6.71,6.71,0,0,1,190.38,414.75Z"/><rect class="cls-30" x="18.02" y="410.33" width="1.29" height="19.67"/><path class="cls-45" d="M19.31,410.33v5.55c-0.44-.12-0.88-0.26-1.29-0.41v-5.14h1.29Z"/><rect class="cls-32" x="14.38" y="401.9" width="8.58" height="13.08" rx="1.3" ry="1.3"/><polygon class="cls-22" points="489.49 418.04 489.49 419.03 488.13 420.32 488.13 432.18 486 432.18 486 411.8 488.13 411.8 488.13 419 489.49 418.04"/><path class="cls-23" d="M488.13,411.8v5.91a11.42,11.42,0,0,1-2.13-.4V411.8h2.13Z"/><circle class="cls-4" cx="487.06" cy="404.93" r="12.14"/><rect class="cls-2" x="469.8" y="406.68" width="1.93" height="25.5"/><rect class="cls-3" x="469.8" y="406.68" width="1.93" height="15.95"/><path class="cls-24" d="M481.62,402.89s2.19-.77,1.1-3.89-7.46-14.53-7.46-14.53a4.89,4.89,0,0,0,2.3-2.9c0.55-2-6.8-17.49-6.8-17.49s-7.35,15.46-6.8,17.49a4.89,4.89,0,0,0,2.3,2.9s-6.36,11.4-7.46,14.53,1.1,3.89,1.1,3.89-5.15,13.6-4.28,16,5.92,2.19,8.88,2.19H477c3,0,8,.22,8.88-2.19S481.62,402.89,481.62,402.89Z"/><polygon class="cls-22" points="249.11 413.25 249.11 414.58 247.28 416.3 247.28 432.18 244.43 432.18 244.43 404.9 247.28 404.9 247.28 414.53 249.11 413.25"/><path class="cls-23" d="M247.28,404.9v7.91a15.29,15.29,0,0,1-2.85-.53V404.9h2.85Z"/><circle class="cls-24" cx="245.85" cy="395.7" r="16.26"/><path class="cls-4" d="M186.2,428.88a1.7,1.7,0,0,0-2.65-2.12,4.47,4.47,0,0,0-5-1.06,6.34,6.34,0,0,0-10.46-2.42,1.68,1.68,0,0,0-3.12,1.1l-0.3,0a4.59,4.59,0,0,0-4.58,4.51H186.2Z"/><path class="cls-4" d="M277.27,428.88a1.7,1.7,0,0,0-2.65-2.12,4.47,4.47,0,0,0-5-1.06,6.34,6.34,0,0,0-10.46-2.42,1.7,1.7,0,0,0-3.13.92,1.67,1.67,0,0,0,0,.18l-0.3,0a4.59,4.59,0,0,0-4.58,4.51h26.06Z"/><path class="cls-4" d="M500,423.14v5.74H486.28a1.48,1.48,0,0,1-.26-0.82,1.44,1.44,0,0,1,1.44-1.43,1.4,1.4,0,0,1,1.05.47,3.74,3.74,0,0,1,2.73-1.18,3.85,3.85,0,0,1,1.44.29,5.35,5.35,0,0,1,5-3.59A5.25,5.25,0,0,1,500,423.14Z"/><rect class="cls-46" y="427.9" width="500" height="72.1"/><rect class="cls-47" y="460.02" width="500" height="9.35"/></g></g></svg>