<svg width="1440" height="309" viewBox="0 0 1440 309" fill="none" xmlns="http://www.w3.org/2000/svg">
<path d="M594.565 198.448H588.803V308.268H594.565V198.448Z" fill="#618080"/>
<g style="mix-blend-mode:multiply" opacity="0.7">
<path d="M594.565 198.448H588.803V206.858H594.565V198.448Z" fill="#618080"/>
</g>
<path d="M761.256 198.448H755.495V308.268H761.256V198.448Z" fill="#618080"/>
<g style="mix-blend-mode:multiply" opacity="0.7">
<path d="M761.256 198.448H755.495V206.858H761.256V198.448Z" fill="#618080"/>
</g>
<path d="M927.947 198.448H922.186V308.268H927.947V198.448Z" fill="#618080"/>
<g style="mix-blend-mode:multiply" opacity="0.7">
<path d="M927.947 198.448H922.186V206.858H927.947V198.448Z" fill="#618080"/>
</g>
<path d="M1094.66 198.448H1088.9V308.268H1094.66V198.448Z" fill="#618080"/>
<g style="mix-blend-mode:multiply" opacity="0.7">
<path d="M1094.66 198.448H1088.9V206.858H1094.66V198.448Z" fill="#618080"/>
</g>
<path d="M1261.35 198.448H1255.59V308.268H1261.35V198.448Z" fill="#618080"/>
<g style="mix-blend-mode:multiply" opacity="0.7">
<path d="M1261.35 198.448H1255.59V206.858H1261.35V198.448Z" fill="#618080"/>
</g>
<path d="M1284.49 187.923H168V202.147H1284.49V187.923Z" fill="#618080"/>
<path d="M772.13 179.42C772.211 180.839 772.052 182.262 771.662 183.625C770.953 186.283 769.41 188.626 767.274 190.288C765.138 191.95 762.527 192.84 759.849 192.817H209.689V139.964H698.71C708.665 140.281 718.508 142.22 727.873 145.709C743.504 151.247 759.492 160.416 769.004 171.63C770.867 173.792 771.968 176.536 772.13 179.42Z" fill="#6AA9C6"/>
<path d="M741.74 183.626H735.421C734.876 183.626 734.353 183.403 733.968 183.006C733.583 182.61 733.366 182.072 733.366 181.512C733.366 180.951 733.583 180.413 733.968 180.017C734.353 179.62 734.876 179.397 735.421 179.397H741.74C742.285 179.397 742.807 179.62 743.193 180.017C743.578 180.413 743.794 180.951 743.794 181.512C743.794 182.072 743.578 182.61 743.193 183.006C742.807 183.403 742.285 183.626 741.74 183.626Z" fill="white"/>
<path d="M772.131 179.42C772.211 180.839 772.052 182.262 771.662 183.626H765.588C765.043 183.626 764.521 183.403 764.135 183.006C763.75 182.61 763.534 182.072 763.534 181.512C763.534 180.951 763.75 180.413 764.135 180.017C764.521 179.62 765.043 179.397 765.588 179.397H772.131V179.42Z" fill="white"/>
<path d="M738.324 149.891H662.626L673.523 173.951H770.612C770.171 173.125 769.639 172.354 769.027 171.653C761.636 162.875 750.359 155.406 738.324 149.891Z" fill="#427587"/>
<path d="M730.374 181.512C730.063 184.613 728.638 187.484 726.38 189.562C724.121 191.641 721.19 192.777 718.16 192.749H168V139.896H657.021C675.934 139.896 704.874 150.443 722.023 166.115L723.809 167.816C725.04 169.001 726.21 170.252 727.315 171.562C728.493 172.895 729.376 174.474 729.904 176.192C730.432 177.909 730.592 179.724 730.374 181.512Z" fill="#91DAFF"/>
<g style="mix-blend-mode:multiply" opacity="0.5">
<path d="M718.16 192.749H168V167.862H723.854C725.085 169.047 726.255 170.297 727.36 171.607C728.937 173.437 729.967 175.695 730.328 178.113C730.689 180.53 730.364 183.003 729.392 185.235C728.421 187.467 726.845 189.363 724.852 190.696C722.86 192.028 720.536 192.741 718.16 192.749Z" fill="#6AA9C6"/>
</g>
<path d="M730.128 177.1C729.657 175.063 728.706 173.177 727.36 171.607C726.255 170.297 725.085 169.047 723.854 167.862L722.067 166.161H168V177.1H730.128Z" fill="#C9E9F7"/>
<path d="M680.712 149.891H644.985V173.951H715.681C715.198 173.118 714.62 172.347 713.961 171.653C705.945 162.875 693.753 155.406 680.712 149.891Z" fill="#5089A0"/>
<path d="M627.68 149.891H588.781V173.951H627.68V149.891Z" fill="#5089A0"/>
<path d="M565.737 149.891H526.839V173.951H565.737V149.891Z" fill="#5089A0"/>
<path d="M503.772 149.891H464.874V173.951H503.772V149.891Z" fill="#5089A0"/>
<path d="M441.807 149.891H402.909V192.749H441.807V149.891Z" fill="#6AA9C6"/>
<path d="M379.842 149.891H340.944V173.951H379.842V149.891Z" fill="#5089A0"/>
<path d="M317.877 149.891H278.979V173.951H317.877V149.891Z" fill="#5089A0"/>
<path d="M255.912 149.891H217.014V173.951H255.912V149.891Z" fill="#5089A0"/>
<path d="M193.947 149.891H168V192.749H193.947V149.891Z" fill="#6AA9C6"/>
<g style="mix-blend-mode:multiply" opacity="0.5">
<path d="M441.807 149.891H422.358V192.749H441.807V149.891Z" fill="#6AA9C6"/>
</g>
<g style="mix-blend-mode:multiply" opacity="0.5">
<path d="M193.947 149.891H174.498V192.749H193.947V149.891Z" fill="#6AA9C6"/>
</g>
<path d="M221.636 165.058V167.172L218.823 169.884V195.047H214.446V151.822H218.823V167.08L221.636 165.058Z" fill="#A67C52"/>
<g style="mix-blend-mode:multiply" opacity="0.5">
<path d="M218.823 151.822V164.346C217.311 164.211 215.815 163.927 214.357 163.496V151.799H218.823V151.822Z" fill="#A67C52"/>
</g>
<path d="M255.756 151.569H252.607V194.288H255.756V151.569Z" fill="#8C6239"/>
<g style="mix-blend-mode:multiply" opacity="0.5">
<path d="M255.756 151.569H252.607V178.294H255.756V151.569Z" fill="#8C6239"/>
</g>
<path d="M243.753 179.739V180.842L242.278 182.27V195.452H239.971V172.798H242.278V180.803L243.753 179.739Z" fill="#8C6239"/>
<g style="mix-blend-mode:multiply" opacity="0.5">
<path d="M242.278 172.798V179.363C241.501 179.291 240.733 179.143 239.984 178.922V172.798H242.278Z" fill="#8C6239"/>
</g>
<path d="M241.118 178.649C248.36 178.649 254.23 172.608 254.23 165.156C254.23 157.704 248.36 151.662 241.118 151.662C233.877 151.662 228.006 157.704 228.006 165.156C228.006 172.608 233.877 178.649 241.118 178.649Z" fill="#425E0B"/>
<path d="M294.499 168.153V169.593L292.582 171.449V188.614H289.582V159.123H292.582V169.541L294.499 168.153Z" fill="#8C6239"/>
<g style="mix-blend-mode:multiply" opacity="0.5">
<path d="M292.582 159.123V167.673C291.571 167.58 290.571 167.389 289.594 167.102V159.123H292.582Z" fill="#8C6239"/>
</g>
<path d="M291.082 166.739C300.51 166.739 308.153 158.874 308.153 149.171C308.153 139.469 300.51 131.604 291.082 131.604C281.654 131.604 274.012 139.469 274.012 149.171C274.012 158.874 281.654 166.739 291.082 166.739Z" fill="#425E0B"/>
<path d="M157.139 197.502H178.635L178.635 54.7296H157.139L157.139 197.502Z" fill="#92539B"/>
<path d="M157.152 54.7424H99.6364V197.515H157.152V54.7424Z" fill="#C67ECD"/>
<g style="mix-blend-mode:screen" opacity="0.5">
<path d="M112.219 67.6521H108.361V71.6223H112.219V67.6521Z" fill="white"/>
<path d="M121.031 67.6521H117.173V71.6223H121.031V67.6521Z" fill="white"/>
<path d="M129.844 67.6521H125.986V71.6223H129.844V67.6521Z" fill="white"/>
<path d="M138.657 67.6521H134.799V71.6223H138.657V67.6521Z" fill="white"/>
<path d="M147.469 67.6521H143.611V71.6223H147.469V67.6521Z" fill="white"/>
<path d="M112.219 78.0317H108.361V82.002H112.219V78.0317Z" fill="white"/>
<path d="M121.031 78.0317H117.173V82.002H121.031V78.0317Z" fill="white"/>
<path d="M129.844 78.0317H125.986V82.002H129.844V78.0317Z" fill="white"/>
<path d="M138.657 78.0317H134.799V82.002H138.657V78.0317Z" fill="white"/>
<path d="M147.469 78.0317H143.611V82.002H147.469V78.0317Z" fill="white"/>
<path d="M112.219 88.3984H108.361V92.3687H112.219V88.3984Z" fill="white"/>
<path d="M121.031 88.3984H117.173V92.3687H121.031V88.3984Z" fill="white"/>
<path d="M129.844 88.3984H125.986V92.3687H129.844V88.3984Z" fill="white"/>
<path d="M138.657 88.3984H134.799V92.3687H138.657V88.3984Z" fill="white"/>
<path d="M147.469 88.3984H143.611V92.3687H147.469V88.3984Z" fill="white"/>
<path d="M112.219 98.7781H108.361V102.748H112.219V98.7781Z" fill="white"/>
<path d="M121.031 98.7781H117.173V102.748H121.031V98.7781Z" fill="white"/>
<path d="M129.844 98.7781H125.986V102.748H129.844V98.7781Z" fill="white"/>
<path d="M138.657 98.7781H134.799V102.748H138.657V98.7781Z" fill="white"/>
<path d="M147.469 98.7781H143.611V102.748H147.469V98.7781Z" fill="white"/>
<path d="M112.219 109.145H108.361V113.115H112.219V109.145Z" fill="white"/>
<path d="M121.031 109.145H117.173V113.115H121.031V109.145Z" fill="white"/>
<path d="M129.844 109.145H125.986V113.115H129.844V109.145Z" fill="white"/>
<path d="M138.657 109.145H134.799V113.115H138.657V109.145Z" fill="white"/>
<path d="M147.469 109.145H143.611V113.115H147.469V109.145Z" fill="white"/>
<path d="M112.219 119.524H108.361V123.495H112.219V119.524Z" fill="white"/>
<path d="M121.031 119.524H117.173V123.495H121.031V119.524Z" fill="white"/>
<path d="M129.844 119.524H125.986V123.495H129.844V119.524Z" fill="white"/>
<path d="M138.657 119.524H134.799V123.495H138.657V119.524Z" fill="white"/>
<path d="M147.469 119.524H143.611V123.495H147.469V119.524Z" fill="white"/>
<path d="M112.219 129.904H108.361V133.874H112.219V129.904Z" fill="white"/>
<path d="M121.031 129.904H117.173V133.874H121.031V129.904Z" fill="white"/>
<path d="M129.844 129.904H125.986V133.874H129.844V129.904Z" fill="white"/>
<path d="M138.657 129.904H134.799V133.874H138.657V129.904Z" fill="white"/>
<path d="M147.469 129.904H143.611V133.874H147.469V129.904Z" fill="white"/>
<path d="M112.219 140.271H108.361V144.241H112.219V140.271Z" fill="white"/>
<path d="M121.031 140.271H117.173V144.241H121.031V140.271Z" fill="white"/>
<path d="M129.844 140.271H125.986V144.241H129.844V140.271Z" fill="white"/>
<path d="M138.657 140.271H134.799V144.241H138.657V140.271Z" fill="white"/>
<path d="M147.469 140.271H143.611V144.241H147.469V140.271Z" fill="white"/>
<path d="M112.219 150.65H108.361V154.621H112.219V150.65Z" fill="white"/>
<path d="M121.031 150.65H117.173V154.621H121.031V150.65Z" fill="white"/>
<path d="M129.844 150.65H125.986V154.621H129.844V150.65Z" fill="white"/>
<path d="M138.657 150.65H134.799V154.621H138.657V150.65Z" fill="white"/>
<path d="M147.469 150.65H143.611V154.621H147.469V150.65Z" fill="white"/>
</g>
<path d="M225.384 156.126H222.131V218.131H225.384V156.126Z" fill="#618080"/>
<g style="mix-blend-mode:multiply" opacity="0.7">
<path d="M225.384 156.126H222.131V160.875H225.384V156.126Z" fill="#618080"/>
</g>
<path d="M209.108 128.71H187.145V142.295H209.108V128.71Z" fill="#5089A0"/>
<path d="M174.122 128.71H152.159V142.295H174.122V128.71Z" fill="#5089A0"/>
<path d="M139.136 128.71H117.173V152.908H139.136V128.71Z" fill="#6AA9C6"/>
<g style="mix-blend-mode:multiply" opacity="0.5">
<path d="M139.136 128.71H128.155V152.908H139.136V128.71Z" fill="#6AA9C6"/>
</g>
<path d="M20.4104 228.42H17.9772V261.505H20.4104V228.42Z" fill="#8C6239"/>
<g style="mix-blend-mode:multiply" opacity="0.5">
<path d="M20.4104 228.42H17.9772V249.115H20.4104V228.42Z" fill="#8C6239"/>
</g>
<path d="M32.8919 223.503C32.8919 223.503 35.6529 222.504 34.2787 218.456C32.9045 214.408 24.8861 199.604 24.8861 199.604C26.2944 198.789 27.3356 197.438 27.7858 195.841C28.4792 193.246 19.2127 173.148 19.2127 173.148C19.2127 173.148 9.94611 193.207 10.6395 195.841C11.0897 197.438 12.131 198.789 13.5393 199.604C13.5393 199.604 5.52086 214.395 4.13402 218.456C2.74719 222.517 5.52086 223.503 5.52086 223.503C5.52086 223.503 -0.972038 241.148 0.12482 244.262C1.22168 247.376 7.5885 247.103 11.3203 247.103H27.0798C30.8621 247.103 37.1658 247.389 38.2753 244.262C39.3848 241.135 32.8919 223.503 32.8919 223.503Z" fill="#557A15"/>
<path d="M108.361 270.587H91.5674H39.9899V240.525V191.053H91.5674L108.361 210.476V240.525V270.587Z" fill="#378C7C"/>
<path d="M108.348 210.476H39.9899V191.053H91.5674L108.348 210.476Z" fill="#8CE5D4"/>
<path d="M56.7705 270.587H39.9898H23.1965V240.525V210.476L39.9898 191.053L56.7705 210.476V240.525V270.587Z" fill="#67CBBB"/>
<path d="M48.0715 224.203H31.896V262.336H48.0715V224.203Z" fill="#378C7C"/>
<g style="mix-blend-mode:screen" opacity="0.3">
<path d="M72.7822 224.203H63.566V239.189H72.7822V224.203Z" fill="#67CBBB"/>
</g>
<g style="mix-blend-mode:screen" opacity="0.3">
<path d="M87.4953 224.203H78.2792V239.189H87.4953V224.203Z" fill="#67CBBB"/>
</g>
<g style="mix-blend-mode:screen" opacity="0.3">
<path d="M102.196 224.203H92.9795V239.189H102.196V224.203Z" fill="#67CBBB"/>
</g>
<path d="M118.434 257.224C118.749 256.764 118.881 256.199 118.804 255.643C118.727 255.087 118.447 254.582 118.021 254.231C117.595 253.88 117.055 253.71 116.51 253.755C115.966 253.8 115.46 254.057 115.093 254.473C114.305 253.608 113.278 253.013 112.151 252.767C111.024 252.521 109.851 252.636 108.789 253.098C108.347 251.783 107.587 250.605 106.581 249.674C105.575 248.744 104.356 248.091 103.039 247.778C101.721 247.464 100.348 247.499 99.0471 247.881C97.7465 248.262 96.5611 248.977 95.6019 249.958C95.3515 249.557 94.9816 249.25 94.5476 249.084C94.1137 248.917 93.639 248.9 93.1947 249.034C92.7503 249.169 92.3603 249.448 92.0828 249.829C91.8054 250.211 91.6556 250.675 91.6558 251.152C91.6517 251.229 91.6517 251.307 91.6558 251.385H91.2776C89.7623 251.388 88.3087 252.003 87.229 253.097C86.1493 254.191 85.5297 255.677 85.5033 257.237H118.434V257.224Z" fill="#425E0B"/>
<path d="M180.892 262.335H209.108L209.108 87.4382H180.892L180.892 262.335Z" fill="#F7931E"/>
<path d="M180.892 87.4124V262.31H105.386V165.143C105.382 154.936 107.333 144.829 111.126 135.399C114.919 125.968 120.48 117.399 127.492 110.181C134.504 102.962 142.829 97.2364 151.991 93.3297C161.154 89.4231 170.974 87.4124 180.892 87.4124Z" fill="#FBD03B"/>
<g style="mix-blend-mode:screen" opacity="0.5">
<path d="M171.474 155.204H121.019V163.638H171.474V155.204Z" fill="white"/>
</g>
<g style="mix-blend-mode:screen" opacity="0.5">
<path d="M171.474 174.018H121.019V182.451H171.474V174.018Z" fill="white"/>
</g>
<g style="mix-blend-mode:screen" opacity="0.5">
<path d="M171.474 192.831H121.019V201.264H171.474V192.831Z" fill="white"/>
</g>
<g style="mix-blend-mode:screen" opacity="0.5">
<path d="M171.474 211.631H121.019V220.064H171.474V211.631Z" fill="white"/>
</g>
<path d="M171.487 228.42H121.031V262.336H171.487V228.42Z" fill="#F7931E"/>
<g style="mix-blend-mode:multiply" opacity="0.5">
<path d="M171.487 228.42H147.469V262.336H171.487V228.42Z" fill="#F7931E"/>
</g>
<g style="mix-blend-mode:multiply" opacity="0.7">
<path d="M200.585 155.204H192.39V163.638H200.585V155.204Z" fill="#F7931E"/>
</g>
<g style="mix-blend-mode:multiply" opacity="0.7">
<path d="M200.585 174.018H192.39V182.451H200.585V174.018Z" fill="#F7931E"/>
</g>
<g style="mix-blend-mode:multiply" opacity="0.7">
<path d="M200.585 192.831H192.39V201.264H200.585V192.831Z" fill="#F7931E"/>
</g>
<g style="mix-blend-mode:multiply" opacity="0.7">
<path d="M200.585 211.631H192.39V220.064H200.585V211.631Z" fill="#F7931E"/>
</g>
<path d="M263.799 224.073H261.038V261.505H263.799V224.073Z" fill="#8C6239"/>
<g style="mix-blend-mode:multiply" opacity="0.5">
<path d="M263.799 224.073H261.038V247.48H263.799V224.073Z" fill="#8C6239"/>
</g>
<path d="M277.894 218.456C277.894 218.456 281.021 217.327 279.458 212.747C277.894 208.167 268.83 191.43 268.83 191.43C270.424 190.505 271.602 188.972 272.108 187.161C272.889 184.19 262.412 161.497 262.412 161.497C262.412 161.497 251.936 184.19 252.717 187.161C253.223 188.972 254.4 190.505 255.995 191.43C255.995 191.43 246.93 208.167 245.367 212.747C243.804 217.327 246.93 218.456 246.93 218.456C246.93 218.456 239.58 238.411 240.828 241.953C242.076 245.495 249.275 245.17 253.436 245.17H271.263C275.486 245.17 282.673 245.495 283.87 241.953C285.068 238.411 277.894 218.456 277.894 218.456Z" fill="#425E0B"/>
<path d="M225.384 233.156H223.758V258.677H225.384V233.156Z" fill="#808080"/>
<g style="mix-blend-mode:multiply" opacity="0.5">
<path d="M225.346 233.156V240.357C224.791 240.201 224.237 240.019 223.72 239.825V233.156H225.346Z" fill="#666666"/>
</g>
<path d="M224.565 238.89C222.321 238.89 220.169 237.973 218.583 236.341C216.996 234.708 216.105 232.493 216.105 230.184C216.105 227.876 216.996 225.661 218.583 224.028C220.169 222.396 222.321 221.479 224.565 221.479C225.675 221.479 226.776 221.704 227.802 222.141C228.828 222.579 229.761 223.22 230.546 224.028C231.332 224.837 231.955 225.797 232.38 226.853C232.805 227.909 233.024 229.041 233.024 230.184C233.024 232.493 232.133 234.708 230.546 236.341C228.96 237.973 226.808 238.89 224.565 238.89Z" fill="#0071BC"/>
<path d="M8.88712 233.156H7.26074V258.677H8.88712V233.156Z" fill="#808080"/>
<g style="mix-blend-mode:multiply" opacity="0.5">
<path d="M8.88712 233.156V240.357C8.33238 240.201 7.77765 240.019 7.26074 239.825V233.156H8.88712Z" fill="#666666"/>
</g>
<path d="M298.609 236.944V238.67L296.302 240.902V261.505H292.708V226.111H296.302V238.605L298.609 236.944Z" fill="#A67C52"/>
<g style="mix-blend-mode:multiply" opacity="0.5">
<path d="M296.302 226.111V236.373C295.085 236.262 293.882 236.032 292.708 235.686V226.111H296.302Z" fill="#A67C52"/>
</g>
<path d="M294.499 235.271C305.82 235.271 314.998 225.825 314.998 214.174C314.998 202.523 305.82 193.077 294.499 193.077C283.177 193.077 273.999 202.523 273.999 214.174C273.999 225.825 283.177 235.271 294.499 235.271Z" fill="#557A15"/>
<path d="M219.294 257.224C219.609 256.764 219.741 256.199 219.664 255.643C219.587 255.087 219.307 254.582 218.881 254.231C218.455 253.88 217.915 253.71 217.371 253.755C216.827 253.8 216.32 254.057 215.953 254.473C215.165 253.608 214.139 253.013 213.011 252.767C211.884 252.521 210.711 252.636 209.65 253.098C209.207 251.783 208.447 250.605 207.441 249.674C206.435 248.744 205.217 248.091 203.899 247.778C202.581 247.464 201.208 247.499 199.907 247.881C198.607 248.262 197.421 248.977 196.462 249.958C196.217 249.512 195.828 249.17 195.362 248.99C194.896 248.81 194.383 248.805 193.914 248.975C193.445 249.145 193.049 249.48 192.796 249.921C192.542 250.362 192.448 250.88 192.529 251.385H192.15C190.635 251.388 189.181 252.003 188.102 253.097C187.022 254.191 186.403 255.677 186.376 257.237H219.294V257.224Z" fill="#425E0B"/>
<path d="M1221.49 141.996H1219.03V175.437H1221.49V141.996Z" fill="#8C6239"/>
<g style="mix-blend-mode:multiply" opacity="0.5">
<path d="M1221.49 141.996H1219.03V162.911H1221.49V141.996Z" fill="#8C6239"/>
</g>
<path d="M1234.14 137.019C1234.14 137.019 1236.9 136.01 1235.52 131.915C1234.14 127.82 1226.02 112.863 1226.02 112.863C1227.44 112.037 1228.49 110.669 1228.95 109.052C1229.65 106.393 1220.28 86.1182 1220.28 86.1182C1220.28 86.1182 1210.93 106.393 1211.62 109.052C1212.07 110.669 1213.13 112.037 1214.55 112.863C1214.55 112.863 1206.45 127.806 1205.04 131.915C1203.64 136.024 1206.43 137.019 1206.43 137.019C1206.43 137.019 1199.86 154.849 1200.98 158.005C1202.1 161.162 1208.53 160.849 1212.3 160.849H1228.23C1232 160.849 1238.42 161.133 1239.54 158.005C1240.66 154.877 1234.14 137.019 1234.14 137.019Z" fill="#425E0B"/>
<path d="M1172.73 152.603H1170.28V185.745H1172.73V152.603Z" fill="#8C6239"/>
<g style="mix-blend-mode:multiply" opacity="0.5">
<path d="M1172.73 152.603H1170.28V173.333H1172.73V152.603Z" fill="#8C6239"/>
</g>
<path d="M1185.2 147.683C1185.2 147.683 1187.97 146.688 1186.59 142.621C1185.2 138.555 1177.16 123.74 1177.16 123.74C1178.58 122.92 1179.62 121.561 1180.07 119.958C1180.76 117.327 1171.49 97.2085 1171.49 97.2085C1171.49 97.2085 1162.2 117.299 1162.91 119.958C1163.35 121.561 1164.4 122.92 1165.81 123.74C1165.81 123.74 1157.78 138.555 1156.38 142.621C1154.99 146.688 1157.77 147.683 1157.77 147.683C1157.77 147.683 1151.25 165.342 1152.39 168.499C1153.54 171.655 1159.87 171.342 1163.61 171.342H1179.4C1183.15 171.342 1189.52 171.627 1190.62 168.499C1191.73 165.371 1185.2 147.683 1185.2 147.683Z" fill="#425E0B"/>
<path d="M1033.26 172.992V174.2L1031.64 175.764V190.21H1029.11V165.385H1031.64V174.157L1033.26 172.992Z" fill="#8C6239"/>
<g style="mix-blend-mode:multiply" opacity="0.5">
<path d="M1031.64 165.385V172.579C1030.79 172.5 1029.95 172.338 1029.13 172.096V165.385H1031.64Z" fill="#8C6239"/>
</g>
<path d="M1030.37 171.797C1038.3 171.797 1044.74 165.177 1044.74 157.01C1044.74 148.844 1038.3 142.223 1030.37 142.223C1022.43 142.223 1016 148.844 1016 157.01C1016 165.177 1022.43 171.797 1030.37 171.797Z" fill="#425E0B"/>
<path d="M1088.87 160.295V161.873L1086.77 163.906V182.717H1083.48V150.399H1086.77V161.816L1088.87 160.295Z" fill="#8C6239"/>
<g style="mix-blend-mode:multiply" opacity="0.5">
<path d="M1086.77 150.399V159.768C1085.66 159.667 1084.56 159.457 1083.49 159.143V150.399H1086.77Z" fill="#8C6239"/>
</g>
<path d="M1085.12 158.745C1095.45 158.745 1103.83 150.126 1103.83 139.493C1103.83 128.861 1095.45 120.242 1085.12 120.242C1074.79 120.242 1066.41 128.861 1066.41 139.493C1066.41 150.126 1074.79 158.745 1085.12 158.745Z" fill="#425E0B"/>
<path d="M1393.7 169.707V171.286L1391.6 173.319V192.129H1388.31V159.826H1391.6V171.229L1393.7 169.707Z" fill="#8C6239"/>
<g style="mix-blend-mode:multiply" opacity="0.5">
<path d="M1391.64 159.826V169.195C1390.54 169.094 1389.44 168.885 1388.37 168.57V159.826H1391.64Z" fill="#8C6239"/>
</g>
<path d="M1389.96 168.172C1400.29 168.172 1408.67 159.553 1408.67 148.92C1408.67 138.288 1400.29 129.669 1389.96 129.669C1379.63 129.669 1371.25 138.288 1371.25 148.92C1371.25 159.553 1379.63 168.172 1389.96 168.172Z" fill="#425E0B"/>
<path d="M1440 199.253H1430.34H1400.67V181.963V153.499H1430.34L1440 164.66V181.963V199.253Z" fill="#0071BC"/>
<path d="M1440 164.674H1400.67V153.499H1430.34L1440 164.674Z" fill="#69CBED"/>
<path d="M1410.31 164.66V199.253H1391.01V164.66L1400.67 153.499L1410.31 164.66Z" fill="#29ABE2"/>
<path d="M1404.67 170.831H1396.65V199.253H1404.67V170.831Z" fill="#0071BC"/>
<g style="mix-blend-mode:screen" opacity="0.3">
<path d="M1421.25 170.831H1415.28V183.968H1421.25V170.831Z" fill="white"/>
</g>
<g style="mix-blend-mode:screen" opacity="0.3">
<path d="M1428.74 170.831H1422.77V183.968H1428.74V170.831Z" fill="white"/>
</g>
<g style="mix-blend-mode:screen" opacity="0.3">
<path d="M1436.23 170.831H1430.26V183.968H1436.23V170.831Z" fill="white"/>
</g>
<path d="M1219.4 147.115H1215.83V215.063H1219.4V147.115Z" fill="#618080"/>
<g style="mix-blend-mode:multiply" opacity="0.7">
<path d="M1219.4 147.115H1215.83V152.318H1219.4V147.115Z" fill="#618080"/>
</g>
<path d="M1322.55 147.115H1318.99V215.063H1322.55V147.115Z" fill="#618080"/>
<g style="mix-blend-mode:multiply" opacity="0.7">
<path d="M1322.55 147.115H1318.99V152.318H1322.55V147.115Z" fill="#618080"/>
</g>
<path d="M1341.6 0.965576H1330.44V30.5821H1341.6V0.965576Z" fill="#BF5656"/>
<path d="M1268.14 24.1836H1263.76V41.9564H1268.14V24.1836Z" fill="#808080"/>
<g style="mix-blend-mode:multiply" opacity="0.5">
<path d="M1268.14 24.1836H1263.76V32.2027H1268.14V24.1836Z" fill="#808080"/>
</g>
<path d="M1321.46 24.1836H1317.08V41.9564H1321.46V24.1836Z" fill="#808080"/>
<g style="mix-blend-mode:multiply" opacity="0.5">
<path d="M1321.46 24.1836H1317.08V32.2027H1321.46V24.1836Z" fill="#808080"/>
</g>
<path d="M1333.77 0.965576H1250.87V30.5821H1333.77V0.965576Z" fill="#ED7C79"/>
<path d="M1347.93 263.505H1388.58V36.0133H1347.93V263.505Z" fill="#BF5656"/>
<path d="M1347.93 36.0134H1239.17V263.505H1347.93V36.0134Z" fill="#ED7C79"/>
<g style="mix-blend-mode:screen" opacity="0.5">
<path d="M1259.26 52.3357H1252.42V59.3737H1259.26V52.3357Z" fill="white"/>
<path d="M1278.12 52.3357H1271.28V59.3737H1278.12V52.3357Z" fill="white"/>
<path d="M1296.96 52.3357H1290.12V59.3737H1296.96V52.3357Z" fill="white"/>
<path d="M1315.82 52.3357H1308.98V59.3737H1315.82V52.3357Z" fill="white"/>
<path d="M1334.68 52.3357H1327.84V59.3737H1334.68V52.3357Z" fill="white"/>
<path d="M1259.26 70.7625H1252.42V77.8004H1259.26V70.7625Z" fill="white"/>
<path d="M1278.12 70.7625H1271.28V77.8004H1278.12V70.7625Z" fill="white"/>
<path d="M1296.96 70.7625H1290.12V77.8004H1296.96V70.7625Z" fill="white"/>
<path d="M1315.82 70.7625H1308.98V77.8004H1315.82V70.7625Z" fill="white"/>
<path d="M1334.68 70.7625H1327.84V77.8004H1334.68V70.7625Z" fill="white"/>
<path d="M1259.26 89.1748H1252.42V96.2128H1259.26V89.1748Z" fill="white"/>
<path d="M1278.12 89.1748H1271.28V96.2128H1278.12V89.1748Z" fill="white"/>
<path d="M1296.96 89.1748H1290.12V96.2128H1296.96V89.1748Z" fill="white"/>
<path d="M1315.82 89.1748H1308.98V96.2128H1315.82V89.1748Z" fill="white"/>
<path d="M1334.68 89.1748H1327.84V96.2128H1334.68V89.1748Z" fill="white"/>
<path d="M1259.26 107.602H1252.42V114.64H1259.26V107.602Z" fill="white"/>
<path d="M1278.12 107.602H1271.28V114.64H1278.12V107.602Z" fill="white"/>
<path d="M1296.96 107.602H1290.12V114.64H1296.96V107.602Z" fill="white"/>
<path d="M1315.82 107.602H1308.98V114.64H1315.82V107.602Z" fill="white"/>
<path d="M1334.68 107.602H1327.84V114.64H1334.68V107.602Z" fill="white"/>
<path d="M1259.26 126.014H1252.42V133.052H1259.26V126.014Z" fill="white"/>
<path d="M1278.12 126.014H1271.28V133.052H1278.12V126.014Z" fill="white"/>
<path d="M1296.96 126.014H1290.12V133.052H1296.96V126.014Z" fill="white"/>
<path d="M1315.82 126.014H1308.98V133.052H1315.82V126.014Z" fill="white"/>
<path d="M1334.68 126.014H1327.84V133.052H1334.68V126.014Z" fill="white"/>
<path d="M1259.26 144.441H1252.42V151.479H1259.26V144.441Z" fill="white"/>
<path d="M1278.12 144.441H1271.28V151.479H1278.12V144.441Z" fill="white"/>
<path d="M1296.96 144.441H1290.12V151.479H1296.96V144.441Z" fill="white"/>
<path d="M1315.82 144.441H1308.98V151.479H1315.82V144.441Z" fill="white"/>
<path d="M1334.68 144.441H1327.84V151.479H1334.68V144.441Z" fill="white"/>
<path d="M1259.26 162.854H1252.42V169.892H1259.26V162.854Z" fill="white"/>
<path d="M1278.12 162.854H1271.28V169.892H1278.12V162.854Z" fill="white"/>
<path d="M1296.96 162.854H1290.12V169.892H1296.96V162.854Z" fill="white"/>
<path d="M1315.82 162.854H1308.98V169.892H1315.82V162.854Z" fill="white"/>
<path d="M1334.68 162.854H1327.84V169.892H1334.68V162.854Z" fill="white"/>
<path d="M1259.26 181.281H1252.42V188.319H1259.26V181.281Z" fill="white"/>
<path d="M1278.12 181.281H1271.28V188.319H1278.12V181.281Z" fill="white"/>
<path d="M1296.96 181.281H1290.12V188.319H1296.96V181.281Z" fill="white"/>
<path d="M1315.82 181.281H1308.98V188.319H1315.82V181.281Z" fill="white"/>
<path d="M1334.68 181.281H1327.84V188.319H1334.68V181.281Z" fill="white"/>
<path d="M1259.26 199.693H1252.42V206.731H1259.26V199.693Z" fill="white"/>
<path d="M1278.12 199.693H1271.28V206.731H1278.12V199.693Z" fill="white"/>
<path d="M1296.96 199.693H1290.12V206.731H1296.96V199.693Z" fill="white"/>
<path d="M1315.82 199.693H1308.98V206.731H1315.82V199.693Z" fill="white"/>
<path d="M1334.68 199.693H1327.84V206.731H1334.68V199.693Z" fill="white"/>
</g>
<g style="mix-blend-mode:screen" opacity="0.5">
<path d="M1362.45 52.3357H1357.13V59.3737H1362.45V52.3357Z" fill="white"/>
<path d="M1371.75 52.3357H1366.43V59.3737H1371.75V52.3357Z" fill="white"/>
<path d="M1381.03 52.3357H1375.71V59.3737H1381.03V52.3357Z" fill="white"/>
<path d="M1362.45 70.7625H1357.13V77.8004H1362.45V70.7625Z" fill="white"/>
<path d="M1371.75 70.7625H1366.43V77.8004H1371.75V70.7625Z" fill="white"/>
<path d="M1381.03 70.7625H1375.71V77.8004H1381.03V70.7625Z" fill="white"/>
<path d="M1362.45 89.1748H1357.13V96.2128H1362.45V89.1748Z" fill="white"/>
<path d="M1371.75 89.1748H1366.43V96.2128H1371.75V89.1748Z" fill="white"/>
<path d="M1381.03 89.1748H1375.71V96.2128H1381.03V89.1748Z" fill="white"/>
<path d="M1362.45 107.602H1357.13V114.64H1362.45V107.602Z" fill="white"/>
<path d="M1371.75 107.602H1366.43V114.64H1371.75V107.602Z" fill="white"/>
<path d="M1381.03 107.602H1375.71V114.64H1381.03V107.602Z" fill="white"/>
<path d="M1362.45 126.014H1357.13V133.052H1362.45V126.014Z" fill="white"/>
<path d="M1371.75 126.014H1366.43V133.052H1371.75V126.014Z" fill="white"/>
<path d="M1381.03 126.014H1375.71V133.052H1381.03V126.014Z" fill="white"/>
<path d="M1362.45 144.441H1357.13V151.479H1362.45V144.441Z" fill="white"/>
<path d="M1371.75 144.441H1366.43V151.479H1371.75V144.441Z" fill="white"/>
<path d="M1381.03 144.441H1375.71V151.479H1381.03V144.441Z" fill="white"/>
<path d="M1362.45 162.854H1357.13V169.892H1362.45V162.854Z" fill="white"/>
<path d="M1371.75 162.854H1366.43V169.892H1371.75V162.854Z" fill="white"/>
<path d="M1381.03 162.854H1375.71V169.892H1381.03V162.854Z" fill="white"/>
<path d="M1362.45 181.281H1357.13V188.319H1362.45V181.281Z" fill="white"/>
<path d="M1371.75 181.281H1366.43V188.319H1371.75V181.281Z" fill="white"/>
<path d="M1381.03 181.281H1375.71V188.319H1381.03V181.281Z" fill="white"/>
<path d="M1362.45 199.693H1357.13V206.731H1362.45V199.693Z" fill="white"/>
<path d="M1371.75 199.693H1366.43V206.731H1371.75V199.693Z" fill="white"/>
<path d="M1381.03 199.693H1375.71V206.731H1381.03V199.693Z" fill="white"/>
</g>
<path d="M1334.69 217.921H1252.42V263.504H1334.69V217.921Z" fill="#BF5656"/>
<g style="mix-blend-mode:multiply" opacity="0.3">
<path d="M1334.68 217.921H1293.55V263.504H1334.68V217.921Z" fill="#BF5656"/>
</g>
<path d="M1249.92 263.505H1222.89H1139.86V215.12V135.47H1222.89L1249.92 166.721V215.12V263.505Z" fill="#92539B"/>
<path d="M1249.92 166.736H1139.86V135.47H1222.89L1249.92 166.736Z" fill="#E0A6E8"/>
<path d="M1166.88 263.505H1139.86H1112.84V215.12V166.721L1139.86 135.47L1166.88 166.721V215.12V263.505Z" fill="#C67ECD"/>
<path d="M1240.22 210.727H1183.59V263.505H1240.22V210.727Z" fill="#C67ECD"/>
<g style="mix-blend-mode:multiply" opacity="0.3">
<path d="M1240.22 210.727H1211.91V263.505H1240.22V210.727Z" fill="#C67ECD"/>
</g>
<g style="mix-blend-mode:screen" opacity="0.5">
<path d="M1240.22 195.513H1183.59V201.911H1240.22V195.513Z" fill="white"/>
</g>
<g style="mix-blend-mode:screen" opacity="0.5">
<path d="M1130.05 175.437H1121.49V189.826H1130.05V175.437Z" fill="white"/>
</g>
<g style="mix-blend-mode:screen" opacity="0.5">
<path d="M1143.26 175.437H1134.69V189.826H1143.26V175.437Z" fill="white"/>
</g>
<g style="mix-blend-mode:screen" opacity="0.5">
<path d="M1156.47 175.437H1147.9V189.826H1156.47V175.437Z" fill="white"/>
</g>
<g style="mix-blend-mode:screen" opacity="0.5">
<path d="M1130.05 203.518H1121.49V217.907H1130.05V203.518Z" fill="white"/>
</g>
<g style="mix-blend-mode:screen" opacity="0.5">
<path d="M1143.26 203.518H1134.69V217.907H1143.26V203.518Z" fill="white"/>
</g>
<g style="mix-blend-mode:screen" opacity="0.5">
<path d="M1156.47 203.518H1147.9V217.907H1156.47V203.518Z" fill="white"/>
</g>
<g style="mix-blend-mode:screen" opacity="0.5">
<path d="M1130.05 231.613H1121.49V246.002H1130.05V231.613Z" fill="white"/>
</g>
<g style="mix-blend-mode:screen" opacity="0.5">
<path d="M1143.26 231.613H1134.69V246.002H1143.26V231.613Z" fill="white"/>
</g>
<g style="mix-blend-mode:screen" opacity="0.5">
<path d="M1156.47 231.613H1147.9V246.002H1156.47V231.613Z" fill="white"/>
</g>
<path d="M1055.22 221.575H1052.2V262.595H1055.22V221.575Z" fill="#8C6239"/>
<g style="mix-blend-mode:multiply" opacity="0.5">
<path d="M1055.22 221.575H1052.2V247.225H1055.22V221.575Z" fill="#8C6239"/>
</g>
<path d="M1070.67 215.419C1070.67 215.419 1074.1 214.182 1072.38 209.163C1070.67 204.144 1060.74 185.802 1060.74 185.802C1062.48 184.789 1063.77 183.108 1064.33 181.124C1065.18 177.868 1053.7 153.001 1053.7 153.001C1053.7 153.001 1042.22 177.868 1043.08 181.124C1043.63 183.108 1044.92 184.789 1046.67 185.802C1046.67 185.802 1036.74 204.144 1035.02 209.163C1033.31 214.182 1036.74 215.419 1036.74 215.419C1036.74 215.419 1028.68 237.286 1030.05 241.168C1031.42 245.049 1039.31 244.694 1043.87 244.694H1063.4C1068.03 244.694 1075.91 245.049 1077.22 241.168C1078.53 237.286 1070.67 215.419 1070.67 215.419Z" fill="#425E0B"/>
<path d="M1425.48 242.49V243.898L1423.6 245.732V262.595H1420.66V233.618H1423.6V243.855L1425.48 242.49Z" fill="#A67C52"/>
<g style="mix-blend-mode:multiply" opacity="0.5">
<path d="M1423.6 233.618V242.021C1422.6 241.928 1421.62 241.737 1420.66 241.452V233.618H1423.6Z" fill="#A67C52"/>
</g>
<path d="M1422.12 241.111C1431.39 241.111 1438.89 233.383 1438.89 223.85C1438.89 214.317 1431.39 206.589 1422.12 206.589C1412.86 206.589 1405.35 214.317 1405.35 223.85C1405.35 233.383 1412.86 241.111 1422.12 241.111Z" fill="#425E0B"/>
<path d="M1400.94 226.338H1398.28V262.595H1400.94V226.338Z" fill="#8C6239"/>
<g style="mix-blend-mode:multiply" opacity="0.5">
<path d="M1400.94 226.338H1398.28V249.016H1400.94V226.338Z" fill="#8C6239"/>
</g>
<path d="M1414.61 220.95C1414.61 220.95 1417.63 219.855 1416.13 215.419C1414.62 210.983 1405.82 194.76 1405.82 194.76C1407.36 193.867 1408.5 192.386 1409 190.636C1409.76 187.793 1399.6 165.769 1399.6 165.769C1399.6 165.769 1389.45 187.75 1390.21 190.636C1390.7 192.386 1391.84 193.867 1393.38 194.76C1393.38 194.76 1384.6 210.969 1383.08 215.419C1381.56 219.869 1384.6 220.95 1384.6 220.95C1384.6 220.95 1377.48 240.286 1378.68 243.699C1379.89 247.111 1386.86 246.813 1390.95 246.813H1408.22C1412.37 246.813 1419.28 247.125 1420.49 243.699C1421.71 240.272 1414.61 220.95 1414.61 220.95Z" fill="#557A15"/>
<path d="M1093.37 235.68V237.571L1090.84 240.016V262.595H1086.9V223.808H1090.84V237.5L1093.37 235.68Z" fill="#A67C52"/>
<g style="mix-blend-mode:multiply" opacity="0.5">
<path d="M1090.84 223.808V235.054C1089.51 234.932 1088.19 234.68 1086.9 234.301V223.808H1090.84Z" fill="#A67C52"/>
</g>
<path d="M1088.87 233.846C1101.27 233.846 1111.33 223.495 1111.33 210.727C1111.33 197.959 1101.27 187.608 1088.87 187.608C1076.46 187.608 1066.4 197.959 1066.4 210.727C1066.4 223.495 1076.46 233.846 1088.87 233.846Z" fill="#557A15"/>
<path d="M420.335 258.53H447V100.643H420.335V258.53Z" fill="#0071BC"/>
<path d="M420.335 75.5422H402.456V145.82H420.335V75.5422Z" fill="#0071BC"/>
<path d="M402.456 75.5422H354.614V145.82H402.456V75.5422Z" fill="#29ABE2"/>
<g style="mix-blend-mode:multiply" opacity="0.3">
<path d="M420.349 96.354H354.614V145.82H420.349V96.354Z" fill="#0071BC"/>
</g>
<path d="M420.335 100.643H349V258.53H420.335V100.643Z" fill="#29ABE2"/>
<g style="mix-blend-mode:screen" opacity="0.5">
<path d="M361.771 114.104H357.477V118.523H361.771V114.104Z" fill="white"/>
<path d="M373.588 114.104H369.293V118.523H373.588V114.104Z" fill="white"/>
<path d="M385.404 114.104H381.11V118.523H385.404V114.104Z" fill="white"/>
<path d="M397.235 114.104H392.941V118.523H397.235V114.104Z" fill="white"/>
<path d="M409.052 114.104H404.757V118.523H409.052V114.104Z" fill="white"/>
<path d="M361.771 125.644H357.477V130.063H361.771V125.644Z" fill="white"/>
<path d="M373.588 125.644H369.293V130.063H373.588V125.644Z" fill="white"/>
<path d="M385.404 125.644H381.11V130.063H385.404V125.644Z" fill="white"/>
<path d="M397.235 125.644H392.941V130.063H397.235V125.644Z" fill="white"/>
<path d="M409.052 125.644H404.757V130.063H409.052V125.644Z" fill="white"/>
<path d="M361.771 137.197H357.477V141.617H361.771V137.197Z" fill="white"/>
<path d="M373.588 137.197H369.293V141.617H373.588V137.197Z" fill="white"/>
<path d="M385.404 137.197H381.11V141.617H385.404V137.197Z" fill="white"/>
<path d="M397.235 137.197H392.941V141.617H397.235V137.197Z" fill="white"/>
<path d="M409.052 137.197H404.757V141.617H409.052V137.197Z" fill="white"/>
<path d="M361.771 148.737H357.477V153.156H361.771V148.737Z" fill="white"/>
<path d="M373.588 148.737H369.293V153.156H373.588V148.737Z" fill="white"/>
<path d="M385.404 148.737H381.11V153.156H385.404V148.737Z" fill="white"/>
<path d="M397.235 148.737H392.941V153.156H397.235V148.737Z" fill="white"/>
<path d="M409.052 148.737H404.757V153.156H409.052V148.737Z" fill="white"/>
<path d="M361.771 160.291H357.477V164.711H361.771V160.291Z" fill="white"/>
<path d="M373.588 160.291H369.293V164.711H373.588V160.291Z" fill="white"/>
<path d="M385.404 160.291H381.11V164.711H385.404V160.291Z" fill="white"/>
<path d="M397.235 160.291H392.941V164.711H397.235V160.291Z" fill="white"/>
<path d="M409.052 160.291H404.757V164.711H409.052V160.291Z" fill="white"/>
<path d="M361.771 171.831H357.477V176.25H361.771V171.831Z" fill="white"/>
<path d="M373.588 171.831H369.293V176.25H373.588V171.831Z" fill="white"/>
<path d="M385.404 171.831H381.11V176.25H385.404V171.831Z" fill="white"/>
<path d="M397.235 171.831H392.941V176.25H397.235V171.831Z" fill="white"/>
<path d="M409.052 171.831H404.757V176.25H409.052V171.831Z" fill="white"/>
<path d="M361.771 183.385H357.477V187.804H361.771V183.385Z" fill="white"/>
<path d="M373.588 183.385H369.293V187.804H373.588V183.385Z" fill="white"/>
<path d="M385.404 183.385H381.11V187.804H385.404V183.385Z" fill="white"/>
<path d="M397.235 183.385H392.941V187.804H397.235V183.385Z" fill="white"/>
<path d="M409.052 183.385H404.757V187.804H409.052V183.385Z" fill="white"/>
<path d="M361.771 194.925H357.477V199.344H361.771V194.925Z" fill="white"/>
<path d="M373.588 194.925H369.293V199.344H373.588V194.925Z" fill="white"/>
<path d="M385.404 194.925H381.11V199.344H385.404V194.925Z" fill="white"/>
<path d="M397.235 194.925H392.941V199.344H397.235V194.925Z" fill="white"/>
<path d="M409.052 194.925H404.757V199.344H409.052V194.925Z" fill="white"/>
<path d="M361.771 206.479H357.477V210.898H361.771V206.479Z" fill="white"/>
<path d="M373.588 206.479H369.293V210.898H373.588V206.479Z" fill="white"/>
<path d="M385.404 206.479H381.11V210.898H385.404V206.479Z" fill="white"/>
<path d="M397.235 206.479H392.941V210.898H397.235V206.479Z" fill="white"/>
<path d="M409.052 206.479H404.757V210.898H409.052V206.479Z" fill="white"/>
</g>
</svg>
