<svg width="210" height="81" viewBox="0 0 210 81" fill="none" xmlns="http://www.w3.org/2000/svg">
<path d="M94.3071 51.1431V25.8016H99.2713V34.3761H99.3407C100.347 33.0222 102.187 32.2238 104.166 32.2238C108.123 32.2238 110.901 35.0009 110.901 39.0278V51.1431H105.936V40.2428C105.936 38.0558 104.721 36.8061 102.604 36.8061C100.521 36.8061 99.2713 38.1252 99.2713 40.2428V51.1431H94.3071ZM114.554 51.1431V32.7445H119.518V51.1431H114.554ZM114.485 29.7243V24.8644H119.518V29.7243H114.485ZM120.593 58.1554V53.6078H122.537C123.787 53.6078 124.204 53.2259 124.204 52.2539V32.7445H129.168V52.4275C129.168 56.4891 127.259 58.1554 122.919 58.1554H120.593ZM124.134 29.7243V24.8644H129.168V29.7243H124.134ZM132.424 46.1442C132.424 43.0546 134.264 41.3884 138.985 40.2428C141.901 39.5485 142.803 39.0278 142.803 38.0558C142.803 36.9796 141.901 36.3548 140.269 36.3548C138.36 36.3548 137.145 37.3962 136.763 39.3055L132.215 38.2988C132.493 36.4589 133.361 35.0009 134.854 33.8901C136.346 32.7792 138.152 32.2238 140.269 32.2238C144.886 32.2238 147.802 34.8968 147.802 39.2014V51.1431H143.359V49.6851H143.289C142.421 50.9695 140.686 51.6638 138.464 51.6638C134.819 51.6638 132.424 49.4768 132.424 46.1442ZM142.977 44.9292V42.2562H142.907C142.595 42.8116 141.831 43.2629 140.165 43.7142C137.943 44.3044 137.18 44.8598 137.18 45.8318C137.18 46.9426 137.943 47.4981 139.436 47.4981C141.519 47.4981 142.977 46.4566 142.977 44.9292ZM151.081 44.8598V32.7445H156.045V43.7142C156.045 45.9706 157.122 47.1162 159.239 47.1162C161.218 47.1162 162.468 45.7971 162.468 43.7142V32.7445H167.432V51.1431H162.711V49.5115H162.641C161.565 50.8654 159.656 51.6638 157.677 51.6638C153.511 51.6638 151.081 49.1296 151.081 44.8598ZM172.241 51.1431V45.7624H177.796V51.1431H172.241ZM182.633 51.1431V32.7445H187.597V51.1431H182.633ZM182.564 29.7243V24.8644H187.597V29.7243H182.564ZM191.388 51.1431V32.7445H196.109V34.3761H196.178C197.255 33.0222 199.199 32.2238 201.247 32.2238C203.26 32.2238 204.892 32.8834 206.107 34.1678C207.356 35.4522 207.981 37.1879 207.981 39.3749V51.1431H203.017V40.2428C203.017 38.0558 201.802 36.8061 199.685 36.8061C197.602 36.8061 196.352 38.1252 196.352 40.2428V51.1431H191.388Z" fill="#F5F5F5"/>
<g clip-path="url(#clip0_52_3170)">
<mask id="mask0_52_3170" style="mask-type:luminance" maskUnits="userSpaceOnUse" x="0" y="0" width="81" height="81">
<path d="M0 0H81V81H0V0Z" fill="white"/>
</mask>
<g mask="url(#mask0_52_3170)">
<path d="M15.7759 62.9882C26.4466 73.6588 50.9512 88.501 78.7278 62.8389C63.0266 59.8185 60.2641 39.8413 49.5913 29.1707C38.9206 18.4978 24.0315 16.0849 13.3608 26.7556C2.68802 37.4284 5.1031 52.3153 15.7759 62.9882Z" fill="#00AA13"/>
<path d="M54.7476 65.6742C67.8099 69.1572 77.466 64.1011 78.357 63.2101C78.357 63.2101 70.2868 66.9425 56.2759 60.0617C58.3052 57.4782 64.4889 53.861 64.4889 53.861C63.3123 53.1234 55.7963 53.3814 50.6656 56.907C47.9421 55.1677 45.3274 53.2635 42.8363 51.205L44.6269 49.3484C51.5545 42.1351 59.4285 43.8404 59.4285 43.8404C58.0707 42.5337 47.496 36.5056 39.0038 45.3325L37.6971 46.6925C36.789 45.8398 35.8725 44.9595 34.941 44.028L30.9975 40.0846L33.2655 37.8144C40.3445 30.7355 50.7999 30.4584 50.7999 30.4584C49.4655 29.1219 36.173 24.8097 27.5167 33.4681L25.9457 35.0349L8.26852 17.3577C6.93628 16.0233 4.66189 16.132 3.32965 17.4664C1.99315 18.8007 1.88657 21.0709 3.22094 22.4052L20.8981 40.0824L20.7745 40.2082C12.116 48.8645 15.712 62.8754 17.0464 64.2098C17.0464 64.2098 18.0439 53.036 25.1229 45.9592L25.9478 45.1321L33.4126 52.5969C33.532 52.7184 33.6535 52.825 33.775 52.9444C28.6038 63.1696 36.3926 74.9849 37.9486 75.9313C37.9486 75.9313 34.8237 65.866 38.9718 57.5273C42.2246 60.0745 45.4091 61.9908 48.4722 63.3998C48.6492 69.7796 54.2424 75.5498 55.5981 76.04C55.5981 76.04 53.6562 69.6389 54.4598 66.4756L54.7476 65.6742Z" fill="#5BE46B"/>
<path d="M49.2033 23.4474C48.7101 23.4449 48.2329 23.2715 47.853 22.9568C47.4732 22.6421 47.2141 22.2055 47.1199 21.7213C47.0256 21.2371 47.1021 20.7352 47.3362 20.301C47.5703 19.8668 47.9477 19.5272 48.404 19.3398C48.7578 19.1928 56.9644 15.7204 57.8171 6.20292C57.8676 5.63985 58.1399 5.11995 58.5738 4.75757C59.0077 4.3952 59.5678 4.22005 60.1309 4.27065C60.6939 4.32124 61.2139 4.59344 61.5762 5.02737C61.9386 5.4613 62.1138 6.0214 62.0632 6.58447C60.9718 18.7579 50.4439 23.1149 49.9963 23.2939C49.7442 23.3953 49.475 23.4474 49.2033 23.4474ZM59.8612 31.9737C59.3581 31.9743 58.8709 31.7969 58.486 31.4729C58.101 31.1489 57.8431 30.6991 57.7579 30.2032C57.6726 29.7074 57.7656 29.1973 58.0202 28.7634C58.2749 28.3294 58.6748 27.9995 59.1493 27.832C59.55 27.6871 68.7947 24.1849 70.6172 10.3787C70.6513 10.1001 70.7405 9.83108 70.8797 9.58737C71.0189 9.34366 71.2053 9.13014 71.428 8.95927C71.6506 8.78841 71.9051 8.66362 72.1765 8.59222C72.448 8.52081 72.7309 8.50421 73.0088 8.54339C73.2863 8.57989 73.5538 8.67074 73.7962 8.81072C74.0385 8.95071 74.2509 9.13709 74.4212 9.35921C74.5914 9.58134 74.7162 9.83484 74.7884 10.1052C74.8606 10.3756 74.8788 10.6576 74.842 10.935C72.6656 27.4569 61.0571 31.6817 60.5625 31.8543C60.3371 31.9332 60.1 31.9736 59.8612 31.9737ZM66.2581 44.7632C65.785 44.7635 65.3253 44.6065 64.9513 44.3168C64.5773 44.0271 64.3103 43.6212 64.1924 43.1631C64.0744 42.705 64.1122 42.2206 64.2998 41.7863C64.4874 41.352 64.8141 40.9925 65.2285 40.7643C65.2861 40.7324 71.0925 37.4902 72.9022 33.2654C73.1418 32.772 73.5622 32.3897 74.0762 32.198C74.5902 32.0064 75.1583 32.02 75.6625 32.2362C76.1667 32.4523 76.5682 32.8544 76.7838 33.3588C76.9994 33.8633 77.0124 34.4314 76.8201 34.9451C74.4263 40.5299 67.5712 44.3411 67.2813 44.501C66.9675 44.6726 66.6157 44.7627 66.2581 44.7632Z" fill="#00AA13"/>
</g>
</g>
<defs>
<clipPath id="clip0_52_3170">
<rect width="81" height="81" fill="white"/>
</clipPath>
</defs>
</svg>
