<svg width="145" height="56" viewBox="0 0 145 56" fill="none" xmlns="http://www.w3.org/2000/svg">
<path d="M65.2 35V17.48H68.632V23.408H68.68C69.376 22.472 70.648 21.92 72.016 21.92C74.752 21.92 76.672 23.84 76.672 26.624V35H73.24V27.464C73.24 25.952 72.4 25.088 70.936 25.088C69.496 25.088 68.632 26 68.632 27.464V35H65.2ZM79.1978 35V22.28H82.6298V35H79.1978ZM79.1498 20.192V16.832H82.6298V20.192H79.1498ZM83.3732 39.848V36.704H84.7172C85.5812 36.704 85.8692 36.44 85.8692 35.768V22.28H89.3012V35.888C89.3012 38.696 87.9812 39.848 84.9812 39.848H83.3732ZM85.8212 20.192V16.832H89.3012V20.192H85.8212ZM91.5522 31.544C91.5522 29.408 92.8242 28.256 96.0882 27.464C98.1042 26.984 98.7282 26.624 98.7282 25.952C98.7282 25.208 98.1042 24.776 96.9762 24.776C95.6562 24.776 94.8162 25.496 94.5522 26.816L91.4082 26.12C91.6002 24.848 92.2002 23.84 93.2322 23.072C94.2642 22.304 95.5122 21.92 96.9762 21.92C100.168 21.92 102.184 23.768 102.184 26.744V35H99.1122V33.992H99.0642C98.4642 34.88 97.2642 35.36 95.7282 35.36C93.2082 35.36 91.5522 33.848 91.5522 31.544ZM98.8482 30.704V28.856H98.8002C98.5842 29.24 98.0562 29.552 96.9042 29.864C95.3682 30.272 94.8402 30.656 94.8402 31.328C94.8402 32.096 95.3682 32.48 96.4002 32.48C97.8402 32.48 98.8482 31.76 98.8482 30.704ZM104.451 30.656V22.28H107.883V29.864C107.883 31.424 108.627 32.216 110.091 32.216C111.459 32.216 112.323 31.304 112.323 29.864V22.28H115.755V35H112.491V33.872H112.443C111.699 34.808 110.379 35.36 109.011 35.36C106.131 35.36 104.451 33.608 104.451 30.656ZM119.08 35V31.28H122.92V35H119.08ZM126.265 35V22.28H129.697V35H126.265ZM126.217 20.192V16.832H129.697V20.192H126.217ZM132.318 35V22.28H135.582V23.408H135.63C136.374 22.472 137.718 21.92 139.134 21.92C140.526 21.92 141.654 22.376 142.494 23.264C143.358 24.152 143.79 25.352 143.79 26.864V35H140.358V27.464C140.358 25.952 139.518 25.088 138.054 25.088C136.614 25.088 135.75 26 135.75 27.464V35H132.318Z" fill="#121111"/>
<g clip-path="url(#clip0_31_971)">
<mask id="mask0_31_971" style="mask-type:luminance" maskUnits="userSpaceOnUse" x="0" y="0" width="56" height="56">
<path d="M0 0H56V56H0V0Z" fill="white"/>
</mask>
<g mask="url(#mask0_31_971)">
<path d="M10.9068 43.5474C18.2841 50.9246 35.2255 61.1859 54.4291 43.4442C43.574 41.356 41.6641 27.5446 34.2853 20.1674C26.9081 12.7886 16.6144 11.1204 9.23711 18.4977C1.85837 25.8764 3.52806 36.1686 10.9068 43.5474Z" fill="#00AA13"/>
<path d="M37.8502 45.4042C46.8809 47.8122 53.5567 44.3166 54.1727 43.7006C54.1727 43.7006 48.5933 46.2811 38.9068 41.524C40.3097 39.7379 44.5849 37.2371 44.5849 37.2371C43.7714 36.7272 38.5752 36.9055 35.0281 39.3429C33.1451 38.1405 31.3375 36.824 29.6152 35.4008L30.8531 34.1173C35.6426 29.1303 41.0864 30.3093 41.0864 30.3093C40.1476 29.4059 32.8367 25.2383 26.9655 31.3408L26.0622 32.2811C25.4344 31.6916 24.8007 31.083 24.1567 30.4389L21.4304 27.7126L22.9984 26.1432C27.8925 21.2491 35.1209 21.0575 35.1209 21.0575C34.1984 20.1335 25.0085 17.1522 19.0238 23.1383L17.9377 24.2215L5.71648 12.0002C4.79542 11.0777 3.223 11.1528 2.30195 12.0754C1.37795 12.9979 1.30427 14.5674 2.22679 15.4899L14.4481 27.7112L14.3626 27.7981C8.37648 33.7827 10.8626 43.4693 11.7851 44.3918C11.7851 44.3918 12.4748 36.6667 17.3689 31.7741L17.9392 31.2023L23.1001 36.3632C23.1826 36.4472 23.2666 36.5208 23.3506 36.6034C19.7754 43.6726 25.1603 51.8413 26.2361 52.4956C26.2361 52.4956 24.0756 45.5368 26.9434 39.7718C29.1923 41.5328 31.394 42.8577 33.5116 43.8318C33.6339 48.2425 37.5009 52.2318 38.4382 52.5707C38.4382 52.5707 37.0956 48.1453 37.6512 45.9583L37.8502 45.4042Z" fill="#5BE46B"/>
<path d="M34.0172 16.2105C33.6761 16.2088 33.3462 16.0889 33.0836 15.8714C32.821 15.6538 32.6419 15.3519 32.5767 15.0172C32.5116 14.6824 32.5644 14.3354 32.7263 14.0353C32.8882 13.7351 33.149 13.5003 33.4645 13.3708C33.7092 13.2691 39.3828 10.8684 39.9723 4.28844C40.0073 3.89916 40.1955 3.53972 40.4955 3.28919C40.7955 3.03866 41.1827 2.91757 41.572 2.95255C41.9613 2.98753 42.3207 3.17572 42.5713 3.47572C42.8218 3.77571 42.9429 4.16295 42.9079 4.55223C42.1534 12.9684 34.8748 15.9806 34.5654 16.1044C34.3911 16.1746 34.205 16.2106 34.0172 16.2105ZM41.3856 22.1053C41.0377 22.1057 40.7009 21.9831 40.4348 21.759C40.1687 21.535 39.9903 21.2241 39.9314 20.8813C39.8725 20.5384 39.9367 20.1858 40.1128 19.8858C40.2888 19.5858 40.5653 19.3577 40.8934 19.2419C41.1704 19.1417 47.5618 16.7204 48.8218 7.17538C48.8453 6.98278 48.907 6.7968 49.0033 6.62831C49.0995 6.45982 49.2284 6.3122 49.3823 6.19407C49.5363 6.07594 49.7122 5.98967 49.8999 5.9403C50.0875 5.89093 50.2831 5.87946 50.4753 5.90654C50.6671 5.93178 50.8521 5.99459 51.0196 6.09137C51.1872 6.18815 51.334 6.317 51.4517 6.47057C51.5694 6.62414 51.6557 6.7994 51.7056 6.98633C51.7555 7.17327 51.7681 7.36822 51.7426 7.56002C50.238 18.9825 42.2123 21.9034 41.8704 22.0228C41.7146 22.0773 41.5507 22.1052 41.3856 22.1053ZM45.8081 30.9474C45.481 30.9476 45.1632 30.839 44.9046 30.6388C44.6461 30.4385 44.4615 30.1579 44.3799 29.8411C44.2984 29.5244 44.3245 29.1896 44.4542 28.8893C44.5839 28.5891 44.8098 28.3405 45.0963 28.1828C45.1361 28.1607 49.1504 25.9192 50.4016 22.9983C50.5672 22.6572 50.8579 22.3929 51.2132 22.2604C51.5686 22.1279 51.9613 22.1373 52.3099 22.2867C52.6585 22.4362 52.9361 22.7141 53.0851 23.0629C53.2342 23.4116 53.2431 23.8044 53.1102 24.1596C51.4553 28.0206 46.7159 30.6556 46.5155 30.7661C46.2986 30.8848 46.0553 30.9471 45.8081 30.9474Z" fill="#00AA13"/>
</g>
</g>
<defs>
<clipPath id="clip0_31_971">
<rect width="56" height="56" fill="white"/>
</clipPath>
</defs>
</svg>
