<svg width="64" height="64" viewBox="0 0 64 64" fill="none" xmlns="http://www.w3.org/2000/svg">
<rect width="64" height="64" rx="16" fill="#E3E3E3"/>
<g clip-path="url(#clip0_57_6301)">
<path d="M32.005 33.6767C31.1209 33.6767 30.2731 34.0279 29.6479 34.653C29.0228 35.2781 28.6716 36.1259 28.6716 37.01V47.01C28.6716 47.8941 29.0228 48.7419 29.6479 49.367C30.2731 49.9921 31.1209 50.3433 32.005 50.3433C32.889 50.3433 33.7369 49.9921 34.362 49.367C34.9871 48.7419 35.3383 47.8941 35.3383 47.01V37.01C35.3383 36.1259 34.9871 35.2781 34.362 34.653C33.7369 34.0279 32.889 33.6767 32.005 33.6767Z" fill="#00AA13"/>
<path d="M37.995 22.01H45.3383V18.6767H38.6716C38.6716 17.01 35.3383 15.3433 32.005 15.3433C28.6716 15.3433 25.3383 17.01 25.3383 18.6767H18.6716V22.01H26.0166C26.5316 23.42 27.3716 24.87 28.6233 25.8467C26.2274 26.5723 24.1284 28.0493 22.6365 30.0596C21.1446 32.0698 20.3388 34.5066 20.3383 37.01V43.6767C20.3383 44.1187 20.5139 44.5426 20.8265 44.8552C21.139 45.1677 21.5629 45.3433 22.005 45.3433H27.005V35.3433C27.005 34.4593 27.3562 33.6114 27.9813 32.9863C28.6064 32.3612 29.4542 32.01 30.3383 32.01H33.6716C34.5557 32.01 35.4035 32.3612 36.0287 32.9863C36.6538 33.6114 37.005 34.4593 37.005 35.3433V45.3433H42.005C42.447 45.3433 42.8709 45.1677 43.1835 44.8552C43.496 44.5426 43.6716 44.1187 43.6716 43.6767V37.01C43.6711 34.5066 42.8653 32.0698 41.3734 30.0596C39.8815 28.0493 37.7825 26.5723 35.3866 25.8467C36.6416 24.87 37.4816 23.42 37.995 22.01ZM32.005 18.6767C32.6682 18.6769 33.3042 18.9406 33.7731 19.4097C34.2419 19.8789 34.5052 20.5151 34.505 21.1783C34.5047 21.8416 34.2411 22.4776 33.7719 22.9464C33.3027 23.4153 32.6666 23.6786 32.0033 23.6783C31.34 23.6781 30.704 23.4144 30.2352 22.9453C29.7663 22.4761 29.5031 21.8399 29.5033 21.1767C29.5035 20.5134 29.7672 19.8774 30.2364 19.4086C30.7055 18.9397 31.3417 18.6765 32.005 18.6767Z" fill="#00AA13"/>
</g>
<defs>
<clipPath id="clip0_57_6301">
<rect width="40" height="40" fill="white" transform="translate(12 12)"/>
</clipPath>
</defs>
</svg>
