<svg width="178" height="178" viewBox="0 0 178 178" fill="none" xmlns="http://www.w3.org/2000/svg">
<rect width="178" height="178" rx="32" fill="#F5F5F5"/>
<path d="M153.474 143.74H24.5259V146.923H153.474V143.74Z" fill="#7A8490"/>
<path d="M117.113 143.739H81.247L87.2045 130.484C89.8022 124.705 91.1453 118.44 91.1453 112.103V69.6606C91.1453 69.1264 91.5783 68.6934 92.1125 68.6934H106.248C106.782 68.6934 107.215 69.1264 107.215 69.6606V112.104C107.215 118.44 108.558 124.705 111.155 130.484L117.113 143.739ZM52.2727 81.9748V119.388H36.4938V81.9748C36.4938 77.6176 40.0261 74.0854 44.3833 74.0854C48.7405 74.0854 52.2727 77.6176 52.2727 81.9748Z" fill="#44433F"/>
<path d="M146.271 122.882H104.554V143.735H146.271V122.882Z" fill="#CCBAA8"/>
<path d="M147.888 120.738H102.94V122.877H147.888V120.738Z" fill="#D9C8B4"/>
<path d="M57.3462 119.388L81.6691 143.739H30.8685V119.388H57.3462Z" fill="#CCBAA8"/>
<path d="M43.0934 122.965H35.4452V125.32H43.0934V122.965Z" fill="#BFA994"/>
<path d="M52.7696 122.965H45.1213V125.32H52.7696V122.965Z" fill="#BFA994"/>
<path d="M43.0934 127.912H35.4452V130.267H43.0934V127.912Z" fill="#BFA994"/>
<path d="M52.7696 127.912H45.1213V130.267H52.7696V127.912Z" fill="#BFA994"/>
<path d="M43.0934 132.859H35.4452V135.215H43.0934V132.859Z" fill="#BFA994"/>
<path d="M52.7696 132.859H45.1213V135.215H52.7696V132.859Z" fill="#BFA994"/>
<path d="M43.0934 137.807H35.4452V140.162H43.0934V137.807Z" fill="#BFA994"/>
<path d="M52.7696 137.807H45.1213V140.162H52.7696V137.807Z" fill="#BFA994"/>
<path opacity="0.08" d="M81.666 143.736H54.466L30.8726 120.142V119.386H57.3472L81.666 143.736Z" fill="black"/>
<path d="M86.3777 109.608V143.731H63.9478V106.292L71.4349 109.608V106.292L78.8917 109.608V106.292L86.3777 109.608Z" fill="#D9C8B4"/>
<path d="M34.7743 119.389H33.5644V85.7764H36.4939V86.9863H34.7743V119.389Z" fill="#44433F"/>
<path d="M108.447 73.1123C108.447 73.648 108.011 74.0854 107.474 74.0854H90.852C90.3147 74.0854 89.9125 73.648 89.9125 73.1123C89.9125 72.5749 90.3147 72.1392 90.852 72.1392H107.474C108.011 72.1392 108.447 72.5749 108.447 73.1123ZM108.447 84.4106C108.447 84.9463 108.011 85.3837 107.474 85.3837H90.852C90.3147 85.3837 89.9125 84.9463 89.9125 84.4106C89.9125 83.8732 90.3147 83.4375 90.852 83.4375H107.474C108.011 83.4375 108.447 83.8732 108.447 84.4106ZM108.447 95.7089C108.447 96.2446 108.011 96.682 107.474 96.682H90.852C90.3147 96.682 89.9125 96.2446 89.9125 95.7089C89.9125 95.1715 90.3147 94.7358 90.852 94.7358H107.474C108.011 94.7358 108.447 95.1715 108.447 95.7089ZM108.447 107.007C108.447 107.543 108.011 107.98 107.474 107.98H90.852C90.3147 107.98 89.9125 107.543 89.9125 107.007C89.9125 106.47 90.3147 106.034 90.852 106.034H107.474C108.011 106.034 108.447 106.47 108.447 107.007ZM108.931 118.305C108.931 118.841 108.495 119.279 107.958 119.279H90.368C89.8306 119.279 89.4285 118.841 89.4285 118.305C89.4285 117.768 89.8306 117.332 90.368 117.332H107.958C108.495 117.332 108.931 117.768 108.931 118.305Z" fill="#606060"/>
<path d="M53.4086 83.4375C53.4086 83.9732 52.972 84.4106 52.4355 84.4106H36.2974C35.7601 84.4106 35.3579 83.9732 35.3579 83.4375C35.3579 82.9001 35.7601 82.4644 36.2974 82.4644H52.4355C52.972 82.4644 53.4086 82.9001 53.4086 83.4375ZM53.4086 93.1405C53.4086 93.6762 52.972 94.1136 52.4355 94.1136H36.2974C35.7601 94.1136 35.3579 93.6762 35.3579 93.1405C35.3579 92.6031 35.7601 92.1674 36.2974 92.1674H52.4355C52.972 92.1674 53.4086 92.6031 53.4086 93.1405ZM53.4086 102.843C53.4086 103.379 52.972 103.817 52.4355 103.817H36.2974C35.7601 103.817 35.3579 103.379 35.3579 102.843C35.3579 102.306 35.7601 101.87 36.2974 101.87H52.4355C52.972 101.87 53.4086 102.306 53.4086 102.843ZM53.4086 112.547C53.4086 113.082 52.972 113.52 52.4355 113.52H36.2974C35.7601 113.52 35.3579 113.082 35.3579 112.547C35.3579 112.009 35.7601 111.573 36.2974 111.573H52.4355C52.972 111.573 53.4086 112.009 53.4086 112.547Z" fill="#606060"/>
<path d="M74.1488 114.119H66.5005V116.474H74.1488V114.119Z" fill="#BFA994"/>
<path d="M83.8249 114.119H76.1767V116.474H83.8249V114.119Z" fill="#BFA994"/>
<path d="M74.1488 119.066H66.5005V121.421H74.1488V119.066Z" fill="#BFA994"/>
<path d="M83.8249 119.066H76.1767V121.421H83.8249V119.066Z" fill="#BFA994"/>
<path d="M74.1488 124.013H66.5005V126.369H74.1488V124.013Z" fill="#BFA994"/>
<path d="M83.8249 124.013H76.1767V126.369H83.8249V124.013Z" fill="#BFA994"/>
<path d="M74.1488 128.961H66.5005V131.316H74.1488V128.961Z" fill="#BFA994"/>
<path d="M83.8249 128.961H76.1767V131.316H83.8249V128.961Z" fill="#BFA994"/>
<path d="M74.1488 133.908H66.5005V136.264H74.1488V133.908Z" fill="#BFA994"/>
<path d="M83.8249 133.908H76.1767V136.264H83.8249V133.908Z" fill="#BFA994"/>
<path d="M114.269 125.012H107.144V127.206H114.269V125.012Z" fill="#BFA994"/>
<path d="M123.283 125.012H116.159V127.206H123.283V125.012Z" fill="#BFA994"/>
<path d="M114.269 129.62H107.144V131.814H114.269V129.62Z" fill="#BFA994"/>
<path d="M123.283 129.62H116.159V131.814H123.283V129.62Z" fill="#BFA994"/>
<path d="M114.269 134.229H107.144V136.423H114.269V134.229Z" fill="#BFA994"/>
<path d="M123.283 134.229H116.159V136.423H123.283V134.229Z" fill="#BFA994"/>
<path d="M114.269 138.837H107.144V141.032H114.269V138.837Z" fill="#BFA994"/>
<path d="M123.283 138.837H116.159V141.032H123.283V138.837Z" fill="#BFA994"/>
<path d="M58.1029 117.249H30.1121V119.388H58.1029V117.249Z" fill="#D9C8B4"/>
<path d="M140.996 131.896H129.162V143.73H140.996V131.896Z" fill="#44433F"/>
<path d="M141.298 143.73H140.693V132.199H129.465V143.73H128.86V131.594H141.298V143.73Z" fill="#D9C8B4"/>
<path d="M137.403 49.0793L141.358 120.738H125.354L129.309 49.0793H137.403Z" fill="#CCBAA8"/>
<path d="M138.413 67.4142H128.299L128.803 58.2871H137.91L138.413 67.4142Z" fill="#D0281B"/>
<path d="M139.542 87.7741H127.171L127.674 78.647H139.038L139.542 87.7741Z" fill="#D0281B"/>
<path d="M140.66 108.144H126.052L126.556 99.0166H140.156L140.66 108.144Z" fill="#D0281B"/>
<path d="M138.207 48.5357C138.207 48.8377 137.965 49.0797 137.663 49.0797H129.049C128.747 49.0797 128.505 48.8377 128.505 48.5357C128.505 48.2435 128.747 48.002 129.049 48.002H137.663C137.965 48.002 138.207 48.2435 138.207 48.5357Z" fill="#D9C8B4"/>
<path d="M133.93 45.201C133.93 46.2084 133.124 47.0146 132.117 47.0146C131.291 47.0146 130.606 46.4804 130.384 45.7352C129.85 45.6747 129.387 45.4229 129.044 45.0402C128.672 45.352 128.198 45.5439 127.664 45.5439C126.879 45.5439 126.193 45.1208 125.831 44.4961C125.448 44.929 124.884 45.201 124.259 45.201C123.262 45.201 122.416 44.5163 122.204 43.5891C121.71 44.385 120.824 44.9088 119.807 44.9088C118.346 44.9088 117.147 43.8513 116.966 42.441C116.603 42.622 116.19 42.713 115.757 42.713C114.175 42.713 112.896 41.4537 112.896 39.8821C112.896 39.0154 113.279 38.25 113.883 37.7261C113.571 37.2731 113.379 36.7187 113.379 36.1245C113.379 34.5431 114.659 33.2838 116.24 33.2838C116.502 33.2838 116.754 33.3138 116.996 33.3842C117.238 32.0644 118.406 31.0771 119.807 31.0771C121.287 31.0771 122.486 32.1854 122.627 33.6262C123.03 33.4043 123.494 33.2838 123.987 33.2838C125.569 33.2838 126.818 34.5431 126.818 36.1245C126.818 36.1747 126.818 36.2254 126.808 36.2755C126.818 36.2755 126.818 36.2755 126.828 36.2755C127.997 36.2755 128.934 37.2023 128.934 38.371C128.934 38.3809 128.934 38.3809 128.934 38.3912C129.024 38.3809 129.115 38.371 129.206 38.371C130.374 38.371 131.301 39.3076 131.301 40.4763C131.301 40.8895 131.19 41.2722 130.989 41.5949C131.936 41.7558 132.651 42.5217 132.721 43.4986C133.427 43.7406 133.93 44.4051 133.93 45.201Z" fill="#A7A29C"/>
<path opacity="0.08" d="M146.271 122.882V143.735H123.796L104.554 124.494V122.882H146.271Z" fill="black"/>
</svg>
