<svg width="178" height="178" viewBox="0 0 178 178" fill="none" xmlns="http://www.w3.org/2000/svg">
<rect width="178" height="178" rx="32" fill="#F5F5F5"/>
<path d="M59.5469 88.4355H57.418V84.1777H59.5469V88.4355ZM59.5469 79.9199H57.418V75.6621H59.5469V79.9199ZM59.5469 71.4043H57.418V67.1465H59.5469V71.4043ZM89.5645 88.4355H87.4355V84.1777H89.5645V88.4355ZM89.5645 79.9199H87.4355V75.6621H89.5645V79.9199ZM89.5645 71.4043H87.4355V67.1465H89.5645V71.4043ZM119.582 88.4355H117.453V84.1777H119.582V88.4355ZM119.582 79.9199H117.453V75.6621H119.582V79.9199ZM119.582 71.4043H117.453V67.1465H119.582V71.4043Z" fill="#68A1D6"/>
<path d="M59.5469 50.9668H57.418V62.8887H59.5469V50.9668Z" fill="#F37787"/>
<path d="M89.5645 50.9668H87.4355V62.8887H89.5645V50.9668Z" fill="#F37787"/>
<path d="M119.582 50.9668H117.453V62.8887H119.582V50.9668Z" fill="#F37787"/>
<path d="M59.5469 50.9668H57.418V57.5664H59.5469V50.9668Z" fill="#D84861"/>
<path d="M89.5645 50.9668H87.4355V57.5664H89.5645V50.9668Z" fill="#D84861"/>
<path d="M119.582 50.9668H117.453V57.5664H119.582V50.9668Z" fill="#D84861"/>
<path d="M62.7402 36.0645H54.2246V55.2246H62.7402V36.0645Z" fill="#F37787"/>
<path d="M92.7578 36.0645H84.2422V55.2246H92.7578V36.0645Z" fill="#F37787"/>
<path d="M122.775 36.0645H114.26V55.2246H122.775V36.0645Z" fill="#F37787"/>
<path d="M62.7402 36.0645H54.2246V49.4766H62.7402V36.0645Z" fill="#D84861"/>
<path d="M92.7578 36.0645H84.2422V49.4766H92.7578V36.0645Z" fill="#D84861"/>
<path d="M122.775 36.0645H114.26V49.4766H122.775V36.0645Z" fill="#D84861"/>
<path d="M49.9668 58.3115C45.9219 58.3115 42.5156 55.0117 42.5156 50.9668H44.6445C44.6445 53.7344 46.9863 56.1826 49.9668 56.1826V58.3115Z" fill="#F8D707"/>
<path d="M49.9668 62.5693C43.5801 62.5693 38.2578 57.3535 38.2578 50.9668H40.3867C40.3867 56.0762 44.6445 60.4404 49.9668 60.4404V62.5693ZM49.9668 54.0537C48.2637 54.0537 46.7734 52.6699 46.7734 50.9668H48.9023C48.9023 51.3926 49.3281 51.9248 49.9668 51.9248V54.0537ZM127.033 58.3115V56.1826C130.014 56.1826 132.355 53.7344 132.355 50.9668H134.484C134.484 55.0117 131.078 58.3115 127.033 58.3115Z" fill="#F8D707"/>
<path d="M127.033 62.5693V60.4404C132.355 60.4404 136.613 56.0762 136.613 50.9668H138.742C138.742 57.3535 133.42 62.5693 127.033 62.5693ZM127.033 54.0537V51.9248C127.672 51.9248 128.098 51.3926 128.098 50.9668H130.227C130.227 52.6699 128.736 54.0537 127.033 54.0537Z" fill="#F8D707"/>
<path d="M58.4824 62.8887C56.1406 62.8887 54.2246 64.8047 54.2246 67.1465H62.7402C62.7402 64.8047 60.8242 62.8887 58.4824 62.8887Z" fill="#F37787"/>
<path d="M62.7402 68.2109H54.2246C53.6285 68.2109 53.1602 67.7426 53.1602 67.1465C53.1602 64.2086 55.5445 61.8242 58.4824 61.8242C61.4203 61.8242 63.8047 64.2086 63.8047 67.1465C63.8047 67.7426 63.315 68.2109 62.7402 68.2109ZM55.4594 66.082H61.4842C61.0371 64.8473 59.8662 63.9531 58.4824 63.9531C57.0986 63.9531 55.9064 64.8473 55.4594 66.082Z" fill="#F37787"/>
<path d="M127.033 136.549C127.033 131.844 123.222 128.033 118.518 128.033C113.813 128.033 110.002 131.844 110.002 136.549H97.0156C97.0156 131.844 93.2049 128.033 88.5 128.033C83.7951 128.033 79.9844 131.844 79.9844 136.549H66.998C66.998 131.844 63.1873 128.033 58.4824 128.033C53.7775 128.033 49.9668 131.844 49.9668 136.549H35.0645V142.936H49.9668H66.998H79.9844H97.0156H110.002H127.033H141.936V136.549H127.033Z" fill="#A38C31"/>
<path d="M59.5469 111.854H57.418V128.033H59.5469V111.854Z" fill="#A38C31"/>
<path d="M58.4824 93.7791C53.5008 98.7607 53.5008 106.851 58.4824 111.853C63.4641 106.872 63.4641 98.782 58.4824 93.7791Z" fill="#BEBF31"/>
<path d="M58.4824 112.918C58.2057 112.918 57.9289 112.811 57.7373 112.599C52.3512 107.212 52.3512 98.4201 57.7373 93.0339C57.9289 92.8423 58.2057 92.7146 58.4824 92.7146C58.7592 92.7146 59.0359 92.821 59.2275 93.0339C64.6137 98.4201 64.6137 107.212 59.2275 112.599C59.0359 112.811 58.7592 112.918 58.4824 112.918ZM58.4824 95.3757C54.9271 99.6761 54.9271 105.978 58.4824 110.278C62.0377 105.956 62.0377 99.6761 58.4824 95.3757ZM45.709 110.363C45.709 117.41 51.4357 123.137 58.4824 123.137C58.4824 116.09 52.7557 110.363 45.709 110.363Z" fill="#BEBF31"/>
<path d="M58.4824 124.201C50.8609 124.201 44.6445 117.985 44.6445 110.363C44.6445 109.767 45.1129 109.299 45.709 109.299C53.3305 109.299 59.5469 115.515 59.5469 123.137C59.5469 123.733 59.0572 124.201 58.4824 124.201ZM46.816 111.47C47.3482 117.027 51.7977 121.476 57.3541 122.008C56.8219 116.452 52.3938 112.003 46.816 111.47Z" fill="#BEBF31"/>
<path d="M71.2559 110.363C64.2092 110.363 58.4824 116.09 58.4824 123.137C65.5291 123.137 71.2559 117.41 71.2559 110.363Z" fill="#BEBF31"/>
<path d="M58.4824 124.201C57.8863 124.201 57.418 123.733 57.418 123.137C57.418 115.515 63.6344 109.299 71.2559 109.299C71.852 109.299 72.3203 109.767 72.3203 110.363C72.3203 117.985 66.1039 124.201 58.4824 124.201ZM70.1488 111.47C64.5924 112.003 60.143 116.452 59.6107 122.008C65.1672 121.497 69.6166 117.048 70.1488 111.47Z" fill="#BEBF31"/>
<path d="M89.5645 113.131H87.4355V128.033H89.5645V113.131Z" fill="#A38C31"/>
<path d="M75.7266 100.357C75.7266 107.404 81.4533 113.131 88.5 113.131C88.5 106.084 82.7732 100.357 75.7266 100.357Z" fill="#BEBF31"/>
<path d="M88.5 114.195C80.8785 114.195 74.6621 107.979 74.6621 100.357C74.6621 99.7613 75.1305 99.293 75.7266 99.293C83.348 99.293 89.5645 105.509 89.5645 113.131C89.5645 113.727 89.0748 114.195 88.5 114.195ZM76.8336 101.464C77.3658 107.021 81.8152 111.47 87.3717 112.003C86.8395 106.446 82.4113 101.997 76.8336 101.464Z" fill="#BEBF31"/>
<path d="M101.273 100.357C94.2268 100.357 88.5 106.084 88.5 113.131C95.5467 113.131 101.273 107.404 101.273 100.357Z" fill="#BEBF31"/>
<path d="M88.5 114.195C87.9039 114.195 87.4355 113.727 87.4355 113.131C87.4355 105.509 93.652 99.293 101.273 99.293C101.87 99.293 102.338 99.7613 102.338 100.357C102.338 107.979 96.1215 114.195 88.5 114.195ZM100.166 101.464C94.61 101.997 90.1605 106.446 89.6283 112.003C95.1848 111.492 99.6342 107.042 100.166 101.464Z" fill="#BEBF31"/>
<path d="M119.582 107.17H117.453V128.033H119.582V107.17Z" fill="#A38C31"/>
<path d="M105.744 94.3965C112.791 94.3965 118.518 100.123 118.518 107.17C111.471 107.17 105.744 101.443 105.744 94.3965Z" fill="#BEBF31"/>
<path d="M118.518 108.234C110.896 108.234 104.68 102.018 104.68 94.3965C104.68 93.8004 105.148 93.332 105.744 93.332C113.366 93.332 119.582 99.5484 119.582 107.17C119.582 107.766 119.114 108.234 118.518 108.234ZM106.851 95.5035C107.383 101.06 111.833 105.509 117.389 106.042C116.878 100.485 112.429 96.0357 106.851 95.5035Z" fill="#BEBF31"/>
<path d="M131.291 101.741C131.291 108.788 125.564 114.515 118.518 114.515C118.518 107.468 124.244 101.741 131.291 101.741Z" fill="#BEBF31"/>
<path d="M118.518 115.579C117.921 115.579 117.453 115.111 117.453 114.515C117.453 106.893 123.67 100.677 131.291 100.677C131.887 100.677 132.355 101.145 132.355 101.741C132.355 109.363 126.139 115.579 118.518 115.579ZM130.184 102.87C124.628 103.402 120.178 107.851 119.646 113.408C125.202 112.875 129.652 108.426 130.184 102.87Z" fill="#BEBF31"/>
<path d="M105.744 111.215C112.791 111.215 118.518 116.942 118.518 123.988C111.45 123.988 105.744 118.262 105.744 111.215Z" fill="#BEBF31"/>
<path d="M118.518 125.053C110.896 125.053 104.68 118.836 104.68 111.215C104.68 110.619 105.148 110.15 105.744 110.15C113.366 110.15 119.582 116.367 119.582 123.988C119.582 124.584 119.092 125.053 118.518 125.053ZM106.851 112.322C107.383 117.878 111.833 122.328 117.389 122.86C116.857 117.304 112.429 112.854 106.851 112.322Z" fill="#BEBF31"/>
<path d="M141.936 36.0645H35.0645V46.709H141.936V36.0645Z" fill="#F37787"/>
<path d="M66.7852 66.082H50.1797V68.2109H66.7852V66.082Z" fill="#F37787"/>
<path d="M88.5 62.8887C86.1582 62.8887 84.2422 64.8047 84.2422 67.1465H92.7578C92.7578 64.8047 90.8418 62.8887 88.5 62.8887Z" fill="#F37787"/>
<path d="M92.7578 68.2109H84.2422C83.6461 68.2109 83.1777 67.7426 83.1777 67.1465C83.1777 64.2086 85.5621 61.8242 88.5 61.8242C91.4379 61.8242 93.8223 64.2086 93.8223 67.1465C93.8223 67.7426 93.3326 68.2109 92.7578 68.2109ZM85.477 66.082H91.5018C91.0547 64.8473 89.8838 63.9531 88.5 63.9531C87.1162 63.9531 85.924 64.8473 85.477 66.082Z" fill="#F37787"/>
<path d="M96.8027 66.082H80.1973V68.2109H96.8027V66.082Z" fill="#F37787"/>
<path d="M118.518 62.8887C116.176 62.8887 114.26 64.8047 114.26 67.1465H122.775C122.775 64.8047 120.859 62.8887 118.518 62.8887Z" fill="#F37787"/>
<path d="M122.775 68.2109H114.26C113.664 68.2109 113.195 67.7426 113.195 67.1465C113.195 64.2086 115.58 61.8242 118.518 61.8242C121.455 61.8242 123.84 64.2086 123.84 67.1465C123.84 67.7426 123.35 68.2109 122.775 68.2109ZM115.495 66.082H121.519C121.072 64.8473 119.901 63.9531 118.518 63.9531C117.134 63.9531 115.942 64.8473 115.495 66.082Z" fill="#F37787"/>
<path d="M126.82 66.082H110.215V68.2109H126.82V66.082Z" fill="#F37787"/>
</svg>
