<svg width="178" height="178" viewBox="0 0 178 178" fill="none" xmlns="http://www.w3.org/2000/svg">
<rect width="178" height="178" rx="32" fill="#F5F5F5"/>
<path opacity="0.3" d="M96.9219 113.375C101.97 113.375 106.062 111.192 106.062 108.5C106.062 105.808 101.97 103.625 96.9219 103.625C91.8736 103.625 87.7812 105.808 87.7812 108.5C87.7812 111.192 91.8736 113.375 96.9219 113.375Z" fill="black"/>
<path d="M95.0938 75.5938V108.5C95.0938 109.231 95.9469 109.719 96.9219 109.719C97.8969 109.719 98.75 109.231 98.75 108.5V75.5938H95.0938Z" fill="#825012"/>
<path d="M88.3906 78.0312C92.7658 78.0312 96.3125 74.4845 96.3125 70.1094C96.3125 65.7342 92.7658 62.1875 88.3906 62.1875C84.0155 62.1875 80.4688 65.7342 80.4688 70.1094C80.4688 74.4845 84.0155 78.0312 88.3906 78.0312Z" fill="#539B00"/>
<path d="M93.875 70.7188C99.9329 70.7188 104.844 65.8079 104.844 59.75C104.844 53.6921 99.9329 48.7812 93.875 48.7812C87.8171 48.7812 82.9062 53.6921 82.9062 59.75C82.9062 65.8079 87.8171 70.7188 93.875 70.7188Z" fill="#539B00"/>
<path d="M97.5312 94.3625C100.7 94.3625 101.188 93.2656 101.188 90.2188V80.4688H102.406V92.6562C102.406 94.7281 100.822 96.3125 98.75 96.3125H97.5312V94.3625ZM97.5312 93.6313C95.4594 93.6313 93.875 93.1437 93.875 91.0719V79.25H92.6562V91.4375C92.6562 93.5094 94.2406 95.0938 96.3125 95.0938H97.5312V93.6313ZM95.0938 68.0375C93.0219 68.0375 91.4375 67.55 91.4375 65.4781V62.1875H90.2188V65.8438C90.2188 67.9156 91.8031 69.5 93.875 69.5H95.0938V68.0375Z" fill="#825012"/>
<path d="M103.016 87.7812C108.064 87.7812 112.156 83.6889 112.156 78.6406C112.156 73.5924 108.064 69.5 103.016 69.5C97.9674 69.5 93.875 73.5924 93.875 78.6406C93.875 83.6889 97.9674 87.7812 103.016 87.7812Z" fill="#539B00"/>
<path d="M108.5 81.6875C112.539 81.6875 115.812 78.4136 115.812 74.375C115.812 70.3364 112.539 67.0625 108.5 67.0625C104.461 67.0625 101.188 70.3364 101.188 74.375C101.188 78.4136 104.461 81.6875 108.5 81.6875Z" fill="#539B00"/>
<path d="M102.406 77.7875C104.478 77.7875 106.062 77.3 106.062 75.2282V71.9375H107.281V75.5938C107.281 77.6657 105.697 79.25 103.625 79.25H102.406V77.7875ZM93.875 59.0188H95.0938V70.7188H93.875V59.0188Z" fill="#825012"/>
<path d="M104.844 71.9375C110.229 71.9375 114.594 67.5723 114.594 62.1875C114.594 56.8027 110.229 52.4375 104.844 52.4375C99.459 52.4375 95.0938 56.8027 95.0938 62.1875C95.0938 67.5723 99.459 71.9375 104.844 71.9375Z" fill="#539B00"/>
<path d="M98.75 60.9688C104.135 60.9688 108.5 56.6035 108.5 51.2188C108.5 45.834 104.135 41.4688 98.75 41.4688C93.3652 41.4688 89 45.834 89 51.2188C89 56.6035 93.3652 60.9688 98.75 60.9688Z" fill="#539B00"/>
<path opacity="0.2" d="M99.3594 60.9688C102.041 60.9688 104.356 62.5531 105.331 64.7469C105.697 64.625 106.184 64.625 106.672 64.625C108.866 64.625 110.816 65.7219 112.034 67.3063C111.547 65.1125 109.597 63.4063 107.281 63.4063H107.159C106.55 60.6031 104.113 58.5312 101.188 58.5312C98.75 58.5312 96.6781 59.9938 95.7031 62.0656C96.6781 61.3344 98.0188 60.9688 99.3594 60.9688Z" fill="white"/>
<path d="M87.7813 64.6251C90.2044 64.6251 92.1688 62.6608 92.1688 60.2376C92.1688 57.8145 90.2044 55.8501 87.7813 55.8501C85.3581 55.8501 83.3938 57.8145 83.3938 60.2376C83.3938 62.6608 85.3581 64.6251 87.7813 64.6251Z" fill="#539B00"/>
<path opacity="0.2" d="M87.7812 60.3594C87.7812 57.3125 89.8531 54.7531 92.6562 53.9C92.9 50.3656 95.7031 47.5625 99.3594 47.5625C101.431 47.5625 103.381 48.5375 104.6 50.1219C103.869 47.1969 101.188 45.125 98.1406 45.125C94.6062 45.125 91.6813 47.8062 91.4375 51.3406C88.6344 51.95 86.5625 54.3875 86.5625 57.3125C86.5625 58.6531 87.05 59.9937 87.7812 60.9688V60.3594Z" fill="white"/>
<path d="M94.2406 90.3406C100.5 90.3406 105.575 85.2661 105.575 79.0062C105.575 72.7464 100.5 67.6719 94.2406 67.6719C87.9808 67.6719 82.9062 72.7464 82.9062 79.0062C82.9062 85.2661 87.9808 90.3406 94.2406 90.3406Z" fill="#539B00"/>
<path d="M108.866 75.7156C111.087 75.7156 112.887 73.915 112.887 71.6937C112.887 69.4725 111.087 67.6719 108.866 67.6719C106.644 67.6719 104.844 69.4725 104.844 71.6937C104.844 73.915 106.644 75.7156 108.866 75.7156Z" fill="#539B00"/>
<path opacity="0.3" d="M115.813 74.3751C115.813 73.8876 115.813 73.4001 115.691 72.9126C114.959 77.5438 110.938 81.0782 106.063 81.0782H105.575C106.428 81.4438 107.525 81.6876 108.5 81.6876C109.353 81.6876 110.084 81.5657 110.816 81.322C109.109 83.0282 106.794 84.1251 104.234 84.1251C103.016 84.1251 101.797 83.8814 100.7 83.3939C98.75 85.3439 95.9469 86.5626 93.0219 86.5626C88.7563 86.5626 84.9781 84.1251 83.15 80.7126C84.0031 86.0751 88.6344 90.2188 94.2407 90.2188C96.9219 90.2188 99.4813 89.2439 101.431 87.6595C101.919 87.7814 102.406 87.7813 103.016 87.7813C107.281 87.7813 110.938 84.8563 111.913 80.8345C114.228 79.6157 115.813 77.1782 115.813 74.3751Z" fill="black"/>
<path opacity="0.2" d="M90.8281 73.1562C91.8031 73.1562 92.6562 73.2781 93.5093 73.6438C94.6062 71.9375 96.5562 70.7188 98.75 70.7188C99.9687 70.7188 101.066 71.0844 102.041 71.6937C101.187 69.6219 99.2375 68.2812 96.9218 68.2812C94.9718 68.2812 93.2656 69.2562 92.2906 70.7188H91.4375C87.9031 70.7188 84.8562 73.2781 84.2468 76.6906C85.7093 74.4969 88.1468 73.1562 90.8281 73.1562Z" fill="white"/>
<path opacity="0.3" d="M85.3438 73.7656C83.0282 72.7906 81.2 70.8406 80.5907 68.2812C80.4688 68.8906 80.3469 69.5 80.3469 70.1094C80.3469 73.0344 81.9313 75.4719 84.2469 76.9344C84.4907 75.8375 84.8563 74.7406 85.3438 73.7656Z" fill="black"/>
<path opacity="0.3" d="M62.7969 129.219C67.8451 129.219 71.9375 127.036 71.9375 124.344C71.9375 121.651 67.8451 119.469 62.7969 119.469C57.7486 119.469 53.6562 121.651 53.6562 124.344C53.6562 127.036 57.7486 129.219 62.7969 129.219Z" fill="black"/>
<path d="M64.625 95.0938V124.344C64.625 125.075 63.7719 125.562 62.7969 125.562C61.8219 125.562 60.9688 125.075 60.9688 124.344V95.0938H64.625Z" fill="#825012"/>
<path d="M73.7656 101.188C78.1408 101.188 81.6875 97.6408 81.6875 93.2656C81.6875 88.8905 78.1408 85.3438 73.7656 85.3438C69.3905 85.3438 65.8438 88.8905 65.8438 93.2656C65.8438 97.6408 69.3905 101.188 73.7656 101.188Z" fill="#539B00"/>
<path d="M69.5 93.875C75.5579 93.875 80.4688 88.9641 80.4688 82.9062C80.4688 76.8484 75.5579 71.9375 69.5 71.9375C63.4421 71.9375 58.5312 76.8484 58.5312 82.9062C58.5312 88.9641 63.4421 93.875 69.5 93.875Z" fill="#539B00"/>
<path d="M62.1875 110.206C59.0188 110.206 58.5312 109.109 58.5312 106.062V96.3125H57.3125V108.5C57.3125 110.572 58.8969 112.156 60.9688 112.156H62.1875V110.206ZM63.4062 111.913C65.4781 111.913 67.0625 111.425 67.0625 109.353V97.5312H68.2812V109.719C68.2812 111.791 66.6969 113.375 64.625 113.375H63.4062V111.913Z" fill="#825012"/>
<path d="M58.5312 108.256C56.4594 108.256 56.0938 106.672 56.0938 105.697V93.875H54.875V106.062C54.875 108.134 56.4594 109.719 58.5312 109.719V108.256Z" fill="#825012"/>
<path d="M57.3125 106.062C63.3704 106.062 68.2812 101.152 68.2812 95.0938C68.2812 89.0359 63.3704 84.125 57.3125 84.125C51.2546 84.125 46.3438 89.0359 46.3438 95.0938C46.3438 101.152 51.2546 106.062 57.3125 106.062Z" fill="#539B00"/>
<path d="M51.2188 97.5312C55.2573 97.5312 58.5312 94.2573 58.5312 90.2188C58.5312 86.1802 55.2573 82.9062 51.2188 82.9062C47.1802 82.9062 43.9062 86.1802 43.9062 90.2188C43.9062 94.2573 47.1802 97.5312 51.2188 97.5312Z" fill="#539B00"/>
<path d="M57.3125 94.85C55.2406 94.85 53.6562 94.3625 53.6562 92.2906V89H52.4375V92.6562C52.4375 94.7281 54.0219 96.3125 56.0938 96.3125H57.3125V94.85Z" fill="#825012"/>
<path d="M56.0938 90.2188C61.4785 90.2188 65.8438 85.8535 65.8438 80.4688C65.8438 75.084 61.4785 70.7188 56.0938 70.7188C50.709 70.7188 46.3438 75.084 46.3438 80.4688C46.3438 85.8535 50.709 90.2188 56.0938 90.2188Z" fill="#539B00"/>
<path d="M60.9688 85.3438C66.3535 85.3438 70.7188 80.9785 70.7188 75.5938C70.7188 70.209 66.3535 65.8438 60.9688 65.8438C55.584 65.8438 51.2188 70.209 51.2188 75.5938C51.2188 80.9785 55.584 85.3438 60.9688 85.3438Z" fill="#539B00"/>
<path d="M68.8906 78.0312C71.9196 78.0312 74.375 75.5758 74.375 72.5469C74.375 69.5179 71.9196 67.0625 68.8906 67.0625C65.8617 67.0625 63.4062 69.5179 63.4062 72.5469C63.4062 75.5758 65.8617 78.0312 68.8906 78.0312Z" fill="#539B00"/>
<path opacity="0.2" d="M51.3406 82.9062C54.0218 82.9062 56.3375 84.4906 57.3125 86.6844C57.6781 86.5625 58.1656 86.5625 58.6531 86.5625C60.8468 86.5625 62.7968 87.6594 64.0156 89.2437C63.5281 87.05 61.5781 85.3437 59.2624 85.3437H59.1406C58.5312 82.5406 56.0937 80.4688 53.1687 80.4688C50.7312 80.4688 48.6593 81.9313 47.6843 84.0031C48.6593 83.2719 49.9999 82.9062 51.3406 82.9062Z" fill="white"/>
<path d="M60.9688 79.7376C61.2125 79.9814 61.5781 80.2251 61.8219 80.4688H62.1875V76.8126C61.8219 76.8126 61.3344 76.6907 60.9688 76.5688V79.7376Z" fill="#825012"/>
<path opacity="0.2" d="M61.5781 70.7188C64.5031 70.7188 66.8187 73.0344 67.0625 75.8375C67.6719 75.7156 68.2812 75.5938 68.8906 75.5938C71.9375 75.5938 74.4969 77.5438 75.35 80.3469C75.4719 79.8594 75.5938 79.25 75.5938 78.6406C75.5938 75.5938 73.1562 73.1562 70.1094 73.1562C69.5 73.1562 68.8906 73.2781 68.2812 73.5219C68.1594 71.3281 66.3312 69.5 64.0156 69.5C62.7969 69.5 61.7 69.9875 60.9688 70.7188H61.5781Z" fill="white"/>
<path opacity="0.3" d="M80.3469 84.6125C78.275 86.9281 75.35 88.3906 72.0594 88.3906H71.3281C72.5469 89.7312 73.2781 91.3156 73.4 93.1437C76.9344 91.8031 79.7375 88.5125 80.3469 84.6125ZM77.4219 97.1656C77.7875 98.0187 77.9094 98.9937 78.0312 99.9687C80.1031 98.6281 81.5656 96.4343 81.6875 93.875C80.7125 95.4593 79.1281 96.5562 77.4219 97.1656ZM50.8531 82.9062C48.9031 81.2 47.5625 78.6406 47.5625 75.7156C46.8312 77.0562 46.3438 78.7625 46.3438 80.4687C46.3438 81.8093 46.5875 83.0281 47.075 84.2468C48.1719 83.3937 49.5125 83.0281 50.8531 82.9062Z" fill="black"/>
<path d="M69.5 84.8563C69.5 86.9282 67.9156 87.4157 65.8438 87.4157V89.0001H67.0625C69.1344 89.0001 70.7188 87.4157 70.7188 85.3438V82.9063C70.3531 82.9063 69.8656 82.7845 69.5 82.6626V84.8563Z" fill="#825012"/>
<path d="M66.8187 109.841C73.0786 109.841 78.1531 104.766 78.1531 98.5063C78.1531 92.2465 73.0786 87.1719 66.8187 87.1719C60.5589 87.1719 55.4844 92.2465 55.4844 98.5063C55.4844 104.766 60.5589 109.841 66.8187 109.841Z" fill="#539B00"/>
<path opacity="0.2" d="M62.1875 95.0938C63.65 95.0938 64.9906 95.4594 66.2093 96.0688C67.6718 94.7281 69.7437 93.875 71.9375 93.875C73.8875 93.875 75.7156 94.4844 77.0562 95.5813C75.7156 93.1438 73.0343 91.4375 70.1093 91.4375C68.1593 91.4375 66.3312 92.1687 64.9906 93.3875C64.1375 92.9 63.1625 92.6562 62.1875 92.6562C59.2625 92.6562 56.825 94.7281 56.2156 97.5312C57.8 96.0687 59.8718 95.0938 62.1875 95.0938Z" fill="white"/>
<path opacity="0.3" d="M68.0374 107.281C63.4062 107.281 59.5062 104.844 57.3124 101.187H56.2156C51.9499 101.187 48.2937 98.75 46.4656 95.2156C46.5875 101.187 51.4624 106.062 57.4343 106.062H58.5312C60.6031 108.378 63.5281 109.719 66.8187 109.719C71.2062 109.719 74.8624 107.281 76.8124 103.747C74.4968 105.941 71.3281 107.281 68.0374 107.281Z" fill="black"/>
<path opacity="0.3" d="M116.422 128C121.47 128 125.562 125.817 125.562 123.125C125.562 120.433 121.47 118.25 116.422 118.25C111.374 118.25 107.281 120.433 107.281 123.125C107.281 125.817 111.374 128 116.422 128Z" fill="black"/>
<path d="M118.25 93.875V123.125C118.25 123.856 117.397 124.344 116.422 124.344C115.447 124.344 114.594 123.856 114.594 123.125V93.875H118.25Z" fill="#825012"/>
<path d="M127.391 99.9688C131.766 99.9688 135.312 96.422 135.312 92.0469C135.312 87.6717 131.766 84.125 127.391 84.125C123.015 84.125 119.469 87.6717 119.469 92.0469C119.469 96.422 123.015 99.9688 127.391 99.9688Z" fill="#539B00"/>
<path d="M123.125 92.6562C129.183 92.6562 134.094 87.7454 134.094 81.6875C134.094 75.6296 129.183 70.7188 123.125 70.7188C117.067 70.7188 112.156 75.6296 112.156 81.6875C112.156 87.7454 117.067 92.6562 123.125 92.6562Z" fill="#539B00"/>
<path d="M115.812 108.988C112.644 108.988 112.156 107.891 112.156 104.844V95.0938H110.938V107.281C110.938 109.353 112.522 110.938 114.594 110.938H115.812V108.988ZM117.031 110.694C119.103 110.694 120.688 110.206 120.688 108.134V96.3125H121.906V108.5C121.906 110.572 120.322 112.156 118.25 112.156H117.031V110.694Z" fill="#825012"/>
<path d="M112.156 107.038C110.084 107.038 109.719 105.453 109.719 104.478V92.6562H108.5V104.844C108.5 106.916 110.084 108.5 112.156 108.5V107.038Z" fill="#825012"/>
<path d="M110.938 104.844C116.995 104.844 121.906 99.9329 121.906 93.875C121.906 87.8171 116.995 82.9062 110.938 82.9062C104.88 82.9062 99.9688 87.8171 99.9688 93.875C99.9688 99.9329 104.88 104.844 110.938 104.844Z" fill="#539B00"/>
<path d="M104.844 96.3125C108.882 96.3125 112.156 93.0386 112.156 89C112.156 84.9614 108.882 81.6875 104.844 81.6875C100.805 81.6875 97.5312 84.9614 97.5312 89C97.5312 93.0386 100.805 96.3125 104.844 96.3125Z" fill="#539B00"/>
<path d="M110.938 93.6313C108.866 93.6313 107.281 93.1437 107.281 91.0719V87.7812H106.062V91.4375C106.062 93.5094 107.647 95.0938 109.719 95.0938H110.938V93.6313Z" fill="#825012"/>
<path d="M109.719 89C115.104 89 119.469 84.6348 119.469 79.25C119.469 73.8652 115.104 69.5 109.719 69.5C104.334 69.5 99.9688 73.8652 99.9688 79.25C99.9688 84.6348 104.334 89 109.719 89Z" fill="#539B00"/>
<path d="M114.594 84.125C119.979 84.125 124.344 79.7598 124.344 74.375C124.344 68.9902 119.979 64.625 114.594 64.625C109.209 64.625 104.844 68.9902 104.844 74.375C104.844 79.7598 109.209 84.125 114.594 84.125Z" fill="#539B00"/>
<path d="M122.516 76.8125C125.545 76.8125 128 74.3571 128 71.3281C128 68.2992 125.545 65.8438 122.516 65.8438C119.487 65.8438 117.031 68.2992 117.031 71.3281C117.031 74.3571 119.487 76.8125 122.516 76.8125Z" fill="#539B00"/>
<path opacity="0.2" d="M104.966 81.6875C107.647 81.6875 109.962 83.2719 110.937 85.4656C111.303 85.3437 111.791 85.3438 112.278 85.3438C114.472 85.3438 116.422 86.4406 117.641 88.025C117.153 85.8313 115.203 84.125 112.887 84.125H112.766C112.156 81.3219 109.719 79.25 106.794 79.25C104.356 79.25 102.284 80.7125 101.309 82.7844C102.284 82.0531 103.625 81.6875 104.966 81.6875Z" fill="white"/>
<path d="M114.594 78.5189C114.838 78.7626 115.203 79.0063 115.447 79.2501H115.812V75.5938C115.447 75.5938 114.959 75.472 114.594 75.3501V78.5189Z" fill="#825012"/>
<path opacity="0.2" d="M115.203 69.5C118.128 69.5 120.444 71.8156 120.688 74.6188C121.297 74.4969 121.906 74.375 122.516 74.375C125.562 74.375 128.122 76.325 128.975 79.1281C129.097 78.6406 129.219 78.0312 129.219 77.4219C129.219 74.375 126.781 71.9375 123.734 71.9375C123.125 71.9375 122.516 72.0594 121.906 72.3031C121.784 70.1094 119.956 68.2812 117.641 68.2812C116.422 68.2812 115.325 68.7687 114.594 69.5H115.203Z" fill="white"/>
<path opacity="0.3" d="M133.972 83.3937C131.9 85.7093 128.975 87.1718 125.684 87.1718H124.953C126.172 88.5125 126.903 90.0968 127.025 91.925C130.559 90.5843 133.363 87.2937 133.972 83.3937ZM131.047 95.9468C131.413 96.8 131.534 97.775 131.656 98.75C133.728 97.4093 135.191 95.2156 135.312 92.6562C134.337 94.2406 132.753 95.3375 131.047 95.9468ZM104.478 81.6875C102.528 79.9812 101.188 77.4218 101.188 74.4968C100.456 75.8375 99.9688 77.5437 99.9688 79.25C99.9688 80.5906 100.212 81.8093 100.7 83.0281C101.797 82.175 103.137 81.8093 104.478 81.6875Z" fill="black"/>
<path d="M123.125 83.6376C123.125 85.7095 121.541 86.197 119.469 86.197V87.7813H120.688C122.759 87.7813 124.344 86.197 124.344 84.1251V81.6876C123.978 81.6876 123.491 81.5657 123.125 81.4438V83.6376Z" fill="#825012"/>
<path d="M120.444 108.622C126.704 108.622 131.778 103.547 131.778 97.2875C131.778 91.0277 126.704 85.9531 120.444 85.9531C114.184 85.9531 109.109 91.0277 109.109 97.2875C109.109 103.547 114.184 108.622 120.444 108.622Z" fill="#539B00"/>
<path opacity="0.2" d="M115.812 93.875C117.275 93.875 118.616 94.2406 119.834 94.85C121.297 93.5094 123.369 92.6562 125.562 92.6562C127.512 92.6562 129.341 93.2656 130.681 94.3625C129.341 91.925 126.659 90.2188 123.734 90.2188C121.784 90.2188 119.956 90.95 118.616 92.1687C117.762 91.6812 116.787 91.4375 115.812 91.4375C112.887 91.4375 110.45 93.5094 109.841 96.3125C111.425 94.85 113.497 93.875 115.812 93.875Z" fill="white"/>
<path opacity="0.3" d="M121.663 106.062C117.031 106.062 113.131 103.625 110.938 99.9687H109.841C105.575 99.9687 101.919 97.5312 100.091 93.9968C100.213 99.9687 105.088 104.844 111.059 104.844H112.156C114.228 107.159 117.153 108.5 120.444 108.5C124.831 108.5 128.488 106.062 130.438 102.528C128.122 104.722 124.953 106.062 121.663 106.062ZM77.3 139.091L70.3531 141.528L75.35 141.772L72.3031 143.844H79.3719L83.5156 142.747L82.7844 146.159L87.1719 145.428L90.3406 142.869L96.3125 144.697L102.65 143.844L100.7 142.625L102.894 142.137L93.7531 139.578L77.3 139.091Z" fill="black"/>
<path d="M80.1031 112.887C85.3437 112.278 87.7812 102.406 87.7812 102.406C87.7812 102.406 88.8781 112.156 95.3375 114.716C95.4594 115.569 93.0219 116.422 90.95 115.447C90.8281 117.397 95.2156 120.444 97.775 121.175C97.8969 122.272 95.4594 123.734 93.0219 123.003C94.1187 125.319 95.825 127.391 99.8469 128.366C98.0187 129.463 95.0937 128.488 93.3875 128.366C93.3875 129.95 99.1156 131.412 102.041 131.291C101.553 132.753 98.75 134.337 96.3125 134.216C96.3125 135.922 102.041 137.384 103.503 137.872C103.625 139.334 99.4812 140.188 96.6781 139.334C96.5562 141.041 99.6031 142.625 101.066 143.356C101.066 144.697 91.8031 144.209 90.2187 141.528C88.5125 142.137 87.2937 145.794 84.0031 145.55C84.4906 144.575 85.3437 141.528 83.7594 140.797C82.4187 142.747 76.6906 144.088 74.375 142.991C74.9844 142.381 78.275 141.894 77.3 139.7C74.375 139.578 70.3531 137.019 70.475 135.678C71.2062 136.166 76.0812 136.897 76.2031 135.678C74.0094 135.556 72.6687 133.728 72.5469 132.387C73.2781 132.753 78.1531 133.606 78.275 132.022C76.5687 131.413 74.4969 130.194 74.6187 128.731C76.0812 128.853 79.1281 128.853 79.3719 127.269C77.5437 126.659 75.8375 123.978 75.7156 122.881C77.0562 123.247 82.2969 123.003 82.175 121.784C79.8594 121.663 78.0312 120.688 78.1531 119.225C81.0781 118.981 84.2469 115.934 84.2469 114.472C83.2719 115.081 80.9562 114.594 80.1031 112.887Z" fill="#28896D"/>
<path opacity="0.2" d="M99.9688 128.366C99.9688 128.366 96.3125 128.487 93.1438 125.441C89.975 122.394 89.1219 120.444 89.1219 120.444C89.1219 120.444 88.3907 121.419 85.8313 123.003C83.2719 124.587 77.9094 124.466 77.9094 124.466C77.9094 124.466 81.3219 127.025 86.1969 125.562C88.6344 124.831 88.3907 124.344 88.3907 124.344C88.3907 124.344 91.8032 127.269 93.0219 127.756C98.0188 129.462 99.9688 128.366 99.9688 128.366ZM79.7375 119.712C84.125 117.397 86.8063 115.447 87.6594 111.791C87.4157 113.497 91.0719 118.25 94.4844 120.809C91.925 120.566 88.7563 116.3 87.2938 116.422C87.05 117.762 82.7844 119.469 79.7375 119.712Z" fill="white"/>
<path opacity="0.2" d="M81.8093 113.253C86.1968 110.938 86.9281 107.891 87.7812 104.113C87.5375 105.819 89.7312 111.303 93.1437 113.863C90.5844 113.619 88.3906 109.963 87.4156 109.109C87.05 110.572 84.7343 113.009 81.8093 113.253ZM75.35 129.341C75.35 129.341 80.7125 129.219 84.8562 127.269C86.075 127.147 87.9031 131.047 88.8781 131.291C89.8531 131.047 90.4625 130.803 91.4375 130.072C92.2906 133.85 98.8718 137.019 102.528 138.116C95.825 138.116 90.95 133.728 90.2187 132.388C89.3656 132.997 89.2437 134.947 87.6594 134.947C86.4406 133.119 84.4906 130.559 84.0031 129.219C82.7844 128.853 77.4219 130.681 75.35 129.341Z" fill="white"/>
<path opacity="0.2" d="M72.0593 136.775C79.6156 137.628 82.4187 134.094 83.6375 132.753C82.9062 137.994 74.375 139.456 72.0593 136.775ZM92.1687 135.8C94.3625 139.334 95.0937 141.406 100.091 142.991C92.0468 143.478 91.1937 137.506 92.1687 135.8ZM84.9781 144.453C85.4656 144.697 90.0968 137.263 86.6843 135.922C84.7343 137.019 86.4406 140.797 84.9781 144.453Z" fill="white"/>
<path opacity="0.3" d="M90.3406 113.862L88.3906 112.278C88.3906 112.278 89.975 114.228 90.95 115.447C93.0219 116.422 95.4594 115.569 95.3375 114.716C95.3375 114.716 92.2906 115.447 90.3406 113.862ZM92.9 141.162C90.4625 138.725 89.975 134.947 89.975 134.947C89.975 134.947 88.5125 139.944 87.4156 142.259C86.6844 143.722 85.9531 144.941 84.125 145.428V145.55C87.5375 145.794 88.6344 142.137 90.3406 141.528C91.925 144.209 101.187 144.697 101.187 143.356C101.066 143.234 95.3375 143.6 92.9 141.162ZM97.0437 132.387C94.6062 132.266 91.3156 127.756 91.3156 127.756C91.3156 127.756 89.6094 128.609 88.6344 127.878C87.6594 127.147 86.8062 126.416 86.8062 126.416C86.8062 126.416 87.6594 130.681 89 130.437C90.3406 130.194 91.0719 129.828 91.5594 129.219C92.1687 132.387 96.3125 134.216 96.3125 134.216C98.75 134.337 101.553 132.875 102.041 131.291C102.162 131.291 99.4812 132.509 97.0437 132.387ZM82.2969 121.906C83.0281 121.906 83.7594 121.906 84.3687 121.784C86.1969 121.541 89.3656 119.834 89.3656 119.834L86.9281 120.078L87.9031 118.006C87.9031 118.006 85.1 120.322 82.6625 120.566C80.225 120.931 78.3969 119.347 78.3969 119.347C78.1531 120.809 80.1031 121.784 82.2969 121.906ZM78.275 132.022C78.1531 133.606 73.2781 132.753 72.5469 132.387C76.0812 134.703 82.7844 132.022 82.7844 132.022L79.6156 132.144L83.2719 130.316C83.2719 130.316 75.1062 130.803 74.7406 128.731C74.4969 130.194 76.5688 131.412 78.275 132.022Z" fill="black"/>
<path opacity="0.3" d="M81.8094 133.728C81.8094 133.728 79.25 134.459 77.4219 134.459C75.7156 134.459 72.7906 132.875 72.5469 132.388C72.6688 133.728 74.0094 135.434 76.2031 135.556C80.3469 136.044 81.8094 133.728 81.8094 133.728ZM84.9781 141.406C84.9781 139.944 84.6125 131.413 84.6125 131.413C84.6125 131.413 84.3688 136.531 79.8594 140.919C78.275 142.381 74.2531 142.869 74.2531 142.869C76.5688 143.966 82.2969 142.625 83.6375 140.675C84.8562 141.284 84.6125 143.234 84.2469 144.575C84.6125 143.722 84.9781 142.381 84.9781 141.406ZM93.6313 149.206L89.3656 150.791L92.4125 150.913L90.5844 152.131H94.85L97.4094 151.522L97.0438 153.594L99.6031 153.106L101.553 151.522L105.209 152.741L109.109 152.131L107.891 151.4L109.231 151.034L103.747 149.572L93.6313 149.206Z" fill="black"/>
<path d="M95.3375 133.241C98.5063 132.875 99.9688 126.781 99.9688 126.781C99.9688 126.781 100.578 132.753 104.6 134.337C104.722 134.947 103.259 135.434 101.919 134.825C101.797 136.044 104.478 137.872 106.063 138.359C106.063 138.969 104.6 139.944 103.138 139.456C103.747 140.919 104.844 142.137 107.281 142.747C106.184 143.356 104.356 142.747 103.259 142.747C103.259 143.722 106.794 144.575 108.622 144.575C108.256 145.55 106.55 146.403 105.088 146.403C105.088 147.5 108.622 148.353 109.475 148.597C109.597 149.45 107.038 150.059 105.331 149.45C105.331 150.547 107.159 151.4 108.013 151.887C108.013 152.741 102.284 152.497 101.431 150.791C100.334 151.156 99.725 153.472 97.6532 153.228C97.8969 152.619 98.5063 150.791 97.5313 150.303C96.6782 151.522 93.2657 152.253 91.8032 151.644C92.1688 151.278 94.2407 151.034 93.6313 149.694C91.8032 149.694 89.3657 147.988 89.4876 147.256C89.9751 147.622 92.9001 147.988 93.0219 147.256C91.6813 147.134 90.8282 146.037 90.8282 145.306C91.3157 145.55 94.2407 146.038 94.3626 145.062C93.2657 144.697 92.0469 143.966 92.1688 143.113C93.0219 143.234 94.9719 143.112 95.0938 142.259C93.9969 141.894 92.9 140.188 92.9 139.578C93.7532 139.822 96.9219 139.578 96.9219 138.969C95.5813 138.847 94.3625 138.359 94.4844 137.384C96.3125 137.262 98.2625 135.313 98.2625 134.459C97.2875 134.459 95.825 134.216 95.3375 133.241Z" fill="#28896D"/>
<path opacity="0.2" d="M107.525 142.747C107.525 142.747 105.209 142.869 103.381 140.919C101.431 139.091 100.944 137.872 100.944 137.872C100.944 137.872 100.456 138.481 98.9938 139.456C97.4094 140.431 94.1188 140.309 94.1188 140.309C94.1188 140.309 96.1907 141.894 99.2375 140.919C100.7 140.431 100.578 140.187 100.578 140.187C100.578 140.187 102.65 142.016 103.503 142.259C106.306 143.356 107.525 142.747 107.525 142.747ZM95.0938 137.384C97.775 135.922 99.3594 134.825 99.9688 132.509C99.8469 133.606 102.041 136.531 104.113 137.994C102.528 137.872 100.578 135.191 99.725 135.312C99.6032 136.166 96.9219 137.262 95.0938 137.384Z" fill="white"/>
<path opacity="0.2" d="M96.3125 133.484C98.9937 132.022 99.3593 130.194 99.9687 127.878C99.8468 128.975 101.187 132.266 103.259 133.85C101.675 133.728 100.334 131.534 99.725 130.925C99.6031 131.778 98.1406 133.241 96.3125 133.484ZM92.4125 143.356C92.4125 143.356 95.7031 143.356 98.2625 142.138C98.9937 142.138 100.091 144.453 100.7 144.575C101.309 144.453 101.675 144.209 102.284 143.844C102.772 146.159 106.794 148.109 109.109 148.719C104.966 148.719 102.041 146.038 101.553 145.184C101.066 145.55 100.944 146.769 99.9687 146.769C99.2375 145.672 98.0187 144.088 97.775 143.234C96.9218 142.991 93.6312 144.088 92.4125 143.356Z" fill="white"/>
<path opacity="0.2" d="M90.4625 147.866C95.0938 148.353 96.8 146.281 97.5313 145.428C97.0438 148.597 91.8031 149.45 90.4625 147.866ZM102.65 147.256C103.991 149.45 104.478 150.669 107.525 151.644C102.65 151.888 102.163 148.231 102.65 147.256ZM98.2625 152.497C98.5063 152.619 101.431 148.109 99.2375 147.256C98.1407 147.988 99.2375 150.303 98.2625 152.497Z" fill="white"/>
<path opacity="0.3" d="M101.553 133.85L100.334 132.875C100.334 132.875 101.309 134.094 101.919 134.825C103.138 135.434 104.6 134.947 104.6 134.337C104.6 134.337 102.772 134.703 101.553 133.85ZM103.138 150.547C101.675 149.084 101.309 146.769 101.309 146.769C101.309 146.769 100.456 149.816 99.7251 151.278C99.2376 152.131 98.8719 152.862 97.6532 153.228V153.35C99.725 153.472 100.456 151.278 101.431 150.913C102.406 152.619 108.013 152.862 108.013 152.009C108.134 151.766 104.6 152.009 103.138 150.547ZM105.697 145.184C104.234 145.062 102.163 142.381 102.163 142.381C102.163 142.381 101.188 142.869 100.578 142.503C99.9688 142.138 99.4813 141.65 99.4813 141.65C99.4813 141.65 99.9688 144.209 100.822 144.087C101.675 143.966 102.041 143.722 102.406 143.356C102.772 145.306 105.331 146.403 105.331 146.403C106.794 146.525 108.5 145.55 108.866 144.575C108.866 144.453 107.159 145.184 105.697 145.184ZM96.6782 138.725C97.1657 138.725 97.5313 138.725 98.0188 138.603C99.1157 138.481 101.066 137.384 101.066 137.384L99.6032 137.506L100.213 136.166C100.213 136.166 98.5063 137.506 97.0438 137.75C95.5813 137.994 94.3625 137.019 94.3625 137.019C94.1188 138.116 95.3376 138.603 96.6782 138.725ZM94.2407 144.941C94.1188 145.916 91.1938 145.428 90.7063 145.184C92.9 146.647 97.0438 144.941 97.0438 144.941H95.0938L97.4094 143.844C97.4094 143.844 92.4125 144.087 92.1688 142.869C91.925 143.844 93.1438 144.575 94.2407 144.941Z" fill="black"/>
<path opacity="0.3" d="M96.3125 146.037C96.3125 146.037 94.7282 146.525 93.6313 146.525C92.6563 146.525 90.7063 145.55 90.7063 145.306C90.8282 146.159 91.5594 147.134 92.9 147.256C95.4594 147.378 96.3125 146.037 96.3125 146.037ZM98.3844 150.669C98.3844 149.816 98.1407 144.575 98.1407 144.575C98.1407 144.575 98.0188 147.622 95.2157 150.425C94.2407 151.278 91.8032 151.644 91.8032 151.644C93.2657 152.253 96.6782 151.522 97.5313 150.303C98.2625 150.669 98.1407 151.887 97.8969 152.619C98.1407 152.009 98.3844 151.278 98.3844 150.669Z" fill="black"/>
</svg>
