<svg xmlns="http://www.w3.org/2000/svg" xmlns:xlink="http://www.w3.org/1999/xlink" viewBox="0 0 500 500"><defs><style>.cls-1{fill:none;}.cls-2{isolation:isolate;}.cls-3{clip-path:url(#clip-path);}.cls-4{fill:#c8f1d4;}.cls-5{fill:#579b4a;}.cls-6{fill:#613d20;}.cls-7{fill:#39404c;}.cls-8{fill:#94704b;}.cls-32,.cls-9{fill:#c29d78;}.cls-10{fill:#925c30;}.cls-11{clip-path:url(#clip-path-2);}.cls-12{fill:#a65b5b;}.cls-13{fill:#301f1f;}.cls-14{fill:#8bb4f1;}.cls-15{fill:#6887b5;}.cls-16{fill:#52331b;}.cls-17{fill:#eee2d7;}.cls-18{fill:#d6c1ae;}.cls-19{fill:url(#Degradado_sin_nombre_19);}.cls-20{fill:#a2d676;}.cls-21{fill:#28363d;}.cls-22{clip-path:url(#clip-path-3);}.cls-23{fill:#ededed;}.cls-24{clip-path:url(#clip-path-4);}.cls-25{fill:#b98a82;}.cls-26{fill:#396630;}.cls-27{fill:#523212;}.cls-28{fill:#9ad667;}.cls-29{fill:#b57d57;}.cls-30{fill:#d4eee7;}.cls-31{fill:#e8cb4f;}.cls-32{opacity:0.31;mix-blend-mode:multiply;}.cls-33{clip-path:url(#clip-path-5);}.cls-34{fill:#aa9127;}.cls-35{mix-blend-mode:screen;}.cls-36{fill:#e4cc91;}.cls-37{fill:#dbb25a;}.cls-38{fill:#e4d5b1;}.cls-39{fill:#fff;}.cls-40{fill:#1f252d;}.cls-41{fill:#fff7f0;}</style><clipPath id="clip-path"><rect class="cls-1" width="500" height="500"/></clipPath><clipPath id="clip-path-2"><path class="cls-1" d="M166.93,208c-0.71-3,.72-6,1.82-8.79s1.8-6.34-.09-8.7a4.7,4.7,0,0,0-4.75-1.61c0-2.15,1.27-4.31.59-6.34a4.13,4.13,0,0,0-3-2.55,7.57,7.57,0,0,0-4,.25,12.69,12.69,0,0,0,2.8-3.66,2.52,2.52,0,0,0,.28-2.25,1.85,1.85,0,0,0-2.18-.69,9,9,0,0,0-2.14,1.24c-3.14,2-7.09,1.91-10.76,2.43-3,.42-6.2,1.64-7.86,4a35.64,35.64,0,0,0-8-1.27,13,13,0,0,0-7.82,2.22,25.64,25.64,0,0,0-3.63,3.59c-2.18,2.38-4.76,4.61-7.88,5.23-1.64.32-3.77,0.5-4.25,2.14a2.61,2.61,0,0,0,1.84,2.95,7.21,7.21,0,0,0,3.73-.1,9.33,9.33,0,0,0-3.89,5.46,6.42,6.42,0,0,0,1.92,6.27,2.54,2.54,0,0,1,1.14,1.35,2.19,2.19,0,0,1-.45,1.4,15.24,15.24,0,0,0-2.32,7.75,9.09,9.09,0,0,0,3.3,7.16c2.24,1.69,5.33,2,7.37,3.92,1.41,1.35,2.15,3.37,3.71,4.54,2.65,2,6.37.79,9.36-.62s6.45-3,9.41-1.5a4.6,4.6,0,0,0,1.38.59,2.8,2.8,0,0,0,1.32-.23,12.1,12.1,0,0,0,4.21-2.65c0.54-.52,1-1.1,1.53-1.68a8.63,8.63,0,0,0,11.17,2.38,4.45,4.45,0,0,0,2.11-2.5,2.34,2.34,0,0,0-1.24-2.8,23.37,23.37,0,0,0,5.58-4.49,8.22,8.22,0,0,0,2-6.75C168.85,211.66,167.41,210,166.93,208Z"/></clipPath><radialGradient id="Degradado_sin_nombre_19" cx="237.67" cy="367.43" r="283.98" gradientUnits="userSpaceOnUse"><stop offset="0" stop-color="#b0daeb"/><stop offset="1" stop-color="#4a7375"/></radialGradient><clipPath id="clip-path-3"><path class="cls-1" d="M100.69,426.88c0.36-22.48,19.35-40.41,42.42-40.06s41.47,18.86,41.11,41.33-19.35,40.41-42.42,40.06S100.33,449.35,100.69,426.88Z"/></clipPath><clipPath id="clip-path-4"><path class="cls-1" d="M398.15,426.88c-0.36-22.48-19.35-40.41-42.42-40.06s-41.47,18.86-41.11,41.33S334,468.56,357,468.21,398.52,449.35,398.15,426.88Z"/></clipPath><clipPath id="clip-path-5"><path class="cls-1" d="M301.66,200.43c-7.94,3-26.62,11.25-25.27,21.34S289,233.61,289,233.61s-5.13-9.31.62-15.64c0.09,0.41-.78,9.15,8.13,12.2S312,231.37,312,231.37l-2.58-3,6,2,5.06,8.49,1.62-1.19s-1.36-5.47-.55-8.82,5.58-10.4,9.65-5.16,0,11.07-1.89,13.73,4.47,6.32,8.32,5.67c0,0-2.59-2.72-1.28-7.5s11.84-26.4-.64-35S301.66,200.43,301.66,200.43Z"/></clipPath></defs><title>save earth</title><g class="cls-2"><g id="OBJECTS"><g class="cls-3"><ellipse class="cls-4" cx="450.97" cy="447.6" rx="28.99" ry="14.32"/><path class="cls-5" d="M472.58,361.52a7.32,7.32,0,0,0-9.49-9.87,10,10,0,0,0-2.36-4.67,4.06,4.06,0,0,0-1.84-1,7,7,0,0,0-2.89-1.88,8,8,0,0,0-7.24-8.9,6.07,6.07,0,0,1-3-.42c-0.94-.57-1.29-1.74-1.86-2.69a6,6,0,0,0-9.4-.58,8.69,8.69,0,0,0-7-1.67c-3.16-4.28-7.91-7.67-12.87-6.35-1.58.42-3,1.29-4.53,1.86-3.45,1.28-7.28,1-10.85,1.91s-7.18,3.89-6.68,7.54l79.67,37.42c2.5,1.46,5.8-1.43,5.6-4.32S475.17,362.8,472.58,361.52Z"/><path class="cls-5" d="M105.57,323.15c-1.87-2-5-1.88-7.65-1.28a30.24,30.24,0,0,0-15.38,8.86,12.51,12.51,0,0,0-4.62,1.81,0.94,0.94,0,0,0,0-.57,2.37,2.37,0,0,0-1.68-1.15,11.6,11.6,0,0,0-11.66,3.6c-1.07-1.81-3.83-1.32-5.66-.29a19.13,19.13,0,0,0-7.69,8.21c-3.2.29-6.41,2-7.74,4.83a2.13,2.13,0,0,0-1.65-2.29A23.9,23.9,0,0,0,33.54,354a5.16,5.16,0,0,0-.73,3.71c0.37,1.24,2,2.12,3,1.32a31.13,31.13,0,0,0-4.23,6.24,3.2,3.2,0,0,0-.41,2.84c0.57,1.09,2.07,1.2,3.29,1A17.17,17.17,0,0,0,44.54,364l77.25-33.5C120,323.93,111.65,320.13,105.57,323.15Z"/><path class="cls-6" d="M144.6,234.25A12.94,12.94,0,0,0,131,222.16l-8.26,8.46a39.59,39.59,0,0,0-8.47-4c-1.35-.45-3.13-0.7-3.93.48a2.53,2.53,0,0,0-.3,1.8,4.76,4.76,0,0,0,3.32,3.77,10.76,10.76,0,0,0-5.78,4.17,1.53,1.53,0,0,0-.29,1.68,1.49,1.49,0,0,0,.94.48,9.44,9.44,0,0,0,4.53-.15,12.13,12.13,0,0,0-3.56,6.28,3.83,3.83,0,0,0-.06,1.75c0.41,1.59,2.46,2.25,4,1.75a9.14,9.14,0,0,0,3.8-3c-0.56,2.77,1.37,5.93,4.17,6.34s5.67-2.47,4.94-5.21a5.64,5.64,0,0,0,10.81-3.06,1.3,1.3,0,0,0,1.78.92A3.47,3.47,0,0,0,140.3,243c1.08-1.83,2-4,1.54-6a1.53,1.53,0,0,0,1.86.18A3.23,3.23,0,0,0,144.6,234.25Z"/><path class="cls-7" d="M124.07,291.4s-3.15,6.74.76,16,7.32,9.21,7.32,9.21a9.69,9.69,0,0,0-1,6.37c0.59,4,11.27,14.87,30.39,6.85s27.09-7.69,27.52-17.76-7.55-25.86-7.55-25.86Z"/><path class="cls-8" d="M149.74,236l1.83-6.09-13.62.5s3.1,3.45.94,6.08A19.61,19.61,0,0,0,142,238c3,1.18,6.59,1.38,9.39-.25a8.26,8.26,0,0,0,1.16-.83,19.19,19.19,0,0,0-.47-2.7A10.38,10.38,0,0,0,149.74,236Z"/><path class="cls-9" d="M142,238a19.61,19.61,0,0,1-3.06-1.55,4.46,4.46,0,0,1-.94.86,7.79,7.79,0,0,1-3.39,1.11c0.53,2.75,2.71,9.58,11.14,8.23,6.39-1,7.17-6,6.8-9.73a8.26,8.26,0,0,1-1.16.83C148.54,239.39,145,239.19,142,238Z"/><path class="cls-10" d="M166.93,208c-0.71-3,.72-6,1.82-8.79s1.8-6.34-.09-8.7a4.7,4.7,0,0,0-4.75-1.61c0-2.15,1.27-4.31.59-6.34a4.13,4.13,0,0,0-3-2.55,7.57,7.57,0,0,0-4,.25,12.69,12.69,0,0,0,2.8-3.66,2.52,2.52,0,0,0,.28-2.25,1.85,1.85,0,0,0-2.18-.69,9,9,0,0,0-2.14,1.24c-3.14,2-7.09,1.91-10.76,2.43-3,.42-6.2,1.64-7.86,4a35.64,35.64,0,0,0-8-1.27,13,13,0,0,0-7.82,2.22,25.64,25.64,0,0,0-3.63,3.59c-2.18,2.38-4.76,4.61-7.88,5.23-1.64.32-3.77,0.5-4.25,2.14a2.61,2.61,0,0,0,1.84,2.95,7.21,7.21,0,0,0,3.73-.1,9.33,9.33,0,0,0-3.89,5.46,6.42,6.42,0,0,0,1.92,6.27,2.54,2.54,0,0,1,1.14,1.35,2.19,2.19,0,0,1-.45,1.4,15.24,15.24,0,0,0-2.32,7.75,9.09,9.09,0,0,0,3.3,7.16c2.24,1.69,5.33,2,7.37,3.92,1.41,1.35,2.15,3.37,3.71,4.54,2.65,2,6.37.79,9.36-.62s6.45-3,9.41-1.5a4.6,4.6,0,0,0,1.38.59,2.8,2.8,0,0,0,1.32-.23,12.1,12.1,0,0,0,4.21-2.65c0.54-.52,1-1.1,1.53-1.68a8.63,8.63,0,0,0,11.17,2.38,4.45,4.45,0,0,0,2.11-2.5,2.34,2.34,0,0,0-1.24-2.8,23.37,23.37,0,0,0,5.58-4.49,8.22,8.22,0,0,0,2-6.75C168.85,211.66,167.41,210,166.93,208Z"/><g class="cls-11"><path class="cls-6" d="M146,196.82a23.17,23.17,0,0,0-14.11-18.92c-0.66-.28-1,0.81-0.3,1.08a22,22,0,0,1,13.29,17.84c0.08,0.71,1.2.72,1.12,0h0Z"/><path class="cls-6" d="M134.08,209c-3.8.14-9.64-1-9.6-5.93a4.74,4.74,0,0,1,3.78-4.28,6.09,6.09,0,0,1,1.71-.22l2.13,1.85a3.29,3.29,0,0,1-.24,2.47q-2.55,2.3-2.66-.69a0.56,0.56,0,0,0-.3-1.08c-2.93,1-.22,4.56,2.36,3.64,3.16-1.13,2.58-6.64-.63-7.26-3.66-.7-7.74,2.49-7.23,6.3,0.7,5.15,6.32,6.48,10.67,6.32a0.56,0.56,0,0,0,0-1.12h0Z"/><path class="cls-6" d="M155.69,202.66c3,1.54,7-.31,8.95-2.79,2.18-2.73-.07-5.81-3.08-6.51-2.37-.55-5.33,1.29-4.42,4a2.37,2.37,0,0,0,4.51,0,0.56,0.56,0,0,0-1.08-.3c-0.54,1.64-2.49.61-2.46-.66a2.32,2.32,0,0,1,2.25-2c1.83-.13,4.47,1.59,4,3.72-0.31,1.43-2.1,2.47-3.28,3.12-1.53.84-3.17,1.33-4.82,0.47-0.64-.33-1.21.64-0.57,1h0Z"/><path class="cls-6" d="M140.28,185.52c-0.94,4.64-6.18,5.11-10,5.86a13.24,13.24,0,0,0-8.13,4.52c-4.42,5.3-6.86,17.76-16.07,15.92-0.7-.14-1,0.94-0.3,1.08,9.05,1.81,12.09-8.61,15.89-14.46a12.54,12.54,0,0,1,5.65-5.08c2.41-1,5-1.05,7.53-1.73,3-.81,5.84-2.62,6.49-5.82,0.14-.7-0.94-1-1.08-0.3h0Z"/><path class="cls-6" d="M138,182.83c-1.2,4.47-6.63,4.07-10.14,5.31a18.1,18.1,0,0,0-6.59,4.51c-4.55,4.54-9.79,12.36-17.29,9.27-0.67-.27-1,0.81-0.3,1.08,7.26,3,12.85-3.66,17.24-8.37a22.79,22.79,0,0,1,5.16-4.43c2-1.17,4.23-1.48,6.49-2,2.89-.68,5.68-2,6.51-5.06a0.56,0.56,0,0,0-1.08-.3h0Z"/><path class="cls-6" d="M126.64,176.76c-2.91,7.54-9.43,16.48-18.74,13.19-0.68-.24-1,0.84-0.3,1.08,9.91,3.5,17-5.9,20.11-14,0.26-.67-0.82-1-1.08-0.3h0Z"/><path class="cls-6" d="M143.24,188.61c-7.45,2.83-4.57,13.71-7.65,19.39a0.56,0.56,0,0,0,1,.57,21,21,0,0,0,2.05-8c0.4-3.78.72-9.23,4.93-10.83,0.67-.25.38-1.34-0.3-1.08h0Z"/><path class="cls-6" d="M126.47,208.45c-0.44,3.49.7,7.13,2,10.35,0.93,2.33,1.9,5,4.4,6,0.67,0.26,1-.82.3-1.08-2.58-1-3.75-5.31-4.48-7.62a17.91,17.91,0,0,1-1.08-7.63c0.09-.71-1-0.71-1.12,0h0Z"/><path class="cls-6" d="M125.25,206.12c-5.3-.64-5.6,6.41-7.33,9.71A18.21,18.21,0,0,1,104.69,225c-0.71.12-.41,1.2,0.3,1.08A19.65,19.65,0,0,0,116.34,220a17.48,17.48,0,0,0,3.18-4.92c1.17-2.77,1.47-8.33,5.73-7.82,0.71,0.09.71-1,0-1.12h0Z"/><path class="cls-6" d="M119.07,213.17a16.42,16.42,0,0,1-14.59,5.67c-0.71-.09-0.71,1,0,1.12a17.43,17.43,0,0,0,15.38-6c0.47-.54-0.32-1.34-0.79-0.79h0Z"/><path class="cls-6" d="M121.49,224.22a21.32,21.32,0,0,0-5.38,8.12c-0.25.68,0.83,1,1.08,0.3a20.1,20.1,0,0,1,5.1-7.63,0.56,0.56,0,0,0-.79-0.79h0Z"/><path class="cls-6" d="M126.86,223.89a23.6,23.6,0,0,1-4.46,11.45c-0.42.58,0.55,1.14,1,.57a24.68,24.68,0,0,0,4.62-12c0.08-.72-1-0.71-1.12,0h0Z"/><path class="cls-6" d="M144.62,191.37a20.1,20.1,0,0,1,15.25-5.3c5.35,0.42,9.75,4.61,15.12,4.3,0.72,0,.72-1.16,0-1.12-3.54.21-6.39-1.84-9.57-3.06a20.17,20.17,0,0,0-7.78-1.29,21.18,21.18,0,0,0-13.82,5.68,0.56,0.56,0,0,0,.79.79h0Z"/><path class="cls-6" d="M142.58,186.94c0.48-4.7,5.24-12.37,10.51-12.54a0.56,0.56,0,0,0,0-1.12c-3.25.11-5.48,2.37-7.43,4.75-2.15,2.64-3.85,5.47-4.2,8.92-0.07.72,1,.71,1.12,0h0Z"/><path class="cls-6" d="M144.06,188.84A28.28,28.28,0,0,1,172.47,182a0.56,0.56,0,0,0,.3-1.08,29.4,29.4,0,0,0-29.5,7.12,0.56,0.56,0,0,0,.79.79h0Z"/><path class="cls-6" d="M145.1,193.26c6.43-2.81,15-2.81,19.16,3.81,2,3.21,1.67,10.64,7.21,10,0.71-.08.72-1.2,0-1.12-4.42.48-4.34-5.46-5.58-8.22a12.42,12.42,0,0,0-4.91-5.43c-5.07-3.1-11.23-2.32-16.44,0-0.66.29-.09,1.25,0.57,1h0Z"/><path class="cls-6" d="M158.36,210.76c2.79,0.88,5.78,1.82,7.89,4s2.56,5.23,3.74,7.85c0.3,0.66,1.26.09,1-.57-1.35-3-1.88-6.29-4.42-8.55-2.21-2-5.12-2.91-7.88-3.78a0.56,0.56,0,0,0-.3,1.08h0Z"/></g><path class="cls-10" d="M151.3,226.07a8.57,8.57,0,0,1,1.72-1.37Z"/><path class="cls-9" d="M143.57,189.88s2.88,6.57-2.68,13.11-9.15,6.45-9.15,6.45,1.44,11.8,0,12.49-2,0-2,0,3.23,3,0,2.21a5.68,5.68,0,0,1-3.95-4.11s-6.28-4.08-6.28,2.4,8.25,4.13,8.25,4.13,8.49,11.6,24.78,6.08,9.12-12.61,8.22-18-2.15-12-2.15-12S146.61,200.53,143.57,189.88Z"/><path class="cls-12" d="M146.38,207.87c-1.58.26,0.6,11.68,1.51,11.68s1.66,0.45,2.41-.68S148.64,207.5,146.38,207.87Z"/><path class="cls-13" d="M139.39,213.72a31.08,31.08,0,0,0,1.41,6.38c0.21,0.62,1.2.36,1-.27a29.82,29.82,0,0,1-1.37-6.11c-0.07-.65-1.1-0.65-1,0h0Z"/><path class="cls-13" d="M154.2,210.4q0.35,3.11.85,6.19c0.1,0.65,1.09.37,1-.27q-0.48-3-.81-5.92c-0.07-.65-1.1-0.66-1,0h0Z"/><path class="cls-13" d="M146.19,223a6.86,6.86,0,0,0,4.13,1.11,4.71,4.71,0,0,0,3.07-2.43c0.36-.55-0.52-1.07-0.88-0.52a3.51,3.51,0,0,1-2.72,2,6.55,6.55,0,0,1-3.09-1c-0.59-.3-1.1.58-0.52,0.88h0Z"/><path class="cls-13" d="M122.32,223a3.83,3.83,0,0,1,4.16,2.28c0.25,0.6,1.24.34,1-.27a4.88,4.88,0,0,0-5.42-3c-0.65.12-.37,1.1,0.27,1h0Z"/><path class="cls-13" d="M124.69,222.46a3.57,3.57,0,0,0-1.82,1.47,0.51,0.51,0,0,0,.88.52,2.42,2.42,0,0,1,1.21-1c0.61-.23.35-1.22-0.27-1h0Z"/><path class="cls-10" d="M134.94,211.74c1.38-1.8,3.5-4.3,6.05-3,0.64,0.32,1.21-.65.57-1-3.19-1.58-5.78,1.09-7.59,3.44-0.44.57,0.53,1.13,1,.57h0Z"/><path class="cls-10" d="M158.11,206.1c-1.74-1.39-5.11-3.37-7-1.26a0.56,0.56,0,0,0,.79.79c1.4-1.53,4.21.27,5.45,1.26,0.56,0.44,1.36-.34.79-0.79h0Z"/><circle class="cls-12" cx="136.87" cy="226.77" r="3.73" transform="translate(-30.01 21.08) rotate(-7.94)"/><path class="cls-12" d="M160.94,218.73a3.73,3.73,0,1,0,1.63,7.25c1.13-2.41.42-4.87-.42-7.21A3.7,3.7,0,0,0,160.94,218.73Z"/><path class="cls-14" d="M184.63,250.67c-1.64-2.3-6.32-2.43-10.68-8s-9.2-9.6-15-10a12,12,0,0,0-6.9,1.58c0.84,3.39,1.82,11.13-6.34,12.44-8.43,1.35-10.6-5.48-11.14-8.23-3.87.55-8.83,0.24-12.6,7.32-5,9.4,0,21.67,0,21.67s-6.39,23.73-2.22,28.9,31.45,11.55,50.82-3.35c0.16-2-1.09-31.29-1.09-31.29l5.93,2.35S186.27,253,184.63,250.67Z"/><path class="cls-15" d="M161.17,244.21q2.2,7.35,4.16,14.76a0.56,0.56,0,0,0,1.08-.3q-2-7.41-4.16-14.76a0.56,0.56,0,0,0-1.08.3h0Z"/><path class="cls-16" d="M181.08,263.33a1.17,1.17,0,0,0,1.93-.43c0.19-1-1.22-1.45-2.21-1.09A1.56,1.56,0,0,0,181.08,263.33Z"/><path class="cls-17" d="M225.28,288.86c-0.53-4.08-3.29-7.46-5.93-10.6l-8.47-10a9.68,9.68,0,0,1-2-3.06c-1.4-4.23,3.25-8.3,3-12.75-0.17-2.82-2.39-5.2-5-6.33a19.77,19.77,0,0,0-8.32-1.19c-16.17.29-32.6,5.42-44.65,16.22-3.25,2.91-6.28,6.46-7,10.77s1.77,9.36,6.07,10.11l-2.29,2.5c0.82,4.3-1.11,8.63-1.36,13-0.28,5,1.63,9.84,4.14,14.14,2.41,4.15,5.58,8.1,10,10.06,4.23,1.89,9.08,1.7,13.66,1.05a77.29,77.29,0,0,0,39.8-18.16C221.59,300.52,226.07,295,225.28,288.86Z"/><path class="cls-16" d="M200.29,257.25a2.64,2.64,0,0,0-5.16-.81,4.56,4.56,0,0,0-5.76-.4,5,5,0,0,1-1.61,1.07,7.26,7.26,0,0,1-1.69,0A2.91,2.91,0,0,0,183.3,260a3.52,3.52,0,0,0-2.14,1.06,1.93,1.93,0,0,0-.35.71c1-.36,2.4.09,2.21,1.09a1.17,1.17,0,0,1-1.93.43,1.56,1.56,0,0,1-.27-1.52,1.67,1.67,0,0,0-.33.15,2,2,0,0,0-3.93.77,3,3,0,0,0-4.79,3.1c-1.84-.93-4,0.43-5.56,1.73s-3.36,3-3.09,5c-1.26.54-1.71,3.21-1.5,5.52,3.92,0.8,10.08.75,19.74-1.69,18.49-4.67,22.49-13.33,22.48-19.24C202.8,256.24,201,256.05,200.29,257.25Z"/><path class="cls-18" d="M163.11,272.58c-0.28-2,1.49-3.73,3.09-5s3.72-2.66,5.56-1.73a3,3,0,0,1,4.79-3.1,2,2,0,0,1,3.93-.77,1.67,1.67,0,0,1,.33-0.15,1.93,1.93,0,0,1,.35-0.71A3.52,3.52,0,0,1,183.3,260a2.91,2.91,0,0,1,2.77-2.94,7.26,7.26,0,0,0,1.69,0,5,5,0,0,0,1.61-1.07,4.56,4.56,0,0,1,5.76.4,2.64,2.64,0,0,1,5.16.81c0.7-1.19,2.51-1,3.54-.07a12,12,0,0,0-.76-4.28c-1.87-4.82-10.91-2.85-24,0s-24.4,10.82-24.11,21.05c0,0,.91,3,6.67,4.19C161.4,275.79,161.85,273.12,163.11,272.58Z"/><path class="cls-18" d="M193.61,282.83a26.76,26.76,0,0,0,4.4-6,0.56,0.56,0,0,0-1-.57,25.69,25.69,0,0,1-4.22,5.76,0.56,0.56,0,0,0,.79.79h0Z"/><path class="cls-18" d="M169.47,286.67c9.14,0.51,17.21-3.88,24.39-9.09,0.58-.42,0-1.39-0.57-1-7,5.09-14.87,9.43-23.83,8.93-0.72,0-.72,1.08,0,1.12h0Z"/><path class="cls-9" d="M124.58,272.37s11.33-1.8,17.74-10.69c0,0,3,8.91,7.38,9.09s14.7-1.42,20.93.18,7.79,6.15,7.79,6.15-23.06,8.63-30.3,10.23S124.58,272.37,124.58,272.37Z"/><path class="cls-15" d="M122,267.4c1.07,1.55,2,3.14,3,4.77l-0.39-.24c0.39,0,.83-0.06,1.25-0.12s0.85-.14,1.27-0.23c0.85-.18,1.69-0.39,2.53-0.63,0.43-.11.83-0.26,1.25-0.4s0.83-.3,1.23-0.48a10.29,10.29,0,0,0,1.19-.57c0.38-.23.78-0.42,1.14-0.67l1.08-.77a11.51,11.51,0,0,0,1-.85c0.32-.3.68-0.56,1-0.89l0.92-.95c0.62-.62,1.17-1.31,1.76-2s1.09-1.37,1.64-2.06l-0.09.54c-0.77-2-1.49-4.08-2.12-6.16-0.32-1-.65-2.07-0.94-3.12s-0.58-2.1-.83-3.16l0.11,0q0.72,1.47,1.35,3c0.44,1,.84,2,1.25,3,0.83,2,1.57,4.05,2.25,6.11l0.11,0.32-0.19.22c-0.6.68-1.18,1.37-1.78,2l-1,.95a12,12,0,0,1-1,.91l-1.05.85c-0.34.29-.73,0.53-1.09,0.8s-0.72.54-1.1,0.77l-1.12.74-1.15.7c-0.37.25-.77,0.46-1.16,0.69s-0.78.46-1.19,0.65-0.81.41-1.23,0.58a12.76,12.76,0,0,1-2.6.84,12.32,12.32,0,0,1-1.36.21,8.91,8.91,0,0,1-1.41.06h-0.27l-0.11-.23c-0.82-1.68-1.59-3.38-2.26-5.14Z"/><path class="cls-19" d="M515.63,514.48v-117q-14.71-11.58-30.47-21.88l-0.12,0c-2.14.42-4.39,0-6.52,0.47-6.64,1.47-10,10.91-16.76,10.42-3.45-.25-6-3.07-8.75-5.1s-7.23-3.09-9.29-.39c0.7,4.86-3.11,9.62-7.88,11.22s-10.12.55-14.62-1.65c-5.84-2.85-14.94-6.47-17.08-.45l8.35,5.41-5.15,3.69c0.1,3.53,4.22,5.88,7.82,5.55s6.7-2.52,9.6-4.63c-0.68,4.55,7.08,4.42,10.75,7.32,3.13,2.47,2.71,7.61,0,10.53s-6.89,4-10.9,4.46a42.82,42.82,0,0,1-31.92-10c-2.22-1.92-4.32-4.13-7.11-5.15-6.31-2.3-14.17,2.21-19.8-1.39l3.45-10c-3.71.25-6-3.64-8.32-6.5s-7.64-4.65-9.14-1.33a25.85,25.85,0,0,1-17.48,16.13c0.24-5.09-6.48-9.05-11-6.48-1.86,1.06-3.14,2.85-4.7,4.3a16.12,16.12,0,0,1-17.08,2.78,15.35,15.35,0,0,1-8.95-14.44c-6.44,6.22-18,.6-22.14-7.25s-4.46-17.26-8.8-25a7.72,7.72,0,0,0,1.89,10.45,21.39,21.39,0,0,0-15.93,7.27c7,5.28,10.62,15.18,6.91,23s-15.51,11.32-22.17,5.63c-6-5.09-9.75-16.37-17.12-13.56-6.89,2.63-3.53,13.91-8.83,18.94-2.4,2.28-6.59,3.34-7,6.57-0.22,1.6.64,3.12,1.1,4.66,1.92,6.43-3.07,12.69-7.71,17.62-3.34,3.56-7,7.29-11.82,8.36s-10.9-2-10.79-6.85c-1.8,4.77-10,2-11.45-2.89s0.5-10.13-.14-15.17-6.83-10.05-10.69-6.63c-2.38,2.11-1.93,5.8-2.73,8.83-2.58,9.74-16.35,10.45-26.57,9-3.74-.52-7.74-1.16-10.5-3.67s-3.33-7.6-.13-9.57a11.78,11.78,0,0,1-6.94-3.9l6.31-9.28,1.75-19.9c-5.1,2.77-11.86-1.64-13.19-7.18s1.19-11.26,4.31-16.06c1.16-1.79,2.46-3.65,2.58-5.77,0.39-7.12-11-8-17.15-4.05s-12.43,10.17-19.41,8c4.53,4.71-1.79,13.29-8.35,12.35a27,27,0,0,1,3.77,11.26c-4.83.85-9.7,4.32-9.92,9.1s6.77,8.69,9.95,5c4.73,1.71,2.57,9.23-1.91,11.5s-10.05,2.06-14.23,4.82c-1.86,1.23-3.52,3.06-5.76,3.22-2.67.2-4.8-2-7.21-3.15s-6.49.19-5.71,2.69c6.14,3.18,7.81,12.34,3.17,17.39s-14.17,4.43-18.08-1.18c-1.06-1.51-1.75-3.3-3.13-4.55-6-5.41-17.94,3.87-23.22-2.23-5.62-6.49,7.7-16.48,3.34-23.83-1.12-1.89-3.2-3-4.6-4.73a8.46,8.46,0,0,1-1-1.53V514.48h532.3Z"/><path class="cls-20" d="M-11.08,404.56c4.36,7.35-9,17.34-3.34,23.83,5.28,6.09,17.21-3.18,23.22,2.23,1.38,1.24,2.08,3,3.13,4.55,3.91,5.6,13.44,6.22,18.08,1.18s3-14.21-3.17-17.39c-0.78-2.5,3.29-3.81,5.71-2.69s4.54,3.35,7.21,3.15c2.24-.17,3.9-2,5.76-3.22,4.18-2.75,9.75-2.55,14.23-4.82s6.64-9.79,1.91-11.5c-3.18,3.64-10.16-.27-9.95-5s5.09-8.25,9.92-9.1a27,27,0,0,0-3.77-11.26c6.55,0.94,12.88-7.65,8.35-12.35,7,2.14,13.31-4.1,19.41-8s17.54-3.06,17.15,4.05c-0.12,2.12-1.41,4-2.58,5.77-3.12,4.81-5.64,10.53-4.31,16.06s8.09,9.95,13.19,7.18L107.32,407,101,416.32a11.78,11.78,0,0,0,6.94,3.9c-3.2,2-2.63,7.05.13,9.57s6.76,3.15,10.5,3.67c10.22,1.43,24,.72,26.57-9,0.8-3,.35-6.72,2.73-8.83,3.86-3.42,10,1.59,10.69,6.63s-1.32,10.29.14,15.17,9.65,7.66,11.45,2.89c-0.1,4.82,6,7.92,10.79,6.85s8.48-4.81,11.82-8.36c4.64-4.93,9.63-11.2,7.71-17.62-0.46-1.55-1.33-3.07-1.1-4.66,0.45-3.23,4.64-4.3,7-6.57,5.3-5,1.94-16.31,8.83-18.94,7.38-2.82,11.17,8.47,17.12,13.56,6.66,5.69,18.46,2.21,22.17-5.63s0.1-17.75-6.91-23a21.39,21.39,0,0,1,15.93-7.27,7.72,7.72,0,0,1-1.89-10.45c4.34,7.77,4.63,17.18,8.8,25s15.69,13.48,22.14,7.25a15.35,15.35,0,0,0,8.95,14.44,16.12,16.12,0,0,0,17.08-2.78c1.56-1.45,2.84-3.24,4.7-4.3,4.52-2.58,11.24,1.39,11,6.48a25.85,25.85,0,0,0,17.48-16.13c1.5-3.32,6.84-1.53,9.14,1.33s4.61,6.75,8.32,6.5l-3.45,10c5.63,3.61,13.49-.91,19.8,1.39,2.78,1,4.89,3.23,7.11,5.15a42.82,42.82,0,0,0,31.92,10c4-.41,8.2-1.54,10.9-4.46s3.11-8.06,0-10.53c-3.67-2.9-11.43-2.76-10.75-7.32-2.9,2.11-6,4.3-9.6,4.63s-7.73-2-7.82-5.55l5.15-3.69-8.35-5.41c2.13-6,11.23-2.4,17.08.45,4.51,2.2,9.86,3.25,14.62,1.65s8.58-6.35,7.88-11.22c2.06-2.7,6.53-1.63,9.29.39s5.3,4.85,8.75,5.1c6.79,0.49,10.11-8.95,16.76-10.42,2.13-.47,4.38-0.05,6.52-0.47l0.12,0A428.84,428.84,0,0,0,250,306.06c-101.1,0-193.9,34.57-266.66,92.23a8.46,8.46,0,0,0,1,1.53C-14.28,401.53-12.2,402.67-11.08,404.56Z"/><path class="cls-21" d="M181.94,425.89c-2.19,22.38-22.59,38.78-45.55,36.64s-39.8-22-37.61-44.39,22.59-38.78,45.55-36.64S184.13,403.51,181.94,425.89Z"/><g class="cls-22"><path class="cls-23" d="M183.8,433.26c-3.26,22.25-24.41,37.72-47.25,34.55s-38.71-23.79-35.45-46,24.41-37.72,47.25-34.55S187.06,411,183.8,433.26Z"/><path class="cls-21" d="M178.78,402.4c8.49,18.12.3,39.51-18.29,47.78s-40.54.29-49-17.82-0.3-39.51,18.29-47.78S170.29,384.29,178.78,402.4Z"/></g><path class="cls-21" d="M316.91,425.89c2.19,22.38,22.59,38.78,45.55,36.64s39.8-22,37.61-44.39-22.59-38.78-45.55-36.64S314.71,403.51,316.91,425.89Z"/><g class="cls-24"><path class="cls-23" d="M315,433.26c3.26,22.25,24.41,37.72,47.25,34.55s38.71-23.79,35.45-46S373.33,384,350.49,387.22,311.79,411,315,433.26Z"/><path class="cls-21" d="M320.07,402.4c-8.49,18.12-.3,39.51,18.29,47.78s40.54,0.29,49-17.82,0.3-39.51-18.29-47.78S328.56,384.29,320.07,402.4Z"/></g><path class="cls-21" d="M301.05,450.94c-5.69-16.25-35.36,3.72-46.18,4-10.82-.25-40.49-20.23-46.18-4s24.82,29.85,46.1,29.91H255C276.23,480.79,306.77,467.26,301.05,450.94Z"/><path class="cls-25" d="M255,467.72H254.8a73.14,73.14,0,0,0-28.65,6.57,73.14,73.14,0,0,0,28.65,6.57H255a73.14,73.14,0,0,0,28.65-6.57A73.14,73.14,0,0,0,255,467.72Z"/><path class="cls-23" d="M254.87,454.92c-8.64-.2-29.29-13-40.16-9.83,9.32,8.17,26.56,13.65,40.08,13.69H255c13.52,0,30.76-5.52,40.08-13.69C284.16,442,263.51,454.72,254.87,454.92Z"/><path class="cls-26" d="M264.53,237.78a4.37,4.37,0,0,1-1-4.75,10.5,10.5,0,0,1,1.89.21,8,8,0,0,1,3.54,1.47,3.11,3.11,0,0,1,1.17,2.58,4.14,4.14,0,0,1-.3,1.49,8.48,8.48,0,0,1-2.05.13A5,5,0,0,1,264.53,237.78Z"/><path class="cls-26" d="M284.08,229.25a56.57,56.57,0,0,0,3.29-5.75,19.2,19.2,0,0,0,.83-2.18l0.26-.86a2.74,2.74,0,0,1,.39.43,5.12,5.12,0,0,1,.81,1.53,7.76,7.76,0,0,1,.37,2.94,10.52,10.52,0,0,1-1,3.91,10.12,10.12,0,0,1-3.9,4.3,7.55,7.55,0,0,1-1.46.7c-0.35.13-.56,0.18-0.56,0.18a5.8,5.8,0,0,1-.16-1.58A7.52,7.52,0,0,1,284.08,229.25Z"/><path class="cls-26" d="M263.72,243.5a10.29,10.29,0,0,1-5.42-.5,5.06,5.06,0,0,1-1.59-1,15.58,15.58,0,0,1,2-1,20.32,20.32,0,0,1,4.93-1.47,10.18,10.18,0,0,1,4.07.15,7.27,7.27,0,0,1,1.61.58,9.27,9.27,0,0,1-1.48,1.41A9.08,9.08,0,0,1,263.72,243.5Z"/><path class="cls-26" d="M275.24,225.09a8.18,8.18,0,0,1,2.74-1.95,5.24,5.24,0,0,1,1.2-.36,3.28,3.28,0,0,1,.18,1.38,5,5,0,0,1-1.47,3.13,5.11,5.11,0,0,1-2.77,1.48,4.42,4.42,0,0,1-1.42.08,7,7,0,0,1,.23-1.33A5.49,5.49,0,0,1,275.24,225.09Z"/><path class="cls-26" d="M268.41,227a5.51,5.51,0,0,1,2.45,2,3.19,3.19,0,0,1,.49,1.18s-0.16.07-.45,0.16a5.93,5.93,0,0,1-1.17.26,5.47,5.47,0,0,1-3.34-.5,3.35,3.35,0,0,1-1.61-2,4.41,4.41,0,0,1-.23-1.19,5.86,5.86,0,0,1,1.28-.26A4.87,4.87,0,0,1,268.41,227Z"/><path class="cls-26" d="M270,226a5.77,5.77,0,0,1,.89-4.23,6.39,6.39,0,0,1,1.12.81,5.05,5.05,0,0,1,1.61,2.5,3.6,3.6,0,0,1-.43,2.62,4.93,4.93,0,0,1-.84,1.13,4.64,4.64,0,0,1-1.1-.7A3.47,3.47,0,0,1,270,226Z"/><path class="cls-26" d="M279.49,201.2a6.46,6.46,0,0,1,1.53-3.13,3.83,3.83,0,0,1,1.2-.88,4.68,4.68,0,0,1,.85,1.45,4.5,4.5,0,0,1,.05,3.34,4.72,4.72,0,0,1-1.9,2.11,8.9,8.9,0,0,1-1.2.66,5.74,5.74,0,0,1-.41-1A5,5,0,0,1,279.49,201.2Z"/><path class="cls-26" d="M285,211.64a2.58,2.58,0,0,1,.2,3.51,14.27,14.27,0,0,1-1.43-.49,12.46,12.46,0,0,1-1.2-.55,4.49,4.49,0,0,1-1.08-.73,1.13,1.13,0,0,1-.44-0.72,1.4,1.4,0,0,1,0-.74,4.34,4.34,0,0,1,.29-0.88,6.57,6.57,0,0,1,1.38-.16A3.13,3.13,0,0,1,285,211.64Z"/><path class="cls-26" d="M275.9,205.38a3.18,3.18,0,0,1-.8-0.86,6.37,6.37,0,0,1-.45-1,6,6,0,0,1-.28-1.18,4,4,0,0,1,1.13-.58,3.06,3.06,0,0,1,2.59.36,2.51,2.51,0,0,1,.76,1,3.29,3.29,0,0,1,.2,1.09,3.38,3.38,0,0,1-.19,1.19s-0.52.13-1.16,0.23A2.65,2.65,0,0,1,275.9,205.38Z"/><path class="cls-26" d="M292.49,206a6.07,6.07,0,0,1,.92,3.62,4.3,4.3,0,0,1-.39,1.42,7.36,7.36,0,0,1-1.22-.79,8.62,8.62,0,0,1-2.16-2.31,5.26,5.26,0,0,1-.72-2.53,5.61,5.61,0,0,1,0-1.27,4.51,4.51,0,0,1,1.29.2A4,4,0,0,1,292.49,206Z"/><path class="cls-26" d="M290,198.57a4.21,4.21,0,0,1-1.31,2.92,3.55,3.55,0,0,1-1.07.7,6.87,6.87,0,0,1-.69-1.33,8.66,8.66,0,0,1-.78-3.18,3.74,3.74,0,0,1,.8-2.47,3.33,3.33,0,0,1,.91-0.81,9.1,9.1,0,0,1,1.14,1.27A4.79,4.79,0,0,1,290,198.57Z"/><path class="cls-26" d="M291.55,200.2a4.66,4.66,0,0,1,3.44.59,6,6,0,0,1,1.35,1.09,4.28,4.28,0,0,1-.84,1.21,4.12,4.12,0,0,1-2.71,1.24,5,5,0,0,1-2.62-.69,10.88,10.88,0,0,1-1.13-.75,6.14,6.14,0,0,1,.58-1.15A3.25,3.25,0,0,1,291.55,200.2Z"/><path class="cls-26" d="M219.43,246.28a7.51,7.51,0,0,1-1.76,3,5,5,0,0,1-1.14.9,3.8,3.8,0,0,1-.51-1.23,5.07,5.07,0,0,1,.18-3,5.5,5.5,0,0,1,1.72-2.26,7.69,7.69,0,0,1,1.12-.77,3.72,3.72,0,0,1,.43,1A4.19,4.19,0,0,1,219.43,246.28Z"/><path class="cls-26" d="M212.31,237.73a3.27,3.27,0,0,1-2.09-1.66,3,3,0,0,1-.34-1.13,6.34,6.34,0,0,1,4.31-.7,2.77,2.77,0,0,1,1.77,2.48S213.91,238.21,212.31,237.73Z"/><path class="cls-26" d="M223.3,242.36a3.48,3.48,0,0,1,1.17,2.16,4.6,4.6,0,0,1,0,1.24,4.5,4.5,0,0,1-1.24.29,3.15,3.15,0,0,1-2.42-.66,2.54,2.54,0,0,1-.83-2,4.51,4.51,0,0,1,.14-1.19,6,6,0,0,1,1.19-.23A2.75,2.75,0,0,1,223.3,242.36Z"/><path class="cls-26" d="M207.7,245.7a3.33,3.33,0,0,1-1.72-3,5,5,0,0,1,3.7.28,2.52,2.52,0,0,1,1.13,1.65,3.84,3.84,0,0,1,.13,1S209,246.5,207.7,245.7Z"/><path class="cls-26" d="M210.22,250.51a5.53,5.53,0,0,1,1.11-2.8,4.78,4.78,0,0,1,.89-0.92,3.7,3.7,0,0,1,.63.93,5,5,0,0,1,.48,2.58,5.06,5.06,0,0,1-1.76,3.17,4.26,4.26,0,0,1-.76-0.82A3.24,3.24,0,0,1,210.22,250.51Z"/><path class="cls-26" d="M209,249.71a5.1,5.1,0,0,1-2.82.89,3.18,3.18,0,0,1-1.15-.19,6.67,6.67,0,0,1,2.68-3.33,4,4,0,0,1,3.3-.39A5.57,5.57,0,0,1,209,249.71Z"/><path class="cls-26" d="M205.45,233a6.66,6.66,0,0,1-3.59,3.27,5.41,5.41,0,0,1,.34-4.28,5.84,5.84,0,0,1,3.22-2.61A4.2,4.2,0,0,1,205.45,233Z"/><path class="cls-26" d="M198.07,223.23a4.43,4.43,0,0,1-2.47-1.63,3.68,3.68,0,0,1-.58-1.16,5.75,5.75,0,0,1,4.5-1,3.29,3.29,0,0,1,1.94,1.6,3.85,3.85,0,0,1,.43,1.18S199.83,223.68,198.07,223.23Z"/><path class="cls-26" d="M210.13,230a4.12,4.12,0,0,1,.95,2.73,4,4,0,0,1-.22,1.28,5,5,0,0,1-3.8-1.62,4,4,0,0,1-.37-3.55S209.06,228.66,210.13,230Z"/><path class="cls-26" d="M193.83,231.41a3.2,3.2,0,0,1-1.51-1.75,3.07,3.07,0,0,1-.18-1,4.45,4.45,0,0,1,3.63,0,2.89,2.89,0,0,1,1.21,2.64S195.07,232.07,193.83,231.41Z"/><path class="cls-26" d="M195.81,235.95a6.19,6.19,0,0,1,2.36-3.5,4,4,0,0,1,.61,3.49,5.41,5.41,0,0,1-2.24,2.84A3.23,3.23,0,0,1,196,238,3,3,0,0,1,195.81,235.95Z"/><path class="cls-26" d="M194.77,235.17C192.5,236.55,191,236,191,236a7.71,7.71,0,0,1,2.73-3.27,3.6,3.6,0,0,1,3.19-.42A5.88,5.88,0,0,1,194.77,235.17Z"/><path class="cls-27" d="M305.65,196.62c-0.69.58-1.34,1.2-2,1.82-1.58,1.51-3.14,3-4.62,4.63-1,1-1.85,2.3-2.89,3.33-2.23,2.11-4.58,4.07-6.8,6.19-2.41,2.29-4.76,4.67-7.27,6.86s-5,4.12-7.58,6.1q-2.32,1.81-4.52,3.77t-4.21,4.12a1.94,1.94,0,0,1-.25.21c0.79-2,1.88-3.91,2.64-5.87a48.38,48.38,0,0,0,2.08-7.93c0.34-1.67.61-3.39,1.12-5a40,40,0,0,1,2.94-7.15A24.65,24.65,0,0,1,277,203.9a32.07,32.07,0,0,0,4.59-8.17A4.51,4.51,0,0,1,283,194a1.2,1.2,0,0,0,.38-0.72c0.06-.3,0-0.65.1-0.9-0.26.2-.49,0.29-0.66,0.42a9.69,9.69,0,0,0-1.09.95,15.29,15.29,0,0,0-2.18,2.69c-0.42.65-.58,1.47-1,2.12a36.15,36.15,0,0,0-2.57,4.11c-0.78,1.57-1.36,3.24-2.13,4.81s-1.6,3-2.45,4.47a22.68,22.68,0,0,0-1.34,2.78c-0.39,1-.64,2-0.95,2.94-0.09.29-.48,0.47-0.56,0.77-0.46,1.53-.75,3.12-1.08,4.68-0.16.64-.6,1.19-0.76,1.83,0,0.16-.07.32-0.1,0.47a1.71,1.71,0,0,1-.2-0.59,22,22,0,0,0,0-2.46,24.78,24.78,0,0,1-.4-2.68,8.57,8.57,0,0,1,.45-2.59,9,9,0,0,0,.31-3.12c0-.16.32-0.27,0.33-0.42,0-.81-0.06-1.65,0-2.48a9.26,9.26,0,0,1,.41-0.95,9.38,9.38,0,0,1,.2-2,11.46,11.46,0,0,0,.85-3,0.32,0.32,0,0,0,0-.19,0.74,0.74,0,0,0-.12-0.22,0.42,0.42,0,0,0-.25,0,0.51,0.51,0,0,0-.22.22c-0.09.14-.1,0.3-0.2,0.43a19,19,0,0,0-2.16,2.94,8.22,8.22,0,0,0-.54,4.43c0.07,0.94.34,1.89,0.39,2.8a27.56,27.56,0,0,1,0,4.07,12.27,12.27,0,0,1-.62,2.43,6.2,6.2,0,0,0,.78,4.91,1.55,1.55,0,0,1,.09,1.17,0.4,0.4,0,0,0,.17.4,1.21,1.21,0,0,0,.17.11l0,0.07a28.18,28.18,0,0,0-1.2,5.45,2.27,2.27,0,0,0-.38.3q-1.62,1.62-3.11,3.37c-1,1.15-2,2.3-3,3.5-0.8,1-1.88,1.7-2.67,2.69-1.55,2-2.92,4-4.4,6-0.88,1.13-1.76,2.27-2.54,3.49l-0.95-35.26q0.71-1,1.51-1.94c1.38-1.59,2.8-3.29,4.1-5a59.5,59.5,0,0,0,4.58-7.42,58.2,58.2,0,0,0,7-3.89,36.43,36.43,0,0,0,7.63-7.52c0.71-.85,1.35-1.76,2-2.67l1.94-2.68,5.93-7.91c1.14-1.61,2.59-3,3.84-4.55A28.87,28.87,0,0,0,291.77,164a9.47,9.47,0,0,1,1.29-2.54,1.91,1.91,0,0,0,.32-1c0-.37,0-0.77,0-1.09-0.25.33-.49,0.51-0.65,0.72a15.19,15.19,0,0,0-1,1.47,36.34,36.34,0,0,0-2.15,3.76c-0.42.87-.65,1.85-1.12,2.7s-1,1.73-1.6,2.58-1.06,1.72-1.58,2.59c-1.07,1.91-2.11,3.87-3.36,5.69-0.62.87-1.29,1.71-2,2.53s-1.46,1.57-2.19,2.35a77.13,77.13,0,0,0-5.07,5.83c-0.24.3-.72,0.37-1,0.65-0.67.74-1.32,1.51-2,2.28s-1.32,1.51-2,2.25-1.38.95-2,1.52a39.46,39.46,0,0,1-3.56,3.38c-1.13.85-2.28,1.67-3.41,2.5,0.91-1.84,1.75-3.72,2.54-5.61,0.63-1.61,1.24-3.23,1.83-4.84s1.11-3.26,1.69-4.87c1.7-4.89,3.24-9.82,4.73-14.76q0.62-2.23,1.39-4.43c0.47-1.48,1-3,1.42-4.44a57.63,57.63,0,0,0,2.19-18.72,26.71,26.71,0,0,1,.32-4.45,4.6,4.6,0,0,0-.06-1.63c-0.11-.55-0.32-1.09-0.4-1.58-0.11.63-.26,1-0.34,1.45-0.18.92-.31,1.84-0.42,2.76-0.31,2.26-.57,4.51-0.75,6.76-0.15,1.51,0,3.06-.21,4.58l-0.79,4.71c-0.32,1.56-.62,3.12-0.86,4.69l-0.9,5.1c-0.33,1.69-.72,3.38-1.14,5.06s-1,3.22-1.51,4.81-1.23,3.13-1.85,4.69v0c0-.34,0-0.68,0-1a33.05,33.05,0,0,0-2.06-7.6c-0.53-1.53-1.18-3.05-1.57-4.63a38.73,38.73,0,0,1-1.16-7.23,23.43,23.43,0,0,1,.33-4.4,26.79,26.79,0,0,0-.5-8.86,4.22,4.22,0,0,1,.16-2.1,1.08,1.08,0,0,0-.08-0.77c-0.11-.26-0.33-0.53-0.41-0.77-0.11.29-.25,0.48-0.33,0.68a8.78,8.78,0,0,0-.4,1.31,14.12,14.12,0,0,0-.36,3.26c0,0.74.29,1.47,0.29,2.2a35,35,0,0,0,0,4.58c0.17,1.65.55,3.28,0.72,4.92a46.54,46.54,0,0,1,.21,4.82,21.56,21.56,0,0,0,.93,5.75c0.07,0.28-.16.62-0.1,0.9,0.37,1.47.91,2.9,1.39,4.33,0.19,0.59.06,1.27,0.24,1.86a19.74,19.74,0,0,1,1,3.49,17.31,17.31,0,0,1,0,3.26c-1,2.4-1.92,4.82-2.91,7.23-0.23.55-.76,1-1,1.52-0.61,1.45-1.27,2.87-1.92,4.31l-1,2.16-1.06,2.11c-0.6,1.16-1.46,2.16-2.14,3.27s-1.25,2.24-1.86,3.37-1.33,2.2-2.06,3.25-1.61,2.23-2.38,3.38l-1.36-50.37c0.36-.93.71-1.86,1-2.81a42.33,42.33,0,0,0,1.34-8.54c0.14-1.66.19-3.35,0.41-5,0.95-.93,2.09-1.73,2.92-2.7a12.94,12.94,0,0,0,2.21-4.4c0.34-1,.57-2,1-3a20,20,0,0,1,2.35-4,11.51,11.51,0,0,1,2.11-1.88,9.45,9.45,0,0,0,3.06-4.71,1.84,1.84,0,0,1,.88-1,0.5,0.5,0,0,0,.22-0.45c0-.2-0.07-0.47,0-0.65-0.19.09-.38,0.1-0.5,0.16a7.3,7.3,0,0,0-.78.44,6.15,6.15,0,0,0-1.5,1.44c-0.27.37-.32,0.92-0.61,1.28a17.46,17.46,0,0,0-1.8,2.26c-0.54.89-.94,1.9-1.5,2.77a15,15,0,0,1-2,2.33,9.81,9.81,0,0,0-2,3.09c-0.08.16-.43,0.16-0.51,0.32-0.43.85-.72,1.79-1.09,2.67-0.16.36-.59,0.56-0.77,0.91a18.55,18.55,0,0,1-.91,2.15l-0.46.7a55.15,55.15,0,0,1,1.43-6.1,31,31,0,0,1,1.92-4.49,29.89,29.89,0,0,0,2.55-9.5,5.19,5.19,0,0,1,.83-2.18,1.31,1.31,0,0,0,.17-0.84c0-.31-0.15-0.65-0.15-0.93-0.2.28-.39,0.44-0.53,0.63a10.53,10.53,0,0,0-.79,1.27,18,18,0,0,0-1.4,3.32c-0.24.77-.2,1.63-0.46,2.4a50,50,0,0,0-1.57,4.8c-0.42,1.78-.66,3.6-1.12,5.36a47.87,47.87,0,0,1-1.65,5.06,27.82,27.82,0,0,0-.91,3.08c-0.24,1-.37,2.11-0.54,3.17,0,0.31-.41.56-0.46,0.87-0.27,1.64-.38,3.32-0.57,5,0,0.06,0,.12,0,0.18l-1.29-48a0.23,0.23,0,0,0-.47,0l-1.76,65.41c0-.09-0.05-0.18-0.08-0.26a19.86,19.86,0,0,0-1.61-3.3c-0.43-.7-1.09-1.27-1.49-2-0.73-1.3-1.36-2.65-2.12-3.93,0,0,0,0,0-.07,0-1.91.47-3.82,0.56-5.68a34,34,0,0,0-.61-7.18c-0.22-1.49-.57-3-0.66-4.5a48.81,48.81,0,0,1,.07-6.82,25.09,25.09,0,0,1,.84-4,19.09,19.09,0,0,0,0-8.29,4,4,0,0,1,.18-2,1,1,0,0,0-.07-0.72c-0.11-.25-0.33-0.5-0.41-0.72-0.11.27-.26,0.45-0.32,0.63-0.15.4-.28,0.8-0.39,1.21a13.12,13.12,0,0,0-.44,3c0,0.68.23,1.37,0.19,2-0.1,1.41-.35,2.81-0.32,4.22s0.2,3.07.15,4.6a29.16,29.16,0,0,1-.55,4.43,19.92,19.92,0,0,0-.28,2.69c0,0.9,0,1.81.11,2.71,0,0.27-.28.53-0.27,0.8,0.08,1.41.33,2.81,0.52,4.2,0.07,0.58-.19,1.16-0.13,1.74,0.11,1.14.48,2.26,0.52,3.4,0,0.86.09,1.73,0.2,2.58A38.25,38.25,0,0,1,234,160.9a24.62,24.62,0,0,1-1.88-5c-0.58-2.08-1.26-4.09-2-6.13-0.09-.31.14-0.69,0.06-1-0.46-1.6-.93-3.21-1.28-4.87-0.12-.69.09-1.4,0-2.09a32.35,32.35,0,0,1-.48-4.09l0.1-3.18a24.6,24.6,0,0,0,0-3.19,1.22,1.22,0,0,0,0-.37,1.36,1.36,0,0,0-.17-0.35,0.43,0.43,0,0,0-.23.22,1.67,1.67,0,0,0-.16.58c-0.06.32,0,.65-0.08,1-0.26,1.15-.53,2.3-0.75,3.46a20.74,20.74,0,0,0-.51,3.52,23.69,23.69,0,0,0,1.37,9c0.58,1.8,1.42,3.51,2.13,5.22,1.06,2.59,2.29,5.07,3.43,7.59,0.71,1.5,1.17,3.12,1.75,4.7A24.36,24.36,0,0,0,238,171c-1-.82-1.89-1.69-2.83-2.42-1.66-1.31-3.46-2.2-5.13-3.47a15.27,15.27,0,0,1-3-2.67,19,19,0,0,1-3-5.38,18,18,0,0,1-.72-3.68,13.79,13.79,0,0,0-3.14-6.89,3.65,3.65,0,0,1-.73-1.65,0.88,0.88,0,0,0-.41-0.53c-0.21-.14-0.52-0.21-0.69-0.34,0,0.27,0,.48,0,0.65,0.06,0.39.15,0.75,0.23,1.12a13.61,13.61,0,0,0,.87,2.55c0.26,0.54.74,1,1,1.57,0.43,1.2.71,2.45,1.25,3.62s1.3,2.49,1.84,3.78,0.93,2.56,1.41,3.86a10.79,10.79,0,0,0,2.74,4.2c0.17,0.18.09,0.58,0.28,0.75a15.77,15.77,0,0,0,3.19,2.34c0.46,0.28.73,0.81,1.2,1.09,0.92,0.53,2,.81,2.86,1.34a17.9,17.9,0,0,0,4,1.85c0.45,0.56.91,1.12,1.4,1.66a5.64,5.64,0,0,1,1.13,2.1,1.36,1.36,0,0,0,.54.69l0.24,0.15-1.49,55.21c-0.08-.41-0.15-0.82-0.23-1.23A82.87,82.87,0,0,0,237,218.62c0-1,0-2,0-2.91a46,46,0,0,0-1.27-7.63c-0.36-1.58-.81-3.18-1.05-4.79A62,62,0,0,1,234,196a38.16,38.16,0,0,1,.28-4.44,16.69,16.69,0,0,0-1.8-8.81,5.51,5.51,0,0,1-.46-2.08,1.1,1.1,0,0,0-.33-0.71c-0.19-.21-0.48-0.39-0.63-0.58,0,0.32-.08.54-0.09,0.75a8.76,8.76,0,0,0,0,1.35,22,22,0,0,0,.47,3.16c0.16,0.69.55,1.36,0.67,2.07s0.17,1.49.23,2.24,0.16,1.49.26,2.24c0.27,1.61.64,3.23,0.78,4.87a31,31,0,0,1-.07,4.8,25,25,0,0,0,0,2.9c0.06,1,.22,1.93.35,2.89,0,0.28-.24.59-0.2,0.88,0.19,1.5.56,3,.87,4.47a2.77,2.77,0,0,1,0,.53l-0.05-.11a14.46,14.46,0,0,0-1.18-3,12.36,12.36,0,0,0-1.14-1.76L230.72,205c-2.4-4.86-5-9.58-7.62-14.29-1.58-2.81-2.93-5.77-4.4-8.65a120.84,120.84,0,0,0-10.51-16.58,19.65,19.65,0,0,1-2.21-4.08,5.12,5.12,0,0,0-.91-1.43c-0.38-.44-0.85-0.83-1.17-1.24,0.22,0.63.32,1.07,0.46,1.48,0.33,0.93.69,1.84,1.11,2.72a57.5,57.5,0,0,0,3.35,6.35c0.83,1.38,1.92,2.6,2.74,4,1.72,2.87,3.33,5.81,5.17,8.6,2,3,4.06,6,5.88,9.13a82.8,82.8,0,0,1,4.69,9.44l1.9,4.34c-0.51-.42-1-0.81-1.56-1.19-1.33-1-2.79-1.71-4.12-2.6-2-1.33-4-2.65-5.88-4.14a24.71,24.71,0,0,1-3-3.08,30.63,30.63,0,0,0-6.76-5.36,3.94,3.94,0,0,1-1.33-1.54,1.14,1.14,0,0,0-.56-0.5c-0.25-.12-0.59-0.16-0.81-0.28,0.12,0.28.13,0.52,0.21,0.71A9.36,9.36,0,0,0,206,188a11,11,0,0,0,2.05,2.52c0.54,0.49,1.26.77,1.8,1.25a29.13,29.13,0,0,0,3.4,2.93c1.33,0.92,2.78,1.68,4.09,2.61a28.71,28.71,0,0,1,3.54,3.06,36,36,0,0,0,4.35,3.54c0.22,0.16.23,0.57,0.44,0.75,1.12,0.91,2.3,1.76,3.37,2.75,0.45,0.41.61,1.05,1,1.49a25.39,25.39,0,0,1,2,2.24l0.41,0.94c0.24,0.58.18,1.28,0.41,1.86,1.2,3.06,2.47,6.1,3.57,9.21,0.44,1.29.57,2.67,1,4,0.8,2.56,1.77,5.09,2.39,7.7,0.39,1.61.76,3.22,1.13,4.83l-0.26,9.54c-0.13-.17-0.24-0.35-0.37-0.52a58,58,0,0,0-7.43-7.39,39.45,39.45,0,0,1-4.55-4.54,40.8,40.8,0,0,1-5.08-8.3,45.55,45.55,0,0,1-2-5.54,27.09,27.09,0,0,0-6.11-10.28,9.65,9.65,0,0,1-1.59-2.36,1.92,1.92,0,0,0-.75-0.73c-0.32-.19-0.71-0.31-1-0.48,0.18,0.37.24,0.66,0.36,0.9,0.25,0.55.55,1,.81,1.57,0.68,1.26,1.39,2.48,2.14,3.68,0.51,0.8,1.24,1.49,1.7,2.34,0.94,1.78,1.69,3.64,2.66,5.42s2.22,3.8,3.23,5.75,1.83,3.87,2.77,5.82a24.18,24.18,0,0,0,4.53,6.37c0.27,0.28.29,0.77,0.55,1.05l0.22,0.21-0.09-.05a24.62,24.62,0,0,0-7.17-2,38.79,38.79,0,0,1-4.49-.87,27.87,27.87,0,0,1-6.3-2.72,18,18,0,0,1-3.2-2.63,27.33,27.33,0,0,0-6.92-4.59,3.88,3.88,0,0,1-1.44-1.35,1,1,0,0,0-.6-0.41c-0.26-.08-0.59-0.07-0.82-0.15,0.14,0.26.18,0.49,0.28,0.65a11.2,11.2,0,0,0,.71,1.09,11.52,11.52,0,0,0,2.18,2.21c0.56,0.42,1.27.63,1.82,1a26.72,26.72,0,0,0,3.49,2.56c1.37,0.77,2.84,1.35,4.21,2.07s2.61,1.53,3.92,2.33a17.33,17.33,0,0,0,5.1,2.05,0.45,0.45,0,0,1,.16.09,21.51,21.51,0,0,0-4.45.86A20.9,20.9,0,0,1,214,243a15.52,15.52,0,0,1-4.86-.23,10.15,10.15,0,0,1-2.7-1.21,12.82,12.82,0,0,0-5.69-1.46,2,2,0,0,1-1.25-.63,0.56,0.56,0,0,0-.51-0.12c-0.21,0-.46.17-0.64,0.18,0.14,0.17.2,0.35,0.29,0.46a6,6,0,0,0,2.61,1.8c0.47,0.16,1,.07,1.5.23a14.78,14.78,0,0,0,2.94,1c1.11,0.19,2.26.17,3.35,0.32a26,26,0,0,1,3.18.72,9.32,9.32,0,0,0,3.93.12c0.19,0,.39.27,0.59,0.25a24.67,24.67,0,0,0,3-.66c0.41-.1.86,0.14,1.27,0,0.82-.17,1.58-0.58,2.4-0.68a16,16,0,0,0,2.5-.49l0.4,0.08c0.57,0.13,1,.58,1.59.73a23,23,0,0,1,3.32.89c1.32,0.59,2.59,1.24,3.89,1.84,0.52,0.55.88,1.24,1.42,1.76a45.33,45.33,0,0,1,3.52,3.38l0.48,0.6-1.23,45.7h10.56l-1.13-41.9c1.64-2.42,3.85-4.5,5.72-6.79,1-1.1,1.94-2.23,2.91-3.35,0.39,0,.78,0,1.17,0a18.92,18.92,0,0,0,3.93-.49c0.83-.19,1.6-0.66,2.42-0.87,0.2,0.16.4,0.32,0.61,0.47a9,9,0,0,0,2.43,1.15c0.58,0.18,1.24.06,1.81,0.25a21.57,21.57,0,0,0,3.59,1c1.34,0.22,2.72.22,4,.43a33.16,33.16,0,0,1,3.85.86,13.56,13.56,0,0,0,2.36.37,21.84,21.84,0,0,0,2.39,0c0.23,0,.46.3,0.7,0.28a36.35,36.35,0,0,0,3.69-.47c0.5-.06,1,0.19,1.53.13,1-.1,2-0.47,3-0.51a15.76,15.76,0,0,0,4.57-.66,0.65,0.65,0,0,0,.26-0.09,0.89,0.89,0,0,0,.21-0.22,0.42,0.42,0,0,0-.21-0.19,1,1,0,0,0-.43-0.07c-0.24,0-.46.07-0.69,0.06-1.69-.11-3.37-0.56-5-0.66a27.45,27.45,0,0,0-6.24.55,31.65,31.65,0,0,1-3.93.56,24.3,24.3,0,0,1-5.92-.45,14.94,14.94,0,0,1-3.35-1.32,18.63,18.63,0,0,0-7-1.59,2.07,2.07,0,0,1-.82-0.2,30,30,0,0,0,4.06-1.1c1.89-.68,3.68-1.58,5.54-2.29s3.65-1.29,5.5-1.91a27.54,27.54,0,0,0,3.26-1.34c1.06-.51,2-1.16,3.06-1.75,0.3-.18.75-0.08,1-0.26,0.78-.48,1.53-1,2.29-1.52l2.21-1.62c0.62-.42,1.39-0.61,2-1,1.22-.84,2.28-1.92,3.52-2.73a31.2,31.2,0,0,0,5.4-4.2,1.38,1.38,0,0,0,.28-0.29,1.42,1.42,0,0,0,.17-0.37,0.47,0.47,0,0,0-.34,0,1.91,1.91,0,0,0-.57.28c-0.3.18-.53,0.43-0.83,0.61-2.14,1.24-4.48,2.17-6.6,3.35A76.3,76.3,0,0,0,288.5,233c-0.79.57-1.56,1.17-2.37,1.73a26,26,0,0,1-2.45,1.61,46,46,0,0,1-8,3.72,29.58,29.58,0,0,1-5.19,1.11,47.26,47.26,0,0,0-10.25,3,5,5,0,0,1-2,.38c2.14-2.5,4.28-5,6.49-7.51s4.32-4.94,6.67-7.24c2.82-2.77,5.76-5.4,8.76-8a1.5,1.5,0,0,1-.19.29c0.18,0.06.31,0.18,0.42,0.22a5.71,5.71,0,0,0,.79.19,4.39,4.39,0,0,0,1.86-.14c0.4-.12.71-0.53,1.1-0.63a10.24,10.24,0,0,0,2.44-.78c0.83-.43,1.55-1.05,2.35-1.48a13.73,13.73,0,0,1,2.5-1,7,7,0,0,0,1.46-.69,12.07,12.07,0,0,0,1.26-1c0.12-.1.42,0.06,0.54,0,0.65-.53,1.2-1.2,1.79-1.79,0.25-.24.69-0.21,0.95-0.44a13.94,13.94,0,0,1,1.46-1.42,9.09,9.09,0,0,0,2.45-1.91,0.32,0.32,0,0,0,.11-0.15,0.72,0.72,0,0,0,0-.24,0.43,0.43,0,0,0-.23-0.11,0.51,0.51,0,0,0-.31.06c-0.15.06-.25,0.19-0.4,0.24-1.13.36-2.38,0.54-3.42,1a9.9,9.9,0,0,0-3.27,2.75,21.8,21.8,0,0,1-1.82,2.06A12.81,12.81,0,0,1,288.7,219a7.47,7.47,0,0,1-2.42.41,8.46,8.46,0,0,0-4.43,1.87,1.29,1.29,0,0,1-1.13.16h-0.07c0.61-.52,1.21-1.06,1.83-1.58,2.26-1.92,4.75-3.59,7.14-5.37a60,60,0,0,0,12.72-12.9,25.84,25.84,0,0,1,2.91-3.16,4.27,4.27,0,0,0,.92-1.27c0.24-.48.4-1,0.63-1.44C306.32,196.14,306,196.36,305.65,196.62Z"/><path class="cls-26" d="M200.93,195.88a4.35,4.35,0,0,1-4.43-2s2-2.82,4.83-3.07c2.34-.2,3.55,2.19,3.55,2.19S203.09,195.62,200.93,195.88Z"/><path class="cls-26" d="M210.75,179.69a8.5,8.5,0,0,1,1.9-4,6.49,6.49,0,0,1,1.35-1.21,7.13,7.13,0,0,1,1,5.33,7.39,7.39,0,0,1-2.9,4.21A5.25,5.25,0,0,1,210.75,179.69Z"/><path class="cls-26" d="M205.3,199.5c-1.65,3.55-4.06,4.27-4.06,4.27a10,10,0,0,1,.68-6.27,6,6,0,0,1,3.76-3.25A8.63,8.63,0,0,1,205.3,199.5Z"/><path class="cls-26" d="M201.07,178.84a7.59,7.59,0,0,1,3.49-4.39,8,8,0,0,1-.12,5.22,7,7,0,0,1-3.05,3.54A5.77,5.77,0,0,1,201.07,178.84Z"/><path class="cls-26" d="M195.76,185.31c2.88-1.13,4.36.45,4.36,0.45a9.14,9.14,0,0,1-3.91,3.69,3.46,3.46,0,0,1-3.64-.63S193.77,186.1,195.76,185.31Z"/><path class="cls-26" d="M196.56,183.16a5.87,5.87,0,0,1-1.13-4.87,4.47,4.47,0,0,1,4,1.45c1.3,1.6.68,4.24,0.68,4.24S197.81,184.62,196.56,183.16Z"/><path class="cls-26" d="M247.42,137.27a9.88,9.88,0,0,1-3-3.82,5,5,0,0,1,3.46,1.29,8.55,8.55,0,0,1,2.47,3.32A3.42,3.42,0,0,1,247.42,137.27Z"/><path class="cls-26" d="M254.52,133.41a1.81,1.81,0,0,1,2-1.65s1.48,2.15,1.2,3.83c-0.24,1.42-2,1.17-2,1.17S254.31,134.69,254.52,133.41Z"/><path class="cls-26" d="M250.24,142c-1.5.94-3.26-.28-3.26-0.28s-0.23-2.12,1-2.92c1.06-.67,2.86.48,2.86,0.48S251.28,141.32,250.24,142Z"/><path class="cls-26" d="M247.38,127.86a1.76,1.76,0,0,1,2.15-.7s0.92,1.86.34,3c-0.49,1-2,.37-2,0.37S247,128.72,247.38,127.86Z"/><path class="cls-26" d="M243.93,128.44a9.31,9.31,0,0,1,3.09,2.79s-1,.66-2.72-0.31a8.24,8.24,0,0,1-2.53-2.56A1.91,1.91,0,0,1,243.93,128.44Z"/><path class="cls-26" d="M244.42,127.74c-1.37-2.21-1.09-3.3-1.09-3.3a11.4,11.4,0,0,1,3,3.06,3.57,3.57,0,0,1,.69,2.76A8.71,8.71,0,0,1,244.42,127.74Z"/><path class="cls-26" d="M269,200.65a7.65,7.65,0,0,1-2.11-2.77,6.4,6.4,0,0,1-.46-1.35,5.58,5.58,0,0,1,3.86,1.22A5.69,5.69,0,0,1,272,200a5.79,5.79,0,0,1,.43,1.29A3.82,3.82,0,0,1,269,200.65Z"/><path class="cls-26" d="M278.62,194.91a3.52,3.52,0,0,1,1.51-2.18,3.13,3.13,0,0,1,1.08-.46,6.49,6.49,0,0,1,.74,1.32,4.67,4.67,0,0,1,.3,3,2.73,2.73,0,0,1-1.55,1.74,3.68,3.68,0,0,1-1.15.33S278.19,196.51,278.62,194.91Z"/><path class="cls-26" d="M271,205.8a4.06,4.06,0,0,1-3,.35,3.67,3.67,0,0,1-1.19-.54,6.15,6.15,0,0,1,.52-1.3,4.6,4.6,0,0,1,1.9-2c1.57-.82,3.5.28,3.5,0.28a5,5,0,0,1-.27,1.29A3.3,3.3,0,0,1,271,205.8Z"/><path class="cls-26" d="M270.87,190.06a2.23,2.23,0,0,1,1.55-1.15,2.77,2.77,0,0,1,.95-0.05s1,1.91.14,3.34A1.79,1.79,0,0,1,272,193a3.21,3.21,0,0,1-.95-0.07S270.3,191.08,270.87,190.06Z"/><path class="cls-26" d="M266.87,191.08a8.13,8.13,0,0,1,2.35,1.78,5.89,5.89,0,0,1,.76,1,3.13,3.13,0,0,1-3.13-.12,6.57,6.57,0,0,1-2.39-2.69A2.37,2.37,0,0,1,266.87,191.08Z"/><path class="cls-26" d="M267.52,190.29c-1.25-2.29-.89-3.46-0.89-3.46a9.56,9.56,0,0,1,1.06.77,9.15,9.15,0,0,1,2,2.22,3.38,3.38,0,0,1,.44,3,6.46,6.46,0,0,1-1-.65A6.3,6.3,0,0,1,267.52,190.29Z"/><path class="cls-28" d="M236.64,190.68a6.38,6.38,0,0,1-3.13,1.53,4.64,4.64,0,0,1-1.46,0,5.79,5.79,0,0,1,1.9-4.19,5.2,5.2,0,0,1,4-1,5.12,5.12,0,0,1-.09,1.32A4,4,0,0,1,236.64,190.68Z"/><path class="cls-28" d="M232.66,176.8a8.92,8.92,0,0,1-2.47-2.91c-0.22-.44-0.37-0.82-0.47-1.08a3.8,3.8,0,0,1-.13-0.43,5.08,5.08,0,0,1,1.61-.33,5.72,5.72,0,0,1,3.64,1.15,5.16,5.16,0,0,1,1.87,2.89,4.92,4.92,0,0,1,.19,1.58A5.94,5.94,0,0,1,232.66,176.8Z"/><path class="cls-28" d="M242.13,189.84a4.25,4.25,0,0,1-.11,2.87,4.39,4.39,0,0,1-.64,1.12,5.05,5.05,0,0,1-1.25-.6,4.37,4.37,0,0,1-1.77-2.38,4.28,4.28,0,0,1,1-3.66S241.64,188.16,242.13,189.84Z"/><path class="cls-28" d="M226.18,183.5a3.83,3.83,0,0,1-.92-2.27,3.71,3.71,0,0,1,.1-1.08,4.08,4.08,0,0,1,1.27,0,3.81,3.81,0,0,1,2.32,1.31,2.89,2.89,0,0,1,.58,2.15,3.88,3.88,0,0,1-.28,1.08A4.85,4.85,0,0,1,226.18,183.5Z"/><path class="cls-28" d="M226.41,188.86a5.65,5.65,0,0,1,3.54-2.34,4.8,4.8,0,0,1-.73,3.84,4.72,4.72,0,0,1-3.18,1.76,4.33,4.33,0,0,1-.2-1.11A3.34,3.34,0,0,1,226.41,188.86Z"/><path class="cls-28" d="M225.71,187.59a6.25,6.25,0,0,1-2.89-.32,3,3,0,0,1-.9-0.5,7.77,7.77,0,0,1,1-.84,7,7,0,0,1,2.73-1.19,3.59,3.59,0,0,1,3.18,1A5.32,5.32,0,0,1,225.71,187.59Z"/><path class="cls-28" d="M223.69,169.78a5.93,5.93,0,0,1-2.77,4s-0.08-.12-0.21-0.33a6.27,6.27,0,0,1-.47-0.89,7.37,7.37,0,0,1-.64-3.18,4.15,4.15,0,0,1,1.09-2.63,4.46,4.46,0,0,1,1.1-.9,5.74,5.74,0,0,1,1.1,1.16A3.83,3.83,0,0,1,223.69,169.78Z"/><path class="cls-28" d="M209.17,163.61a9.23,9.23,0,0,1-3.82.62,6,6,0,0,1-1.62-.26,4.86,4.86,0,0,1,.54-1.53,5.74,5.74,0,0,1,8-2A6.41,6.41,0,0,1,209.17,163.61Z"/><path class="cls-28" d="M228.08,166.22a7.06,7.06,0,0,1,2.42,3.65,4,4,0,0,1,.08,1.6s-0.19,0-.5-0.12-0.74-.23-1.26-0.4a12.2,12.2,0,0,1-3.48-1.91,6.47,6.47,0,0,1-1.9-2.57,7.54,7.54,0,0,1-.42-1.41,5.58,5.58,0,0,1,1.68-.1A6,6,0,0,1,228.08,166.22Z"/><path class="cls-28" d="M211.39,172.66a3.56,3.56,0,0,1-2.29-.42,3.36,3.36,0,0,1-.85-0.65,4.34,4.34,0,0,1,.68-1.06,3.64,3.64,0,0,1,2.31-1.29,2.67,2.67,0,0,1,2.08.72,3.18,3.18,0,0,1,.7.84,8.25,8.25,0,0,1-.81.86A3.69,3.69,0,0,1,211.39,172.66Z"/><path class="cls-28" d="M215.19,175.48a7.67,7.67,0,0,1,.13-3,4.62,4.62,0,0,1,.46-1.19,3.29,3.29,0,0,1,1,.66,3.63,3.63,0,0,1,1.09,2.34,4.37,4.37,0,0,1-.59,2.36,7.4,7.4,0,0,1-.65,1,2.11,2.11,0,0,1-.62-0.51A3,3,0,0,1,215.19,175.48Z"/><path class="cls-28" d="M214,175.3a7.9,7.9,0,0,1-1.71,2.19,2.62,2.62,0,0,1-.74.51,11.18,11.18,0,0,1,0-1.32,8.08,8.08,0,0,1,.54-2.92,3.41,3.41,0,0,1,1.53-1.71,3.18,3.18,0,0,1,1-.31,5,5,0,0,1,.09,1.2A5.26,5.26,0,0,1,214,175.3Z"/><path class="cls-5" d="M207.54,190.54a5.41,5.41,0,0,1,4.59,1.59,9.23,9.23,0,0,1-1,1.12,7.36,7.36,0,0,1-2.94,1.68,3.81,3.81,0,0,1-2.82-.34,4.3,4.3,0,0,1-1.15-.87,6.65,6.65,0,0,1,.85-1.49A4.07,4.07,0,0,1,207.54,190.54Z"/><path class="cls-5" d="M205.24,207.48a10.32,10.32,0,0,1,1.59,3.84,6.56,6.56,0,0,1,.16,1.74,4.91,4.91,0,0,1-1.64-.24,6,6,0,0,1-3.21-2.37,6.34,6.34,0,0,1-.83-1.89,8,8,0,0,1-.17-1.78,6.36,6.36,0,0,1,.28-1.78,6.35,6.35,0,0,1,1.43.49A5.66,5.66,0,0,1,205.24,207.48Z"/><path class="cls-5" d="M203,187.18a8.4,8.4,0,0,1,1.47-2.32,6,6,0,0,1,1.49-1.26,4.19,4.19,0,0,1,1.53-.61,11.05,11.05,0,0,1-.06,1.94,13.61,13.61,0,0,1-1,4.15,7.24,7.24,0,0,1-2,2.75,7.59,7.59,0,0,1-1.26.86,6.15,6.15,0,0,1-.52-1.69A6.6,6.6,0,0,1,203,187.18Z"/><path class="cls-5" d="M213.43,202.84a4.51,4.51,0,0,1,.21,2.65,3.62,3.62,0,0,1-.38,1.09,4.59,4.59,0,0,1-1.23-.5,4.19,4.19,0,0,1-1.85-2.19,3.26,3.26,0,0,1,.13-2.44,4,4,0,0,1,.65-1,6.6,6.6,0,0,1,1,.64A4,4,0,0,1,213.43,202.84Z"/><path class="cls-5" d="M215.2,197.78a6.85,6.85,0,0,1-2.93.78,4.12,4.12,0,0,1-1.27-.14,4.87,4.87,0,0,1,.4-1.23,4.07,4.07,0,0,1,2-1.92,4,4,0,0,1,2.45-.15,6.29,6.29,0,0,1,1.16.37,2.89,2.89,0,0,1-.36.86A3.41,3.41,0,0,1,215.2,197.78Z"/><path class="cls-5" d="M215.31,199.14c2.53,0.77,3.22,2,3.22,2a8.61,8.61,0,0,1-1.25.43,6.93,6.93,0,0,1-3,.2,3.3,3.3,0,0,1-2-1.21,3,3,0,0,1-.56-1,5,5,0,0,1,1.14-.45A4.61,4.61,0,0,1,215.31,199.14Z"/><path class="cls-5" d="M212.06,217.8a5.41,5.41,0,0,1,3.89-2.9,9.24,9.24,0,0,1,.34,1.49,7.36,7.36,0,0,1-.26,3.38,3.81,3.81,0,0,1-1.86,2.14,4.3,4.3,0,0,1-1.37.46,6.65,6.65,0,0,1-.75-1.54A4.07,4.07,0,0,1,212.06,217.8Z"/><path class="cls-5" d="M224.78,229.23a10.32,10.32,0,0,1,4.07.85,6.56,6.56,0,0,1,1.52.85,4.91,4.91,0,0,1-1.12,1.22,6,6,0,0,1-3.77,1.32,6.33,6.33,0,0,1-2-.38,8,8,0,0,1-1.57-.86,6.36,6.36,0,0,1-1.31-1.24,6.35,6.35,0,0,1,1.21-.91A5.66,5.66,0,0,1,224.78,229.23Z"/><path class="cls-5" d="M206.71,219.7a8.4,8.4,0,0,1-1.1-2.52,6,6,0,0,1-.2-1.94,4.19,4.19,0,0,1,.36-1.61,11.06,11.06,0,0,1,1.57,1.14,13.62,13.62,0,0,1,2.87,3.16,7.24,7.24,0,0,1,1.14,3.22,7.59,7.59,0,0,1,0,1.52,6.16,6.16,0,0,1-1.69-.52A6.6,6.6,0,0,1,206.71,219.7Z"/><path class="cls-5" d="M225.54,219.85a4.51,4.51,0,0,1,2.31,1.32,3.62,3.62,0,0,1,.69.93,4.59,4.59,0,0,1-1.1.73,4.19,4.19,0,0,1-2.85.3,3.26,3.26,0,0,1-1.94-1.48,4,4,0,0,1-.46-1.09,6.6,6.6,0,0,1,1.11-.5A4,4,0,0,1,225.54,219.85Z"/><path class="cls-5" d="M222.35,215.54a6.85,6.85,0,0,1-1,2.86,4.12,4.12,0,0,1-.83,1,4.86,4.86,0,0,1-.79-1,4.07,4.07,0,0,1-.46-2.74,4,4,0,0,1,1.26-2.11,6.29,6.29,0,0,1,1-.75,2.89,2.89,0,0,1,.51.78A3.41,3.41,0,0,1,222.35,215.54Z"/><path class="cls-5" d="M223.54,216.2c2.05-1.66,3.47-1.53,3.47-1.53a8.6,8.6,0,0,1-.35,1.27,6.93,6.93,0,0,1-1.5,2.57,3.29,3.29,0,0,1-2.15,1,3,3,0,0,1-1.12-.08,5,5,0,0,1,.27-1.2A4.61,4.61,0,0,1,223.54,216.2Z"/><path class="cls-5" d="M246.34,236.56a4.84,4.84,0,0,1-3.45.63,3.59,3.59,0,0,1-1.41-.64,6.91,6.91,0,0,1,.7-1.94,5.46,5.46,0,0,1,2.74-2.66,3.53,3.53,0,0,1,2.83.23,6.32,6.32,0,0,1,1.22.76,10.57,10.57,0,0,1-.65,1.41A5.52,5.52,0,0,1,246.34,236.56Z"/><path class="cls-5" d="M252.63,221.05a5.48,5.48,0,0,1,2.12-3.16,5,5,0,0,1,1.43-.67,8.2,8.2,0,0,1,.46,1.54,8.56,8.56,0,0,1,.16,1.52,5.58,5.58,0,0,1-.18,1.74,3,3,0,0,1-.6,1.28,3.84,3.84,0,0,1-.83.91,7.21,7.21,0,0,1-1.1.77,5.35,5.35,0,0,1-.92-1.12A3.75,3.75,0,0,1,252.63,221.05Z"/><path class="cls-5" d="M251.84,237.65a9,9,0,0,1-.18,1.92,9.51,9.51,0,0,1-.48,1.41,5,5,0,0,1-.77,1.22,6.33,6.33,0,0,1-1.21-1.15,6.05,6.05,0,0,1-1.29-3.58,4.87,4.87,0,0,1,.35-1.7,4.92,4.92,0,0,1,.79-1.17,3.58,3.58,0,0,1,1.1-.86A14.51,14.51,0,0,1,251,235,5.85,5.85,0,0,1,251.84,237.65Z"/><path class="cls-5" d="M243,219.82a8.91,8.91,0,0,1,2.57-3.75,5.91,5.91,0,0,1,1.49-.89,7.56,7.56,0,0,1,.09,1.63,12.82,12.82,0,0,1-.16,1.72,14.86,14.86,0,0,1-.56,2.07,8.5,8.5,0,0,1-1.81,2.82,7.21,7.21,0,0,1-1.13,1,5.1,5.1,0,0,1-.58-1.32A5.46,5.46,0,0,1,243,219.82Z"/><path class="cls-5" d="M238.17,227.9a4.13,4.13,0,0,1,3.19-1,2.86,2.86,0,0,1,1.21.44,10.53,10.53,0,0,1-.73,1.73,11.06,11.06,0,0,1-2.2,3.19,3.35,3.35,0,0,1-2.49,1,2.9,2.9,0,0,1-1.18-.3,12.87,12.87,0,0,1,.38-2A6.33,6.33,0,0,1,238.17,227.9Z"/><path class="cls-5" d="M238.64,225.28a5.24,5.24,0,0,1-1.54-3.46,8.44,8.44,0,0,1,0-1.4,3.62,3.62,0,0,1,.08-0.56,4.31,4.31,0,0,1,1.51-.22,3.52,3.52,0,0,1,2.67,1.32,5.38,5.38,0,0,1,1,2.85,15.46,15.46,0,0,1,0,1.63,5.61,5.61,0,0,1-1.31.39A2.73,2.73,0,0,1,238.64,225.28Z"/><path class="cls-5" d="M279.29,177.75a5,5,0,0,1-2.89,2,5.18,5.18,0,0,1-1.46.18,10.31,10.31,0,0,1-.08-1.53,7.7,7.7,0,0,1,.8-3.32,3.72,3.72,0,0,1,2.18-1.82,4.18,4.18,0,0,1,1.44-.22,6.83,6.83,0,0,1,.52,1.7A4.11,4.11,0,0,1,279.29,177.75Z"/><path class="cls-5" d="M267.93,164.3A11.94,11.94,0,0,1,263.8,163a7.17,7.17,0,0,1-1.53-1,4.76,4.76,0,0,1,1.24-1.13,6.14,6.14,0,0,1,4-1,6.9,6.9,0,0,1,2.09.61,8.69,8.69,0,0,1,1.56,1.06,6.59,6.59,0,0,1,1.24,1.42,6.35,6.35,0,0,1-1.33.75A6,6,0,0,1,267.93,164.3Z"/><path class="cls-5" d="M284.93,176.94a8.76,8.76,0,0,1,.63,2.82,6.16,6.16,0,0,1-.18,2,4.27,4.27,0,0,1-.68,1.56,12.28,12.28,0,0,1-1.31-1.53,16.17,16.17,0,0,1-2.24-3.83,6.75,6.75,0,0,1-.52-1.9,7.15,7.15,0,0,1-.08-1.58,8.29,8.29,0,0,1,.23-1.54,6.16,6.16,0,0,1,1.62.86A6.93,6.93,0,0,1,284.93,176.94Z"/><path class="cls-5" d="M266.21,173.57a4.53,4.53,0,0,1-2.14-1.55,3.64,3.64,0,0,1-.59-1,4.48,4.48,0,0,1,1.17-.63,4.12,4.12,0,0,1,2.89,0,3.27,3.27,0,0,1,1.78,1.72,4,4,0,0,1,.32,1.15,6.79,6.79,0,0,1-1.17.34A4,4,0,0,1,266.21,173.57Z"/><path class="cls-5" d="M268.75,178.22a7.07,7.07,0,0,1,1.42-2.68,4.09,4.09,0,0,1,1-.84,4.93,4.93,0,0,1,.63,1.13,3.74,3.74,0,0,1-1.57,4.65,6.52,6.52,0,0,1-1.07.58,2.67,2.67,0,0,1-.36-0.83A3.42,3.42,0,0,1,268.75,178.22Z"/><path class="cls-5" d="M267.69,177.41c-2.26,1.36-3.59,1.1-3.59,1.1a9.33,9.33,0,0,1,.51-1.21,7.1,7.1,0,0,1,1.81-2.36,3.23,3.23,0,0,1,2.26-.73,2.87,2.87,0,0,1,1.1.24,4.85,4.85,0,0,1-.43,1.15A4.64,4.64,0,0,1,267.69,177.41Z"/><path class="cls-28" d="M299.22,233.55a7.15,7.15,0,0,1,2.87,2,5.06,5.06,0,0,1,.81,1.21,4.19,4.19,0,0,1-1.27.44,5.27,5.27,0,0,1-3.05-.3,6.07,6.07,0,0,1-2.88-3A4.3,4.3,0,0,1,299.22,233.55Z"/><path class="cls-28" d="M290.17,240.66a3.21,3.21,0,0,1-1.71,2,3,3,0,0,1-1.13.3,6.54,6.54,0,0,1-.59-4.3,2.27,2.27,0,0,1,1.45-1.47,3.84,3.84,0,0,1,1.07-.25S290.69,239.08,290.17,240.66Z"/><path class="cls-28" d="M295.66,229.32a4,4,0,0,1,2.47-1.21,4.15,4.15,0,0,1,1.28,0,5.18,5.18,0,0,1,.08,1.36,3.94,3.94,0,0,1-1,2.53,2.88,2.88,0,0,1-2.16.81,4.62,4.62,0,0,1-1.22-.17S294.57,230.46,295.66,229.32Z"/><path class="cls-28" d="M298.07,245.42a3.51,3.51,0,0,1-2,1.57,3.11,3.11,0,0,1-1.11.13,5.15,5.15,0,0,1,.4-3.73,3.22,3.22,0,0,1,2.74-1.24S298.91,244.11,298.07,245.42Z"/><path class="cls-28" d="M302.95,243a5.51,5.51,0,0,1-3.65-2.12,4.57,4.57,0,0,1,3.55-1,5.11,5.11,0,0,1,3.07,1.93A3.57,3.57,0,0,1,302.95,243Z"/><path class="cls-28" d="M302.12,244.2a4.47,4.47,0,0,1,.61,4,6.58,6.58,0,0,1-3.28-2.74,4,4,0,0,1-.3-3.32A5.53,5.53,0,0,1,302.12,244.2Z"/><path class="cls-28" d="M285.15,247.23a7.15,7.15,0,0,1,2.41,2.51,5.06,5.06,0,0,1,.55,1.34,4.2,4.2,0,0,1-1.33.17,5.28,5.28,0,0,1-2.93-.92,6.07,6.07,0,0,1-2.22-3.51A4.3,4.3,0,0,1,285.15,247.23Z"/><path class="cls-28" d="M274.84,252.36a3.2,3.2,0,0,1-2.09,1.64,3,3,0,0,1-1.17.06,6.55,6.55,0,0,1,.29-4.33,2.26,2.26,0,0,1,1.72-1.14,3.85,3.85,0,0,1,1.1,0S275.67,250.91,274.84,252.36Z"/><path class="cls-28" d="M282.53,242.36a4,4,0,0,1,2.67-.68,4.15,4.15,0,0,1,1.25.3,5.19,5.19,0,0,1-.2,1.35,4,4,0,0,1-1.53,2.27,2.88,2.88,0,0,1-2.28.35,4.62,4.62,0,0,1-1.16-.41S281.22,243.27,282.53,242.36Z"/><path class="cls-28" d="M281.61,258.62a3.51,3.51,0,0,1-2.31,1.13,3.11,3.11,0,0,1-1.11-.09,5.16,5.16,0,0,1,1.15-3.57,3.22,3.22,0,0,1,2.94-.66S282.7,257.51,281.61,258.62Z"/><path class="cls-28" d="M286.88,257.25a5.52,5.52,0,0,1-3.15-2.82,4.57,4.57,0,0,1,3.68-.23,5.11,5.11,0,0,1,2.61,2.51A3.57,3.57,0,0,1,286.88,257.25Z"/><path class="cls-28" d="M285.82,258.25a4.47,4.47,0,0,1-.21,4,6.57,6.57,0,0,1-2.66-3.35,4,4,0,0,1,.38-3.32A5.53,5.53,0,0,1,285.82,258.25Z"/><path class="cls-5" d="M232.87,253a5.09,5.09,0,0,1-1.53,4.61,6.64,6.64,0,0,1-2.78-4.2,4.57,4.57,0,0,1,1.64-3.82S232.57,250.88,232.87,253Z"/><path class="cls-5" d="M218.23,246.66a6,6,0,0,1-4.88-1.7,6.39,6.39,0,0,1,4.38-2.42,5.39,5.39,0,0,1,4,1.77A5.24,5.24,0,0,1,218.23,246.66Z"/><path class="cls-5" d="M235.82,248.18a5.9,5.9,0,0,1,3.82,3.5,8,8,0,0,1-5.42.07,5.13,5.13,0,0,1-3-3.19A6.55,6.55,0,0,1,235.82,248.18Z"/><path class="cls-5" d="M218.66,256.11a5.42,5.42,0,0,1-4-2.21,6.07,6.07,0,0,1,4.3-1.21,4.78,4.78,0,0,1,3.23,2.12A4.92,4.92,0,0,1,218.66,256.11Z"/><path class="cls-5" d="M224.34,259.79a4.65,4.65,0,0,1,.08-4.3,6.27,6.27,0,0,1,3.27,3.09,4.1,4.1,0,0,1-.37,3.63A5.19,5.19,0,0,1,224.34,259.79Z"/><path class="cls-5" d="M222.55,259.45a5,5,0,0,1-3.83,2.17,5.43,5.43,0,0,1,.83-4.2,4.52,4.52,0,0,1,3.41-1.6A4.48,4.48,0,0,1,222.55,259.45Z"/><path class="cls-28" d="M263.09,190.33a6.81,6.81,0,0,1-3.95,2.83A5.35,5.35,0,0,1,260,189a6,6,0,0,1,3.49-2.23A4.13,4.13,0,0,1,263.09,190.33Z"/><path class="cls-28" d="M257.37,180.15a3.44,3.44,0,0,1-2.25-3,6.07,6.07,0,0,1,4.4-.32,3.14,3.14,0,0,1,1.66,2.84S258.94,180.8,257.37,180.15Z"/><path class="cls-28" d="M268.08,187.94a4.19,4.19,0,0,1,.23,4.1,5.19,5.19,0,0,1-3.57-2.09,4,4,0,0,1,.08-3.53S267.17,186.47,268.08,187.94Z"/><path class="cls-28" d="M251.86,187.52a3.13,3.13,0,0,1-1.24-3,4.64,4.64,0,0,1,3.57.55,2.85,2.85,0,0,1,.8,2.74S253,188.36,251.86,187.52Z"/><path class="cls-28" d="M253.23,192.26a6.25,6.25,0,0,1,2.77-3.18,3.94,3.94,0,0,1,.15,3.48,5.56,5.56,0,0,1-2.56,2.55A3.1,3.1,0,0,1,253.23,192.26Z"/><path class="cls-28" d="M252.29,191.38c-2.41,1.08-3.82.31-3.82,0.31a7.49,7.49,0,0,1,3.15-2.88,3.7,3.7,0,0,1,3.21,0A5.94,5.94,0,0,1,252.29,191.38Z"/><path class="cls-28" d="M250.82,174.94a6.81,6.81,0,0,1-3.72,3.12,5.35,5.35,0,0,1,.56-4.2,6,6,0,0,1,3.31-2.49A4.13,4.13,0,0,1,250.82,174.94Z"/><path class="cls-28" d="M244.33,165.24a3.44,3.44,0,0,1-2.48-2.86,6.07,6.07,0,0,1,4.37-.66,3.14,3.14,0,0,1,1.87,2.71S245.95,165.76,244.33,165.24Z"/><path class="cls-28" d="M255.61,172.18a4.19,4.19,0,0,1,.54,4.07,5.19,5.19,0,0,1-3.72-1.81,4,4,0,0,1-.19-3.52S254.59,170.78,255.61,172.18Z"/><path class="cls-28" d="M239.41,173a3.13,3.13,0,0,1-1.47-2.93,4.64,4.64,0,0,1,3.6.28,2.85,2.85,0,0,1,1,2.67S240.6,173.76,239.41,173Z"/><path class="cls-28" d="M241.13,177.63a6.25,6.25,0,0,1,2.52-3.38,3.94,3.94,0,0,1,.42,3.46,5.56,5.56,0,0,1-2.36,2.74A3.1,3.1,0,0,1,241.13,177.63Z"/><path class="cls-28" d="M240.13,176.82c-2.32,1.26-3.78.6-3.78,0.6a7.49,7.49,0,0,1,2.92-3.11,3.7,3.7,0,0,1,3.2-.25A5.94,5.94,0,0,1,240.13,176.82Z"/><path class="cls-5" d="M272.39,157.58a5.55,5.55,0,0,1,1-3.35,3.34,3.34,0,0,1,1.14-1s0.17,0.14.41,0.38a5.51,5.51,0,0,1,.87,1.06,4.88,4.88,0,0,1,.82,3.53,4,4,0,0,1-1.59,2.34,7.08,7.08,0,0,1-1.19.76,3.77,3.77,0,0,1-.23-0.31c-0.13-.21-0.31-0.48-0.5-0.8A5.38,5.38,0,0,1,272.39,157.58Z"/><path class="cls-5" d="M281.52,169.35a5.12,5.12,0,0,1,1.76,3.14,4.44,4.44,0,0,1,0,1.54,7.28,7.28,0,0,1-1.57-.23,7,7,0,0,1-2.92-1.47,3.6,3.6,0,0,1-1.19-2.17,4.64,4.64,0,0,1-.09-1.27,5.48,5.48,0,0,1,1.4-.28A3.62,3.62,0,0,1,281.52,169.35Z"/><path class="cls-5" d="M269.32,162.19a4.56,4.56,0,0,1-1.83-1.65,5.78,5.78,0,0,1-.61-1.11,4.46,4.46,0,0,1,1.14-.79,3.62,3.62,0,0,1,3,0,2.6,2.6,0,0,1,1.08.93,3,3,0,0,1,.49,1.12,3.65,3.65,0,0,1,.09,1.27l-0.37.1a7.61,7.61,0,0,1-.9.19A3.67,3.67,0,0,1,269.32,162.19Z"/><path class="cls-5" d="M287.42,161.81a7.35,7.35,0,0,1,1.83,3.68,4.35,4.35,0,0,1,0,1.58,7.56,7.56,0,0,1-1.43-.58,9,9,0,0,1-2.8-2.17,6.71,6.71,0,0,1-1.41-2.7,10.2,10.2,0,0,1-.25-1.4,4.49,4.49,0,0,1,1.38.09A4.83,4.83,0,0,1,287.42,161.81Z"/><path class="cls-5" d="M283.3,154.16a4.08,4.08,0,0,1-.78,3.2,3.06,3.06,0,0,1-1,.83,9.49,9.49,0,0,1-1-1.39,10.8,10.8,0,0,1-1.52-3.33,3.51,3.51,0,0,1,.34-2.63,3,3,0,0,1,.82-0.91,3.81,3.81,0,0,1,.46.33,12.33,12.33,0,0,1,1,.92A5.57,5.57,0,0,1,283.3,154.16Z"/><path class="cls-5" d="M285.21,155.74a5.05,5.05,0,0,1,3.63.24,5.65,5.65,0,0,1,1.14.63,5.06,5.06,0,0,1,.41.32,4.24,4.24,0,0,1-.59,1.35,3.84,3.84,0,0,1-2.46,1.67,4.91,4.91,0,0,1-2.83-.43,7.27,7.27,0,0,1-1.33-.71,5.61,5.61,0,0,1,.35-1.28A2.92,2.92,0,0,1,285.21,155.74Z"/><path class="cls-5" d="M286.49,179.55a5.1,5.1,0,0,1,3.34-1,3.88,3.88,0,0,1,1.48.39,8.25,8.25,0,0,1-.46,1.83,5.5,5.5,0,0,1-2.29,2.83,3.78,3.78,0,0,1-2.83.27,6.29,6.29,0,0,1-1.33-.51,6.82,6.82,0,0,1,.42-1.44A4.85,4.85,0,0,1,286.49,179.55Z"/><path class="cls-5" d="M283.86,195.32a5.34,5.34,0,0,1-.83,3.57,4.67,4.67,0,0,1-1,1.13,7.48,7.48,0,0,1-1-1.23,6.87,6.87,0,0,1-1.18-3.06,4.12,4.12,0,0,1,.65-2.57,5.93,5.93,0,0,1,.83-1.06S283.6,193.14,283.86,195.32Z"/><path class="cls-5" d="M280.9,179.13a6.9,6.9,0,0,1,.38-3.43,5.52,5.52,0,0,1,.7-1.25,5.15,5.15,0,0,1,1.26,1.07,6,6,0,0,1,1.56,3.35,4.19,4.19,0,0,1-.74,2.9,4.25,4.25,0,0,1-1,1,11.4,11.4,0,0,1-1-1.08A5.35,5.35,0,0,1,280.9,179.13Z"/><path class="cls-5" d="M293.33,193.89a7.38,7.38,0,0,1-.42,2.28,5.94,5.94,0,0,1-.77,1.57,5,5,0,0,1-1,1.16,6.86,6.86,0,0,1-.68-1.38,8.65,8.65,0,0,1-.55-3.47,6.74,6.74,0,0,1,1.72-4,5,5,0,0,1,.89,1A4.73,4.73,0,0,1,293.33,193.89Z"/><path class="cls-5" d="M296,186a4.37,4.37,0,0,1-2.9,1.48,3.15,3.15,0,0,1-1.27-.15,10.22,10.22,0,0,1,1.93-4.82,3.45,3.45,0,0,1,2.29-1.25,3.32,3.32,0,0,1,1.22.08,10,10,0,0,1-.06,1.74A5.52,5.52,0,0,1,296,186Z"/><path class="cls-5" d="M296.08,188.3a5.19,5.19,0,0,1,2.35,2.63,6.32,6.32,0,0,1,.43,1.67,4.33,4.33,0,0,1-1.36.5,4,4,0,0,1-2.93-.54,4.52,4.52,0,0,1-1.7-2.25,7.83,7.83,0,0,1-.43-1.42,5.58,5.58,0,0,1,1.18-.6A3,3,0,0,1,296.08,188.3Z"/><path class="cls-5" d="M238,153.06a7,7,0,0,1,1.54-4.6,5.33,5.33,0,0,1,1.63,3.85,6.15,6.15,0,0,1-1.49,3.87A4,4,0,0,1,238,153.06Z"/><path class="cls-5" d="M248.37,157.76a3.31,3.31,0,0,1,3.55,1,6,6,0,0,1-3.25,2.94,3,3,0,0,1-3-1.25S246.77,158.19,248.37,157.76Z"/><path class="cls-5" d="M235.37,157.92a4.09,4.09,0,0,1-2.51-3.18,5.07,5.07,0,0,1,4-.4c1.65,0.68,1.95,2.89,1.95,2.89S237,158.57,235.37,157.92Z"/><path class="cls-5" d="M248.41,148.58a3,3,0,0,1,2.69,1.64A4.51,4.51,0,0,1,248,152a2.7,2.7,0,0,1-2.19-1.69S247.06,148.59,248.41,148.58Z"/><path class="cls-5" d="M244.68,145.64a6.52,6.52,0,0,1-.37,4.19,3.74,3.74,0,0,1-2.07-2.68,5.77,5.77,0,0,1,.59-3.56A2.91,2.91,0,0,1,244.68,145.64Z"/><path class="cls-5" d="M245.9,145.78c1.27-2.31,2.78-2.56,2.78-2.56a7.86,7.86,0,0,1-.81,4.19,3.64,3.64,0,0,1-2.49,1.94A6.17,6.17,0,0,1,245.9,145.78Z"/><path class="cls-28" d="M256.22,140.87a6.16,6.16,0,0,1,0-3.49,4.41,4.41,0,0,1,.63-1.33,5.29,5.29,0,0,1,1.29.84,5.24,5.24,0,0,1,1.74,2.78,4.55,4.55,0,0,1-.33,2.82,6.18,6.18,0,0,1-.68,1.21A5,5,0,0,1,256.22,140.87Z"/><path class="cls-28" d="M268.83,145.32a4.19,4.19,0,0,1,3,.71,3.63,3.63,0,0,1,.93.94,7.41,7.41,0,0,1-1.1,1.08,5.72,5.72,0,0,1-2.78,1.29,3,3,0,0,1-2.24-.66,4.56,4.56,0,0,1-.86-0.85S267,145.56,268.83,145.32Z"/><path class="cls-28" d="M254.56,146.17a5,5,0,0,1-2.75-1.35,4.25,4.25,0,0,1-.82-1.07,5.71,5.71,0,0,1,1.22-.85,5,5,0,0,1,3.09-.56,4,4,0,0,1,2.81,2.52,7.2,7.2,0,0,1-1.12.76A3.91,3.91,0,0,1,254.56,146.17Z"/><path class="cls-28" d="M268.73,136a5,5,0,0,1,2.88,1.17,3.76,3.76,0,0,1,.82,1,6.14,6.14,0,0,1-4,1.26,4.34,4.34,0,0,1-3-1.9A4.41,4.41,0,0,1,268.73,136Z"/><path class="cls-28" d="M263.07,132.75a5,5,0,0,1,.63,3,4,4,0,0,1-.33,1.23A6.09,6.09,0,0,1,260,134.4a4.34,4.34,0,0,1-.17-3.65A4.79,4.79,0,0,1,263.07,132.75Z"/><path class="cls-28" d="M264.84,132.9a4.78,4.78,0,0,1,3.67-2.42,5.08,5.08,0,0,1,.18,1.38,5.18,5.18,0,0,1-.83,2.86,4.57,4.57,0,0,1-3.16,1.83A4.72,4.72,0,0,1,264.84,132.9Z"/><path class="cls-5" d="M258.89,155.78a8.68,8.68,0,0,1,2.76-2.11,5.39,5.39,0,0,1,1.36-.46,3.48,3.48,0,0,1,0,1.21,5,5,0,0,1-1.4,2.57,6.43,6.43,0,0,1-2.44,1.45,8.53,8.53,0,0,1-1.3.35A4,4,0,0,1,258.89,155.78Z"/><path class="cls-5" d="M261.29,164.72a2.07,2.07,0,0,1,.92,1.9,2.21,2.21,0,0,1-.32.93s-2.6.1-4-.84a1.31,1.31,0,0,1-.54-1.41,3,3,0,0,1,.3-0.84S260.15,163.87,261.29,164.72Z"/><path class="cls-5" d="M253.93,158.14a2.89,2.89,0,0,1-.12-2.18,4.68,4.68,0,0,1,.47-1.08,4.35,4.35,0,0,1,1.19.08,2.62,2.62,0,0,1,1.82,1.23,2.18,2.18,0,0,1-.12,1.94,4.48,4.48,0,0,1-.63,1,6.71,6.71,0,0,1-1.12-.1A2.06,2.06,0,0,1,253.93,158.14Z"/><path class="cls-5" d="M269,159.81a2.89,2.89,0,0,1,.52,2.26,2.8,2.8,0,0,1-.39,1,5.12,5.12,0,0,1-3.11-1.6,2.09,2.09,0,0,1-.27-1.75,3.72,3.72,0,0,1,.34-0.92S268.15,158.65,269,159.81Z"/><path class="cls-5" d="M268.74,154.79a5.85,5.85,0,0,1-2.15,2.08,5.38,5.38,0,0,1-1.17.51,4.17,4.17,0,0,1,.46-3.36,5,5,0,0,1,1.75-1.73,5.57,5.57,0,0,1,1.09-.52A3.17,3.17,0,0,1,268.74,154.79Z"/><path class="cls-5" d="M269.52,155.89a4.2,4.2,0,0,1,3.87.8,5.82,5.82,0,0,1-1,.86,6.76,6.76,0,0,1-2.77,1.08,4,4,0,0,1-3.1-.78,7,7,0,0,1,.86-0.83A5.11,5.11,0,0,1,269.52,155.89Z"/><path class="cls-5" d="M232.83,132.86a5.2,5.2,0,0,1,1.75,3,3.92,3.92,0,0,1,0,1.51,6.75,6.75,0,0,1-1.82,0,5.74,5.74,0,0,1-3.27-1.5,3.71,3.71,0,0,1-1-2.64,5.56,5.56,0,0,1,.15-1.43,7.8,7.8,0,0,1,1.56,0A4.72,4.72,0,0,1,232.83,132.86Z"/><path class="cls-5" d="M215.9,136.88A10.91,10.91,0,0,1,212,139a7.47,7.47,0,0,1-1.86.38,5.05,5.05,0,0,1,.17-1.69,6.83,6.83,0,0,1,2.21-3.51,6.68,6.68,0,0,1,1.8-1.07,8.17,8.17,0,0,1,1.71-.43,6.72,6.72,0,0,1,1.76,0A5.7,5.7,0,0,1,215.9,136.88Z"/><path class="cls-5" d="M232,127.34a6.93,6.93,0,0,1,1.86-.42,6.33,6.33,0,0,1,1.43.08,4.68,4.68,0,0,1,1.32.44,5.86,5.86,0,0,1-.67,1.42,5.77,5.77,0,0,1-2.8,2.22,4.49,4.49,0,0,1-3,0,4.82,4.82,0,0,1-1.25-.65A7.09,7.09,0,0,1,232,127.34Z"/><path class="cls-5" d="M222.3,144a6.76,6.76,0,0,1-3.27.91,4.43,4.43,0,0,1-1.35-.15,5.18,5.18,0,0,1,.5-1.35,5.79,5.79,0,0,1,2.32-2.35,5.23,5.23,0,0,1,4.14-.25A5.42,5.42,0,0,1,222.3,144Z"/><path class="cls-5" d="M229.54,143.61a4.29,4.29,0,0,1-2.5-3.54,7.73,7.73,0,0,1,4.87.49,3.73,3.73,0,0,1,2,3.11,8.3,8.3,0,0,1-1.52.34A4.8,4.8,0,0,1,229.54,143.61Z"/><path class="cls-5" d="M227.69,144.41a5.38,5.38,0,0,1-2.09,4,5.32,5.32,0,0,1-1.77-3.9,4.65,4.65,0,0,1,2.07-3.32A4.21,4.21,0,0,1,227.69,144.41Z"/><path class="cls-5" d="M217,162.63a9,9,0,0,1,1.81-3,7.49,7.49,0,0,1,1-1,5.41,5.41,0,0,1,0,3.81,6.73,6.73,0,0,1-1.43,2.45,6.52,6.52,0,0,1-1,.91A3.48,3.48,0,0,1,217,162.63Z"/><path class="cls-5" d="M224.38,168.64a2.54,2.54,0,0,1,2.85,1.28s-1.31,2.29-3.29,2.63a2,2,0,0,1-1.86-.69,3.09,3.09,0,0,1-.58-0.89S222.95,168.91,224.38,168.64Z"/><path class="cls-5" d="M213.14,166.53a3.28,3.28,0,0,1-1.12-2.36,3.69,3.69,0,0,1,.14-1.23,5.6,5.6,0,0,1,1.27-.12,3.43,3.43,0,0,1,2.25.75c1.12,1,.7,3.11.7,3.11a4.76,4.76,0,0,1-1.17.31A2.59,2.59,0,0,1,213.14,166.53Z"/><path class="cls-5" d="M226.43,159.81a1.57,1.57,0,0,1,1.33.9,2.61,2.61,0,0,1,.28.82s-1.33,1.61-2.72,1.47c-1.18-.12-1.26-1.81-1.26-1.81S225.45,159.73,226.43,159.81Z"/><path class="cls-5" d="M224.59,156.76a9.63,9.63,0,0,1-.9,2.78,7.07,7.07,0,0,1-.66,1.09,2.69,2.69,0,0,1-.7-2.74A7.85,7.85,0,0,1,224,154.7,2,2,0,0,1,224.59,156.76Z"/><path class="cls-5" d="M225.41,157c1.6-2,2.65-2.22,2.65-2.22a11.64,11.64,0,0,1-.38,1.24,11.1,11.1,0,0,1-1.34,2.65,3.38,3.38,0,0,1-2.37,1.63,7.39,7.39,0,0,1,.3-1.13A7.59,7.59,0,0,1,225.41,157Z"/><path class="cls-5" d="M243.2,117.34a12.92,12.92,0,0,1-3.37.81,7.64,7.64,0,0,1-1.41,0s0.53-1.35,2.88-2.15a9.6,9.6,0,0,1,2.8-.45,12,12,0,0,1,1.32,0A3.72,3.72,0,0,1,243.2,117.34Z"/><path class="cls-5" d="M244.28,111.15a1,1,0,0,1-.34-1.39,1.63,1.63,0,0,1,.55-0.53,9.88,9.88,0,0,1,3.58,1.3,0.64,0.64,0,0,1,.09,1,2.43,2.43,0,0,1-.55.48S245.11,111.9,244.28,111.15Z"/><path class="cls-5" d="M248.63,116.82c0,1.13-1.81,2.07-1.81,2.07a4.37,4.37,0,0,1-1-.3,1.53,1.53,0,0,1-1-1.18c0-1,1.9-1.73,1.9-1.73S248.61,116.05,248.63,116.82Z"/><path class="cls-5" d="M235.43,112.78a1.69,1.69,0,0,1,.88-2.08s2,0.58,2.47,1.61c0.42,0.87-1,1.68-1,1.68S235.83,113.68,235.43,112.78Z"/><path class="cls-5" d="M233.86,116a8.14,8.14,0,0,1,2.77-.91,8.06,8.06,0,0,1,1.27-.1s0,1.07-1.74,2.06a8.32,8.32,0,0,1-3.49.88A2,2,0,0,1,233.86,116Z"/><path class="cls-5" d="M233.56,115.17c-2.6-.17-3.32-1.26-3.32-1.26a10.15,10.15,0,0,1,4.24-.5,3.91,3.91,0,0,1,2.63,1.1A8.8,8.8,0,0,1,233.56,115.17Z"/><path class="cls-5" d="M238.88,204a10.17,10.17,0,0,1,0,3.47,8,8,0,0,1-.35,1.37,5.23,5.23,0,0,1-1.73-3.27,8.24,8.24,0,0,1,.35-4.12A3.38,3.38,0,0,1,238.88,204Z"/><path class="cls-5" d="M230.64,202.35a2,2,0,0,1-1.9.53,2.2,2.2,0,0,1-.83-0.44s0.11-2.61,1.48-3.79c1.16-1,2.48.31,2.48,0.31S231.65,201.46,230.64,202.35Z"/><path class="cls-5" d="M240,198.61a3.27,3.27,0,0,1,2.35,2.46s-1.37,1.67-2.9,1.4c-1.29-.23-1.91-2.27-1.91-2.27S238.71,198.38,240,198.61Z"/><path class="cls-5" d="M232.78,211.13c-1.22.58-2.06-.79-2.06-0.79s0.4-2,1.56-2.55c1-.44,1.79,1,1.79,1S233.62,210.74,232.78,211.13Z"/><path class="cls-5" d="M235.67,212.91a9.91,9.91,0,0,1-.52-4.13s1.17,0.14,1.82,2a8.47,8.47,0,0,1,.18,3.59A1.84,1.84,0,0,1,235.67,212.91Z"/><path class="cls-5" d="M234.89,213.11c-0.36,2.57-1.18,3.23-1.18,3.23a12.27,12.27,0,0,1-.35-4.25,3.5,3.5,0,0,1,1.18-2.57A8.94,8.94,0,0,1,234.89,213.11Z"/><path class="cls-5" d="M195.45,202.59a5.45,5.45,0,0,1,3.18,3.67,6,6,0,0,1-4.83,0,5,5,0,0,1-2.39-3.4A5.18,5.18,0,0,1,195.45,202.59Z"/><path class="cls-5" d="M183.23,210.3a4.81,4.81,0,0,1-3.91,2.51,6.51,6.51,0,0,1,.48-4.71,4.36,4.36,0,0,1,3.39-1.88S184.24,208.56,183.23,210.3Z"/><path class="cls-5" d="M192.72,197.73a5.3,5.3,0,0,1,4.52-1.23,6.48,6.48,0,0,1-2.22,4.38,4.43,4.43,0,0,1-4,.63A5.68,5.68,0,0,1,192.72,197.73Z"/><path class="cls-5" d="M190.93,215.67a4.85,4.85,0,0,1-4,1.76,6,6,0,0,1,1.42-4.05,4.45,4.45,0,0,1,3.41-1.28A4.61,4.61,0,0,1,190.93,215.67Z"/><path class="cls-5" d="M197,213.2a4.72,4.72,0,0,1-3.5-2.46,6,6,0,0,1,4.21-.94,4.27,4.27,0,0,1,2.87,2.25A4.86,4.86,0,0,1,197,213.2Z"/><path class="cls-5" d="M195.77,214.48a4.86,4.86,0,0,1-.33,4.35,5.52,5.52,0,0,1-3-3.1,4.49,4.49,0,0,1,.53-3.64A4.65,4.65,0,0,1,195.77,214.48Z"/><path class="cls-28" d="M251.79,211.89a12.74,12.74,0,0,1,2.58-2.33,5.86,5.86,0,0,1,1.26-.65,2.53,2.53,0,0,1-.06,1.06,4.61,4.61,0,0,1-1.47,2.33,9.38,9.38,0,0,1-2.41,1.49c-0.71.32-1.21,0.51-1.21,0.51A4.76,4.76,0,0,1,251.79,211.89Z"/><path class="cls-28" d="M252.53,217.7a0.83,0.83,0,0,1,.44,1.18,1.43,1.43,0,0,1-.53.47,29.85,29.85,0,0,1-3.62-.77c-0.89-.28.34-0.93,0.33-1S251.62,217.13,252.53,217.7Z"/><path class="cls-28" d="M247.36,215.05a2.11,2.11,0,0,1,.3-1.37c0.22-.51.48-1,0.48-1a3.68,3.68,0,0,1,.89-0.41,1.18,1.18,0,0,1,1.36.3A1.46,1.46,0,0,1,250,214a5.33,5.33,0,0,1-.71.8l-0.93.25A1.11,1.11,0,0,1,247.36,215.05Z"/><path class="cls-28" d="M260.94,214.43a2.21,2.21,0,0,1,.14,2.06,2.41,2.41,0,0,1-.57.79,7.91,7.91,0,0,1-1.1-.42,3.89,3.89,0,0,1-1.64-1.23,1.47,1.47,0,0,1,0-1.43,3.82,3.82,0,0,1,.45-0.77,5,5,0,0,1,1.1.08A2.35,2.35,0,0,1,260.94,214.43Z"/><path class="cls-28" d="M261.14,209.81a5.83,5.83,0,0,1-2.22,2,6.47,6.47,0,0,1-1.18.49,2.22,2.22,0,0,1-.08-0.84,4.8,4.8,0,0,1,.7-2.16,6.09,6.09,0,0,1,2.75-2.35,3.15,3.15,0,0,1,.37.91A2.58,2.58,0,0,1,261.14,209.81Z"/><path class="cls-28" d="M261.86,210.85a3.89,3.89,0,0,1,3.79,1,5.45,5.45,0,0,1-1.11.77,7.14,7.14,0,0,1-2.86.82,4.32,4.32,0,0,1-3-.77,9,9,0,0,1,.92-0.75A5.68,5.68,0,0,1,261.86,210.85Z"/><path class="cls-5" d="M261.08,239.54a6.62,6.62,0,0,1,3.48.25,4.71,4.71,0,0,1,1.29.68,5.4,5.4,0,0,1-3.74,2.52,4.9,4.9,0,0,1-2.79-.49,6.33,6.33,0,0,1-1.18-.71A4.6,4.6,0,0,1,261.08,239.54Z"/><path class="cls-5" d="M256.38,251.08a3.75,3.75,0,0,1-.64,2.81,3.31,3.31,0,0,1-.91.86,6.64,6.64,0,0,1-2.45-3.71,3.23,3.23,0,0,1,1.49-2.92S256.12,249.32,256.38,251.08Z"/><path class="cls-5" d="M255.91,237.57a4.53,4.53,0,0,1,2.68-3.15,5.5,5.5,0,0,1,.75,1.22,4.54,4.54,0,0,1,.34,2.93A3.82,3.82,0,0,1,257,241S255.5,239.22,255.91,237.57Z"/><path class="cls-5" d="M265.65,251.33a4,4,0,0,1-2.07,3.31,5.55,5.55,0,0,1-1.32-3.74,3.71,3.71,0,0,1,1.89-2.65A4.23,4.23,0,0,1,265.65,251.33Z"/><path class="cls-5" d="M268.9,246.36a5.1,5.1,0,0,1-4.25,0,5.21,5.21,0,0,1,2.69-2.88,4.72,4.72,0,0,1,3.64.11A4.12,4.12,0,0,1,268.9,246.36Z"/><path class="cls-5" d="M268.72,248a4.57,4.57,0,0,1,2.39,3.44,6,6,0,0,1-4.2-.8,4.23,4.23,0,0,1-1.8-3A5.1,5.1,0,0,1,268.72,248Z"/><path class="cls-28" d="M201.52,171.74a5,5,0,0,1-3.2-1.43,3.75,3.75,0,0,1-.83-1.28,6.88,6.88,0,0,1,1.58-1.13,5.52,5.52,0,0,1,3.64-.68A3.66,3.66,0,0,1,205,168.9a6,6,0,0,1,.65,1.28,9.17,9.17,0,0,1-1.29.84A5.15,5.15,0,0,1,201.52,171.74Z"/><path class="cls-28" d="M214.35,161.42a5.71,5.71,0,0,1,3.14-2.1,4.93,4.93,0,0,1,1.57-.12,7.41,7.41,0,0,1-.11,1.6,7,7,0,0,1-1.29,3.07,3.39,3.39,0,0,1-1.11,1,4.3,4.3,0,0,1-1.18.51,6.62,6.62,0,0,1-1.35.25,5.55,5.55,0,0,1-.34-1.41A3.9,3.9,0,0,1,214.35,161.42Z"/><path class="cls-28" d="M205.43,175.75a8.43,8.43,0,0,1-1.3,1.53,8,8,0,0,1-1.25.89,4.71,4.71,0,0,1-1.36.52,6.62,6.62,0,0,1-.25-1.67,6.46,6.46,0,0,1,1.05-3.65,4.33,4.33,0,0,1,2.52-1.76,3.88,3.88,0,0,1,1.39-.14,10.86,10.86,0,0,1,0,1.5A5.7,5.7,0,0,1,205.43,175.75Z"/><path class="cls-28" d="M206.31,156.13a8.11,8.11,0,0,1,3.6-2.11,5.34,5.34,0,0,1,1.6-.17,6.88,6.88,0,0,1-.48,1.49,9.41,9.41,0,0,1-2,3,6.92,6.92,0,0,1-2.7,1.6,6.45,6.45,0,0,1-1.41.33A5.26,5.26,0,0,1,206.31,156.13Z"/><path class="cls-28" d="M198.82,160.45a4.29,4.29,0,0,1,3.19.78,3.05,3.05,0,0,1,.84,1,10.86,10.86,0,0,1-4.76,2.45,3.42,3.42,0,0,1-2.57-.55,3.19,3.19,0,0,1-.86-0.87,10.82,10.82,0,0,1,1.24-1.31A5.7,5.7,0,0,1,198.82,160.45Z"/><path class="cls-28" d="M200.35,158.58a5.13,5.13,0,0,1,.09-3.59,6.71,6.71,0,0,1,.84-1.57,4.43,4.43,0,0,1,1.38.54,3.85,3.85,0,0,1,1.8,2.37,4.86,4.86,0,0,1-.31,2.86,10.48,10.48,0,0,1-.67,1.37,5.49,5.49,0,0,1-1.29-.32A2.94,2.94,0,0,1,200.35,158.58Z"/><path class="cls-5" d="M246,202.52a5.64,5.64,0,0,1,2.22-2.7,3.79,3.79,0,0,1,1.41-.52,6.39,6.39,0,0,1,.58,1.7,5,5,0,0,1-.53,3.47,4.15,4.15,0,0,1-2.27,1.7,6.79,6.79,0,0,1-1.35.32,8.16,8.16,0,0,1-.31-1.28A5,5,0,0,1,246,202.52Z"/><path class="cls-5" d="M250.3,215.31a1.73,1.73,0,0,1,.11,2.14,1.07,1.07,0,0,1-.73.37s-0.52-.41-1.18-0.82-1.5-.75-2-1-0.3-.6-0.13-1a6.07,6.07,0,0,1,.43-0.82,6.12,6.12,0,0,1,1.39.07A3.1,3.1,0,0,1,250.3,215.31Z"/><path class="cls-5" d="M241.27,205.5a5.28,5.28,0,0,1-1.27-2.61,4.69,4.69,0,0,1-.08-1.32,4.75,4.75,0,0,1,4.35,1.43,3.26,3.26,0,0,1,.75,2.54,3.84,3.84,0,0,1-.34,1.24,7.89,7.89,0,0,1-1.31-.21A4,4,0,0,1,241.27,205.5Z"/><path class="cls-5" d="M258.55,210.79a6.73,6.73,0,0,1,.37,4.21,4.3,4.3,0,0,1-.67,1.54,13.57,13.57,0,0,1-1-1.21,12.82,12.82,0,0,1-1.76-3,6.54,6.54,0,0,1-.42-2.85,8.24,8.24,0,0,1,.22-1.34,4.56,4.56,0,0,1,1.27.46A4.34,4.34,0,0,1,258.55,210.79Z"/><path class="cls-5" d="M257.17,202.61a4.23,4.23,0,0,1-1.79,2.71,3.26,3.26,0,0,1-1.18.5,9.42,9.42,0,0,1-.49-1.54,8.79,8.79,0,0,1-.23-3.44,3.56,3.56,0,0,1,1.27-2.27,3.34,3.34,0,0,1,1.07-.59,8.86,8.86,0,0,1,.88,1.51A5.17,5.17,0,0,1,257.17,202.61Z"/><path class="cls-5" d="M258.42,204.56a4.88,4.88,0,0,1,3.33,1.22,5.33,5.33,0,0,1,1.17,1.32,4.38,4.38,0,0,1-1,1.09,3.83,3.83,0,0,1-2.86.82,4.88,4.88,0,0,1-2.53-1.19,9.08,9.08,0,0,1-1-1,6,6,0,0,1,.76-1.08A3.08,3.08,0,0,1,258.42,204.56Z"/><path class="cls-5" d="M275,175.78a5,5,0,0,1,3-3.8,7,7,0,0,1,.8,1.47,5.53,5.53,0,0,1,.33,3.44,4.14,4.14,0,0,1-1.68,2.29,5.7,5.7,0,0,1-1.23.68,7.37,7.37,0,0,1-.75-1.24A4.59,4.59,0,0,1,275,175.78Z"/><path class="cls-5" d="M282.42,186.36a1.52,1.52,0,0,1,.56,1.89,1.25,1.25,0,0,1-.62.56s-0.61-.27-1.33-0.53a12.39,12.39,0,0,0-2.17-.52c-0.45-.08-0.37-0.32-0.28-0.7a7.22,7.22,0,0,1,.28-0.75,7.27,7.27,0,0,1,1.33-.34A2.94,2.94,0,0,1,282.42,186.36Z"/><path class="cls-5" d="M270.5,179.17A8.29,8.29,0,0,1,268,175.5a4.43,4.43,0,0,1-.26-1.68s0.2,0,.54.13,0.82,0.24,1.37.44a11.79,11.79,0,0,1,3.66,2,4.74,4.74,0,0,1,1.68,4,6.46,6.46,0,0,1-1.5,0A5.5,5.5,0,0,1,270.5,179.17Z"/><path class="cls-5" d="M289.37,180.1a6.38,6.38,0,0,1,1.37,4,4.21,4.21,0,0,1-.31,1.62,15.49,15.49,0,0,1-3.65-3.28,6.4,6.4,0,0,1-1.11-2.56,7.76,7.76,0,0,1-.16-1.32,4,4,0,0,1,1.34.06A4.2,4.2,0,0,1,289.37,180.1Z"/><path class="cls-5" d="M285.65,172.74a4.38,4.38,0,0,1-.89,3.08,3.42,3.42,0,0,1-1,.85,8.89,8.89,0,0,1-.91-1.25,6.85,6.85,0,0,1-1.06-3.07,4,4,0,0,1,1.6-3.29,6.82,6.82,0,0,1,1,1A4.85,4.85,0,0,1,285.65,172.74Z"/><path class="cls-5" d="M287.4,174.13a4.73,4.73,0,0,1,3.59.2,5.94,5.94,0,0,1,1.56,1,4.1,4.1,0,0,1-.63,1.36,3.8,3.8,0,0,1-2.53,1.57,5.28,5.28,0,0,1-2.77-.44,9.39,9.39,0,0,1-1.27-.64,6.56,6.56,0,0,1,.38-1.25A3.08,3.08,0,0,1,287.4,174.13Z"/><path class="cls-5" d="M222.07,195.8a4.66,4.66,0,0,1,3.07,1.69,4.23,4.23,0,0,1,.74,1.32,8,8,0,0,1-5.17,1.72,3.43,3.43,0,0,1-2.43-1.46,4.72,4.72,0,0,1-.68-1.31S219.9,195.48,222.07,195.8Z"/><path class="cls-5" d="M210.6,211.77c0,0.71-.08,1.44-0.06,2.16a13.3,13.3,0,0,0,.21,2.2,11.66,11.66,0,0,0,1.28,3.65,9.49,9.49,0,0,0,2,2.42,9,9,0,0,0,1,.78,2.91,2.91,0,0,1-.71.11,5.61,5.61,0,0,1-2.25-.37,9.29,9.29,0,0,1-5.61-7.12,10.5,10.5,0,0,1,1.44-7.54,7.6,7.6,0,0,1,1.06-1.31,4.25,4.25,0,0,1,.42-0.36,4.73,4.73,0,0,1,.81,1.34A8.41,8.41,0,0,1,210.6,211.77Z"/><path class="cls-5" d="M218.79,191.15a8.83,8.83,0,0,1,3.72-2.69,4.63,4.63,0,0,1,1.63-.31,10.35,10.35,0,0,1-.47,1.92A11.82,11.82,0,0,1,221.5,194a6.79,6.79,0,0,1-4.45,2.38,7.91,7.91,0,0,1,.16-1.78A7.5,7.5,0,0,1,218.79,191.15Z"/><path class="cls-5" d="M220.34,211.68a5.56,5.56,0,0,1-1.44,2.45,4.38,4.38,0,0,1-.75.51,2,2,0,0,1-.94-0.78,3.52,3.52,0,0,1-.19-3.12,5.46,5.46,0,0,1,3-3.09A5.63,5.63,0,0,1,220.34,211.68Z"/><path class="cls-5" d="M225.52,206.61a5.11,5.11,0,0,1-3.15-.38,3.3,3.3,0,0,1-1-.76,6.81,6.81,0,0,1,4.11-2.61,3.81,3.81,0,0,1,3.37,1.43A6,6,0,0,1,225.52,206.61Z"/><path class="cls-5" d="M224.66,208.35a5.43,5.43,0,0,1,1.13,4.35,5.42,5.42,0,0,1-1.38-.17,4.8,4.8,0,0,1-2.55-1.53,4.66,4.66,0,0,1-.64-3.91S223.51,206.86,224.66,208.35Z"/><path class="cls-28" d="M240.29,250.62a4.73,4.73,0,0,1,1.22-3.28,5.63,5.63,0,0,1,1.09-1,10.14,10.14,0,0,1,1,1.2,6.73,6.73,0,0,1,1.26,3.17,3.87,3.87,0,0,1-.81,2.72,4.71,4.71,0,0,1-1,1,7.11,7.11,0,0,1-1.27-1A4.37,4.37,0,0,1,240.29,250.62Z"/><path class="cls-28" d="M256,256.62a8.33,8.33,0,0,1,4-.12,6.12,6.12,0,0,1,1.57.54,5.39,5.39,0,0,1-.81,1.41,5.94,5.94,0,0,1-3.12,2.09,5.59,5.59,0,0,1-3.46-.24,6,6,0,0,1-1.47-.78A5.89,5.89,0,0,1,256,256.62Z"/><path class="cls-28" d="M235.86,254.33a11.55,11.55,0,0,1-1.61-1.36,9.34,9.34,0,0,1-1.19-1.48A7.66,7.66,0,0,1,232,249a5.38,5.38,0,0,1-.11-1.61,3.11,3.11,0,0,1,.09-0.54s0.76,0.64,1.94,1.54c0.6,0.45,1.3.94,2.1,1.47l2.51,1.6a8.65,8.65,0,0,1,2.68,2.58,5.18,5.18,0,0,1,.62,1.35s-0.17.06-.46,0.13a5.42,5.42,0,0,1-1.25.17A7.1,7.1,0,0,1,235.86,254.33Z"/><path class="cls-28" d="M254.05,247.39a5.23,5.23,0,0,1,2.85.64,4.19,4.19,0,0,1,1,.74,4.85,4.85,0,0,1-.94,1,4.79,4.79,0,0,1-2.78,1.06,3.63,3.63,0,0,1-2.39-.82,3.93,3.93,0,0,1-.84-0.88A5.1,5.1,0,0,1,254.05,247.39Z"/><path class="cls-28" d="M249,244.32a6,6,0,0,1,.26,3.05,3.94,3.94,0,0,1-.41,1.21,4.7,4.7,0,0,1-1.18-.66,4.64,4.64,0,0,1-1.69-2.36,3.9,3.9,0,0,1,.16-2.48,5.3,5.3,0,0,1,.55-1.08,5,5,0,0,1,.95.54A3.77,3.77,0,0,1,249,244.32Z"/><path class="cls-28" d="M250.52,244.55a5.07,5.07,0,0,1,3.1-2.57,6.81,6.81,0,0,1,.15,1.34,6,6,0,0,1-.61,2.91,3.54,3.54,0,0,1-1.82,1.64,3.78,3.78,0,0,1-1.15.3,5,5,0,0,1-.22-1.22A4.2,4.2,0,0,1,250.52,244.55Z"/><path class="cls-5" d="M287.56,221.83A5.83,5.83,0,0,1,291,221a3.63,3.63,0,0,1,1.44.42s0,0.2-.11.51a5.57,5.57,0,0,1-.45,1.2,4.84,4.84,0,0,1-2.53,2.42,4.21,4.21,0,0,1-2.84-.06,7.43,7.43,0,0,1-1.27-.56,7.61,7.61,0,0,1,.54-1.16A5,5,0,0,1,287.56,221.83Z"/><path class="cls-5" d="M283,234.78a3.85,3.85,0,0,1-1.53,2.73,3.35,3.35,0,0,1-1.21.56,9.51,9.51,0,0,1-.64-1.4,7.13,7.13,0,0,1-.5-2.88,2.54,2.54,0,0,1,1-1.79,4.14,4.14,0,0,1,.94-0.6,5.91,5.91,0,0,1,1,1A3.36,3.36,0,0,1,283,234.78Z"/><path class="cls-5" d="M282,221.62c-0.08-.79.47-0.76,0.85-1.22s0.7-.79.7-0.79a1.69,1.69,0,0,1,2.33,1.64,3.08,3.08,0,0,1-.95,2.35,3.61,3.61,0,0,1-1,.74,10,10,0,0,1-.92-0.91A3.77,3.77,0,0,1,282,221.62Z"/><path class="cls-5" d="M292.35,236a6.64,6.64,0,0,1-2.06,3.36,4.71,4.71,0,0,1-1.3.8,7.25,7.25,0,0,1-.29-1.48,9,9,0,0,1,.26-3.36,6,6,0,0,1,1.44-2.47,7.61,7.61,0,0,1,1-.91,4.79,4.79,0,0,1,.71,1.15A4.46,4.46,0,0,1,292.35,236Z"/><path class="cls-5" d="M296.36,228.73a4.2,4.2,0,0,1-3.08,1,3.28,3.28,0,0,1-1.23-.34s0-.17.14-0.44,0.24-.65.43-1.08a9.46,9.46,0,0,1,1.94-2.86,3.58,3.58,0,0,1,2.4-1,3.25,3.25,0,0,1,1.21.18,9.61,9.61,0,0,1-.23,1.77A5.2,5.2,0,0,1,296.36,228.73Z"/><path class="cls-5" d="M296.13,231.06a4.89,4.89,0,0,1,1.83,3,5.37,5.37,0,0,1,.08,1.77,4.23,4.23,0,0,1-1.45.22,4,4,0,0,1-2.75-1.14,4.9,4.9,0,0,1-1.23-2.51,9.48,9.48,0,0,1-.17-1.42,5.88,5.88,0,0,1,1.26-.37A3.09,3.09,0,0,1,296.13,231.06Z"/><path class="cls-28" d="M221.34,220.36a5.37,5.37,0,0,1,2.87,2,5.21,5.21,0,0,1,.73,1.27,8.15,8.15,0,0,1-1.36.58,7.09,7.09,0,0,1-3.31.28,4,4,0,0,1-2.44-1.46,4.43,4.43,0,0,1-.72-1.24,6.25,6.25,0,0,1,1.33-1A4,4,0,0,1,221.34,220.36Z"/><path class="cls-28" d="M212.55,234.09a8.87,8.87,0,0,1-.27,3.93,5.91,5.91,0,0,1-.65,1.53,5,5,0,0,1-1.35-.91,5.75,5.75,0,0,1-1.81-3.38,5.69,5.69,0,0,1,.07-1.95,7.21,7.21,0,0,1,.6-1.58,6,6,0,0,1,1-1.39,6.46,6.46,0,0,1,1.09,1A5.35,5.35,0,0,1,212.55,234.09Z"/><path class="cls-28" d="M218.37,215.55a7.06,7.06,0,0,1,3.9-2,4.06,4.06,0,0,1,1.59,0,10.06,10.06,0,0,1-.7,1.72,11.57,11.57,0,0,1-2.34,3.3,6.46,6.46,0,0,1-2.83,1.6,7.06,7.06,0,0,1-1.46.24,6,6,0,0,1,.15-1.7A6.1,6.1,0,0,1,218.37,215.55Z"/><path class="cls-28" d="M221.9,233.61A4.16,4.16,0,0,1,221,236a3.49,3.49,0,0,1-.82.78,4.63,4.63,0,0,1-.88-1,4.07,4.07,0,0,1-.73-2.69,3.07,3.07,0,0,1,1.14-2.06,3.88,3.88,0,0,1,1-.59,6.56,6.56,0,0,1,.68,1A3.77,3.77,0,0,1,221.9,233.61Z"/><path class="cls-28" d="M225.58,229.9a6.92,6.92,0,0,1-3-.53,4.28,4.28,0,0,1-1.1-.65,4.52,4.52,0,0,1,.85-0.91,4,4,0,0,1,2.58-.87,4.13,4.13,0,0,1,2.29.86,6.4,6.4,0,0,1,.91.8,2.8,2.8,0,0,1-.66.63A3.29,3.29,0,0,1,225.58,229.9Z"/><path class="cls-28" d="M225.14,231.15c2,1.73,2.09,3.14,2.09,3.14a8.58,8.58,0,0,1-1.31-.15,7.11,7.11,0,0,1-2.77-1.09,3.34,3.34,0,0,1-1.35-1.93,2.92,2.92,0,0,1-.11-1.09,5.08,5.08,0,0,1,1.22.08A4.75,4.75,0,0,1,225.14,231.15Z"/><path class="cls-5" d="M258.26,123.11a6.51,6.51,0,0,1,1-3.33,3.86,3.86,0,0,1,1.05-1.06,5,5,0,0,1,1.06,1.31,3.88,3.88,0,0,1,.34,3.28,5.52,5.52,0,0,1-1.78,2.2c-0.62.5-1.06,0.81-1.06,0.81A8.42,8.42,0,0,1,258.26,123.11Z"/><path class="cls-5" d="M262.24,132.6a4.42,4.42,0,0,1,.07,4.46,6.67,6.67,0,0,1-1.43-.64,6.51,6.51,0,0,1-2.29-2.15,2.63,2.63,0,0,1-.3-2.11,3.27,3.27,0,0,1,.42-0.93S261.24,131,262.24,132.6Z"/><path class="cls-5" d="M255.29,127.76a6,6,0,0,1-2.2-1.94,4.79,4.79,0,0,1-.65-1.26,7.28,7.28,0,0,1,1.51-.51,4.7,4.7,0,0,1,3.05.2,2,2,0,0,1,1.12,1.81,3,3,0,0,1-.19,1.1,8.28,8.28,0,0,1-.92.5A2,2,0,0,1,255.29,127.76Z"/><path class="cls-5" d="M270.52,128.19a5.66,5.66,0,0,1,.31,3.54,3.91,3.91,0,0,1-.55,1.25,6.41,6.41,0,0,1-1.13-.85,7.06,7.06,0,0,1-1.77-2.53,5.26,5.26,0,0,1-.28-2.6,6.69,6.69,0,0,1,.24-1.27,4.09,4.09,0,0,1,1.25.42A4,4,0,0,1,270.52,128.19Z"/><path class="cls-5" d="M268.69,119.94a3.69,3.69,0,0,1-1.36,3,3.34,3.34,0,0,1-1.12.61s-0.31-.57-0.67-1.44a14.8,14.8,0,0,1-1.08-3.34,3.65,3.65,0,0,1,.44-2.59,3,3,0,0,1,.83-0.9,7.71,7.71,0,0,1,1.5,1.34A5.33,5.33,0,0,1,268.69,119.94Z"/><path class="cls-5" d="M270.33,122a4.33,4.33,0,0,1,2,.35,5.78,5.78,0,0,1,1.51,1,7,7,0,0,1,.9,1,3.33,3.33,0,0,1,.29.44,4.11,4.11,0,0,1-1,1.08,4,4,0,0,1-2.88.76,5,5,0,0,1-2.49-1.17,7.85,7.85,0,0,1-1-1,6.8,6.8,0,0,1,.69-1.12A3,3,0,0,1,270.33,122Z"/><path class="cls-5" d="M195.56,219.51a4,4,0,0,1,3.16,1.55,4.31,4.31,0,0,1,.72,1.37s-0.16.15-.44,0.37-0.7.52-1.18,0.85a9.13,9.13,0,0,1-3.72,1.52,2.89,2.89,0,0,1-2.63-1.08,4.38,4.38,0,0,1-.77-1.37,11.42,11.42,0,0,1,1.53-1.66A5.39,5.39,0,0,1,195.56,219.51Z"/><path class="cls-5" d="M187.3,241.75a19.18,19.18,0,0,0,1,2.25,12.55,12.55,0,0,0,1.37,2.1,11.41,11.41,0,0,0,3.29,2.8,9.45,9.45,0,0,0,3.26,1.09,8.79,8.79,0,0,0,1,.09h0.36a3.15,3.15,0,0,1-.59.49,6,6,0,0,1-2.3.89,9.75,9.75,0,0,1-9.17-3.87,10.51,10.51,0,0,1-.87-1.31,11.59,11.59,0,0,1-1.33-3.58,11.37,11.37,0,0,1-.12-3.59,9.64,9.64,0,0,1,.46-2,6,6,0,0,1,.26-0.64,5.24,5.24,0,0,1,1.25,1.12A12.91,12.91,0,0,1,187.3,241.75Z"/><path class="cls-5" d="M192.54,214.5a11.66,11.66,0,0,1,4.88-3.53,5.56,5.56,0,0,1,2-.37,21,21,0,0,1-1.08,2.2,29.89,29.89,0,0,1-3.17,4.69,13.19,13.19,0,0,1-3.37,2.91,9.75,9.75,0,0,1-1.64.78,8.82,8.82,0,0,1,.25-2.2A10.38,10.38,0,0,1,192.54,214.5Z"/><path class="cls-5" d="M196.15,237.15a8.88,8.88,0,0,1-.34,3.11,6.35,6.35,0,0,1-.41.91,1.94,1.94,0,0,1-1.23-.38,3.94,3.94,0,0,1-1.47-3.17,5.85,5.85,0,0,1,.89-3.27,6,6,0,0,1,1-1.17,6.68,6.68,0,0,1,.78,1.16A6.55,6.55,0,0,1,196.15,237.15Z"/><path class="cls-5" d="M199.73,230.59a5.48,5.48,0,0,1-3.18.36,3,3,0,0,1-1.17-.51,8.38,8.38,0,0,1,.91-1.55,5.9,5.9,0,0,1,2.87-2.11,3.23,3.23,0,0,1,2.54.31,4.28,4.28,0,0,1,1,.73,9.38,9.38,0,0,1-.8,1.12A5.47,5.47,0,0,1,199.73,230.59Z"/><path class="cls-5" d="M199.26,232.5a6.57,6.57,0,0,1,2,2.51,4.38,4.38,0,0,1,.38,1.23,6.25,6.25,0,0,1-1.35.26,4.82,4.82,0,0,1-2.92-.58,3.6,3.6,0,0,1-1.55-2.25,5.41,5.41,0,0,1-.18-1.48,4.22,4.22,0,0,1,1.28-.32A3.29,3.29,0,0,1,199.26,232.5Z"/><path class="cls-28" d="M291.06,176.91a7.5,7.5,0,0,1,3.21-1.35,5.08,5.08,0,0,1,1.44,0,5,5,0,0,1-2.27,3.6,5.55,5.55,0,0,1-2.71.83,7,7,0,0,1-1.36,0A4.2,4.2,0,0,1,291.06,176.91Z"/><path class="cls-28" d="M291.78,187.8a2.89,2.89,0,0,1,.64,2.43,2.75,2.75,0,0,1-.44,1,6.89,6.89,0,0,1-3.81-1.88,2,2,0,0,1-.34-1.88,3.5,3.5,0,0,1,.43-0.95S290.78,186.54,291.78,187.8Z"/><path class="cls-28" d="M285.6,177.7a4,4,0,0,1,1.07-3.58,4.94,4.94,0,0,1,1.18.59,3.58,3.58,0,0,1,1.54,2.08c0.39,1.66-1.34,3-1.34,3S285.94,179.12,285.6,177.7Z"/><path class="cls-28" d="M300.22,184.16a3.33,3.33,0,0,1-.43,3.49,5.18,5.18,0,0,1-2.8-2.41,3.12,3.12,0,0,1,.55-2.88S299.61,182.74,300.22,184.16Z"/><path class="cls-28" d="M301,178.83a5.69,5.69,0,0,1-2.55,1.61,4.86,4.86,0,0,1-1.26.23,4.52,4.52,0,0,1,1.17-3.43,5.22,5.22,0,0,1,3.3-1.51A3.52,3.52,0,0,1,301,178.83Z"/><path class="cls-28" d="M301.51,180.17a4.37,4.37,0,0,1,3.63,1.73A6.58,6.58,0,0,1,301,183a4,4,0,0,1-2.9-1.59A5.6,5.6,0,0,1,301.51,180.17Z"/><path class="cls-16" d="M208.58,311.39a7.11,7.11,0,0,1,4.73.66,23,23,0,0,0,4.27,1.85c-0.76-.79.62-1.91,2-1.85a6.11,6.11,0,0,1,3.34,1.48A4.18,4.18,0,0,1,226,310.1c1.88-.49,4.41.82,3.7,2.17a9.37,9.37,0,0,1,4.59-1.56c1.73,0,3.47,1.32,2.71,2.43a18.39,18.39,0,0,1,10.55,1.05,6.67,6.67,0,0,1-2-2.55,2.07,2.07,0,0,1,1.33-2.57,5.05,5.05,0,0,1,4.28.81,15.33,15.33,0,0,0,3.54,2.22c0-1.58,2.11-3,4.31-2.92s4.11,1.57,4,3.15a8.72,8.72,0,0,1,5.36-2.4c2.17-.1,4.5,1.16,4.31,2.71a11.55,11.55,0,0,1,11-.09,34.84,34.84,0,0,1,7.17-1.06l-30.76-19.58c-4.71-3-9.8-6.12-15.61-6.4-9.79-.47-16.9,7-23.45,13a100.11,100.11,0,0,1-18.35,13.29,14.36,14.36,0,0,1,5,2.47C206.32,313.58,207,311.84,208.58,311.39Z"/><path class="cls-29" d="M234,303.66a0.56,0.56,0,0,0,0-1.12,0.56,0.56,0,0,0,0,1.12h0Z"/><path class="cls-29" d="M234.23,300.7a0.56,0.56,0,0,0,0-1.12,0.56,0.56,0,0,0,0,1.12h0Z"/><path class="cls-29" d="M237,303.43a0.56,0.56,0,0,0,0-1.12,0.56,0.56,0,0,0,0,1.12h0Z"/><path class="cls-29" d="M250.4,296.14a0.56,0.56,0,0,0,0-1.12,0.56,0.56,0,0,0,0,1.12h0Z"/><path class="cls-29" d="M254.49,296.82a0.56,0.56,0,0,0,0-1.12,0.56,0.56,0,0,0,0,1.12h0Z"/><path class="cls-29" d="M250.4,300a0.56,0.56,0,0,0,0-1.12,0.56,0.56,0,0,0,0,1.12h0Z"/><path class="cls-29" d="M261.55,304.79a0.56,0.56,0,0,0,0-1.12,0.56,0.56,0,0,0,0,1.12h0Z"/><path class="cls-29" d="M265.2,300.7a0.56,0.56,0,0,0,0-1.12,0.56,0.56,0,0,0,0,1.12h0Z"/><path class="cls-29" d="M267.25,304.34a0.56,0.56,0,0,0,0-1.12,0.56,0.56,0,0,0,0,1.12h0Z"/><path class="cls-29" d="M267.25,304.34a0.56,0.56,0,0,0,0-1.12,0.56,0.56,0,0,0,0,1.12h0Z"/><path class="cls-29" d="M217.38,308.44a0.56,0.56,0,0,0,0-1.12,0.56,0.56,0,0,0,0,1.12h0Z"/><path class="cls-29" d="M219.89,302.52a0.56,0.56,0,0,0,0-1.12,0.56,0.56,0,0,0,0,1.12h0Z"/><path class="cls-29" d="M222.16,307.07a0.56,0.56,0,0,0,0-1.12,0.56,0.56,0,0,0,0,1.12h0Z"/><path class="cls-29" d="M244,292.27a0.56,0.56,0,0,0,0-1.12,0.56,0.56,0,0,0,0,1.12h0Z"/><path class="cls-29" d="M242.43,287.72a0.56,0.56,0,0,0,0-1.12,0.56,0.56,0,0,0,0,1.12h0Z"/><path class="cls-29" d="M247,289.08a0.56,0.56,0,0,0,0-1.12,0.56,0.56,0,0,0,0,1.12h0Z"/><path class="cls-29" d="M233.09,295a0.56,0.56,0,0,0,0-1.12,0.56,0.56,0,0,0,0,1.12h0Z"/><path class="cls-29" d="M242.88,306.39a0.56,0.56,0,0,0,0-1.12,0.56,0.56,0,0,0,0,1.12h0Z"/><path class="cls-29" d="M246.07,304.11a0.56,0.56,0,0,0,0-1.12,0.56,0.56,0,0,0,0,1.12h0Z"/><path class="cls-29" d="M244,309.35a0.56,0.56,0,0,0,0-1.12,0.56,0.56,0,0,0,0,1.12h0Z"/><path class="cls-7" d="M283.53,357.51L289,339.09s-23.35-1.2-25.63,6.22S283.53,357.51,283.53,357.51Z"/><path class="cls-30" d="M273.31,345.31c-1.53,1,27.77,7.19,27.77,7.19l1.58-3.59S274.87,344.27,273.31,345.31Z"/><path class="cls-29" d="M298.73,344.55c-1.76.58-3.61,8-1.21,9.45s24.05,6.31,24.89,4.72,1-7.55,1-7.55S302.46,343.31,298.73,344.55Z"/><path class="cls-12" d="M295.59,244.89c-0.66,1-4.3,1.53-3.57,3s5,2,5,2l0.29,0.37A6.61,6.61,0,0,0,295.59,244.89Z"/><path class="cls-9" d="M333.6,241.17c-1-3.11,2.23-16.69,2.23-16.69l-7.35-13.19-24.34-4.44-16.9,5-5.34,7.06L289,233.61c2,3.49,6.9,10,6.64,11.09a0.61,0.61,0,0,1-.09.19,6.61,6.61,0,0,1,1.71,5.4c1.46,1.81,8.15,9.81,11.95,9.56,4.28-.28,9.29-7.5,10.87-7.67s10.17,4.45,10.17,4.45l10.09-9.27S334.61,244.29,333.6,241.17Z"/><path class="cls-13" d="M296.07,238.42a24,24,0,0,1,3.87,7.35,0.51,0.51,0,0,0,1-.27,25.49,25.49,0,0,0-4.14-7.8c-0.4-.52-1.12.21-0.72,0.72h0Z"/><path class="cls-13" d="M302.1,255.23a38.38,38.38,0,0,0,3.07-7,0.51,0.51,0,0,0-1-.27,37,37,0,0,1-3,6.79,0.51,0.51,0,0,0,.88.52h0Z"/><path class="cls-13" d="M331,228a3.19,3.19,0,0,0-4.88.14,7.78,7.78,0,0,0-1.48,6.82c0.13,0.64,1.12.37,1-.27a7.25,7.25,0,0,1,.58-4.89c0.78-1.47,2.76-2.73,4.07-1.08,0.41,0.52,1.13-.21.72-0.72h0Z"/><path class="cls-13" d="M325.69,231.85a1.33,1.33,0,0,1,1.78.77,0.51,0.51,0,0,0,1-.27,2.35,2.35,0,0,0-3-1.49c-0.6.24-.34,1.23,0.27,1h0Z"/><path class="cls-31" d="M298.63,233.3c-1.19-1-2.67-2.12-4.31-1.76a2.51,2.51,0,0,0-2.12,2.65c0.08,0.64,1.11.65,1,0a1.61,1.61,0,0,1,1.8-1.68A5.42,5.42,0,0,1,297.9,234c0.51,0.41,1.24-.31.72-0.72h0Z"/><path class="cls-32" d="M340.39,247.37s-5.78-3.08-6.78-6.19c-0.47-1.47,0-5.26.63-8.86l-0.32-.14c-0.4-1.6-1.83-2.69-3.16-3.66a3.75,3.75,0,0,0-1.68-.83,2.67,2.67,0,0,0-1.47.31,5.75,5.75,0,0,0-2.91,4.13,10.55,10.55,0,0,0,.51,5.16,1.89,1.89,0,0,1,.14.88,1.79,1.79,0,0,1-.27.61l-2.29,3.81c-1.3,2.16-2.6,4.33-4.09,6.37a41.43,41.43,0,0,1-11.27,10.51,4.21,4.21,0,0,0,1.83.39c4.28-.28,9.29-7.5,10.87-7.67s10.17,4.45,10.17,4.45Z"/><g class="cls-33"><path class="cls-31" d="M301.66,200.43c-7.94,3-26.62,11.25-25.27,21.34S289,233.61,289,233.61s-5.13-9.31.62-15.64c0.09,0.41-.78,9.15,8.13,12.2S312,231.37,312,231.37l-2.58-3,6,2,5.06,8.49,1.62-1.19s-1.36-5.47-.55-8.82,5.58-10.4,9.65-5.16,0,11.07-1.89,13.73,4.47,6.32,8.32,5.67c0,0-2.59-2.72-1.28-7.5s11.84-26.4-.64-35S301.66,200.43,301.66,200.43Z"/><path class="cls-34" d="M289.63,221.24c-2.27-13.34,10.27-21.82,21.08-25.9,0.61-.23.35-1.22-0.27-1-11.39,4.31-24.17,13.21-21.79,27.16,0.11,0.65,1.1.37,1-.27h0Z"/><path class="cls-34" d="M293.45,205.94c2.88,10.22,14.42,12.06,23.44,13,6.44,0.69,12.93,1.6,19,3.86s13.16,7.16,11,14.63a0.51,0.51,0,0,0,1,.27c3.43-11.86-12.24-16.68-20.77-18.34-10.66-2.08-28.94-.35-32.71-13.71a0.51,0.51,0,0,0-1,.27h0Z"/><path class="cls-34" d="M295.73,203.56c3.43,8.63,12.61,12.13,21.26,12.76,5.65,0.42,11.31-.14,17-0.07,3.84,0,20.19.78,16.81,8.22-0.27.6,0.61,1.12,0.88,0.52,1.78-3.91-1.65-6.76-5.05-7.95-5.65-2-11.79-1.92-17.7-1.76-11.33.31-27.13,0.73-32.18-12-0.24-.61-1.23-0.34-1,0.27h0Z"/><path class="cls-34" d="M302.91,198.85c4.37,7.38,12.17,12,20.52,13.44,9.94,1.72,20-.93,29.09-4.86,0.6-.26.08-1.14-0.52-0.88-8.82,3.81-18.65,6.42-28.3,4.75-8.1-1.4-15.67-5.8-19.91-13a0.51,0.51,0,0,0-.88.52h0Z"/><path class="cls-34" d="M316.41,196.88c4.43,4.14,8.69,6.77,14.93,6.86a47.5,47.5,0,0,0,9.41-1c1.7-.32,3.39-0.68,5.08-1,0.54-.11,6.1-0.9,6-0.67-0.23.62,0.76,0.88,1,.27,0.49-1.31-.65-1.59-1.71-1.55-3.83.12-7.8,1.48-11.56,2.15-4.09.73-8.41,1.23-12.52,0.36s-7-3.4-9.9-6.13a0.51,0.51,0,0,0-.72.72h0Z"/><path class="cls-34" d="M322.61,196.44a35.66,35.66,0,0,0,20.9,4.08c0.65-.07.66-1.1,0-1a34.72,34.72,0,0,1-20.38-3.94,0.51,0.51,0,0,0-.52.88h0Z"/><path class="cls-34" d="M291.78,208.49a25.82,25.82,0,0,0,4.15,16.87,26.41,26.41,0,0,0,5.88,6.21c3.26,2.54,6.87,4.8,7.89,9.08a0.51,0.51,0,0,0,1-.27c-1.51-6.28-8.18-8.65-12.08-13.17a24.85,24.85,0,0,1-5.8-18.71c0.07-.66-1-0.65-1,0h0Z"/><path class="cls-34" d="M291.85,211.76c3.31,6.22,9.62,9.35,15.71,12.29,5.89,2.85,17.62,9.19,11.55,17.36-0.39.53,0.5,1,.88,0.52,4.39-5.91-.73-12.44-5.85-15.58-7.47-4.59-17-6.79-21.41-15.1a0.51,0.51,0,0,0-.88.52h0Z"/><path class="cls-34" d="M331.94,228.82c3.76,1.94,8.17,4.36,8.51,9.09,0,0.65,1.07.66,1,0-0.37-5.15-4.87-7.84-9-10-0.59-.3-1.1.58-0.52,0.88h0Z"/><path class="cls-34" d="M330.12,233.09a19.06,19.06,0,0,1,8.41,7.57,0.51,0.51,0,0,0,.88-0.52,20,20,0,0,0-8.78-7.94c-0.59-.28-1.11.61-0.52,0.88h0Z"/><path class="cls-34" d="M288.34,214.28A25.71,25.71,0,0,0,280.78,227c-0.86,3.51-1.22,9.47,3.8,9.59a0.51,0.51,0,0,0,0-1c-5.86-.14-2.7-9.58-1.34-12.55a25,25,0,0,1,5.82-8,0.51,0.51,0,0,0-.72-0.72h0Z"/><path class="cls-34" d="M289.9,209.94c-4.26-.48-8.49,1.32-12.06,3.52-1.92,1.18-6.61,3.71-5.51,6.54,0.24,0.61,1.23.34,1-.27-1-2.46,5.11-5.52,6.85-6.42,3-1.58,6.29-2.74,9.74-2.35,0.65,0.07.65-1,0-1h0Z"/><path class="cls-34" d="M291.39,207.74a49.59,49.59,0,0,0-13,.19c-0.65.09-.37,1.08,0.27,1a48.65,48.65,0,0,1,12.73-.16c0.65,0.08.65-.95,0-1h0Z"/></g><g class="cls-35"><path class="cls-31" d="M276.46,222.17c2.23-8.65,17.94-15.52,25.06-18.25,0,0,21.52-8.39,34,.2,4.37,3,5.91,7.61,6,12.53,0.6-6.17-.5-12.31-5.89-16-12.48-8.59-34-.2-34-0.2-7.94,3-26.62,11.25-25.27,21.34C276.41,221.9,276.44,222,276.46,222.17Z"/></g><circle class="cls-12" cx="311.74" cy="243.19" r="3.75" transform="translate(56.45 545.1) rotate(-87.74)"/><polygon class="cls-9" points="363.24 325.83 364.08 335.31 369.66 335.83 377.2 335.73 379.48 330.46 373.75 324.55 363.24 325.83"/><path class="cls-36" d="M386.46,334.11a10.44,10.44,0,0,1,0,5.63,6.91,6.91,0,0,1-2.65-1.94l-9.89-2.06-1.35-4.32a5.84,5.84,0,0,0,1.46-2.73A54.38,54.38,0,0,1,386.46,334.11Z"/><path class="cls-37" d="M391.29,339.74a6.38,6.38,0,0,1-4.8,0,10.44,10.44,0,0,0,0-5.63,54.38,54.38,0,0,0-12.4-5.42,3.76,3.76,0,0,0-.3-2.38c-1.29-2.69-6.94,1.36-6.94,1.36l-2.33-2.61s2-3.72,3.47-6.25,6.47-5.35,6.47-5.35l18.06,21.86A2.81,2.81,0,0,1,391.29,339.74Z"/><path class="cls-38" d="M393.62,336.68l-19.19-23.22a30.53,30.53,0,0,0-4.85,3.45l2.06,2.37,1.9-1.57s10.25,13.33,10.38,13c-2.34,1.94-.09,7.05-0.09,7.05s3.6,4.76,9.46.9A1.37,1.37,0,0,0,393.62,336.68Z"/><path class="cls-39" d="M376.33,328.59c-1.35,2.36-2.25,6.45-.39,8.79a0.45,0.45,0,0,0,.82-0.3,34.16,34.16,0,0,1-.74-3.69,9,9,0,0,1,1.08-4.45c0.25-.49-0.5-0.81-0.77-0.35h0Z"/><path class="cls-39" d="M378.64,329.72a10.89,10.89,0,0,0-.3,8.15,0.45,0.45,0,0,0,.85-0.3,12.47,12.47,0,0,1,.16-7.52c0.17-.47-0.52-0.8-0.71-0.33h0Z"/><path class="cls-39" d="M380.83,330.58a15.77,15.77,0,0,0-.64,4.35c0,0.82,0,2.48.67,3.09a0.4,0.4,0,0,0,.48,0l0.06,0a0.39,0.39,0,0,0-.35-0.69l-0.06,0,0.46,0.15c-0.41-.57-0.08-2.69,0-3.34a15.56,15.56,0,0,1,.56-3.38c0.19-.71-0.93-0.89-1.13-0.19h0Z"/><path class="cls-7" d="M373.32,290.41L341,298.67c-0.72.32-1.23,4.35-1.23,4.35s-25.07,10.8-28.28,16.31,1.22,13.6,5.53,15.88,48,0.84,48,.84l0.75-10.18-14.42-3.46s20.71-4.39,22.39-11.19S373.32,290.41,373.32,290.41Z"/><path class="cls-40" d="M352.32,321.67a105.26,105.26,0,0,1-22.16,2.73,0.51,0.51,0,0,0,0,1,106.58,106.58,0,0,0,22.43-2.77,0.51,0.51,0,0,0-.27-1h0Z"/><path class="cls-41" d="M352.73,252.48c-8.72-10.27-14.22-6.25-14.91-6.15l-5.48,32.41c1.17,2.77,5.48,18.48,6,20.69s5.24,0.21,14.53.57,19.09-7.46,20.45-9.6S361.45,262.75,352.73,252.48Z"/><path class="cls-9" d="M316,275.16c-4.16,4.71-8.37,9.46-13.47,13.14a42.64,42.64,0,0,1-16.93,7.27,11.33,11.33,0,0,0-5.88-3.2,2,2,0,0,0-1.35.08,1,1,0,0,0-.5,1.25,1.39,1.39,0,0,0,.9.61,9.49,9.49,0,0,1,3.23,2c-0.18.31-.61,0.11-0.88-0.1a5.59,5.59,0,0,0-4.16-1.41,1.75,1.75,0,0,0-1.19.61,1,1,0,0,0,0,1.33,1.27,1.27,0,0,0,.79.22l0.38,0a1.49,1.49,0,0,0-1.45.51,1.42,1.42,0,0,0,.42,1.72,4.55,4.55,0,0,0,1.65.68c1.74,0.53,3.27,1.69,4.93,2.49a6.69,6.69,0,0,0,3.7.73l0.7,0.09a26.66,26.66,0,0,0,6.17-.31,62.81,62.81,0,0,0,37.16-19.76ZM277.28,297l0.66,0.08Zm1.69,0.27-0.16,0Z"/><path class="cls-12" d="M344.26,245.21c-9.09-1.95-13.91,5-17.22,10.56S313.74,273.69,314.24,275s11.81,10.69,15,9,19.15-22.65,20.74-26.74C352.07,251.85,351.24,246.71,344.26,245.21Z"/></g></g></g></svg>