<svg width="21" height="21" viewBox="0 0 21 21" fill="none" xmlns="http://www.w3.org/2000/svg">
<path d="M10.2991 3.37501C10.058 3.37501 9.85714 3.45537 9.69643 3.61608L8.47768 4.83483C8.31696 4.99555 8.23661 5.19644 8.23661 5.43751C8.23661 5.67858 8.31696 5.87948 8.47768 6.04019L11.0089 8.57144L4.28571 8.57144C4.05357 8.57144 3.85268 8.65626 3.68304 8.82591C3.51339 8.99555 3.42857 9.19644 3.42857 9.42858L3.42857 11.1429C3.42857 11.375 3.51339 11.5759 3.68304 11.7455C3.85268 11.9152 4.05357 12 4.28571 12L11.0089 12L8.47768 14.5313C8.30804 14.7009 8.22321 14.9018 8.22321 15.1339C8.22321 15.3661 8.30804 15.567 8.47768 15.7366L9.69643 16.9554C9.85714 17.1161 10.058 17.1964 10.2991 17.1964C10.5402 17.1964 10.7411 17.1161 10.9018 16.9554L15.75 12.1072L16.9687 10.8884C17.1295 10.7277 17.2098 10.5268 17.2098 10.2857C17.2098 10.0447 17.1295 9.84376 16.9687 9.68305L15.75 8.4643L10.9018 3.61608C10.7411 3.45537 10.5402 3.37501 10.2991 3.37501ZM10.2857 1.29018e-05C12.1518 1.28203e-05 13.8728 0.459833 15.4487 1.37948C17.0246 2.29912 18.2723 3.54689 19.192 5.12278C20.1116 6.69867 20.5714 8.41965 20.5714 10.2857C20.5714 12.1518 20.1116 13.8728 19.192 15.4487C18.2723 17.0246 17.0246 18.2723 15.4487 19.192C13.8728 20.1116 12.1518 20.5714 10.2857 20.5714C8.41964 20.5714 6.69866 20.1116 5.12277 19.192C3.54687 18.2723 2.29911 17.0246 1.37946 15.4487C0.459821 13.8728 -3.68034e-07 12.1518 -4.49603e-07 10.2857C-5.31171e-07 8.41966 0.459821 6.69867 1.37946 5.12278C2.29911 3.54689 3.54687 2.29912 5.12277 1.37948C6.69866 0.459833 8.41964 1.29834e-05 10.2857 1.29018e-05Z" fill="#F5F5F5"/>
</svg>
