<svg width="110" height="119" viewBox="0 0 110 119" fill="none" xmlns="http://www.w3.org/2000/svg">
<path d="M11.7 68.4316L8.54233 70.598V78.6215H4.64403L0.745728 70.598L2.69488 66.5862L11.7 68.4316Z" fill="#898890"/>
<path d="M109.898 72.6038H65.0676V118.739H109.898V72.6038Z" fill="#E0E0E2"/>
<path d="M26.0847 28.4739L18.2881 78.6212H49.4745L41.6779 28.4739H26.0847Z" fill="#C6C5CA"/>
<path d="M65.0679 72.6038H43.6272V94.6686H65.0679V72.6038Z" fill="#ACABB1"/>
<path d="M51.4236 94.6687H14.3898V118.739H51.4236V94.6687Z" fill="#787680"/>
<path d="M94.3049 102.692H80.6609V118.74H94.3049V102.692Z" fill="#C0AB91"/>
<path d="M102.102 80.6274H94.3051V88.651H102.102V80.6274Z" fill="#BDFDFF"/>
<path d="M80.6609 80.6274H72.8643V88.651H80.6609V80.6274Z" fill="#BDFDFF"/>
<path d="M102.102 80.6274H94.3049V88.651C94.3049 86.523 95.1264 84.4822 96.5885 82.9775C98.0506 81.4728 100.034 80.6274 102.102 80.6274ZM80.6609 80.6274H72.8643V88.651C72.8643 86.523 73.6857 84.4822 75.1478 82.9775C76.61 81.4728 78.5931 80.6274 80.6609 80.6274Z" fill="white"/>
<path d="M43.627 20.4504L41.6779 28.474H37.7796H31.9321H26.0846L24.1355 20.4504H43.627Z" fill="#898890"/>
<path d="M22.1864 70.5978L18.2881 68.5919L20.4711 66.9069L26.0847 62.5742L35.5576 70.3771L31.9321 72.6037L33.8813 78.6214H22.1864V70.5978Z" fill="#3E3D42"/>
<path d="M11.7 68.4316L14.3898 66.5862L18.2881 68.5921L22.1864 70.598V78.6215H8.54236V70.598L11.7 68.4316Z" fill="#ACABB1"/>
<path d="M47.5254 78.6216L46.5898 86.7655L45.5762 86.6451H1.66183L0.745728 78.6216H47.5254Z" fill="#B39A7C"/>
<path d="M65.0678 94.6687H51.4237V118.739H65.0678V94.6687Z" fill="#898890"/>
<path d="M78.7118 58.5625V72.6037H47.5254L48.8313 71.3601L49.8839 70.3571L62.3 58.5625H78.7118Z" fill="#787680"/>
<path d="M78.7118 48.533V58.5624H62.2999L72.8643 48.533H78.7118Z" fill="#D8D7DA"/>
<path d="M104.051 48.533H96.2541L87.5862 58.5624H104.051V48.533Z" fill="#ACABB1"/>
<path d="M104.051 58.5625V72.6037H78.7118V68.8327L87.5804 58.5625H104.051Z" fill="#C6C5CA"/>
<path d="M88.4576 108.709H84.5593V112.721H88.4576V108.709Z" fill="#E0E0E2"/>
<path d="M37.7796 6.40928V0.391602H33.8813V4.40338H29.983C29.466 4.40338 28.9702 4.61472 28.6047 4.9909C28.2392 5.36707 28.0338 5.87728 28.0338 6.40928V16.4387H31.9321V8.41517H35.8304C36.3474 8.41517 36.8431 8.20383 37.2087 7.82766C37.5742 7.45148 37.7796 6.94127 37.7796 6.40928ZM41.6779 10.4211H37.7796C37.2626 10.4211 36.7668 10.6324 36.4013 11.0086C36.0358 11.3847 35.8304 11.895 35.8304 12.427V16.4387H39.7287V14.4328H43.627C44.144 14.4328 44.6397 14.2215 45.0053 13.8453C45.3708 13.4692 45.5762 12.9589 45.5762 12.427V8.41517H41.6779V10.4211Z" fill="#E0E0E2"/>
<path d="M45.5762 0.391602H41.6779V4.40338H45.5762V0.391602Z" fill="#E0E0E2"/>
<path d="M65.0678 100.686H59.2203V104.698H65.0678V100.686Z" fill="#ACABB1"/>
<path d="M65.0678 108.709H59.2203V112.721H65.0678V108.709Z" fill="#ACABB1"/>
<path d="M33.8812 28.4739H29.9829V34.4916H33.8812V28.4739Z" fill="#D8D7DA"/>
<path d="M39.7287 28.4739H35.8304V38.5033H39.7287V28.4739Z" fill="#D8D7DA"/>
<path d="M47.5253 72.6039V78.6215H33.8813L31.9321 72.6039L35.5576 70.3773L41.6779 66.5862L47.5253 72.6039Z" fill="#57565C"/>
<path d="M47.5254 78.6216L46.6093 86.6451H1.66183L0.745728 78.6216H47.5254Z" fill="#B39A7C"/>
<path d="M46.6092 86.645L43.627 112.722H4.64395L1.66174 86.645H46.6092Z" fill="#D9CCBC"/>
<path d="M46.6092 86.645H1.66174L2.11979 90.6568H46.1511L46.6092 86.645Z" fill="#957856"/>
<path d="M43.6271 112.722H18.2881V114.728H43.6271V112.722Z" fill="#57565C"/>
<path d="M14.3898 118.739C17.6193 118.739 20.2373 116.045 20.2373 112.722C20.2373 109.398 17.6193 106.704 14.3898 106.704C11.1604 106.704 8.54236 109.398 8.54236 112.722C8.54236 116.045 11.1604 118.739 14.3898 118.739Z" fill="#ACABB1"/>
<path d="M33.8813 118.739C37.1107 118.739 39.7287 116.045 39.7287 112.722C39.7287 109.398 37.1107 106.704 33.8813 106.704C30.6518 106.704 28.0338 109.398 28.0338 112.722C28.0338 116.045 30.6518 118.739 33.8813 118.739Z" fill="#ACABB1"/>
<path d="M14.3898 114.727C15.4663 114.727 16.339 113.829 16.339 112.721C16.339 111.614 15.4663 110.716 14.3898 110.716C13.3133 110.716 12.4407 111.614 12.4407 112.721C12.4407 113.829 13.3133 114.727 14.3898 114.727Z" fill="#787680"/>
<path d="M33.8813 114.727C34.9578 114.727 35.8304 113.829 35.8304 112.721C35.8304 111.614 34.9578 110.716 33.8813 110.716C32.8048 110.716 31.9321 111.614 31.9321 112.721C31.9321 113.829 32.8048 114.727 33.8813 114.727Z" fill="#787680"/>
<path d="M18.2881 80.6274H6.59319C5.51671 80.6274 4.64404 81.5255 4.64404 82.6333C4.64404 83.7412 5.51671 84.6392 6.59319 84.6392H18.2881C19.3646 84.6392 20.2373 83.7412 20.2373 82.6333C20.2373 81.5255 19.3646 80.6274 18.2881 80.6274Z" fill="#C0AB91"/>
</svg>
