<svg width="40" height="40" viewBox="0 0 40 40" fill="none" xmlns="http://www.w3.org/2000/svg">
<path d="M38 14.3335C37.6667 11.8335 37.3334 10.0002 36.3334 9.3335C35.3334 8.50016 26.6667 8.3335 20 8.3335C13.3334 8.3335 4.66669 8.50016 3.66669 9.3335C2.66669 10.0002 2.33335 11.8335 2.00002 14.3335C1.66669 16.8335 1.66669 18.3335 1.66669 20.0002C1.66669 21.6668 1.66669 23.1668 2.00002 25.6668C2.33335 28.1668 2.66669 30.0002 3.66669 30.6668C4.66669 31.5002 13.3334 31.6668 20 31.6668C26.6667 31.6668 35.3334 31.5002 36.3334 30.6668C37.3334 30.0002 37.6667 28.1668 38 25.6668C38.3334 23.1668 38.3334 21.6668 38.3334 20.0002C38.3334 18.3335 38.3334 16.8335 38 14.3335ZM16.6667 26.0002V14.0002L26.6667 20.0002L16.6667 26.0002Z" fill="#F5F5F5"/>
</svg>
