<svg width="156" height="156" viewBox="0 0 156 156" fill="none" xmlns="http://www.w3.org/2000/svg">
<path opacity="0.3" d="M85.9219 102.375C90.9701 102.375 95.0625 100.192 95.0625 97.5C95.0625 94.8076 90.9701 92.625 85.9219 92.625C80.8736 92.625 76.7812 94.8076 76.7812 97.5C76.7812 100.192 80.8736 102.375 85.9219 102.375Z" fill="black"/>
<path d="M84.0938 64.5938V97.5C84.0938 98.2313 84.9469 98.7188 85.9219 98.7188C86.8969 98.7188 87.75 98.2313 87.75 97.5V64.5938H84.0938Z" fill="#825012"/>
<path d="M77.3906 67.0312C81.7658 67.0312 85.3125 63.4845 85.3125 59.1094C85.3125 54.7342 81.7658 51.1875 77.3906 51.1875C73.0155 51.1875 69.4688 54.7342 69.4688 59.1094C69.4688 63.4845 73.0155 67.0312 77.3906 67.0312Z" fill="#539B00"/>
<path d="M82.875 59.7188C88.9329 59.7188 93.8438 54.8079 93.8438 48.75C93.8438 42.6921 88.9329 37.7812 82.875 37.7812C76.8171 37.7812 71.9062 42.6921 71.9062 48.75C71.9062 54.8079 76.8171 59.7188 82.875 59.7188Z" fill="#539B00"/>
<path d="M86.5312 83.3625C89.7 83.3625 90.1875 82.2656 90.1875 79.2188V69.4688H91.4062V81.6562C91.4062 83.7281 89.8219 85.3125 87.75 85.3125H86.5312V83.3625ZM86.5312 82.6313C84.4594 82.6313 82.875 82.1437 82.875 80.0719V68.25H81.6562V80.4375C81.6562 82.5094 83.2406 84.0938 85.3125 84.0938H86.5312V82.6313ZM84.0938 57.0375C82.0219 57.0375 80.4375 56.55 80.4375 54.4781V51.1875H79.2188V54.8438C79.2188 56.9156 80.8031 58.5 82.875 58.5H84.0938V57.0375Z" fill="#825012"/>
<path d="M92.0156 76.7812C97.0639 76.7812 101.156 72.6889 101.156 67.6406C101.156 62.5924 97.0639 58.5 92.0156 58.5C86.9674 58.5 82.875 62.5924 82.875 67.6406C82.875 72.6889 86.9674 76.7812 92.0156 76.7812Z" fill="#539B00"/>
<path d="M97.5 70.6875C101.539 70.6875 104.812 67.4136 104.812 63.375C104.812 59.3364 101.539 56.0625 97.5 56.0625C93.4614 56.0625 90.1875 59.3364 90.1875 63.375C90.1875 67.4136 93.4614 70.6875 97.5 70.6875Z" fill="#539B00"/>
<path d="M91.4062 66.7875C93.4781 66.7875 95.0625 66.3 95.0625 64.2282V60.9375H96.2812V64.5938C96.2812 66.6657 94.6969 68.25 92.625 68.25H91.4062V66.7875ZM82.875 48.0188H84.0938V59.7188H82.875V48.0188Z" fill="#825012"/>
<path d="M93.8438 60.9375C99.2285 60.9375 103.594 56.5723 103.594 51.1875C103.594 45.8027 99.2285 41.4375 93.8438 41.4375C88.459 41.4375 84.0938 45.8027 84.0938 51.1875C84.0938 56.5723 88.459 60.9375 93.8438 60.9375Z" fill="#539B00"/>
<path d="M87.75 49.9688C93.1348 49.9688 97.5 45.6035 97.5 40.2188C97.5 34.834 93.1348 30.4688 87.75 30.4688C82.3652 30.4688 78 34.834 78 40.2188C78 45.6035 82.3652 49.9688 87.75 49.9688Z" fill="#539B00"/>
<path opacity="0.2" d="M88.3594 49.9688C91.0406 49.9688 93.3563 51.5531 94.3313 53.7469C94.6969 53.625 95.1844 53.625 95.6719 53.625C97.8656 53.625 99.8156 54.7219 101.034 56.3063C100.547 54.1125 98.5969 52.4063 96.2813 52.4063H96.1594C95.55 49.6031 93.1125 47.5312 90.1875 47.5312C87.75 47.5312 85.6781 48.9938 84.7031 51.0656C85.6781 50.3344 87.0188 49.9688 88.3594 49.9688Z" fill="white"/>
<path d="M76.7813 53.6251C79.2044 53.6251 81.1688 51.6608 81.1688 49.2376C81.1688 46.8145 79.2044 44.8501 76.7813 44.8501C74.3581 44.8501 72.3938 46.8145 72.3938 49.2376C72.3938 51.6608 74.3581 53.6251 76.7813 53.6251Z" fill="#539B00"/>
<path opacity="0.2" d="M76.7812 49.3594C76.7812 46.3125 78.8531 43.7531 81.6562 42.9C81.9 39.3656 84.7031 36.5625 88.3594 36.5625C90.4312 36.5625 92.3813 37.5375 93.6 39.1219C92.8688 36.1969 90.1875 34.125 87.1406 34.125C83.6062 34.125 80.6813 36.8062 80.4375 40.3406C77.6344 40.95 75.5625 43.3875 75.5625 46.3125C75.5625 47.6531 76.05 48.9937 76.7812 49.9688V49.3594Z" fill="white"/>
<path d="M83.2406 79.3406C89.5004 79.3406 94.575 74.2661 94.575 68.0062C94.575 61.7464 89.5004 56.6719 83.2406 56.6719C76.9808 56.6719 71.9062 61.7464 71.9062 68.0062C71.9062 74.2661 76.9808 79.3406 83.2406 79.3406Z" fill="#539B00"/>
<path d="M97.8656 64.7156C100.087 64.7156 101.887 62.915 101.887 60.6937C101.887 58.4725 100.087 56.6719 97.8656 56.6719C95.6444 56.6719 93.8438 58.4725 93.8438 60.6937C93.8438 62.915 95.6444 64.7156 97.8656 64.7156Z" fill="#539B00"/>
<path opacity="0.3" d="M104.813 63.3751C104.813 62.8876 104.813 62.4001 104.691 61.9126C103.959 66.5438 99.9375 70.0782 95.0625 70.0782H94.575C95.4281 70.4438 96.525 70.6876 97.5 70.6876C98.3531 70.6876 99.0844 70.5657 99.8157 70.322C98.1094 72.0282 95.7938 73.1251 93.2344 73.1251C92.0156 73.1251 90.7969 72.8814 89.7 72.3939C87.75 74.3439 84.9469 75.5626 82.0219 75.5626C77.7563 75.5626 73.9781 73.1251 72.15 69.7126C73.0031 75.0751 77.6344 79.2188 83.2407 79.2188C85.9219 79.2188 88.4813 78.2439 90.4313 76.6595C90.9188 76.7814 91.4063 76.7813 92.0156 76.7813C96.2813 76.7813 99.9375 73.8563 100.913 69.8345C103.228 68.6157 104.813 66.1782 104.813 63.3751Z" fill="black"/>
<path opacity="0.2" d="M79.8281 62.1562C80.8031 62.1562 81.6562 62.2781 82.5093 62.6438C83.6062 60.9375 85.5562 59.7188 87.75 59.7188C88.9687 59.7188 90.0656 60.0844 91.0406 60.6937C90.1874 58.6219 88.2375 57.2812 85.9218 57.2812C83.9718 57.2812 82.2656 58.2562 81.2906 59.7188H80.4375C76.9031 59.7188 73.8562 62.2781 73.2468 65.6906C74.7093 63.4969 77.1468 62.1562 79.8281 62.1562Z" fill="white"/>
<path opacity="0.3" d="M74.3438 62.7656C72.0282 61.7906 70.2 59.8406 69.5907 57.2812C69.4688 57.8906 69.3469 58.5 69.3469 59.1094C69.3469 62.0344 70.9313 64.4719 73.2469 65.9344C73.4907 64.8375 73.8563 63.7406 74.3438 62.7656Z" fill="black"/>
<path opacity="0.3" d="M51.7969 118.219C56.8451 118.219 60.9375 116.036 60.9375 113.344C60.9375 110.651 56.8451 108.469 51.7969 108.469C46.7486 108.469 42.6562 110.651 42.6562 113.344C42.6562 116.036 46.7486 118.219 51.7969 118.219Z" fill="black"/>
<path d="M53.625 84.0938V113.344C53.625 114.075 52.7719 114.562 51.7969 114.562C50.8219 114.562 49.9688 114.075 49.9688 113.344V84.0938H53.625Z" fill="#825012"/>
<path d="M62.7656 90.1875C67.1408 90.1875 70.6875 86.6408 70.6875 82.2656C70.6875 77.8905 67.1408 74.3438 62.7656 74.3438C58.3905 74.3438 54.8438 77.8905 54.8438 82.2656C54.8438 86.6408 58.3905 90.1875 62.7656 90.1875Z" fill="#539B00"/>
<path d="M58.5 82.875C64.5579 82.875 69.4688 77.9641 69.4688 71.9062C69.4688 65.8484 64.5579 60.9375 58.5 60.9375C52.4421 60.9375 47.5312 65.8484 47.5312 71.9062C47.5312 77.9641 52.4421 82.875 58.5 82.875Z" fill="#539B00"/>
<path d="M51.1875 99.2063C48.0188 99.2063 47.5312 98.1094 47.5312 95.0625V85.3125H46.3125V97.5C46.3125 99.5719 47.8969 101.156 49.9688 101.156H51.1875V99.2063ZM52.4062 100.913C54.4781 100.913 56.0625 100.425 56.0625 98.3531V86.5312H57.2812V98.7188C57.2812 100.791 55.6969 102.375 53.625 102.375H52.4062V100.913Z" fill="#825012"/>
<path d="M47.5312 97.2563C45.4594 97.2563 45.0938 95.6719 45.0938 94.6969V82.875H43.875V95.0625C43.875 97.1344 45.4594 98.7188 47.5312 98.7188V97.2563Z" fill="#825012"/>
<path d="M46.3125 95.0625C52.3704 95.0625 57.2812 90.1516 57.2812 84.0938C57.2812 78.0359 52.3704 73.125 46.3125 73.125C40.2546 73.125 35.3438 78.0359 35.3438 84.0938C35.3438 90.1516 40.2546 95.0625 46.3125 95.0625Z" fill="#539B00"/>
<path d="M40.2188 86.5312C44.2573 86.5312 47.5312 83.2573 47.5312 79.2188C47.5312 75.1802 44.2573 71.9062 40.2188 71.9062C36.1802 71.9062 32.9062 75.1802 32.9062 79.2188C32.9062 83.2573 36.1802 86.5312 40.2188 86.5312Z" fill="#539B00"/>
<path d="M46.3125 83.85C44.2406 83.85 42.6562 83.3625 42.6562 81.2906V78H41.4375V81.6562C41.4375 83.7281 43.0219 85.3125 45.0938 85.3125H46.3125V83.85Z" fill="#825012"/>
<path d="M45.0938 79.2188C50.4785 79.2188 54.8438 74.8535 54.8438 69.4688C54.8438 64.084 50.4785 59.7188 45.0938 59.7188C39.709 59.7188 35.3438 64.084 35.3438 69.4688C35.3438 74.8535 39.709 79.2188 45.0938 79.2188Z" fill="#539B00"/>
<path d="M49.9688 74.3438C55.3535 74.3438 59.7188 69.9785 59.7188 64.5938C59.7188 59.209 55.3535 54.8438 49.9688 54.8438C44.584 54.8438 40.2188 59.209 40.2188 64.5938C40.2188 69.9785 44.584 74.3438 49.9688 74.3438Z" fill="#539B00"/>
<path d="M57.8906 67.0312C60.9196 67.0312 63.375 64.5758 63.375 61.5469C63.375 58.5179 60.9196 56.0625 57.8906 56.0625C54.8617 56.0625 52.4062 58.5179 52.4062 61.5469C52.4062 64.5758 54.8617 67.0312 57.8906 67.0312Z" fill="#539B00"/>
<path opacity="0.2" d="M40.3406 71.9062C43.0218 71.9062 45.3375 73.4906 46.3125 75.6844C46.6781 75.5625 47.1656 75.5625 47.6531 75.5625C49.8468 75.5625 51.7968 76.6594 53.0156 78.2437C52.5281 76.05 50.5781 74.3437 48.2624 74.3437H48.1406C47.5312 71.5406 45.0937 69.4688 42.1687 69.4688C39.7312 69.4688 37.6593 70.9313 36.6843 73.0031C37.6593 72.2719 38.9999 71.9062 40.3406 71.9062Z" fill="white"/>
<path d="M49.9688 68.7376C50.2125 68.9814 50.5781 69.2251 50.8219 69.4688H51.1875V65.8126C50.8219 65.8126 50.3344 65.6907 49.9688 65.5688V68.7376Z" fill="#825012"/>
<path opacity="0.2" d="M50.5781 59.7188C53.5031 59.7188 55.8187 62.0344 56.0625 64.8375C56.6719 64.7156 57.2812 64.5938 57.8906 64.5938C60.9375 64.5938 63.4969 66.5438 64.35 69.3469C64.4719 68.8594 64.5938 68.25 64.5938 67.6406C64.5938 64.5938 62.1562 62.1562 59.1094 62.1562C58.5 62.1562 57.8906 62.2781 57.2812 62.5219C57.1594 60.3281 55.3313 58.5 53.0156 58.5C51.7969 58.5 50.7 58.9875 49.9688 59.7188H50.5781Z" fill="white"/>
<path opacity="0.3" d="M69.3469 73.6125C67.275 75.9281 64.35 77.3906 61.0594 77.3906H60.3281C61.5469 78.7312 62.2781 80.3156 62.4 82.1437C65.9344 80.8031 68.7375 77.5125 69.3469 73.6125ZM66.4219 86.1656C66.7875 87.0187 66.9094 87.9937 67.0312 88.9687C69.1031 87.6281 70.5656 85.4343 70.6875 82.875C69.7125 84.4593 68.1281 85.5562 66.4219 86.1656ZM39.8531 71.9062C37.9031 70.2 36.5625 67.6406 36.5625 64.7156C35.8312 66.0562 35.3438 67.7625 35.3438 69.4687C35.3438 70.8093 35.5875 72.0281 36.075 73.2468C37.1719 72.3937 38.5125 72.0281 39.8531 71.9062Z" fill="black"/>
<path d="M58.5 73.8563C58.5 75.9282 56.9156 76.4157 54.8438 76.4157V78.0001H56.0625C58.1344 78.0001 59.7188 76.4157 59.7188 74.3438V71.9063C59.3531 71.9063 58.8656 71.7845 58.5 71.6626V73.8563Z" fill="#825012"/>
<path d="M55.8187 98.8406C62.0786 98.8406 67.1531 93.7661 67.1531 87.5063C67.1531 81.2465 62.0786 76.1719 55.8187 76.1719C49.5589 76.1719 44.4844 81.2465 44.4844 87.5063C44.4844 93.7661 49.5589 98.8406 55.8187 98.8406Z" fill="#539B00"/>
<path opacity="0.2" d="M51.1875 84.0938C52.65 84.0938 53.9906 84.4594 55.2093 85.0688C56.6718 83.7281 58.7437 82.875 60.9375 82.875C62.8875 82.875 64.7156 83.4844 66.0562 84.5813C64.7156 82.1438 62.0343 80.4375 59.1093 80.4375C57.1593 80.4375 55.3312 81.1687 53.9906 82.3875C53.1375 81.9 52.1625 81.6562 51.1875 81.6562C48.2625 81.6562 45.825 83.7281 45.2156 86.5312C46.8 85.0687 48.8718 84.0938 51.1875 84.0938Z" fill="white"/>
<path opacity="0.3" d="M57.0374 96.2812C52.4062 96.2812 48.5062 93.8437 46.3124 90.1875H45.2156C40.9499 90.1875 37.2937 87.75 35.4656 84.2156C35.5875 90.1875 40.4624 95.0625 46.4343 95.0625H47.5312C49.6031 97.3781 52.5281 98.7187 55.8187 98.7187C60.2062 98.7187 63.8624 96.2812 65.8124 92.7468C63.4968 94.9406 60.3281 96.2812 57.0374 96.2812Z" fill="black"/>
<path opacity="0.3" d="M105.422 117C110.47 117 114.562 114.817 114.562 112.125C114.562 109.433 110.47 107.25 105.422 107.25C100.374 107.25 96.2812 109.433 96.2812 112.125C96.2812 114.817 100.374 117 105.422 117Z" fill="black"/>
<path d="M107.25 82.875V112.125C107.25 112.856 106.397 113.344 105.422 113.344C104.447 113.344 103.594 112.856 103.594 112.125V82.875H107.25Z" fill="#825012"/>
<path d="M116.391 88.9688C120.766 88.9688 124.312 85.422 124.312 81.0469C124.312 76.6717 120.766 73.125 116.391 73.125C112.015 73.125 108.469 76.6717 108.469 81.0469C108.469 85.422 112.015 88.9688 116.391 88.9688Z" fill="#539B00"/>
<path d="M112.125 81.6562C118.183 81.6562 123.094 76.7454 123.094 70.6875C123.094 64.6296 118.183 59.7188 112.125 59.7188C106.067 59.7188 101.156 64.6296 101.156 70.6875C101.156 76.7454 106.067 81.6562 112.125 81.6562Z" fill="#539B00"/>
<path d="M104.812 97.9875C101.644 97.9875 101.156 96.8906 101.156 93.8438V84.0938H99.9375V96.2812C99.9375 98.3531 101.522 99.9375 103.594 99.9375H104.812V97.9875ZM106.031 99.6938C108.103 99.6938 109.688 99.2062 109.688 97.1344V85.3125H110.906V97.5C110.906 99.5719 109.322 101.156 107.25 101.156H106.031V99.6938Z" fill="#825012"/>
<path d="M101.156 96.0375C99.0844 96.0375 98.7188 94.4531 98.7188 93.4781V81.6562H97.5V93.8438C97.5 95.9156 99.0844 97.5 101.156 97.5V96.0375Z" fill="#825012"/>
<path d="M99.9375 93.8438C105.995 93.8438 110.906 88.9329 110.906 82.875C110.906 76.8171 105.995 71.9062 99.9375 71.9062C93.8796 71.9062 88.9688 76.8171 88.9688 82.875C88.9688 88.9329 93.8796 93.8438 99.9375 93.8438Z" fill="#539B00"/>
<path d="M93.8438 85.3125C97.8823 85.3125 101.156 82.0386 101.156 78C101.156 73.9614 97.8823 70.6875 93.8438 70.6875C89.8052 70.6875 86.5312 73.9614 86.5312 78C86.5312 82.0386 89.8052 85.3125 93.8438 85.3125Z" fill="#539B00"/>
<path d="M99.9375 82.6313C97.8656 82.6313 96.2812 82.1437 96.2812 80.0719V76.7812H95.0625V80.4375C95.0625 82.5094 96.6469 84.0938 98.7188 84.0938H99.9375V82.6313Z" fill="#825012"/>
<path d="M98.7188 78C104.104 78 108.469 73.6348 108.469 68.25C108.469 62.8652 104.104 58.5 98.7188 58.5C93.334 58.5 88.9688 62.8652 88.9688 68.25C88.9688 73.6348 93.334 78 98.7188 78Z" fill="#539B00"/>
<path d="M103.594 73.125C108.979 73.125 113.344 68.7598 113.344 63.375C113.344 57.9902 108.979 53.625 103.594 53.625C98.209 53.625 93.8438 57.9902 93.8438 63.375C93.8438 68.7598 98.209 73.125 103.594 73.125Z" fill="#539B00"/>
<path d="M111.516 65.8125C114.545 65.8125 117 63.3571 117 60.3281C117 57.2992 114.545 54.8438 111.516 54.8438C108.487 54.8438 106.031 57.2992 106.031 60.3281C106.031 63.3571 108.487 65.8125 111.516 65.8125Z" fill="#539B00"/>
<path opacity="0.2" d="M93.9656 70.6875C96.6468 70.6875 98.9625 72.2719 99.9375 74.4656C100.303 74.3437 100.791 74.3438 101.278 74.3438C103.472 74.3438 105.422 75.4406 106.641 77.025C106.153 74.8313 104.203 73.125 101.887 73.125H101.766C101.156 70.3219 98.7187 68.25 95.7937 68.25C93.3562 68.25 91.2843 69.7125 90.3093 71.7844C91.2843 71.0531 92.625 70.6875 93.9656 70.6875Z" fill="white"/>
<path d="M103.594 67.5189C103.838 67.7626 104.203 68.0063 104.447 68.2501H104.812V64.5938C104.447 64.5938 103.959 64.472 103.594 64.3501V67.5189Z" fill="#825012"/>
<path opacity="0.2" d="M104.203 58.5C107.128 58.5 109.444 60.8156 109.688 63.6188C110.297 63.4969 110.906 63.375 111.516 63.375C114.562 63.375 117.122 65.325 117.975 68.1281C118.097 67.6406 118.219 67.0312 118.219 66.4219C118.219 63.375 115.781 60.9375 112.734 60.9375C112.125 60.9375 111.516 61.0594 110.906 61.3031C110.784 59.1094 108.956 57.2812 106.641 57.2812C105.422 57.2812 104.325 57.7687 103.594 58.5H104.203Z" fill="white"/>
<path opacity="0.3" d="M122.972 72.3937C120.9 74.7093 117.975 76.1718 114.684 76.1718H113.953C115.172 77.5125 115.903 79.0968 116.025 80.925C119.559 79.5843 122.363 76.2937 122.972 72.3937ZM120.047 84.9468C120.413 85.8 120.534 86.775 120.656 87.75C122.728 86.4093 124.191 84.2156 124.312 81.6562C123.338 83.2406 121.753 84.3375 120.047 84.9468ZM93.4781 70.6875C91.5281 68.9812 90.1875 66.4218 90.1875 63.4968C89.4562 64.8375 88.9688 66.5437 88.9688 68.25C88.9688 69.5906 89.2125 70.8093 89.7 72.0281C90.7969 71.175 92.1375 70.8093 93.4781 70.6875Z" fill="black"/>
<path d="M112.125 72.6376C112.125 74.7095 110.541 75.197 108.469 75.197V76.7813H109.688C111.759 76.7813 113.344 75.197 113.344 73.1251V70.6876C112.978 70.6876 112.491 70.5657 112.125 70.4438V72.6376Z" fill="#825012"/>
<path d="M109.444 97.6219C115.704 97.6219 120.778 92.5473 120.778 86.2875C120.778 80.0277 115.704 74.9531 109.444 74.9531C103.184 74.9531 98.1094 80.0277 98.1094 86.2875C98.1094 92.5473 103.184 97.6219 109.444 97.6219Z" fill="#539B00"/>
<path opacity="0.2" d="M104.812 82.875C106.275 82.875 107.616 83.2406 108.834 83.85C110.297 82.5094 112.369 81.6562 114.562 81.6562C116.512 81.6562 118.341 82.2656 119.681 83.3625C118.341 80.925 115.659 79.2188 112.734 79.2188C110.784 79.2188 108.956 79.95 107.616 81.1687C106.762 80.6812 105.787 80.4375 104.812 80.4375C101.887 80.4375 99.45 82.5094 98.8406 85.3125C100.425 83.85 102.497 82.875 104.812 82.875Z" fill="white"/>
<path opacity="0.3" d="M110.663 95.0625C106.031 95.0625 102.131 92.625 99.9375 88.9687H98.8406C94.575 88.9687 90.9188 86.5312 89.0906 82.9968C89.2125 88.9687 94.0875 93.8437 100.059 93.8437H101.156C103.228 96.1593 106.153 97.5 109.444 97.5C113.831 97.5 117.488 95.0625 119.438 91.5281C117.122 93.7218 113.953 95.0625 110.663 95.0625ZM66.3 128.091L59.3531 130.528L64.35 130.772L61.3031 132.844H68.3719L72.5156 131.747L71.7844 135.159L76.1719 134.428L79.3406 131.869L85.3125 133.697L91.65 132.844L89.7 131.625L91.8938 131.137L82.7531 128.578L66.3 128.091Z" fill="black"/>
<path d="M69.1031 101.887C74.3437 101.278 76.7812 91.4062 76.7812 91.4062C76.7812 91.4062 77.8781 101.156 84.3375 103.716C84.4594 104.569 82.0219 105.422 79.95 104.447C79.8281 106.397 84.2156 109.444 86.775 110.175C86.8969 111.272 84.4594 112.734 82.0219 112.003C83.1187 114.319 84.825 116.391 88.8469 117.366C87.0187 118.463 84.0937 117.488 82.3875 117.366C82.3875 118.95 88.1156 120.412 91.0406 120.291C90.5531 121.753 87.75 123.337 85.3125 123.216C85.3125 124.922 91.0406 126.384 92.5031 126.872C92.625 128.334 88.4812 129.188 85.6781 128.334C85.5562 130.041 88.6031 131.625 90.0656 132.356C90.0656 133.697 80.8031 133.209 79.2187 130.528C77.5125 131.137 76.2937 134.794 73.0031 134.55C73.4906 133.575 74.3437 130.528 72.7594 129.797C71.4187 131.747 65.6906 133.088 63.375 131.991C63.9844 131.381 67.275 130.894 66.3 128.7C63.375 128.578 59.3531 126.019 59.475 124.678C60.2062 125.166 65.0812 125.897 65.2031 124.678C63.0094 124.556 61.6687 122.728 61.5469 121.387C62.2781 121.753 67.1531 122.606 67.275 121.022C65.5687 120.413 63.4969 119.194 63.6187 117.731C65.0812 117.853 68.1281 117.853 68.3719 116.269C66.5437 115.659 64.8375 112.978 64.7156 111.881C66.0562 112.247 71.2969 112.003 71.175 110.784C68.8594 110.663 67.0312 109.688 67.1531 108.225C70.0781 107.981 73.2469 104.934 73.2469 103.472C72.2719 104.081 69.9562 103.594 69.1031 101.887Z" fill="#28896D"/>
<path opacity="0.2" d="M88.9688 117.366C88.9688 117.366 85.3125 117.487 82.1438 114.441C78.975 111.394 78.1219 109.444 78.1219 109.444C78.1219 109.444 77.3907 110.419 74.8313 112.003C72.2719 113.587 66.9094 113.466 66.9094 113.466C66.9094 113.466 70.3219 116.025 75.1969 114.562C77.6344 113.831 77.3907 113.344 77.3907 113.344C77.3907 113.344 80.8032 116.269 82.0219 116.756C87.0188 118.462 88.9688 117.366 88.9688 117.366ZM68.7375 108.712C73.125 106.397 75.8063 104.447 76.6594 100.791C76.4157 102.497 80.0719 107.25 83.4844 109.809C80.925 109.566 77.7563 105.3 76.2938 105.422C76.05 106.762 71.7844 108.469 68.7375 108.712Z" fill="white"/>
<path opacity="0.2" d="M70.8093 102.253C75.1968 99.9375 75.9281 96.8907 76.7812 93.1125C76.5375 94.8188 78.7312 100.303 82.1437 102.863C79.5844 102.619 77.3906 98.9625 76.4156 98.1094C76.05 99.5719 73.7344 102.009 70.8093 102.253ZM64.35 118.341C64.35 118.341 69.7125 118.219 73.8562 116.269C75.075 116.147 76.9031 120.047 77.8781 120.291C78.8531 120.047 79.4625 119.803 80.4375 119.072C81.2906 122.85 87.8718 126.019 91.5281 127.116C84.825 127.116 79.95 122.728 79.2187 121.388C78.3656 121.997 78.2437 123.947 76.6594 123.947C75.4406 122.119 73.4906 119.559 73.0031 118.219C71.7844 117.853 66.4219 119.681 64.35 118.341Z" fill="white"/>
<path opacity="0.2" d="M61.0593 125.775C68.6156 126.628 71.4187 123.094 72.6375 121.753C71.9062 126.994 63.375 128.456 61.0593 125.775ZM81.1687 124.8C83.3625 128.334 84.0937 130.406 89.0906 131.991C81.0468 132.478 80.1937 126.506 81.1687 124.8ZM73.9781 133.453C74.4656 133.697 79.0968 126.263 75.6843 124.922C73.7343 126.019 75.4406 129.797 73.9781 133.453Z" fill="white"/>
<path opacity="0.3" d="M79.3406 102.862L77.3906 101.278C77.3906 101.278 78.975 103.228 79.95 104.447C82.0219 105.422 84.4594 104.569 84.3375 103.716C84.3375 103.716 81.2906 104.447 79.3406 102.862ZM81.9 130.162C79.4625 127.725 78.975 123.947 78.975 123.947C78.975 123.947 77.5125 128.944 76.4156 131.259C75.6844 132.722 74.9531 133.941 73.125 134.428V134.55C76.5375 134.794 77.6344 131.137 79.3406 130.528C80.925 133.209 90.1875 133.697 90.1875 132.356C90.0656 132.234 84.3375 132.6 81.9 130.162ZM86.0437 121.387C83.6062 121.266 80.3156 116.756 80.3156 116.756C80.3156 116.756 78.6094 117.609 77.6344 116.878C76.6594 116.147 75.8062 115.416 75.8062 115.416C75.8062 115.416 76.6594 119.681 78 119.437C79.3406 119.194 80.0719 118.828 80.5594 118.219C81.1687 121.387 85.3125 123.216 85.3125 123.216C87.75 123.337 90.5531 121.875 91.0406 120.291C91.1625 120.291 88.4812 121.509 86.0437 121.387ZM71.2969 110.906C72.0281 110.906 72.7594 110.906 73.3687 110.784C75.1969 110.541 78.3656 108.834 78.3656 108.834L75.9281 109.078L76.9031 107.006C76.9031 107.006 74.1 109.322 71.6625 109.566C69.225 109.931 67.3969 108.347 67.3969 108.347C67.1531 109.809 69.1031 110.784 71.2969 110.906ZM67.275 121.022C67.1531 122.606 62.2781 121.753 61.5469 121.387C65.0812 123.703 71.7844 121.022 71.7844 121.022L68.6156 121.144L72.2719 119.316C72.2719 119.316 64.1062 119.803 63.7406 117.731C63.4969 119.194 65.5688 120.412 67.275 121.022Z" fill="black"/>
<path opacity="0.3" d="M70.8094 122.728C70.8094 122.728 68.25 123.459 66.4219 123.459C64.7156 123.459 61.7906 121.875 61.5469 121.388C61.6688 122.728 63.0094 124.434 65.2031 124.556C69.3469 125.044 70.8094 122.728 70.8094 122.728ZM73.9781 130.406C73.9781 128.944 73.6125 120.413 73.6125 120.413C73.6125 120.413 73.3688 125.531 68.8594 129.919C67.275 131.381 63.2531 131.869 63.2531 131.869C65.5688 132.966 71.2969 131.625 72.6375 129.675C73.8562 130.284 73.6125 132.234 73.2469 133.575C73.6125 132.722 73.9781 131.381 73.9781 130.406ZM82.6313 138.206L78.3656 139.791L81.4125 139.913L79.5844 141.131H83.85L86.4094 140.522L86.0438 142.594L88.6031 142.106L90.5531 140.522L94.2094 141.741L98.1094 141.131L96.8906 140.4L98.2313 140.034L92.7469 138.572L82.6313 138.206Z" fill="black"/>
<path d="M84.3375 122.241C87.5063 121.875 88.9688 115.781 88.9688 115.781C88.9688 115.781 89.5782 121.753 93.6001 123.337C93.7219 123.947 92.2594 124.434 90.9188 123.825C90.7969 125.044 93.4782 126.872 95.0626 127.359C95.0626 127.969 93.6 128.944 92.1375 128.456C92.7469 129.919 93.8438 131.137 96.2813 131.747C95.1844 132.356 93.3563 131.747 92.2594 131.747C92.2594 132.722 95.7938 133.575 97.6219 133.575C97.2563 134.55 95.55 135.403 94.0875 135.403C94.0875 136.5 97.6219 137.353 98.4751 137.597C98.5969 138.45 96.0376 139.059 94.3313 138.45C94.3313 139.547 96.1594 140.4 97.0125 140.887C97.0125 141.741 91.2844 141.497 90.4313 139.791C89.3344 140.156 88.725 142.472 86.6532 142.228C86.8969 141.619 87.5063 139.791 86.5313 139.303C85.6782 140.522 82.2657 141.253 80.8032 140.644C81.1688 140.278 83.2407 140.034 82.6313 138.694C80.8032 138.694 78.3657 136.988 78.4876 136.256C78.9751 136.622 81.9001 136.988 82.0219 136.256C80.6813 136.134 79.8282 135.037 79.8282 134.306C80.3157 134.55 83.2407 135.038 83.3626 134.062C82.2657 133.697 81.0469 132.966 81.1688 132.113C82.0219 132.234 83.9719 132.112 84.0938 131.259C82.9969 130.894 81.9 129.188 81.9 128.578C82.7532 128.822 85.9219 128.578 85.9219 127.969C84.5813 127.847 83.3625 127.359 83.4844 126.384C85.3125 126.262 87.2625 124.313 87.2625 123.459C86.2875 123.459 84.825 123.216 84.3375 122.241Z" fill="#28896D"/>
<path opacity="0.2" d="M96.525 131.747C96.525 131.747 94.2094 131.869 92.3813 129.919C90.4313 128.091 89.9438 126.872 89.9438 126.872C89.9438 126.872 89.4563 127.481 87.9938 128.456C86.4094 129.431 83.1188 129.309 83.1188 129.309C83.1188 129.309 85.1907 130.894 88.2375 129.919C89.7 129.431 89.5782 129.187 89.5782 129.187C89.5782 129.187 91.65 131.016 92.5032 131.259C95.3063 132.356 96.525 131.747 96.525 131.747ZM84.0938 126.384C86.775 124.922 88.3594 123.825 88.9688 121.509C88.8469 122.606 91.0407 125.531 93.1125 126.994C91.5282 126.872 89.5782 124.191 88.725 124.312C88.6032 125.166 85.9219 126.262 84.0938 126.384Z" fill="white"/>
<path opacity="0.2" d="M85.3125 122.484C87.9937 121.022 88.3593 119.194 88.9687 116.878C88.8468 117.975 90.1875 121.266 92.2593 122.85C90.675 122.728 89.3344 120.534 88.725 119.925C88.6031 120.778 87.1406 122.241 85.3125 122.484ZM81.4125 132.356C81.4125 132.356 84.7031 132.356 87.2625 131.138C87.9937 131.138 89.0906 133.453 89.7 133.575C90.3093 133.453 90.675 133.209 91.2843 132.844C91.7718 135.159 95.7937 137.109 98.1093 137.719C93.9656 137.719 91.0406 135.038 90.5531 134.184C90.0656 134.55 89.9437 135.769 88.9687 135.769C88.2375 134.672 87.0187 133.088 86.775 132.234C85.9218 131.991 82.6312 133.088 81.4125 132.356Z" fill="white"/>
<path opacity="0.2" d="M79.4625 136.866C84.0938 137.353 85.8 135.281 86.5313 134.428C86.0438 137.597 80.8031 138.45 79.4625 136.866ZM91.65 136.256C92.9906 138.45 93.4781 139.669 96.525 140.644C91.65 140.888 91.1625 137.231 91.65 136.256ZM87.2625 141.497C87.5063 141.619 90.4313 137.109 88.2375 136.256C87.1407 136.988 88.2375 139.303 87.2625 141.497Z" fill="white"/>
<path opacity="0.3" d="M90.5532 122.85L89.3344 121.875C89.3344 121.875 90.3094 123.094 90.9188 123.825C92.1375 124.434 93.6001 123.947 93.6001 123.337C93.6001 123.337 91.7719 123.703 90.5532 122.85ZM92.1375 139.547C90.675 138.084 90.3094 135.769 90.3094 135.769C90.3094 135.769 89.4563 138.816 88.7251 140.278C88.2376 141.131 87.8719 141.862 86.6532 142.228V142.35C88.725 142.472 89.4563 140.278 90.4313 139.913C91.4063 141.619 97.0125 141.862 97.0125 141.009C97.1344 140.766 93.6 141.009 92.1375 139.547ZM94.6969 134.184C93.2344 134.062 91.1626 131.381 91.1626 131.381C91.1626 131.381 90.1875 131.869 89.5782 131.503C88.9688 131.138 88.4813 130.65 88.4813 130.65C88.4813 130.65 88.9688 133.209 89.8219 133.087C90.675 132.966 91.0407 132.722 91.4063 132.356C91.7719 134.306 94.3313 135.403 94.3313 135.403C95.7938 135.525 97.5001 134.55 97.8657 133.575C97.8657 133.453 96.1594 134.184 94.6969 134.184ZM85.6782 127.725C86.1657 127.725 86.5313 127.725 87.0188 127.603C88.1157 127.481 90.0657 126.384 90.0657 126.384L88.6032 126.506L89.2125 125.166C89.2125 125.166 87.5063 126.506 86.0438 126.75C84.5813 126.994 83.3625 126.019 83.3625 126.019C83.1188 127.116 84.3376 127.603 85.6782 127.725ZM83.2407 133.941C83.1188 134.916 80.1938 134.428 79.7063 134.184C81.9 135.647 86.0438 133.941 86.0438 133.941H84.0938L86.4094 132.844C86.4094 132.844 81.4125 133.087 81.1688 131.869C80.925 132.844 82.1438 133.575 83.2407 133.941Z" fill="black"/>
<path opacity="0.3" d="M85.3125 135.037C85.3125 135.037 83.7282 135.525 82.6313 135.525C81.6563 135.525 79.7063 134.55 79.7063 134.306C79.8282 135.159 80.5594 136.134 81.9 136.256C84.4594 136.378 85.3125 135.037 85.3125 135.037ZM87.3844 139.669C87.3844 138.816 87.1407 133.575 87.1407 133.575C87.1407 133.575 87.0188 136.622 84.2157 139.425C83.2407 140.278 80.8032 140.644 80.8032 140.644C82.2657 141.253 85.6782 140.522 86.5313 139.303C87.2625 139.669 87.1407 140.887 86.8969 141.619C87.1407 141.009 87.3844 140.278 87.3844 139.669Z" fill="black"/>
</svg>
