<svg width="54" height="54" viewBox="0 0 54 54" fill="none" xmlns="http://www.w3.org/2000/svg">
<path d="M43.875 5.0625H10.125C8.78234 5.0625 7.49467 5.59587 6.54527 6.54527C5.59587 7.49467 5.0625 8.78234 5.0625 10.125V43.875C5.0625 45.2177 5.59587 46.5053 6.54527 47.4547C7.49467 48.4041 8.78234 48.9375 10.125 48.9375H43.875C45.2177 48.9375 46.5053 48.4041 47.4547 47.4547C48.4041 46.5053 48.9375 45.2177 48.9375 43.875V10.125C48.9375 8.78234 48.4041 7.49467 47.4547 6.54527C46.5053 5.59587 45.2177 5.0625 43.875 5.0625ZM35.4375 35.4375H18.5625C18.1149 35.4375 17.6857 35.2597 17.3693 34.9432C17.0528 34.6268 16.875 34.1976 16.875 33.75C16.875 33.3024 17.0528 32.8732 17.3693 32.5568C17.6857 32.2403 18.1149 32.0625 18.5625 32.0625H35.4375C35.8851 32.0625 36.3143 32.2403 36.6307 32.5568C36.9472 32.8732 37.125 33.3024 37.125 33.75C37.125 34.1976 36.9472 34.6268 36.6307 34.9432C36.3143 35.2597 35.8851 35.4375 35.4375 35.4375ZM35.4375 28.6875H18.5625C18.1149 28.6875 17.6857 28.5097 17.3693 28.1932C17.0528 27.8768 16.875 27.4476 16.875 27C16.875 26.5524 17.0528 26.1232 17.3693 25.8068C17.6857 25.4903 18.1149 25.3125 18.5625 25.3125H35.4375C35.8851 25.3125 36.3143 25.4903 36.6307 25.8068C36.9472 26.1232 37.125 26.5524 37.125 27C37.125 27.4476 36.9472 27.8768 36.6307 28.1932C36.3143 28.5097 35.8851 28.6875 35.4375 28.6875ZM35.4375 21.9375H18.5625C18.1149 21.9375 17.6857 21.7597 17.3693 21.4432C17.0528 21.1268 16.875 20.6976 16.875 20.25C16.875 19.8024 17.0528 19.3732 17.3693 19.0568C17.6857 18.7403 18.1149 18.5625 18.5625 18.5625H35.4375C35.8851 18.5625 36.3143 18.7403 36.6307 19.0568C36.9472 19.3732 37.125 19.8024 37.125 20.25C37.125 20.6976 36.9472 21.1268 36.6307 21.4432C36.3143 21.7597 35.8851 21.9375 35.4375 21.9375Z" fill="#00AA13"/>
</svg>
