<svg width="40" height="40" viewBox="0 0 40 40" fill="none" xmlns="http://www.w3.org/2000/svg">
<path d="M30 5H10C7.16667 5 5 7.16667 5 10V30C5 32.8333 7.16667 35 10 35H30C32.8333 35 35 32.8333 35 30V10C35 7.16667 32.8333 5 30 5ZM20 15C22.8333 15 25 17.1667 25 20C25 22.8333 22.8333 25 20 25C17.1667 25 15 22.8333 15 20C15 17.1667 17.1667 15 20 15ZM26.3333 11.6667C26.3333 10.5 27.3333 9.66667 28.3333 9.66667C29.3333 9.66667 30.3333 10.6667 30.3333 11.6667C30.3333 12.6667 29.5 13.6667 28.3333 13.6667C27.1667 13.6667 26.3333 12.8333 26.3333 11.6667ZM30 31.6667H10C9 31.6667 8.33333 31 8.33333 30V20H11.6667C11.6667 24.6667 15.3333 28.3333 20 28.3333C24.6667 28.3333 28.3333 24.6667 28.3333 20H31.6667V30C31.6667 31 31 31.6667 30 31.6667Z" fill="#F5F5F5"/>
</svg>
