<svg width="136" height="136" viewBox="0 0 136 136" fill="none" xmlns="http://www.w3.org/2000/svg">
<path d="M132.474 122.74H3.52588V125.923H132.474V122.74Z" fill="#7A8490"/>
<path d="M96.1126 122.739H60.247L66.2045 109.484C68.8022 103.705 70.1453 97.44 70.1453 91.1034V48.6606C70.1453 48.1264 70.5783 47.6934 71.1125 47.6934H85.2477C85.7819 47.6934 86.2149 48.1264 86.2149 48.6606V91.1039C86.2149 97.4402 87.5579 103.705 90.1553 109.484L96.1126 122.739ZM31.2727 60.9748V98.3884H15.4938V60.9748C15.4938 56.6176 19.0261 53.0854 23.3833 53.0854C27.7405 53.0854 31.2727 56.6176 31.2727 60.9748Z" fill="#44433F"/>
<path d="M125.271 101.882H83.5544V122.735H125.271V101.882Z" fill="#CCBAA8"/>
<path d="M126.888 99.7383H81.9395V101.877H126.888V99.7383Z" fill="#D9C8B4"/>
<path d="M36.3462 98.3884L60.6691 122.739H9.86853V98.3884H36.3462Z" fill="#CCBAA8"/>
<path d="M22.0934 101.965H14.4452V104.32H22.0934V101.965Z" fill="#BFA994"/>
<path d="M31.7696 101.965H24.1213V104.32H31.7696V101.965Z" fill="#BFA994"/>
<path d="M22.0934 106.912H14.4452V109.267H22.0934V106.912Z" fill="#BFA994"/>
<path d="M31.7696 106.912H24.1213V109.267H31.7696V106.912Z" fill="#BFA994"/>
<path d="M22.0934 111.859H14.4452V114.215H22.0934V111.859Z" fill="#BFA994"/>
<path d="M31.7696 111.859H24.1213V114.215H31.7696V111.859Z" fill="#BFA994"/>
<path d="M22.0934 116.807H14.4452V119.162H22.0934V116.807Z" fill="#BFA994"/>
<path d="M31.7696 116.807H24.1213V119.162H31.7696V116.807Z" fill="#BFA994"/>
<path opacity="0.08" d="M60.666 122.736H33.466L9.87256 99.142V98.3865H36.3472L60.666 122.736Z" fill="black"/>
<path d="M65.3777 88.6076V122.731H42.9478V85.2922L50.4349 88.6076V85.2922L57.8917 88.6076V85.2922L65.3777 88.6076Z" fill="#D9C8B4"/>
<path d="M13.7743 98.3885H12.5644V64.7764H15.4939V65.9863H13.7743V98.3885Z" fill="#44433F"/>
<path d="M87.4472 52.1123C87.4472 52.648 87.0106 53.0854 86.4741 53.0854H69.852C69.3147 53.0854 68.9125 52.648 68.9125 52.1123C68.9125 51.5749 69.3147 51.1392 69.852 51.1392H86.4741C87.0106 51.1392 87.4472 51.5749 87.4472 52.1123ZM87.4472 63.4106C87.4472 63.9463 87.0106 64.3837 86.4741 64.3837H69.852C69.3147 64.3837 68.9125 63.9463 68.9125 63.4106C68.9125 62.8732 69.3147 62.4375 69.852 62.4375H86.4741C87.0106 62.4375 87.4472 62.8732 87.4472 63.4106ZM87.4472 74.7089C87.4472 75.2446 87.0106 75.682 86.4741 75.682H69.852C69.3147 75.682 68.9125 75.2446 68.9125 74.7089C68.9125 74.1715 69.3147 73.7358 69.852 73.7358H86.4741C87.0106 73.7358 87.4472 74.1715 87.4472 74.7089ZM87.4472 86.0072C87.4472 86.5429 87.0106 86.9803 86.4741 86.9803H69.852C69.3147 86.9803 68.9125 86.5429 68.9125 86.0072C68.9125 85.4698 69.3147 85.0341 69.852 85.0341H86.4741C87.0106 85.0341 87.4472 85.4698 87.4472 86.0072ZM87.9312 97.3055C87.9312 97.8412 87.4946 98.2786 86.9581 98.2786H69.368C68.8306 98.2786 68.4285 97.8412 68.4285 97.3055C68.4285 96.7681 68.8306 96.3324 69.368 96.3324H86.9581C87.4946 96.3324 87.9312 96.7681 87.9312 97.3055Z" fill="#606060"/>
<path d="M32.4086 62.4375C32.4086 62.9732 31.972 63.4106 31.4355 63.4106H15.2974C14.7601 63.4106 14.3579 62.9732 14.3579 62.4375C14.3579 61.9001 14.7601 61.4644 15.2974 61.4644H31.4355C31.972 61.4644 32.4086 61.9001 32.4086 62.4375ZM32.4086 72.1405C32.4086 72.6762 31.972 73.1136 31.4355 73.1136H15.2974C14.7601 73.1136 14.3579 72.6762 14.3579 72.1405C14.3579 71.6031 14.7601 71.1674 15.2974 71.1674H31.4355C31.972 71.1674 32.4086 71.6031 32.4086 72.1405ZM32.4086 81.8435C32.4086 82.3792 31.972 82.8166 31.4355 82.8166H15.2974C14.7601 82.8166 14.3579 82.3792 14.3579 81.8435C14.3579 81.3062 14.7601 80.8704 15.2974 80.8704H31.4355C31.972 80.8704 32.4086 81.3062 32.4086 81.8435ZM32.4086 91.5465C32.4086 92.0822 31.972 92.5196 31.4355 92.5196H15.2974C14.7601 92.5196 14.3579 92.0822 14.3579 91.5465C14.3579 91.0092 14.7601 90.5734 15.2974 90.5734H31.4355C31.972 90.5734 32.4086 91.0092 32.4086 91.5465Z" fill="#606060"/>
<path d="M53.1488 93.1187H45.5005V95.474H53.1488V93.1187Z" fill="#BFA994"/>
<path d="M62.8249 93.1187H55.1767V95.474H62.8249V93.1187Z" fill="#BFA994"/>
<path d="M53.1488 98.0659H45.5005V100.421H53.1488V98.0659Z" fill="#BFA994"/>
<path d="M62.8249 98.0659H55.1767V100.421H62.8249V98.0659Z" fill="#BFA994"/>
<path d="M53.1488 103.013H45.5005V105.369H53.1488V103.013Z" fill="#BFA994"/>
<path d="M62.8249 103.013H55.1767V105.369H62.8249V103.013Z" fill="#BFA994"/>
<path d="M53.1488 107.961H45.5005V110.316H53.1488V107.961Z" fill="#BFA994"/>
<path d="M62.8249 107.961H55.1767V110.316H62.8249V107.961Z" fill="#BFA994"/>
<path d="M53.1488 112.908H45.5005V115.264H53.1488V112.908Z" fill="#BFA994"/>
<path d="M62.8249 112.908H55.1767V115.264H62.8249V112.908Z" fill="#BFA994"/>
<path d="M93.2688 104.012H86.1444V106.206H93.2688V104.012Z" fill="#BFA994"/>
<path d="M102.283 104.012H95.1587V106.206H102.283V104.012Z" fill="#BFA994"/>
<path d="M93.2688 108.62H86.1444V110.814H93.2688V108.62Z" fill="#BFA994"/>
<path d="M102.283 108.62H95.1587V110.814H102.283V108.62Z" fill="#BFA994"/>
<path d="M93.2688 113.229H86.1444V115.423H93.2688V113.229Z" fill="#BFA994"/>
<path d="M102.283 113.229H95.1587V115.423H102.283V113.229Z" fill="#BFA994"/>
<path d="M93.2688 117.837H86.1444V120.032H93.2688V117.837Z" fill="#BFA994"/>
<path d="M102.283 117.837H95.1587V120.032H102.283V117.837Z" fill="#BFA994"/>
<path d="M37.1029 96.2488H9.11206V98.3875H37.1029V96.2488Z" fill="#D9C8B4"/>
<path d="M119.996 110.896H108.162V122.73H119.996V110.896Z" fill="#44433F"/>
<path d="M120.298 122.73H119.693V111.199H108.465V122.73H107.86V110.594H120.298V122.73Z" fill="#D9C8B4"/>
<path d="M116.403 28.0793L120.358 99.7382H104.354L108.309 28.0793H116.403Z" fill="#CCBAA8"/>
<path d="M117.413 46.4142H107.299L107.803 37.2871H116.91L117.413 46.4142Z" fill="#D0281B"/>
<path d="M118.542 66.7741H106.171L106.674 57.647H118.038L118.542 66.7741Z" fill="#D0281B"/>
<path d="M119.66 87.1437H105.052L105.556 78.0166H119.156L119.66 87.1437Z" fill="#D0281B"/>
<path d="M117.207 27.5357C117.207 27.8377 116.965 28.0797 116.663 28.0797H108.049C107.747 28.0797 107.505 27.8377 107.505 27.5357C107.505 27.2435 107.747 27.002 108.049 27.002H116.663C116.965 27.002 117.207 27.2435 117.207 27.5357Z" fill="#D9C8B4"/>
<path d="M112.93 24.201C112.93 25.2084 112.124 26.0146 111.117 26.0146C110.291 26.0146 109.606 25.4804 109.384 24.7352C108.85 24.6747 108.387 24.4229 108.044 24.0402C107.672 24.352 107.198 24.5439 106.664 24.5439C105.879 24.5439 105.193 24.1208 104.831 23.4961C104.448 23.929 103.884 24.201 103.259 24.201C102.262 24.201 101.416 23.5163 101.204 22.5891C100.71 23.385 99.824 23.9088 98.8066 23.9088C97.3456 23.9088 96.1469 22.8513 95.9656 21.441C95.6028 21.622 95.1899 21.713 94.7568 21.713C93.1751 21.713 91.8956 20.4537 91.8956 18.8821C91.8956 18.0154 92.2786 17.25 92.8829 16.7261C92.5708 16.2731 92.3792 15.7187 92.3792 15.1245C92.3792 13.5431 93.6586 12.2838 95.2403 12.2838C95.5022 12.2838 95.7541 12.3138 95.9958 12.3842C96.2376 11.0644 97.4061 10.0771 98.8066 10.0771C100.287 10.0771 101.486 11.1854 101.627 12.6262C102.03 12.4043 102.494 12.2838 102.987 12.2838C104.569 12.2838 105.818 13.5431 105.818 15.1245C105.818 15.1747 105.818 15.2254 105.808 15.2755C105.818 15.2755 105.818 15.2755 105.828 15.2755C106.997 15.2755 107.934 16.2023 107.934 17.371C107.934 17.3809 107.934 17.3809 107.934 17.3912C108.024 17.3809 108.115 17.371 108.206 17.371C109.374 17.371 110.301 18.3076 110.301 19.4763C110.301 19.8895 110.19 20.2722 109.989 20.5949C110.936 20.7558 111.651 21.5217 111.721 22.4986C112.427 22.7406 112.93 23.4051 112.93 24.201Z" fill="#A7A29C"/>
<path opacity="0.08" d="M125.271 101.882V122.735H102.796L83.5544 103.494V101.882H125.271Z" fill="black"/>
</svg>
