<svg width="50" height="50" viewBox="0 0 50 50" fill="none" xmlns="http://www.w3.org/2000/svg">
<g clip-path="url(#clip0_30_669)">
<path d="M26.5 33.5L33.1613 20.8616L37 33L30.1613 28.0366L32.5 38.5L22.6013 24.7216L31.8713 33.9916H38.5L39.7163 35L41.8363 39.7116L41 41L39.7163 41.8366C36.8863 44.0116 33.3313 44.6816 29.7863 44.6816C27.6451 44.6553 25.509 44.4664 23.3963 44.1166L23.2513 44.0916C18.0713 43.2866 11.6263 42.2866 7.01133 37.6716C2.39133 33.0566 1.39133 26.6066 0.591332 21.4266L0.566333 21.2816C-0.318667 15.5716 -0.748667 8.42655 3.84133 3.83655C8.42633 -0.74845 15.5713 -0.31845 21.2863 0.56655L21.4263 0.58655C26.6113 1.39158 33.0563 2.39158 37.6713 7.00655C42.2913 11.6266 43.2913 18.0716 44.0913 23.2516L44.1163 23.3966C44.9313 28.6616 45.3613 35.1366 41.8363 39.7116L26.5 33.5Z" fill="#00AA13"/>
<path d="M50 47.88L47.88 50L39.7163 41.8366C40.1166 41.5324 40.4969 41.2029 40.855 40.85C41.2064 40.4922 41.5342 40.1119 41.8363 39.7115L50 47.88Z" fill="#00AA13"/>
<path d="M33.032 17.176H28.36L27.464 22.232H32.168L31.592 25.592H26.856L25.896 31H22.152L23.112 25.592H19.144L18.184 31H14.44L15.4 25.592H10.696L11.304 22.232H16.008L16.904 17.176H12.136L12.744 13.848H17.48L18.408 8.6H22.152L21.224 13.848H25.192L26.12 8.6H29.864L28.936 13.848H33.64L33.032 17.176ZM23.72 22.232L24.616 17.176H20.648L19.752 22.232H23.72Z" fill="#F5F5F5"/>
</g>
<defs>
<clipPath id="clip0_30_669">
<rect width="50" height="50" fill="white"/>
</clipPath>
</defs>
</svg>
