<svg width="109" height="109" viewBox="0 0 109 109" fill="none" xmlns="http://www.w3.org/2000/svg">
<path d="M25.5469 53.4355H23.418V49.1777H25.5469V53.4355ZM25.5469 44.9199H23.418V40.6621H25.5469V44.9199ZM25.5469 36.4043H23.418V32.1465H25.5469V36.4043ZM55.5645 53.4355H53.4355V49.1777H55.5645V53.4355ZM55.5645 44.9199H53.4355V40.6621H55.5645V44.9199ZM55.5645 36.4043H53.4355V32.1465H55.5645V36.4043ZM85.582 53.4355H83.4531V49.1777H85.582V53.4355ZM85.582 44.9199H83.4531V40.6621H85.582V44.9199ZM85.582 36.4043H83.4531V32.1465H85.582V36.4043Z" fill="#68A1D6"/>
<path d="M25.5469 15.9668H23.418V27.8887H25.5469V15.9668Z" fill="#F37787"/>
<path d="M55.5645 15.9668H53.4355V27.8887H55.5645V15.9668Z" fill="#F37787"/>
<path d="M85.582 15.9668H83.4531V27.8887H85.582V15.9668Z" fill="#F37787"/>
<path d="M25.5469 15.9668H23.418V22.5664H25.5469V15.9668Z" fill="#D84861"/>
<path d="M55.5645 15.9668H53.4355V22.5664H55.5645V15.9668Z" fill="#D84861"/>
<path d="M85.582 15.9668H83.4531V22.5664H85.582V15.9668Z" fill="#D84861"/>
<path d="M28.7402 1.06445H20.2246V20.2246H28.7402V1.06445Z" fill="#F37787"/>
<path d="M58.7578 1.06445H50.2422V20.2246H58.7578V1.06445Z" fill="#F37787"/>
<path d="M88.7754 1.06445H80.2598V20.2246H88.7754V1.06445Z" fill="#F37787"/>
<path d="M28.7402 1.06445H20.2246V14.4766H28.7402V1.06445Z" fill="#D84861"/>
<path d="M58.7578 1.06445H50.2422V14.4766H58.7578V1.06445Z" fill="#D84861"/>
<path d="M88.7754 1.06445H80.2598V14.4766H88.7754V1.06445Z" fill="#D84861"/>
<path d="M15.9668 23.3115C11.9219 23.3115 8.51562 20.0117 8.51562 15.9668H10.6445C10.6445 18.7344 12.9863 21.1826 15.9668 21.1826V23.3115Z" fill="#F8D707"/>
<path d="M15.9668 27.5693C9.58008 27.5693 4.25781 22.3535 4.25781 15.9668H6.38672C6.38672 21.0762 10.6445 25.4404 15.9668 25.4404V27.5693ZM15.9668 19.0537C14.2637 19.0537 12.7734 17.6699 12.7734 15.9668H14.9023C14.9023 16.3926 15.3281 16.9248 15.9668 16.9248V19.0537ZM93.0332 23.3115V21.1826C96.0137 21.1826 98.3555 18.7344 98.3555 15.9668H100.484C100.484 20.0117 97.0781 23.3115 93.0332 23.3115Z" fill="#F8D707"/>
<path d="M93.0332 27.5693V25.4404C98.3555 25.4404 102.613 21.0762 102.613 15.9668H104.742C104.742 22.3535 99.4199 27.5693 93.0332 27.5693ZM93.0332 19.0537V16.9248C93.6719 16.9248 94.0977 16.3926 94.0977 15.9668H96.2266C96.2266 17.6699 94.7363 19.0537 93.0332 19.0537Z" fill="#F8D707"/>
<path d="M24.4824 27.8887C22.1406 27.8887 20.2246 29.8047 20.2246 32.1465H28.7402C28.7402 29.8047 26.8242 27.8887 24.4824 27.8887Z" fill="#F37787"/>
<path d="M28.7402 33.2109H20.2246C19.6285 33.2109 19.1602 32.7426 19.1602 32.1465C19.1602 29.2086 21.5445 26.8242 24.4824 26.8242C27.4203 26.8242 29.8047 29.2086 29.8047 32.1465C29.8047 32.7426 29.315 33.2109 28.7402 33.2109ZM21.4594 31.082H27.4842C27.0371 29.8473 25.8662 28.9531 24.4824 28.9531C23.0986 28.9531 21.9064 29.8473 21.4594 31.082Z" fill="#F37787"/>
<path d="M93.0332 101.549C93.0332 96.8439 89.2225 93.0332 84.5176 93.0332C79.8127 93.0332 76.002 96.8439 76.002 101.549H63.0156C63.0156 96.8439 59.2049 93.0332 54.5 93.0332C49.7951 93.0332 45.9844 96.8439 45.9844 101.549H32.998C32.998 96.8439 29.1873 93.0332 24.4824 93.0332C19.7775 93.0332 15.9668 96.8439 15.9668 101.549H1.06445V107.936H15.9668H32.998H45.9844H63.0156H76.002H93.0332H107.936V101.549H93.0332Z" fill="#A38C31"/>
<path d="M25.5469 76.8535H23.418V93.0332H25.5469V76.8535Z" fill="#A38C31"/>
<path d="M24.4824 58.7791C19.5008 63.7607 19.5008 71.8505 24.4824 76.8535C29.4641 71.8718 29.4641 63.782 24.4824 58.7791Z" fill="#BEBF31"/>
<path d="M24.4824 77.9179C24.2057 77.9179 23.9289 77.8115 23.7373 77.5986C18.3512 72.2124 18.3512 63.4201 23.7373 58.0339C23.9289 57.8423 24.2057 57.7146 24.4824 57.7146C24.7592 57.7146 25.0359 57.821 25.2275 58.0339C30.6137 63.4201 30.6137 72.2124 25.2275 77.5986C25.0359 77.8115 24.7592 77.9179 24.4824 77.9179ZM24.4824 60.3757C20.9271 64.6761 20.9271 70.9777 24.4824 75.2781C28.0377 70.9564 28.0377 64.6761 24.4824 60.3757ZM11.709 75.3632C11.709 82.4099 17.4357 88.1367 24.4824 88.1367C24.4824 81.09 18.7557 75.3632 11.709 75.3632Z" fill="#BEBF31"/>
<path d="M24.4824 89.2012C16.8609 89.2012 10.6445 82.9848 10.6445 75.3633C10.6445 74.7672 11.1129 74.2988 11.709 74.2988C19.3305 74.2988 25.5469 80.5152 25.5469 88.1367C25.5469 88.7328 25.0572 89.2012 24.4824 89.2012ZM12.816 76.4703C13.3482 82.0268 17.7977 86.4762 23.3541 87.0084C22.8219 81.452 18.3938 77.0025 12.816 76.4703Z" fill="#BEBF31"/>
<path d="M37.2559 75.3633C30.2092 75.3633 24.4824 81.09 24.4824 88.1367C31.5291 88.1367 37.2559 82.41 37.2559 75.3633Z" fill="#BEBF31"/>
<path d="M24.4824 89.2012C23.8863 89.2012 23.418 88.7328 23.418 88.1367C23.418 80.5152 29.6344 74.2988 37.2559 74.2988C37.852 74.2988 38.3203 74.7672 38.3203 75.3633C38.3203 82.9848 32.1039 89.2012 24.4824 89.2012ZM36.1488 76.4703C30.5924 77.0025 26.143 81.452 25.6107 87.0084C31.1672 86.4975 35.6166 82.048 36.1488 76.4703Z" fill="#BEBF31"/>
<path d="M55.5645 78.1309H53.4355V93.0332H55.5645V78.1309Z" fill="#A38C31"/>
<path d="M41.7266 65.3574C41.7266 72.4041 47.4533 78.1309 54.5 78.1309C54.5 71.0842 48.7732 65.3574 41.7266 65.3574Z" fill="#BEBF31"/>
<path d="M54.5 79.1953C46.8785 79.1953 40.6621 72.9789 40.6621 65.3574C40.6621 64.7613 41.1305 64.293 41.7266 64.293C49.348 64.293 55.5645 70.5094 55.5645 78.1309C55.5645 78.727 55.0748 79.1953 54.5 79.1953ZM42.8336 66.4645C43.3658 72.0209 47.8152 76.4703 53.3717 77.0025C52.8395 71.4461 48.4113 66.9967 42.8336 66.4645Z" fill="#BEBF31"/>
<path d="M67.2734 65.3574C60.2268 65.3574 54.5 71.0842 54.5 78.1309C61.5467 78.1309 67.2734 72.4041 67.2734 65.3574Z" fill="#BEBF31"/>
<path d="M54.5 79.1953C53.9039 79.1953 53.4355 78.727 53.4355 78.1309C53.4355 70.5094 59.652 64.293 67.2734 64.293C67.8695 64.293 68.3379 64.7613 68.3379 65.3574C68.3379 72.9789 62.1215 79.1953 54.5 79.1953ZM66.1664 66.4645C60.61 66.9967 56.1605 71.4461 55.6283 77.0025C61.1848 76.4916 65.6342 72.0422 66.1664 66.4645Z" fill="#BEBF31"/>
<path d="M85.582 72.1699H83.4531V93.0332H85.582V72.1699Z" fill="#A38C31"/>
<path d="M71.7441 59.3965C78.7908 59.3965 84.5176 65.1232 84.5176 72.1699C77.4709 72.1699 71.7441 66.4432 71.7441 59.3965Z" fill="#BEBF31"/>
<path d="M84.5176 73.2344C76.8961 73.2344 70.6797 67.018 70.6797 59.3965C70.6797 58.8004 71.148 58.332 71.7441 58.332C79.3656 58.332 85.582 64.5484 85.582 72.1699C85.582 72.766 85.1137 73.2344 84.5176 73.2344ZM72.8512 60.5035C73.3834 66.06 77.8328 70.5094 83.3893 71.0416C82.8783 65.4852 78.4289 61.0357 72.8512 60.5035Z" fill="#BEBF31"/>
<path d="M97.291 66.7412C97.291 73.7879 91.5643 79.5146 84.5176 79.5146C84.5176 72.468 90.2443 66.7412 97.291 66.7412Z" fill="#BEBF31"/>
<path d="M84.5176 80.5791C83.9215 80.5791 83.4531 80.1107 83.4531 79.5146C83.4531 71.8932 89.6695 65.6768 97.291 65.6768C97.8871 65.6768 98.3555 66.1451 98.3555 66.7412C98.3555 74.3627 92.1391 80.5791 84.5176 80.5791ZM96.184 67.8695C90.6275 68.4018 86.1781 72.8512 85.6459 78.4076C91.2023 77.8754 95.6518 73.426 96.184 67.8695Z" fill="#BEBF31"/>
<path d="M71.7441 76.2148C78.7908 76.2148 84.5176 81.9416 84.5176 88.9883C77.4496 88.9883 71.7441 83.2615 71.7441 76.2148Z" fill="#BEBF31"/>
<path d="M84.5176 90.0527C76.8961 90.0527 70.6797 83.8363 70.6797 76.2148C70.6797 75.6188 71.148 75.1504 71.7441 75.1504C79.3656 75.1504 85.582 81.3668 85.582 88.9883C85.582 89.5844 85.0924 90.0527 84.5176 90.0527ZM72.8512 77.3219C73.3834 82.8783 77.8328 87.3277 83.3893 87.86C82.857 82.3035 78.4289 77.8541 72.8512 77.3219Z" fill="#BEBF31"/>
<path d="M107.936 1.06445H1.06445V11.709H107.936V1.06445Z" fill="#F37787"/>
<path d="M32.7852 31.082H16.1797V33.2109H32.7852V31.082Z" fill="#F37787"/>
<path d="M54.5 27.8887C52.1582 27.8887 50.2422 29.8047 50.2422 32.1465H58.7578C58.7578 29.8047 56.8418 27.8887 54.5 27.8887Z" fill="#F37787"/>
<path d="M58.7578 33.2109H50.2422C49.6461 33.2109 49.1777 32.7426 49.1777 32.1465C49.1777 29.2086 51.5621 26.8242 54.5 26.8242C57.4379 26.8242 59.8223 29.2086 59.8223 32.1465C59.8223 32.7426 59.3326 33.2109 58.7578 33.2109ZM51.477 31.082H57.5018C57.0547 29.8473 55.8838 28.9531 54.5 28.9531C53.1162 28.9531 51.924 29.8473 51.477 31.082Z" fill="#F37787"/>
<path d="M62.8027 31.082H46.1973V33.2109H62.8027V31.082Z" fill="#F37787"/>
<path d="M84.5176 27.8887C82.1758 27.8887 80.2598 29.8047 80.2598 32.1465H88.7754C88.7754 29.8047 86.8594 27.8887 84.5176 27.8887Z" fill="#F37787"/>
<path d="M88.7754 33.2109H80.2598C79.6637 33.2109 79.1953 32.7426 79.1953 32.1465C79.1953 29.2086 81.5797 26.8242 84.5176 26.8242C87.4555 26.8242 89.8398 29.2086 89.8398 32.1465C89.8398 32.7426 89.3502 33.2109 88.7754 33.2109ZM81.4945 31.082H87.5193C87.0723 29.8473 85.9014 28.9531 84.5176 28.9531C83.1338 28.9531 81.9416 29.8473 81.4945 31.082Z" fill="#F37787"/>
<path d="M92.8203 31.082H76.2148V33.2109H92.8203V31.082Z" fill="#F37787"/>
</svg>
