<svg width="40" height="40" viewBox="0 0 40 40" fill="none" xmlns="http://www.w3.org/2000/svg">
<path d="M31.4834 11.6865C32.83 10.8599 33.7217 9.73154 34.1584 8.29654C32.9285 8.96172 31.6086 9.44508 30.24 9.73154C29.0683 8.47154 27.585 7.83154 25.8067 7.83154C24.0684 7.83154 22.6 8.44154 21.4017 9.62821C20.823 10.1917 20.3654 10.8675 20.0571 11.614C19.7487 12.3606 19.596 13.1622 19.6084 13.9699C19.6084 14.4849 19.6734 14.9449 19.8034 15.3349C14.6767 15.1599 10.4334 13.0332 7.09002 8.93988C6.52335 9.94154 6.24002 10.9615 6.24002 12.0165C6.24002 14.1849 7.15502 15.9032 8.98169 17.1649C7.94002 17.0765 7.02169 16.8132 6.24002 16.3815C6.24002 17.9299 6.69502 19.2232 7.60669 20.3615C8.49228 21.4708 9.74032 22.2326 11.1317 22.5132C10.6117 22.6465 10.0634 22.7099 9.50002 22.7099C8.98002 22.7099 8.61169 22.6665 8.39335 22.5715C8.77668 23.8332 9.50002 24.8565 10.545 25.6399C11.5781 26.4243 12.8347 26.8582 14.1317 26.8782C11.9117 28.6199 9.37335 29.4815 6.50169 29.4815C5.79835 29.4815 5.30002 29.4715 4.99835 29.4182C7.82669 31.2549 10.975 32.1665 14.4584 32.1665C18.0234 32.1665 21.1734 31.2632 23.915 29.4565C26.6567 27.6599 28.68 25.4432 29.98 22.8332C31.2656 20.3077 31.935 17.5137 31.9334 14.6799V13.8999C33.1316 13.0164 34.169 11.9334 35 10.6982C33.8777 11.1846 32.6948 11.5171 31.4834 11.6865Z" fill="#F5F5F5"/>
</svg>
